<svg width="20" height="20" viewBox="0 0 20 20" fill="none" xmlns="http://www.w3.org/2000/svg">
<g clip-path="url(#clip0_19701_49010)">
<path d="M17.6766 13.2427C17.1465 14.4964 16.3173 15.6012 15.2615 16.4605C14.2058 17.3197 12.9556 17.9072 11.6203 18.1717C10.2851 18.4362 8.90532 18.3695 7.60176 17.9775C6.2982 17.5856 5.11049 16.8803 4.14249 15.9233C3.17448 14.9662 2.45565 13.7867 2.04883 12.4877C1.64202 11.1887 1.55961 9.80978 1.8088 8.47157C2.058 7.13336 2.63122 5.87656 3.47834 4.81107C4.32547 3.74557 5.42071 2.90381 6.66831 2.35938" stroke="#88A1AC" stroke-width="2" stroke-linecap="round" stroke-linejoin="round"/>
<path d="M18.3333 10.0013C18.3333 8.90695 18.1178 7.82332 17.699 6.81227C17.2802 5.80123 16.6664 4.88257 15.8926 4.10875C15.1187 3.33492 14.2001 2.7211 13.189 2.30231C12.178 1.88352 11.0943 1.66797 10 1.66797V10.0013H18.3333Z" stroke="#88A1AC" stroke-width="2" stroke-linecap="round" stroke-linejoin="round"/>
</g>
<defs>
<clipPath id="clip0_19701_49010">
<rect width="20" height="20" fill="white"/>
</clipPath>
</defs>
</svg>
