<svg width="20" height="20" viewBox="0 0 20 20" fill="none" xmlns="http://www.w3.org/2000/svg">
<path d="M2.5 4.16667L2.5 15.8333C2.5 16.7538 3.24619 17.5 4.16667 17.5L15.8333 17.5C16.7538 17.5 17.5 16.7538 17.5 15.8333V4.16667C17.5 3.24619 16.7538 2.5 15.8333 2.5L4.16667 2.5C3.24619 2.5 2.5 3.24619 2.5 4.16667Z" stroke="#88A1AC" stroke-width="2" stroke-linecap="round" stroke-linejoin="round"/>
<path d="M5.83203 11.668L5.83203 14.168L13.332 14.168V11.668L5.83203 11.668Z" stroke="#88A1AC" stroke-linecap="round" stroke-linejoin="round"/>
<path d="M6 12V14H10V12H6Z" fill="#88A1AC" stroke="#88A1AC" stroke-linecap="round" stroke-linejoin="round"/>
<path d="M6 6V8L13 8V6L6 6Z" stroke="#88A1AC" stroke-linecap="round" stroke-linejoin="round"/>
<path d="M6 6V8H8V6H6Z" fill="#88A1AC" stroke="#88A1AC" stroke-linecap="round" stroke-linejoin="round"/>
</svg>
