<svg width="137" height="27" viewBox="0 0 137 27" fill="none" xmlns="http://www.w3.org/2000/svg">
<path d="M13.5 1H122.674C129.577 1 135.174 6.59644 135.174 13.5C135.174 20.4036 129.577 26 122.674 26H13.5C6.59644 26 1 20.4036 1 13.5C1 6.59644 6.59644 1 13.5 1Z" stroke="black" stroke-opacity="0.1" stroke-width="2"/>
<path fill-rule="evenodd" clip-rule="evenodd" d="M112.747 9.14027C112.714 9.23125 112.695 9.33929 112.695 9.46267V17.5378C112.695 17.6615 112.714 17.7696 112.747 17.8606L116.997 13.5002L112.747 9.14027ZM113.042 18.1704C113.196 18.2233 113.389 18.1957 113.6 18.0734L118.608 15.1535L117.295 13.8062L113.042 18.1704ZM118.989 14.932L120.54 14.0278C121.037 13.7376 121.037 13.2633 120.54 12.9734L118.988 12.0688L117.593 13.5001L118.989 14.932ZM118.608 11.847L113.6 8.9274C113.389 8.80483 113.195 8.77733 113.042 8.83042L117.295 13.1941L118.608 11.847Z" fill="black"/>
<path d="M17.4508 17.0213H15.3779V10.6182H17.5165C18.1439 10.6182 18.6827 10.7464 19.1329 11.0027C19.5831 11.257 19.9281 11.6228 20.1678 12.1001C20.4096 12.5754 20.5305 13.1455 20.5305 13.8104C20.5305 14.4774 20.4085 15.0506 20.1647 15.53C19.9229 16.0094 19.5727 16.3783 19.1141 16.6368C18.6556 16.8931 18.1011 17.0213 17.4508 17.0213ZM16.344 16.1772H17.3977C17.8854 16.1772 18.2908 16.0854 18.6139 15.902C18.937 15.7165 19.1788 15.4487 19.3393 15.0985C19.4998 14.7462 19.58 14.3169 19.58 13.8104C19.58 13.308 19.4998 12.8818 19.3393 12.5316C19.1808 12.1814 18.9443 11.9157 18.6295 11.7343C18.3148 11.553 17.924 11.4623 17.4571 11.4623H16.344V16.1772Z" fill="black"/>
<path d="M23.6797 17.1182C23.2295 17.1182 22.8366 17.0151 22.501 16.8087C22.1654 16.6024 21.9049 16.3137 21.7193 15.9427C21.5338 15.5717 21.4411 15.1381 21.4411 14.642C21.4411 14.1439 21.5338 13.7082 21.7193 13.3351C21.9049 12.962 22.1654 12.6723 22.501 12.466C22.8366 12.2596 23.2295 12.1564 23.6797 12.1564C24.1299 12.1564 24.5228 12.2596 24.8584 12.466C25.194 12.6723 25.4545 12.962 25.64 13.3351C25.8255 13.7082 25.9183 14.1439 25.9183 14.642C25.9183 15.1381 25.8255 15.5717 25.64 15.9427C25.4545 16.3137 25.194 16.6024 24.8584 16.8087C24.5228 17.0151 24.1299 17.1182 23.6797 17.1182ZM23.6828 16.3335C23.9746 16.3335 24.2164 16.2564 24.4082 16.1021C24.5999 15.9479 24.7417 15.7426 24.8334 15.4862C24.9272 15.2298 24.9741 14.9474 24.9741 14.6389C24.9741 14.3325 24.9272 14.0511 24.8334 13.7947C24.7417 13.5363 24.5999 13.3289 24.4082 13.1726C24.2164 13.0162 23.9746 12.9381 23.6828 12.9381C23.3889 12.9381 23.145 13.0162 22.9512 13.1726C22.7594 13.3289 22.6167 13.5363 22.5229 13.7947C22.4312 14.0511 22.3853 14.3325 22.3853 14.6389C22.3853 14.9474 22.4312 15.2298 22.5229 15.4862C22.6167 15.7426 22.7594 15.9479 22.9512 16.1021C23.145 16.2564 23.3889 16.3335 23.6828 16.3335Z" fill="black"/>
<path d="M27.8567 17.0213L26.4436 12.219H27.4097L28.3507 15.7457H28.3976L29.3419 12.219H30.308L31.2459 15.7301H31.2928L32.2277 12.219H33.1938L31.7837 17.0213H30.8301L29.8546 13.554H29.7827L28.8072 17.0213H27.8567Z" fill="black"/>
<path d="M35.0158 14.1699V17.0213H34.0809V12.219H34.9782V13.0006H35.0376C35.1481 12.7463 35.3211 12.542 35.5566 12.3878C35.7943 12.2335 36.0934 12.1564 36.454 12.1564C36.7812 12.1564 37.0678 12.2252 37.3138 12.3628C37.5597 12.4983 37.7504 12.7004 37.8859 12.9693C38.0214 13.2382 38.0891 13.5707 38.0891 13.9667V17.0213H37.1543V14.0792C37.1543 13.7312 37.0636 13.4592 36.8823 13.2632C36.701 13.0652 36.4519 12.9662 36.1351 12.9662C35.9183 12.9662 35.7255 13.0131 35.5566 13.1069C35.3899 13.2007 35.2575 13.3383 35.1596 13.5196C35.0637 13.6989 35.0158 13.9156 35.0158 14.1699Z" fill="black"/>
<path d="M40.2777 10.6182V17.0213H39.3429V10.6182H40.2777Z" fill="black"/>
<path d="M43.5583 17.1182C43.108 17.1182 42.7151 17.0151 42.3795 16.8087C42.044 16.6024 41.7834 16.3137 41.5979 15.9427C41.4124 15.5717 41.3196 15.1381 41.3196 14.642C41.3196 14.1439 41.4124 13.7082 41.5979 13.3351C41.7834 12.962 42.044 12.6723 42.3795 12.466C42.7151 12.2596 43.108 12.1564 43.5583 12.1564C44.0085 12.1564 44.4014 12.2596 44.737 12.466C45.0725 12.6723 45.3331 12.962 45.5186 13.3351C45.7041 13.7082 45.7969 14.1439 45.7969 14.642C45.7969 15.1381 45.7041 15.5717 45.5186 15.9427C45.3331 16.3137 45.0725 16.6024 44.737 16.8087C44.4014 17.0151 44.0085 17.1182 43.5583 17.1182ZM43.5614 16.3335C43.8532 16.3335 44.095 16.2564 44.2867 16.1021C44.4785 15.9479 44.6202 15.7426 44.7119 15.4862C44.8057 15.2298 44.8526 14.9474 44.8526 14.6389C44.8526 14.3325 44.8057 14.0511 44.7119 13.7947C44.6202 13.5363 44.4785 13.3289 44.2867 13.1726C44.095 13.0162 43.8532 12.9381 43.5614 12.9381C43.2675 12.9381 43.0236 13.0162 42.8298 13.1726C42.638 13.3289 42.4952 13.5363 42.4014 13.7947C42.3097 14.0511 42.2639 14.3325 42.2639 14.6389C42.2639 14.9474 42.3097 15.2298 42.4014 15.4862C42.4952 15.7426 42.638 15.9479 42.8298 16.1021C43.0236 16.2564 43.2675 16.3335 43.5614 16.3335Z" fill="black"/>
<path d="M48.2379 17.1276C47.9336 17.1276 47.6585 17.0714 47.4125 16.9588C47.1665 16.8442 46.9717 16.6784 46.8278 16.4617C46.6861 16.2449 46.6152 15.9791 46.6152 15.6644C46.6152 15.3934 46.6673 15.1704 46.7716 14.9953C46.8758 14.8202 47.0165 14.6816 47.1936 14.5795C47.3708 14.4774 47.5688 14.4002 47.7877 14.3481C48.0065 14.296 48.2296 14.2564 48.4568 14.2293C48.7444 14.196 48.9779 14.1689 49.1571 14.148C49.3364 14.1251 49.4666 14.0886 49.5479 14.0386C49.6292 13.9886 49.6699 13.9073 49.6699 13.7947V13.7728C49.6699 13.4998 49.5927 13.2882 49.4385 13.1382C49.2863 12.9881 49.0591 12.913 48.7569 12.913C48.4422 12.913 48.1941 12.9829 48.0128 13.1225C47.8335 13.2601 47.7095 13.4133 47.6407 13.5821L46.7622 13.382C46.8664 13.0902 47.0186 12.8547 47.2187 12.6754C47.4208 12.4941 47.6532 12.3628 47.9159 12.2815C48.1785 12.1981 48.4547 12.1564 48.7444 12.1564C48.9362 12.1564 49.1394 12.1794 49.3541 12.2252C49.5709 12.269 49.773 12.3503 49.9606 12.4691C50.1503 12.5879 50.3056 12.7578 50.4265 12.9787C50.5474 13.1976 50.6078 13.4821 50.6078 13.8323V17.0213H49.6949V16.3648H49.6574C49.5969 16.4856 49.5062 16.6045 49.3853 16.7212C49.2645 16.8379 49.1092 16.9348 48.9195 17.0119C48.7298 17.0891 48.5026 17.1276 48.2379 17.1276ZM48.4411 16.3773C48.6996 16.3773 48.9205 16.3262 49.104 16.2241C49.2895 16.1219 49.4302 15.9885 49.526 15.8239C49.624 15.6571 49.673 15.4789 49.673 15.2892V14.6702C49.6396 14.7035 49.575 14.7348 49.4791 14.764C49.3853 14.7911 49.278 14.815 49.1571 14.8359C49.0362 14.8546 48.9184 14.8723 48.8038 14.889C48.6892 14.9036 48.5933 14.9161 48.5162 14.9265C48.3348 14.9495 48.1691 14.988 48.019 15.0422C47.8711 15.0964 47.7523 15.1746 47.6626 15.2767C47.5751 15.3768 47.5313 15.5102 47.5313 15.6769C47.5313 15.9083 47.6168 16.0834 47.7877 16.2022C47.9586 16.3189 48.1764 16.3773 48.4411 16.3773Z" fill="black"/>
<path d="M53.6507 17.1151C53.263 17.1151 52.917 17.0161 52.6127 16.8181C52.3105 16.618 52.0729 16.3335 51.8999 15.9646C51.729 15.5935 51.6435 15.1485 51.6435 14.6295C51.6435 14.1105 51.73 13.6665 51.903 13.2976C52.0781 12.9287 52.3178 12.6462 52.6221 12.4503C52.9264 12.2544 53.2714 12.1564 53.657 12.1564C53.9551 12.1564 54.1948 12.2064 54.3761 12.3065C54.5595 12.4045 54.7013 12.5191 54.8013 12.6504C54.9034 12.7817 54.9826 12.8974 55.0389 12.9975H55.0952V10.6182H56.03V17.0213H55.1171V16.2741H55.0389C54.9826 16.3762 54.9014 16.4929 54.7951 16.6243C54.6908 16.7556 54.547 16.8702 54.3636 16.9682C54.1802 17.0661 53.9425 17.1151 53.6507 17.1151ZM53.8571 16.3179C54.126 16.3179 54.3532 16.247 54.5387 16.1052C54.7263 15.9614 54.868 15.7624 54.9639 15.5081C55.0619 15.2538 55.1108 14.9578 55.1108 14.6201C55.1108 14.2866 55.0629 13.9948 54.967 13.7447C54.8711 13.4946 54.7304 13.2997 54.5449 13.16C54.3594 13.0204 54.1301 12.9506 53.8571 12.9506C53.5757 12.9506 53.3412 13.0235 53.1536 13.1694C52.966 13.3153 52.8243 13.5144 52.7284 13.7666C52.6346 14.0188 52.5877 14.3033 52.5877 14.6201C52.5877 14.9411 52.6357 15.2298 52.7315 15.4862C52.8274 15.7426 52.9691 15.9458 53.1567 16.0959C53.3464 16.2439 53.5799 16.3179 53.8571 16.3179Z" fill="black"/>
<path d="M61.9361 12.219V12.9693H59.3129V12.219H61.9361ZM60.0164 11.0684H60.9512V15.6113C60.9512 15.7926 60.9783 15.9291 61.0325 16.0208C61.0867 16.1105 61.1565 16.1719 61.242 16.2053C61.3295 16.2366 61.4244 16.2522 61.5265 16.2522C61.6015 16.2522 61.6672 16.247 61.7235 16.2366C61.7798 16.2261 61.8235 16.2178 61.8548 16.2116L62.0236 16.9838C61.9694 17.0047 61.8923 17.0255 61.7923 17.0463C61.6922 17.0693 61.5671 17.0818 61.4171 17.0839C61.1711 17.088 60.9418 17.0443 60.7292 16.9525C60.5166 16.8608 60.3447 16.7191 60.2134 16.5273C60.082 16.3356 60.0164 16.0948 60.0164 15.8051V11.0684Z" fill="black"/>
<path d="M64.0082 14.1699V17.0213H63.0734V10.6182H63.9957V13.0006H64.0551C64.1676 12.7421 64.3396 12.5368 64.571 12.3847C64.8023 12.2325 65.1046 12.1564 65.4777 12.1564C65.807 12.1564 66.0946 12.2242 66.3406 12.3596C66.5886 12.4951 66.7804 12.6973 66.9159 12.9662C67.0534 13.233 67.1222 13.5665 67.1222 13.9667V17.0213H66.1874V14.0792C66.1874 13.727 66.0967 13.4539 65.9154 13.2601C65.734 13.0642 65.4818 12.9662 65.1588 12.9662C64.9378 12.9662 64.7398 13.0131 64.5647 13.1069C64.3917 13.2007 64.2552 13.3383 64.1551 13.5196C64.0572 13.6989 64.0082 13.9156 64.0082 14.1699Z" fill="black"/>
<path d="M70.4395 17.1182C69.9663 17.1182 69.5588 17.0172 69.217 16.815C68.8773 16.6107 68.6146 16.3241 68.4291 15.9552C68.2457 15.5842 68.154 15.1496 68.154 14.6514C68.154 14.1595 68.2457 13.7259 68.4291 13.3508C68.6146 12.9756 68.8731 12.6827 69.2045 12.4722C69.538 12.2617 69.9278 12.1564 70.3738 12.1564C70.6448 12.1564 70.9074 12.2012 71.1617 12.2909C71.416 12.3805 71.6443 12.5212 71.8464 12.7129C72.0486 12.9047 72.2081 13.1538 72.3248 13.4602C72.4415 13.7645 72.4999 14.1345 72.4999 14.5701V14.9015H68.6824V14.2012H71.5838C71.5838 13.9552 71.5338 13.7374 71.4337 13.5477C71.3337 13.356 71.193 13.2049 71.0117 13.0944C70.8324 12.9839 70.6219 12.9287 70.3801 12.9287C70.1175 12.9287 69.8882 12.9933 69.6923 13.1225C69.4984 13.2497 69.3483 13.4164 69.242 13.6228C69.1378 13.827 69.0857 14.049 69.0857 14.2887V14.8359C69.0857 15.1569 69.142 15.4299 69.2545 15.655C69.3692 15.8801 69.5286 16.0521 69.7329 16.1709C69.9372 16.2876 70.1758 16.346 70.4489 16.346C70.626 16.346 70.7876 16.321 70.9335 16.271C71.0794 16.2188 71.2055 16.1417 71.3118 16.0396C71.4181 15.9375 71.4994 15.8114 71.5557 15.6613L72.4405 15.8207C72.3696 16.0813 72.2425 16.3095 72.059 16.5054C71.8777 16.6993 71.6495 16.8504 71.3743 16.9588C71.1013 17.0651 70.7897 17.1182 70.4395 17.1182Z" fill="black"/>
<path d="M76.4831 17.0213H75.4576L77.7619 10.6182H78.878L81.1823 17.0213H80.1568L78.3465 11.7812H78.2965L76.4831 17.0213ZM76.6551 14.5138H79.9817V15.3267H76.6551V14.5138Z" fill="black"/>
<path d="M82.0319 18.8222V12.219H82.9449V12.9975H83.023C83.0772 12.8974 83.1554 12.7817 83.2575 12.6504C83.3597 12.5191 83.5014 12.4045 83.6828 12.3065C83.8641 12.2064 84.1038 12.1564 84.4019 12.1564C84.7895 12.1564 85.1356 12.2544 85.4399 12.4503C85.7442 12.6462 85.9828 12.9287 86.1558 13.2976C86.3309 13.6665 86.4185 14.1105 86.4185 14.6295C86.4185 15.1485 86.332 15.5935 86.159 15.9646C85.986 16.3335 85.7484 16.618 85.4461 16.8181C85.1439 17.0161 84.7989 17.1151 84.4112 17.1151C84.1194 17.1151 83.8808 17.0661 83.6953 16.9682C83.5118 16.8702 83.368 16.7556 83.2638 16.6243C83.1596 16.4929 83.0793 16.3762 83.023 16.2741H82.9668V18.8222H82.0319ZM82.948 14.6201C82.948 14.9578 82.997 15.2538 83.095 15.5081C83.1929 15.7624 83.3347 15.9614 83.5202 16.1052C83.7057 16.247 83.9329 16.3179 84.2018 16.3179C84.4811 16.3179 84.7145 16.2439 84.9021 16.0959C85.0897 15.9458 85.2314 15.7426 85.3273 15.4862C85.4253 15.2298 85.4743 14.9411 85.4743 14.6201C85.4743 14.3033 85.4263 14.0188 85.3304 13.7666C85.2366 13.5144 85.0949 13.3153 84.9052 13.1694C84.7176 13.0235 84.4831 12.9506 84.2018 12.9506C83.9308 12.9506 83.7015 13.0204 83.5139 13.16C83.3284 13.2997 83.1877 13.4946 83.0918 13.7447C82.996 13.9948 82.948 14.2866 82.948 14.6201Z" fill="black"/>
<path d="M87.4659 18.8222V12.219H88.3788V12.9975H88.457C88.5112 12.8974 88.5893 12.7817 88.6915 12.6504C88.7936 12.5191 88.9353 12.4045 89.1167 12.3065C89.298 12.2064 89.5377 12.1564 89.8358 12.1564C90.2235 12.1564 90.5695 12.2544 90.8738 12.4503C91.1781 12.6462 91.4168 12.9287 91.5898 13.2976C91.7649 13.6665 91.8524 14.1105 91.8524 14.6295C91.8524 15.1485 91.7659 15.5935 91.5929 15.9646C91.4199 16.3335 91.1823 16.618 90.8801 16.8181C90.5778 17.0161 90.2329 17.1151 89.8452 17.1151C89.5534 17.1151 89.3147 17.0661 89.1292 16.9682C88.9458 16.8702 88.8019 16.7556 88.6977 16.6243C88.5935 16.4929 88.5133 16.3762 88.457 16.2741H88.4007V18.8222H87.4659ZM88.382 14.6201C88.382 14.9578 88.4309 15.2538 88.5289 15.5081C88.6269 15.7624 88.7686 15.9614 88.9541 16.1052C89.1396 16.247 89.3668 16.3179 89.6357 16.3179C89.915 16.3179 90.1484 16.2439 90.336 16.0959C90.5236 15.9458 90.6654 15.7426 90.7613 15.4862C90.8592 15.2298 90.9082 14.9411 90.9082 14.6201C90.9082 14.3033 90.8603 14.0188 90.7644 13.7666C90.6706 13.5144 90.5288 13.3153 90.3392 13.1694C90.1516 13.0235 89.9171 12.9506 89.6357 12.9506C89.3647 12.9506 89.1354 13.0204 88.9479 13.16C88.7623 13.2997 88.6217 13.4946 88.5258 13.7447C88.4299 13.9948 88.382 14.2866 88.382 14.6201Z" fill="black"/>
<path d="M104.865 17.8178C104.336 18.3122 103.753 18.2351 103.198 18.002C102.607 17.7642 102.066 17.7492 101.442 18.002C100.665 18.3253 100.253 18.2313 99.7848 17.8178C97.1423 15.1956 97.5323 11.2013 100.536 11.0509C101.264 11.0885 101.774 11.4391 102.203 11.4682C102.841 11.3432 103.451 10.9851 104.134 11.0321C104.954 11.096 105.567 11.4081 105.977 11.9691C104.29 12.9466 104.689 15.0894 106.239 15.6909C105.929 16.4757 105.531 17.2511 104.864 17.8244L104.865 17.8178ZM102.144 11.0227C102.066 9.85731 103.045 8.89867 104.173 8.80469C104.328 10.1487 102.905 11.1543 102.144 11.0227Z" fill="black"/>
</svg>
