<svg width="18" height="18" viewBox="0 0 18 18" fill="none" xmlns="http://www.w3.org/2000/svg">
<g opacity="0.7" clip-path="url(#clip0_2978_16975)">
<path d="M17.6425 9.2067C17.6425 8.59491 17.5929 7.9798 17.4871 7.37793H8.99805V10.8437H13.8593C13.6576 11.9614 13.0094 12.9502 12.0603 13.5786V15.8273H14.9605C16.6636 14.2598 17.6425 11.9449 17.6425 9.2067Z" fill="#4285F4"/>
<path d="M8.9977 18C11.425 18 13.4721 17.203 14.9635 15.8273L12.0633 13.5786C11.2564 14.1275 10.2147 14.4384 9.00101 14.4384C6.65304 14.4384 4.66223 12.8543 3.94791 10.7246H0.955078V13.0428C2.48291 16.0819 5.5948 18 8.9977 18Z" fill="#34A853"/>
<path d="M3.94495 10.725C3.56795 9.60727 3.56795 8.39691 3.94495 7.27914V4.96094H0.955423C-0.321079 7.50402 -0.321079 10.5002 0.955423 13.0432L3.94495 10.725Z" fill="#FBBC04"/>
<path d="M8.9977 3.56225C10.2808 3.5424 11.5209 4.02523 12.4502 4.9115L15.0197 2.34196C13.3927 0.814129 11.2332 -0.0258495 8.9977 0.0006065C5.5948 0.0006065 2.48291 1.91867 0.955078 4.96111L3.94461 7.27931C4.65561 5.1463 6.64973 3.56225 8.9977 3.56225Z" fill="#EA4335"/>
</g>
<defs>
<clipPath id="clip0_2978_16975">
<rect width="17.6428" height="18" fill="white"/>
</clipPath>
</defs>
</svg>
