<svg width="27" height="27" viewBox="0 0 27 27" fill="none" xmlns="http://www.w3.org/2000/svg">
<path d="M2.95313 19.4063C2.61937 19.4063 2.29311 19.3073 2.0156 19.1219C1.73809 18.9364 1.5218 18.6729 1.39408 18.3645C1.26636 18.0562 1.23294 17.7169 1.29805 17.3895C1.36316 17.0622 1.52388 16.7615 1.75988 16.5255C1.99588 16.2895 2.29657 16.1288 2.62391 16.0637C2.95125 15.9986 3.29055 16.032 3.5989 16.1597C3.90725 16.2874 4.17081 16.5037 4.35623 16.7812C4.54166 17.0587 4.64063 17.385 4.64063 17.7188C4.64011 18.1661 4.46215 18.5951 4.1458 18.9114C3.82944 19.2278 3.40052 19.4057 2.95313 19.4063ZM2.95313 16.875C2.78625 16.875 2.62312 16.9245 2.48436 17.0172C2.34561 17.1099 2.23746 17.2417 2.1736 17.3959C2.10974 17.55 2.09303 17.7197 2.12559 17.8834C2.15814 18.047 2.2385 18.1974 2.3565 18.3154C2.4745 18.4334 2.62485 18.5137 2.78852 18.5463C2.95219 18.5788 3.12184 18.5621 3.27602 18.4983C3.43019 18.4344 3.56197 18.3263 3.65468 18.1875C3.74739 18.0488 3.79688 17.8856 3.79688 17.7188C3.79662 17.4951 3.70765 17.2806 3.54947 17.1224C3.39129 16.9642 3.17683 16.8753 2.95313 16.875Z" fill="#88A1AC"/>
<path d="M3.79688 6.32813C3.46312 6.32813 3.13686 6.22916 2.85935 6.04373C2.58184 5.85831 2.36555 5.59475 2.23783 5.2864C2.11011 4.97805 2.07669 4.63875 2.1418 4.31141C2.20691 3.98407 2.36763 3.68338 2.60363 3.44738C2.83963 3.21138 3.14032 3.05066 3.46766 2.98555C3.795 2.92044 4.1343 2.95386 4.44265 3.08158C4.751 3.2093 5.01456 3.42559 5.19998 3.7031C5.38541 3.98061 5.48438 4.30687 5.48438 4.64063C5.48386 5.08802 5.3059 5.51694 4.98955 5.8333C4.67319 6.14965 4.24427 6.32761 3.79688 6.32813ZM3.79688 3.79688C3.63 3.79688 3.46687 3.84636 3.32811 3.93907C3.18936 4.03179 3.08121 4.16356 3.01735 4.31774C2.95349 4.47191 2.93678 4.64156 2.96934 4.80523C3.00189 4.9689 3.08225 5.11925 3.20025 5.23725C3.31825 5.35525 3.4686 5.43561 3.63227 5.46816C3.79594 5.50072 3.96559 5.48401 4.11977 5.42015C4.27394 5.35629 4.40572 5.24814 4.49843 5.10939C4.59114 4.97063 4.64063 4.8075 4.64063 4.64063C4.64037 4.41693 4.5514 4.20246 4.39322 4.04428C4.23504 3.8861 4.02058 3.79713 3.79688 3.79688Z" fill="#88A1AC"/>
<path d="M2.95313 12.6563C2.61937 12.6563 2.29311 12.5573 2.0156 12.3719C1.73809 12.1864 1.5218 11.9229 1.39408 11.6145C1.26636 11.3062 1.23294 10.9669 1.29805 10.6395C1.36316 10.3122 1.52388 10.0115 1.75988 9.77551C1.99588 9.53951 2.29657 9.37879 2.62391 9.31368C2.95125 9.24856 3.29055 9.28198 3.5989 9.4097C3.90725 9.53743 4.17081 9.75372 4.35623 10.0312C4.54166 10.3087 4.64063 10.635 4.64063 10.9688C4.64011 11.4161 4.46215 11.8451 4.1458 12.1614C3.82944 12.4778 3.40052 12.6557 2.95313 12.6563ZM2.95313 10.125C2.78625 10.125 2.62312 10.1745 2.48436 10.2672C2.34561 10.3599 2.23746 10.4917 2.1736 10.6459C2.10974 10.8 2.09303 10.9697 2.12559 11.1334C2.15814 11.297 2.2385 11.4474 2.3565 11.5654C2.4745 11.6834 2.62485 11.7637 2.78852 11.7963C2.95219 11.8288 3.12184 11.8121 3.27602 11.7483C3.43019 11.6844 3.56197 11.5763 3.65468 11.4375C3.74739 11.2988 3.79688 11.1356 3.79688 10.9688C3.79662 10.7451 3.70765 10.5306 3.54947 10.3724C3.39129 10.2142 3.17683 10.1253 2.95313 10.125Z" fill="#88A1AC"/>
<path d="M5.90625 25.7344C5.5725 25.7344 5.24623 25.6354 4.96873 25.45C4.69122 25.2646 4.47493 25.001 4.3472 24.6927C4.21948 24.3843 4.18606 24.045 4.25118 23.7177C4.31629 23.3903 4.47701 23.0896 4.71301 22.8536C4.94901 22.6176 5.24969 22.4569 5.57704 22.3918C5.90438 22.3267 6.24368 22.3601 6.55203 22.4878C6.86038 22.6156 7.12393 22.8318 7.30936 23.1094C7.49478 23.3869 7.59375 23.7131 7.59375 24.0469C7.59323 24.4943 7.41528 24.9232 7.09892 25.2395C6.78257 25.5559 6.35365 25.7339 5.90625 25.7344ZM5.90625 23.2031C5.73937 23.2031 5.57624 23.2526 5.43749 23.3453C5.29873 23.438 5.19059 23.5698 5.12673 23.724C5.06287 23.8782 5.04616 24.0478 5.07871 24.2115C5.11127 24.3752 5.19163 24.5255 5.30963 24.6435C5.42763 24.7615 5.57797 24.8419 5.74164 24.8744C5.90532 24.907 6.07497 24.8903 6.22914 24.8264C6.38332 24.7625 6.51509 24.6544 6.6078 24.5156C6.70052 24.3769 6.75 24.2138 6.75 24.0469C6.74975 23.8232 6.66077 23.6087 6.5026 23.4505C6.34442 23.2924 6.12995 23.2034 5.90625 23.2031Z" fill="#88A1AC"/>
<path d="M3.90158 16.8042L3.16895 16.3857L4.6964 13.7126C4.73718 13.6411 4.79802 13.5831 4.8714 13.5458C4.94478 13.5085 5.02749 13.4935 5.10931 13.5026L9.34266 13.973L9.24943 14.8115L5.29145 14.3717L3.90158 16.8042Z" fill="#88A1AC"/>
<path d="M6.32812 22.7796H5.48438V18.9827C5.48438 18.9156 5.50042 18.8494 5.53115 18.7897C5.56189 18.73 5.60643 18.6785 5.66109 18.6394L9.00635 16.25L9.49678 16.9366L6.32812 19.1999V22.7796Z" fill="#88A1AC"/>
<path d="M9.66585 11.7838L4.89144 9.66612C4.83534 9.64125 4.78534 9.60444 4.74493 9.55827C4.70452 9.51209 4.67467 9.45765 4.65746 9.39875L3.66357 5.99417L4.47352 5.75781L5.41256 8.97461L10.0079 11.0128L9.66585 11.7838Z" fill="#88A1AC"/>
<path d="M24.0469 19.4063C23.7131 19.4063 23.3869 19.3073 23.1094 19.1219C22.8318 18.9364 22.6156 18.6729 22.4878 18.3645C22.3601 18.0562 22.3267 17.7169 22.3918 17.3895C22.4569 17.0622 22.6176 16.7615 22.8536 16.5255C23.0896 16.2895 23.3903 16.1288 23.7177 16.0637C24.045 15.9986 24.3843 16.032 24.6927 16.1597C25.001 16.2874 25.2646 16.5037 25.45 16.7812C25.6354 17.0587 25.7344 17.385 25.7344 17.7188C25.7339 18.1661 25.5559 18.5951 25.2395 18.9114C24.9232 19.2278 24.4943 19.4057 24.0469 19.4063ZM24.0469 16.875C23.88 16.875 23.7169 16.9245 23.5781 17.0172C23.4394 17.1099 23.3312 17.2417 23.2674 17.3959C23.2035 17.55 23.1868 17.7197 23.2193 17.8834C23.2519 18.047 23.3323 18.1974 23.4503 18.3154C23.5683 18.4334 23.7186 18.5137 23.8823 18.5463C24.0459 18.5788 24.2156 18.5621 24.3698 18.4983C24.5239 18.4344 24.6557 18.3263 24.7484 18.1875C24.8411 18.0488 24.8906 17.8856 24.8906 17.7188C24.8904 17.4951 24.8014 17.2806 24.6432 17.1224C24.485 16.9642 24.2706 16.8753 24.0469 16.875Z" fill="#88A1AC"/>
<path d="M23.2031 6.32813C22.8694 6.32813 22.5431 6.22916 22.2656 6.04373C21.9881 5.85831 21.7718 5.59475 21.6441 5.2864C21.5164 4.97805 21.4829 4.63875 21.5481 4.31141C21.6132 3.98407 21.7739 3.68338 22.0099 3.44738C22.2459 3.21138 22.5466 3.05066 22.8739 2.98555C23.2013 2.92044 23.5406 2.95386 23.8489 3.08158C24.1573 3.2093 24.4208 3.42559 24.6062 3.7031C24.7917 3.98061 24.8906 4.30687 24.8906 4.64063C24.8901 5.08802 24.7122 5.51694 24.3958 5.8333C24.0794 6.14965 23.6505 6.32761 23.2031 6.32813ZM23.2031 3.79688C23.0362 3.79688 22.8731 3.84636 22.7344 3.93907C22.5956 4.03179 22.4875 4.16356 22.4236 4.31774C22.3597 4.47191 22.343 4.64156 22.3756 4.80523C22.4081 4.9689 22.4885 5.11925 22.6065 5.23725C22.7245 5.35525 22.8748 5.43561 23.0385 5.46816C23.2022 5.50072 23.3718 5.48401 23.526 5.42015C23.6802 5.35629 23.812 5.24814 23.9047 5.10939C23.9974 4.97063 24.0469 4.8075 24.0469 4.64063C24.0466 4.41693 23.9576 4.20246 23.7995 4.04428C23.6413 3.8861 23.4268 3.79713 23.2031 3.79688Z" fill="#88A1AC"/>
<path d="M24.0469 12.6563C23.7131 12.6563 23.3869 12.5573 23.1094 12.3719C22.8318 12.1864 22.6156 11.9229 22.4878 11.6145C22.3601 11.3062 22.3267 10.9669 22.3918 10.6395C22.4569 10.3122 22.6176 10.0115 22.8536 9.77551C23.0896 9.53951 23.3903 9.37879 23.7177 9.31368C24.045 9.24856 24.3843 9.28198 24.6927 9.4097C25.001 9.53743 25.2646 9.75372 25.45 10.0312C25.6354 10.3087 25.7344 10.635 25.7344 10.9688C25.7339 11.4161 25.5559 11.8451 25.2395 12.1614C24.9232 12.4778 24.4943 12.6557 24.0469 12.6563ZM24.0469 10.125C23.88 10.125 23.7169 10.1745 23.5781 10.2672C23.4394 10.3599 23.3312 10.4917 23.2674 10.6459C23.2035 10.8 23.1868 10.9697 23.2193 11.1334C23.2519 11.297 23.3323 11.4474 23.4503 11.5654C23.5683 11.6834 23.7186 11.7637 23.8823 11.7963C24.0459 11.8288 24.2156 11.8121 24.3698 11.7483C24.5239 11.6844 24.6557 11.5763 24.7484 11.4375C24.8411 11.2988 24.8906 11.1356 24.8906 10.9688C24.8904 10.7451 24.8014 10.5306 24.6432 10.3724C24.485 10.2142 24.2706 10.1253 24.0469 10.125Z" fill="#88A1AC"/>
<path d="M21.0938 25.7344C20.76 25.7344 20.4337 25.6354 20.1562 25.45C19.8787 25.2646 19.6624 25.001 19.5347 24.6927C19.407 24.3843 19.3736 24.045 19.4387 23.7177C19.5038 23.3903 19.6645 23.0896 19.9005 22.8536C20.1365 22.6176 20.4372 22.4569 20.7645 22.3918C21.0919 22.3267 21.4312 22.3601 21.7395 22.4878C22.0479 22.6156 22.3114 22.8318 22.4969 23.1094C22.6823 23.3869 22.7813 23.7131 22.7813 24.0469C22.7807 24.4943 22.6028 24.9232 22.2864 25.2395C21.9701 25.5559 21.5411 25.7339 21.0938 25.7344ZM21.0938 23.2031C20.9269 23.2031 20.7637 23.2526 20.625 23.3453C20.4862 23.438 20.3781 23.5698 20.3142 23.724C20.2504 23.8782 20.2337 24.0478 20.2662 24.2115C20.2988 24.3752 20.3791 24.5255 20.4971 24.6435C20.6151 24.7615 20.7655 24.8419 20.9291 24.8744C21.0928 24.907 21.2625 24.8903 21.4166 24.8264C21.5708 24.7625 21.7026 24.6544 21.7953 24.5156C21.888 24.3769 21.9375 24.2138 21.9375 24.0469C21.9372 23.8232 21.8483 23.6087 21.6901 23.4505C21.5319 23.2924 21.3175 23.2034 21.0938 23.2031Z" fill="#88A1AC"/>
<path d="M23.0989 16.8042L21.709 14.3717L17.7954 14.8066L17.7021 13.9681L21.8912 13.5026C21.973 13.4934 22.0557 13.5084 22.1291 13.5457C22.2025 13.5831 22.2633 13.6411 22.3041 13.7126L23.8315 16.3857L23.0989 16.8042Z" fill="#88A1AC"/>
<path d="M21.5157 22.7796H20.672V19.1998L17.5034 16.9366L17.9938 16.25L21.3391 18.6394C21.3937 18.6785 21.4383 18.73 21.469 18.7897C21.4997 18.8494 21.5157 18.9156 21.5157 18.9827V22.7796Z" fill="#88A1AC"/>
<path d="M17.3342 11.7841L16.9922 11.0128L21.5876 8.97461L22.5266 5.75781L23.3366 5.99427L22.3426 9.39902C22.3254 9.45792 22.2956 9.51235 22.2551 9.55853C22.2147 9.60471 22.1647 9.64151 22.1086 9.66638L17.3342 11.7841Z" fill="#88A1AC"/>
<path d="M4.81518 8.93746L3.64893 9.78125L4.14351 10.4648L5.30976 9.62105L4.81518 8.93746Z" fill="#88A1AC"/>
<path d="M22.185 8.94139L21.6904 9.625L22.8567 10.4688L23.3513 9.78514L22.185 8.94139Z" fill="#88A1AC"/>
<path d="M12.385 6.12478L10.2937 4.55625C10.2414 4.51695 10.1988 4.466 10.1695 4.40742C10.1402 4.34884 10.125 4.28424 10.125 4.21875V1.6875H10.9688V4.00781L12.8913 5.44973L12.385 6.12478Z" fill="#708598"/>
<path d="M14.4564 6.24375L13.9502 5.56875L16.0315 4.00781V1.6875H16.8752V4.21875C16.8752 4.28424 16.86 4.34884 16.8307 4.40742C16.8014 4.466 16.7589 4.51695 16.7065 4.55625L14.4564 6.24375Z" fill="#708598"/>
<path d="M9.24291 12.6562C8.99298 12.3106 8.85874 11.8947 8.85938 11.4681C8.85937 10.8561 9.07563 10.2637 9.46997 9.79564C9.86431 9.32755 10.4114 9.01386 11.0145 8.90995L11.3082 8.85938H15.6917L15.9854 8.90995C16.5886 9.01385 17.1357 9.32753 17.53 9.79562C17.9244 10.2637 18.1406 10.8561 18.1406 11.4681C18.1413 11.8947 18.0071 12.3105 17.7572 12.6562" fill="#88A1AC"/>
<path d="M10.9653 11.8125H16.0347C16.5932 11.8125 17.1289 12.0344 17.5238 12.4293C17.9187 12.8243 18.1406 13.3599 18.1406 13.9184V19.7005C18.1406 20.8532 17.6827 21.9588 16.8676 22.7739C16.0525 23.589 14.947 24.0469 13.7943 24.0469H13.2057C12.053 24.0469 10.9475 23.589 10.1324 22.7739C9.31729 21.9588 8.85938 20.8532 8.85938 19.7005V13.9184C8.85938 13.3599 9.08125 12.8243 9.47619 12.4293C9.87113 12.0344 10.4068 11.8125 10.9653 11.8125Z" fill="#21728D"/>
<path d="M11.8125 21.5156C11.4787 21.5156 11.1525 21.4167 10.875 21.2312C10.5975 21.0458 10.3812 20.7823 10.2535 20.4739C10.1257 20.1656 10.0923 19.8263 10.1574 19.4989C10.2225 19.1716 10.3833 18.8709 10.6193 18.6349C10.8553 18.3989 11.1559 18.2382 11.4833 18.1731C11.8106 18.1079 12.1499 18.1414 12.4583 18.2691C12.7666 18.3968 13.0302 18.6131 13.2156 18.8906C13.401 19.1681 13.5 19.4944 13.5 19.8281C13.4995 20.2755 13.3215 20.7044 13.0052 21.0208C12.6888 21.3372 12.2599 21.5151 11.8125 21.5156ZM11.8125 18.9844C11.6456 18.9844 11.4825 19.0339 11.3437 19.1266C11.205 19.2193 11.0968 19.3511 11.033 19.5052C10.9691 19.6594 10.9524 19.8291 10.985 19.9927C11.0175 20.1564 11.0979 20.3067 11.2159 20.4247C11.3339 20.5427 11.4842 20.6231 11.6479 20.6557C11.8116 20.6882 11.9812 20.6715 12.1354 20.6076C12.2896 20.5438 12.4213 20.4356 12.5141 20.2969C12.6068 20.1581 12.6563 19.995 12.6563 19.8281C12.656 19.6044 12.567 19.39 12.4088 19.2318C12.2507 19.0736 12.0362 18.9846 11.8125 18.9844Z" fill="#77C5DF"/>
<path d="M15.6094 18.5625C15.2756 18.5625 14.9494 18.4635 14.6719 18.2781C14.3943 18.0927 14.1781 17.8291 14.0503 17.5208C13.9226 17.2124 13.8892 16.8731 13.9543 16.5458C14.0194 16.2184 14.1801 15.9178 14.4161 15.6818C14.6521 15.4458 14.9528 15.285 15.2802 15.2199C15.6075 15.1548 15.9468 15.1882 16.2552 15.316C16.5635 15.4437 16.8271 15.66 17.0125 15.9375C17.1979 16.215 17.2969 16.5412 17.2969 16.875C17.2964 17.3224 17.1184 17.7513 16.802 18.0677C16.4857 18.384 16.0568 18.562 15.6094 18.5625ZM15.6094 16.0313C15.4425 16.0313 15.2794 16.0807 15.1406 16.1734C15.0019 16.2662 14.8937 16.3979 14.8299 16.5521C14.766 16.7063 14.7493 16.8759 14.7818 17.0396C14.8144 17.2033 14.8948 17.3536 15.0128 17.4716C15.1308 17.5896 15.2811 17.67 15.4448 17.7025C15.6084 17.7351 15.7781 17.7184 15.9323 17.6545C16.0864 17.5907 16.2182 17.4825 16.3109 17.3438C16.4036 17.205 16.4531 17.0419 16.4531 16.875C16.4529 16.6513 16.3639 16.4368 16.2057 16.2787C16.0475 16.1205 15.8331 16.0315 15.6094 16.0313Z" fill="#77C5DF"/>
<path d="M16.0313 7.59441C16.0314 7.20609 15.9421 6.82295 15.7704 6.47464C15.5987 6.12633 15.3492 5.82219 15.0412 5.58576C14.7331 5.34933 14.3748 5.18694 13.9939 5.11116C13.6131 5.03539 13.2199 5.04825 12.8448 5.14876C12.4697 5.24928 12.1228 5.43474 11.8309 5.69081C11.5389 5.94687 11.3098 6.26667 11.1613 6.62546C11.0127 6.98424 10.9487 7.3724 10.9742 7.75988C10.9997 8.14737 11.114 8.5238 11.3083 8.86003H15.6918C15.9146 8.4755 16.0318 8.03885 16.0313 7.59441Z" fill="#88A1AC"/>
<path d="M12.2344 18.5625H11.3906V16.0312C11.3906 15.94 11.4202 15.8512 11.475 15.7781L12.6562 14.2031V11.8125H13.5V14.3438C13.5 14.435 13.4704 14.5238 13.4156 14.5969L12.2344 16.1719V18.5625Z" fill="#77C5DF"/>
<path d="M12.7501 14.7231L12.313 15.4453L14.2854 16.6389L14.7225 15.9167L12.7501 14.7231Z" fill="#77C5DF"/>
<path opacity="0.3" d="M13.5 5.0625C13.0557 5.06242 12.6191 5.17934 12.2343 5.4015C11.8495 5.62365 11.5299 5.94322 11.3077 6.32805C11.0856 6.71289 10.9687 7.14943 10.9688 7.59378C10.9689 8.03813 11.086 8.47463 11.3083 8.85938L11.0146 8.90995C10.4114 9.01384 9.86434 9.32753 9.46999 9.79562C9.07564 10.2637 8.85937 10.8561 8.85938 11.4681C8.85874 11.8947 8.99299 12.3106 9.24291 12.6562H9.2793C9.00603 13.0202 8.85863 13.4633 8.85938 13.9184V19.7006C8.85953 20.6093 9.14448 21.4952 9.67419 22.2337C10.2039 22.9721 10.9517 23.526 11.8125 23.8174V11.8125C11.7639 11.2712 11.8354 10.7259 12.0219 10.2154C12.2083 9.7049 12.5052 9.24188 12.8913 8.85938C12.6447 7.5615 12.8601 6.21825 13.5 5.0625Z" fill="#FCFCFC"/>
<path opacity="0.2" d="M13.5 5.0625C13.9444 5.06241 14.3809 5.17932 14.7657 5.40148C15.1506 5.62363 15.4701 5.94319 15.6923 6.32803C15.9144 6.71287 16.0314 7.14941 16.0313 7.59377C16.0312 8.03812 15.9141 8.47462 15.6918 8.85938L15.9855 8.90995C16.5886 9.01386 17.1357 9.32755 17.53 9.79564C17.9244 10.2637 18.1406 10.8561 18.1406 11.4681C18.1413 11.8947 18.007 12.3106 17.7571 12.6562H17.7207C17.994 13.0202 18.1414 13.4633 18.1406 13.9184V19.7006C18.1405 20.6093 17.8555 21.4952 17.3258 22.2337C16.7961 22.9721 16.0483 23.526 15.1875 23.8174V11.8125C15.2361 11.2712 15.1646 10.7259 14.9781 10.2154C14.7917 9.7049 14.4948 9.24188 14.1087 8.85938C14.3553 7.5615 14.1399 6.21825 13.5 5.0625Z" fill="#191500"/>
</svg>
