<svg width="16" height="16" viewBox="0 0 16 16" fill="none" xmlns="http://www.w3.org/2000/svg">
<g clip-path="url(#clip0_22379_4815)">
<path d="M1.50168 8.00051C1.5016 7.12633 1.67786 6.26111 2.01991 5.45663C2.36195 4.65214 2.86276 3.92492 3.49237 3.31846C4.12198 2.71201 4.86744 2.23878 5.68418 1.9271C6.50091 1.61542 7.37212 1.47169 8.24568 1.50451C8.34411 1.50812 8.44228 1.49231 8.53459 1.45798C8.62691 1.42365 8.71156 1.37147 8.78371 1.30443C8.85586 1.23739 8.9141 1.15679 8.9551 1.06724C8.99611 0.977684 9.01907 0.880933 9.02268 0.782508C9.02629 0.684082 9.01048 0.585909 8.97615 0.493593C8.94182 0.401278 8.88965 0.316628 8.8226 0.244477C8.75556 0.172325 8.67496 0.114086 8.58541 0.0730838C8.49586 0.0320814 8.39911 0.00911907 8.30068 0.00550772C6.8467 -0.0484673 5.40552 0.295108 4.13228 0.999254C2.85903 1.7034 1.80192 2.74145 1.07473 4.00168C0.347547 5.26191 -0.0221835 6.6966 0.00533792 8.15132C0.0328594 9.60605 0.45659 11.0257 1.23092 12.2575C2.00526 13.4894 3.10087 14.4867 4.39984 15.1422C5.69881 15.7977 7.15195 16.0865 8.60285 15.9775C10.0538 15.8686 11.4475 15.3661 12.634 14.524C13.8205 13.6819 14.755 12.5321 15.3367 11.1985C15.4162 11.0162 15.4201 10.8097 15.3474 10.6245C15.2748 10.4393 15.1315 10.2906 14.9492 10.211C14.7668 10.1314 14.5604 10.1276 14.3752 10.2002C14.19 10.2729 14.0412 10.4162 13.9617 10.5985C13.894 10.7522 13.8206 10.9033 13.7417 11.0515C13.061 12.3324 11.9715 13.3489 10.6465 13.9391C9.32143 14.5293 7.83704 14.6594 6.42956 14.3085C5.02209 13.9577 3.7724 13.1462 2.87942 12.0031C1.98643 10.86 1.50145 9.45105 1.50168 8.00051ZM10.7277 1.23851C10.8207 1.0629 10.9797 0.931404 11.1696 0.872905C11.3596 0.814405 11.5649 0.833684 11.7407 0.926508C11.9177 1.02051 12.0907 1.12051 12.2587 1.22651C12.3421 1.27897 12.4143 1.34734 12.4713 1.42773C12.5282 1.50811 12.5688 1.59892 12.5907 1.69498C12.6126 1.79105 12.6153 1.89048 12.5987 1.98759C12.5822 2.08471 12.5466 2.17762 12.4942 2.26101C12.4417 2.3444 12.3733 2.41664 12.293 2.4736C12.2126 2.53057 12.1218 2.57114 12.0257 2.59301C11.9296 2.61488 11.8302 2.61761 11.7331 2.60105C11.636 2.5845 11.5431 2.54897 11.4597 2.49651C11.3228 2.40998 11.1827 2.32859 11.0397 2.25251C10.9526 2.20643 10.8754 2.14365 10.8126 2.06775C10.7498 1.99185 10.7026 1.90431 10.6736 1.81015C10.6446 1.71598 10.6345 1.61703 10.6438 1.51895C10.6531 1.42086 10.6816 1.32557 10.7277 1.23851ZM13.7417 3.50851C13.91 3.40261 14.1134 3.36788 14.3073 3.41194C14.5012 3.45601 14.6697 3.57527 14.7757 3.74351C14.8817 3.91151 14.9817 4.08351 15.0757 4.26151C15.1218 4.34857 15.1503 4.44387 15.1595 4.54195C15.1688 4.64002 15.1587 4.73897 15.1297 4.83313C15.1007 4.92728 15.0535 5.01481 14.9907 5.09072C14.9279 5.16662 14.8507 5.22941 14.7637 5.27551C14.6766 5.3216 14.5813 5.3501 14.4832 5.35936C14.3852 5.36863 14.2862 5.35849 14.1921 5.32951C14.0979 5.30054 14.0104 5.25331 13.9345 5.19051C13.8586 5.12771 13.7958 5.05057 13.7497 4.96351C13.674 4.82017 13.5929 4.67974 13.5067 4.54251C13.4008 4.37421 13.366 4.17075 13.4101 3.97686C13.4542 3.78296 13.5734 3.6145 13.7417 3.50851ZM15.2187 6.97951C15.3171 6.9759 15.4153 6.99171 15.5076 7.02604C15.5999 7.06036 15.6846 7.11254 15.7567 7.17958C15.8289 7.24663 15.8871 7.32723 15.9281 7.41678C15.9691 7.50633 15.9921 7.60308 15.9957 7.70151C16.0027 7.88543 16.0033 8.06954 15.9977 8.25351C15.9914 8.45242 15.9065 8.64071 15.7614 8.77695C15.6163 8.9132 15.4231 8.98624 15.2242 8.98001C15.0253 8.97377 14.837 8.88878 14.7007 8.74372C14.5645 8.59866 14.4914 8.40542 14.4977 8.20651C14.5027 8.05655 14.5027 7.90647 14.4977 7.75651C14.4904 7.55789 14.5622 7.36451 14.6974 7.21882C14.8326 7.07313 15.0201 6.98706 15.2187 6.97951Z" fill="#FC9736"/>
<path d="M7.75 3C7.94891 3 8.13968 3.07902 8.28033 3.21967C8.42098 3.36032 8.5 3.55109 8.5 3.75V7.536L10.585 8.579C10.6739 8.62252 10.7533 8.68321 10.8186 8.75757C10.884 8.83193 10.9339 8.91849 10.9657 9.01225C10.9974 9.10601 11.0102 9.20512 11.0035 9.30387C10.9967 9.40262 10.9704 9.49906 10.9262 9.58762C10.882 9.67617 10.8207 9.75511 10.7459 9.81986C10.671 9.88461 10.584 9.9339 10.49 9.96489C10.396 9.99589 10.2968 10.008 10.1981 10.0004C10.0994 9.9929 10.0032 9.9659 9.915 9.921L7.415 8.671C7.29032 8.60875 7.18544 8.513 7.11214 8.39448C7.03884 8.27596 7 8.13936 7 8V3.75C7 3.55109 7.07902 3.36032 7.21967 3.21967C7.36032 3.07902 7.55109 3 7.75 3Z" fill="#FC9736"/>
</g>
<defs>
<clipPath id="clip0_22379_4815">
<rect width="16" height="16" fill="white"/>
</clipPath>
</defs>
</svg>
