<svg width="22" height="22" viewBox="0 0 22 22" fill="none" xmlns="http://www.w3.org/2000/svg">
<path d="M19.3004 10.9987H17.4671C17.224 10.9987 16.9908 11.0953 16.8189 11.2672C16.647 11.4391 16.5504 11.6723 16.5504 11.9154C16.5504 12.1585 16.647 12.3916 16.8189 12.5635C16.9908 12.7355 17.224 12.832 17.4671 12.832V14.6654H16.3815C16.4902 14.3718 16.5473 14.0617 16.5504 13.7487C16.5505 13.1433 16.3508 12.5548 15.9823 12.0745C15.6138 11.5942 15.0971 11.249 14.5123 11.0923C13.9276 10.9357 13.3075 10.9764 12.7482 11.2082C12.1889 11.4399 11.7218 11.8498 11.4193 12.3742C11.3585 12.4785 11.3189 12.5937 11.3028 12.7134C11.2867 12.833 11.2944 12.9546 11.3255 13.0713C11.3565 13.1879 11.4103 13.2973 11.4837 13.3931C11.5571 13.4889 11.6488 13.5693 11.7534 13.6296C11.8579 13.6899 11.9734 13.729 12.0931 13.7445C12.2128 13.7601 12.3344 13.7518 12.4509 13.7203C12.5674 13.6887 12.6766 13.6344 12.772 13.5606C12.8675 13.4867 12.9475 13.3947 13.0073 13.2899C13.0878 13.1508 13.2035 13.0353 13.3427 12.9549C13.4819 12.8746 13.6397 12.8322 13.8004 12.832C14.0436 12.832 14.2767 12.9286 14.4486 13.1005C14.6205 13.2724 14.7171 13.5056 14.7171 13.7487C14.7171 13.9918 14.6205 14.225 14.4486 14.3969C14.2767 14.5688 14.0436 14.6654 13.8004 14.6654C13.5573 14.6654 13.3242 14.7619 13.1523 14.9339C12.9804 15.1058 12.8838 15.3389 12.8838 15.582C12.8838 15.8252 12.9804 16.0583 13.1523 16.2302C13.3242 16.4021 13.5573 16.4987 13.8004 16.4987C14.0436 16.4987 14.2767 16.5953 14.4486 16.7672C14.6205 16.9391 14.7171 17.1723 14.7171 17.4154C14.7171 17.6585 14.6205 17.8916 14.4486 18.0636C14.2767 18.2355 14.0436 18.332 13.8004 18.332C13.6397 18.3319 13.4819 18.2895 13.3427 18.2091C13.2035 18.1288 13.0878 18.0133 13.0073 17.8742C12.9475 17.7693 12.8675 17.6773 12.772 17.6035C12.6766 17.5296 12.5674 17.4753 12.4509 17.4438C12.3344 17.4122 12.2128 17.404 12.0931 17.4195C11.9734 17.4351 11.8579 17.4741 11.7534 17.5344C11.6488 17.5947 11.5572 17.6751 11.4837 17.7709C11.4103 17.8667 11.3565 17.9761 11.3255 18.0928C11.2944 18.2094 11.2867 18.3311 11.3028 18.4507C11.3189 18.5703 11.3585 18.6856 11.4193 18.7899C11.7218 19.3143 12.1889 19.7241 12.7482 19.9559C13.3075 20.1876 13.9276 20.2284 14.5123 20.0717C15.0971 19.9151 15.6138 19.5698 15.9823 19.0895C16.3508 18.6092 16.5505 18.0207 16.5504 17.4154C16.5473 17.1024 16.4902 16.7923 16.3815 16.4987H17.4671V19.2487C17.4671 19.4918 17.5637 19.725 17.7356 19.8969C17.9075 20.0688 18.1407 20.1654 18.3838 20.1654C18.6269 20.1654 18.86 20.0688 19.032 19.8969C19.2039 19.725 19.3004 19.4918 19.3004 19.2487V12.832C19.5436 12.832 19.7767 12.7355 19.9486 12.5635C20.1205 12.3916 20.2171 12.1585 20.2171 11.9154C20.2171 11.6723 20.1205 11.4391 19.9486 11.2672C19.7767 11.0953 19.5436 10.9987 19.3004 10.9987ZM8.3282 10.3045C8.3872 10.5402 8.53743 10.7429 8.74586 10.8679C8.84906 10.9298 8.96343 10.9707 9.08246 10.9884C9.20149 11.0061 9.32283 11.0002 9.43957 10.9709C9.5563 10.9417 9.66614 10.8898 9.76281 10.8182C9.85948 10.7465 9.94108 10.6565 10.003 10.5533C10.0649 10.4501 10.1058 10.3357 10.1235 10.2167C10.1412 10.0977 10.1352 9.97631 10.106 9.85958L8.49559 3.41561C8.38255 2.9633 8.12155 2.56176 7.75409 2.27482C7.38662 1.98789 6.93378 1.83203 6.46756 1.83203C6.00133 1.83203 5.54849 1.98789 5.18102 2.27482C4.81356 2.56176 4.55256 2.9633 4.43952 3.41561L2.8282 9.85958C2.7692 10.0953 2.80627 10.3449 2.93125 10.5533C3.05624 10.7617 3.2589 10.912 3.49465 10.9709C3.73041 11.0299 3.97995 10.9929 4.18837 10.8679C4.39679 10.7429 4.54703 10.5402 4.60603 10.3045L5.12008 8.2487H7.81441L8.3282 10.3045ZM5.57853 6.41537L6.21735 3.86052C6.23672 3.80986 6.27101 3.76627 6.31569 3.73552C6.36036 3.70478 6.41332 3.68831 6.46756 3.68831C6.52179 3.68831 6.57475 3.70478 6.61943 3.73552C6.6641 3.76627 6.69839 3.80986 6.71776 3.86052L7.35625 6.41537H5.57853ZM12.8838 6.41537H13.8004C14.0435 6.41561 14.2765 6.51227 14.4484 6.68412C14.6202 6.85598 14.7169 7.08899 14.7171 7.33204V8.2487C14.7171 8.49182 14.8137 8.72497 14.9856 8.89688C15.1575 9.06879 15.3907 9.16537 15.6338 9.16537C15.8769 9.16537 16.11 9.06879 16.282 8.89688C16.4539 8.72497 16.5504 8.49182 16.5504 8.2487V7.33204C16.5496 6.60293 16.2597 5.90392 15.7441 5.38837C15.2286 4.87282 14.5295 4.58283 13.8004 4.58204H12.8838C12.6407 4.58204 12.4075 4.67861 12.2356 4.85052C12.0637 5.02243 11.9671 5.25559 11.9671 5.4987C11.9671 5.74182 12.0637 5.97497 12.2356 6.14688C12.4075 6.31879 12.6407 6.41537 12.8838 6.41537ZM9.21711 14.6654H8.30044C8.0574 14.6651 7.82438 14.5685 7.65253 14.3966C7.48067 14.2248 7.38402 13.9917 7.38377 13.7487V12.832C7.38377 12.5889 7.2872 12.3558 7.11529 12.1839C6.94338 12.0119 6.71022 11.9154 6.46711 11.9154C6.22399 11.9154 5.99083 12.0119 5.81893 12.1839C5.64702 12.3558 5.55044 12.5889 5.55044 12.832V13.7487C5.55124 14.4778 5.84122 15.1768 6.35678 15.6924C6.87233 16.2079 7.57134 16.4979 8.30044 16.4987H9.21711C9.46022 16.4987 9.69338 16.4021 9.86529 16.2302C10.0372 16.0583 10.1338 15.8252 10.1338 15.582C10.1338 15.3389 10.0372 15.1058 9.86529 14.9339C9.69338 14.7619 9.46022 14.6654 9.21711 14.6654Z" fill="#88A1AC"/>
</svg>
