<svg width="28" height="28" viewBox="0 0 28 28" fill="none" xmlns="http://www.w3.org/2000/svg">
<rect width="28" height="28" rx="14" fill="#626262"/>
<path d="M19.2829 11.1892C19.2883 11.3124 19.2883 11.43 19.2883 11.5532C19.2937 15.2884 16.5494 19.6004 11.5308 19.6004C10.0507 19.6004 8.5975 19.158 7.34961 18.3292C7.56569 18.3572 7.78178 18.3684 7.99786 18.3684C9.22414 18.3684 10.418 17.9428 11.385 17.1532C10.2181 17.1308 9.19173 16.3412 8.83519 15.1876C9.24575 15.2716 9.66711 15.2548 10.0669 15.1372C8.79738 14.8796 7.88442 13.7204 7.87902 12.3708C7.87902 12.3596 7.87902 12.3484 7.87902 12.3372C8.25716 12.5556 8.68393 12.6788 9.1161 12.69C7.92223 11.8612 7.54949 10.2092 8.27337 8.91556C9.66171 10.6852 11.7037 11.7548 13.897 11.8724C13.6755 10.8924 13.978 9.86196 14.6857 9.16756C15.7823 8.09795 17.511 8.15395 18.5482 9.29076C19.1586 9.16756 19.7475 8.93236 20.2823 8.60196C20.077 9.25716 19.6502 9.81156 19.083 10.1644C19.6232 10.0972 20.1526 9.94596 20.6496 9.72196C20.2823 10.2932 19.8177 10.786 19.2829 11.1892Z" fill="white"/>
</svg>
