<svg width="25" height="25" viewBox="0 0 25 25" fill="none" xmlns="http://www.w3.org/2000/svg">
<path d="M12.957 0.5C10.5837 0.5 8.26358 1.20379 6.29019 2.52236C4.3168 3.84094 2.77873 5.71509 1.87048 7.9078C0.962231 10.1005 0.724591 12.5133 1.18761 14.8411C1.65064 17.1689 2.79353 19.3071 4.47176 20.9853C6.14999 22.6635 8.28818 23.8064 10.616 24.2694C12.9437 24.7324 15.3565 24.4948 17.5492 23.5866C19.742 22.6783 21.6161 21.1402 22.9347 19.1668C24.2532 17.1935 24.957 14.8734 24.957 12.5C24.957 9.3174 23.6928 6.26515 21.4423 4.01472C19.1919 1.76428 16.1396 0.5 12.957 0.5ZM11.957 7.5C11.957 7.23478 12.0624 6.98043 12.2499 6.79289C12.4375 6.60536 12.6918 6.5 12.957 6.5C13.2223 6.5 13.4766 6.60536 13.6641 6.79289C13.8517 6.98043 13.957 7.23478 13.957 7.5V13.5C13.957 13.7652 13.8517 14.0196 13.6641 14.2071C13.4766 14.3946 13.2223 14.5 12.957 14.5C12.6918 14.5 12.4375 14.3946 12.2499 14.2071C12.0624 14.0196 11.957 13.7652 11.957 13.5V7.5ZM12.957 18.5C12.7593 18.5 12.5659 18.4414 12.4015 18.3315C12.237 18.2216 12.1088 18.0654 12.0332 17.8827C11.9575 17.7 11.9377 17.4989 11.9763 17.3049C12.0148 17.1109 12.1101 16.9327 12.2499 16.7929C12.3898 16.653 12.568 16.5578 12.7619 16.5192C12.9559 16.4806 13.157 16.5004 13.3397 16.5761C13.5224 16.6518 13.6786 16.78 13.7885 16.9444C13.8984 17.1089 13.957 17.3022 13.957 17.5C13.957 17.7652 13.8517 18.0196 13.6641 18.2071C13.4766 18.3946 13.2223 18.5 12.957 18.5Z" fill="#FF0000"/>
</svg>
