<svg width="28" height="28" viewBox="0 0 28 28" fill="none" xmlns="http://www.w3.org/2000/svg">
<rect width="28" height="28" rx="14" fill="#626262"/>
<path d="M20.7116 10.6334C20.5502 10.0337 20.0774 9.56089 19.4777 9.39944C18.3822 9.09961 14 9.09961 14 9.09961C14 9.09961 9.61778 9.09961 8.52223 9.38791C7.9341 9.54936 7.44975 10.0337 7.2883 10.6334C7 11.7289 7 14.0007 7 14.0007C7 14.0007 7 16.2841 7.2883 17.3681C7.44975 17.9678 7.92257 18.4406 8.52223 18.602C9.62931 18.9019 14 18.9019 14 18.9019C14 18.9019 18.3822 18.9019 19.4777 18.6136C20.0774 18.4521 20.5502 17.9793 20.7116 17.3796C20.9999 16.2841 20.9999 14.0123 20.9999 14.0123C20.9999 14.0123 21.0115 11.7289 20.7116 10.6334Z" fill="white"/>
<path d="M12.6045 16.1L16.2486 14.0012L12.6045 11.9023V16.1Z" fill="#626262"/>
</svg>
