<svg width="429" height="166" viewBox="0 0 429 166" fill="none" xmlns="http://www.w3.org/2000/svg">
<rect width="107" height="166" rx="7" fill="white"/>
<rect x="1" y="1" width="105" height="164" rx="6" stroke="#88A1AC" stroke-opacity="0.2" stroke-width="2"/>
<path d="M57 21L62.25 26.25L57 31.5" stroke="black" stroke-width="1.4" stroke-linecap="round" stroke-linejoin="round"/>
<path d="M51.25 31.5L46 26.25L51.25 21" stroke="black" stroke-width="1.4" stroke-linecap="round" stroke-linejoin="round"/>
<path opacity="0.6" d="M29.2803 112.6H30.8403V119.68H35.2323V121H29.2803V112.6ZM42.2853 117.832C42.2853 117.936 42.2773 118.084 42.2613 118.276H37.2333C37.3213 118.748 37.5493 119.124 37.9173 119.404C38.2933 119.676 38.7573 119.812 39.3093 119.812C40.0133 119.812 40.5933 119.58 41.0493 119.116L41.8533 120.04C41.5653 120.384 41.2013 120.644 40.7613 120.82C40.3213 120.996 39.8253 121.084 39.2733 121.084C38.5693 121.084 37.9493 120.944 37.4133 120.664C36.8773 120.384 36.4613 119.996 36.1653 119.5C35.8773 118.996 35.7333 118.428 35.7333 117.796C35.7333 117.172 35.8733 116.612 36.1533 116.116C36.4413 115.612 36.8373 115.22 37.3413 114.94C37.8453 114.66 38.4133 114.52 39.0453 114.52C39.6693 114.52 40.2253 114.66 40.7133 114.94C41.2093 115.212 41.5933 115.6 41.8653 116.104C42.1453 116.6 42.2853 117.176 42.2853 117.832ZM39.0453 115.72C38.5653 115.72 38.1573 115.864 37.8213 116.152C37.4933 116.432 37.2933 116.808 37.2213 117.28H40.8573C40.7933 116.816 40.5973 116.44 40.2693 116.152C39.9413 115.864 39.5333 115.72 39.0453 115.72ZM47.5782 120.652C47.4022 120.796 47.1862 120.904 46.9302 120.976C46.6822 121.048 46.4182 121.084 46.1382 121.084C45.4342 121.084 44.8902 120.9 44.5062 120.532C44.1222 120.164 43.9302 119.628 43.9302 118.924V115.84H42.8742V114.64H43.9302V113.176H45.4302V114.64H47.1462V115.84H45.4302V118.888C45.4302 119.2 45.5062 119.44 45.6582 119.608C45.8102 119.768 46.0302 119.848 46.3182 119.848C46.6542 119.848 46.9342 119.76 47.1582 119.584L47.5782 120.652ZM58.1285 114.592L55.1285 121.516C54.8485 122.212 54.5085 122.7 54.1085 122.98C53.7085 123.268 53.2245 123.412 52.6565 123.412C52.3365 123.412 52.0205 123.36 51.7085 123.256C51.3965 123.152 51.1405 123.008 50.9405 122.824L51.5405 121.72C51.6845 121.856 51.8525 121.964 52.0445 122.044C52.2445 122.124 52.4445 122.164 52.6445 122.164C52.9085 122.164 53.1245 122.096 53.2925 121.96C53.4685 121.824 53.6285 121.596 53.7725 121.276L53.8805 121.024L51.0845 114.592H52.6445L54.6605 119.332L56.6885 114.592H58.1285ZM61.7703 121.084C61.1223 121.084 60.5383 120.944 60.0183 120.664C59.4983 120.384 59.0903 119.996 58.7943 119.5C58.5063 118.996 58.3623 118.428 58.3623 117.796C58.3623 117.164 58.5063 116.6 58.7943 116.104C59.0903 115.608 59.4983 115.22 60.0183 114.94C60.5383 114.66 61.1223 114.52 61.7703 114.52C62.4263 114.52 63.0143 114.66 63.5343 114.94C64.0543 115.22 64.4583 115.608 64.7463 116.104C65.0423 116.6 65.1903 117.164 65.1903 117.796C65.1903 118.428 65.0423 118.996 64.7463 119.5C64.4583 119.996 64.0543 120.384 63.5343 120.664C63.0143 120.944 62.4263 121.084 61.7703 121.084ZM61.7703 119.8C62.3223 119.8 62.7783 119.616 63.1383 119.248C63.4983 118.88 63.6783 118.396 63.6783 117.796C63.6783 117.196 63.4983 116.712 63.1383 116.344C62.7783 115.976 62.3223 115.792 61.7703 115.792C61.2183 115.792 60.7623 115.976 60.4023 116.344C60.0503 116.712 59.8743 117.196 59.8743 117.796C59.8743 118.396 60.0503 118.88 60.4023 119.248C60.7623 119.616 61.2183 119.8 61.7703 119.8ZM72.8286 114.592V121H71.4006V120.184C71.1606 120.472 70.8606 120.696 70.5006 120.856C70.1406 121.008 69.7526 121.084 69.3366 121.084C68.4806 121.084 67.8046 120.848 67.3086 120.376C66.8206 119.896 66.5766 119.188 66.5766 118.252V114.592H68.0766V118.048C68.0766 118.624 68.2046 119.056 68.4606 119.344C68.7246 119.624 69.0966 119.764 69.5766 119.764C70.1126 119.764 70.5366 119.6 70.8486 119.272C71.1686 118.936 71.3286 118.456 71.3286 117.832V114.592H72.8286ZM76.2206 115.528C76.6526 114.856 77.4126 114.52 78.5006 114.52V115.948C78.3726 115.924 78.2566 115.912 78.1526 115.912C77.5686 115.912 77.1126 116.084 76.7846 116.428C76.4566 116.764 76.2926 117.252 76.2926 117.892V121H74.7926V114.592H76.2206V115.528ZM12.0282 129.52C12.6522 129.52 13.2082 129.656 13.6962 129.928C14.1922 130.2 14.5802 130.584 14.8602 131.08C15.1402 131.576 15.2802 132.148 15.2802 132.796C15.2802 133.444 15.1402 134.02 14.8602 134.524C14.5802 135.02 14.1922 135.404 13.6962 135.676C13.2082 135.948 12.6522 136.084 12.0282 136.084C11.1642 136.084 10.4802 135.796 9.97619 135.22V138.328H8.47619V129.592H9.90419V130.432C10.1522 130.128 10.4562 129.9 10.8162 129.748C11.1842 129.596 11.5882 129.52 12.0282 129.52ZM11.8602 134.8C12.4122 134.8 12.8642 134.616 13.2162 134.248C13.5762 133.88 13.7562 133.396 13.7562 132.796C13.7562 132.196 13.5762 131.712 13.2162 131.344C12.8642 130.976 12.4122 130.792 11.8602 130.792C11.5002 130.792 11.1762 130.876 10.8882 131.044C10.6002 131.204 10.3722 131.436 10.2042 131.74C10.0362 132.044 9.95219 132.396 9.95219 132.796C9.95219 133.196 10.0362 133.548 10.2042 133.852C10.3722 134.156 10.6002 134.392 10.8882 134.56C11.1762 134.72 11.5002 134.8 11.8602 134.8ZM16.7028 127.096H18.2028V136H16.7028V127.096ZM22.6195 129.52C23.5635 129.52 24.2835 129.748 24.7795 130.204C25.2835 130.652 25.5355 131.332 25.5355 132.244V136H24.1195V135.22C23.9355 135.5 23.6715 135.716 23.3275 135.868C22.9915 136.012 22.5835 136.084 22.1035 136.084C21.6235 136.084 21.2035 136.004 20.8435 135.844C20.4835 135.676 20.2035 135.448 20.0035 135.16C19.8115 134.864 19.7155 134.532 19.7155 134.164C19.7155 133.588 19.9275 133.128 20.3515 132.784C20.7835 132.432 21.4595 132.256 22.3795 132.256H24.0355V132.16C24.0355 131.712 23.8995 131.368 23.6275 131.128C23.3635 130.888 22.9675 130.768 22.4395 130.768C22.0795 130.768 21.7235 130.824 21.3715 130.936C21.0275 131.048 20.7355 131.204 20.4955 131.404L19.9075 130.312C20.2435 130.056 20.6475 129.86 21.1195 129.724C21.5915 129.588 22.0915 129.52 22.6195 129.52ZM22.4155 134.992C22.7915 134.992 23.1235 134.908 23.4115 134.74C23.7075 134.564 23.9155 134.316 24.0355 133.996V133.252H22.4875C21.6235 133.252 21.1915 133.536 21.1915 134.104C21.1915 134.376 21.2995 134.592 21.5155 134.752C21.7315 134.912 22.0315 134.992 22.4155 134.992ZM33.3434 129.592L30.3434 136.516C30.0634 137.212 29.7234 137.7 29.3234 137.98C28.9234 138.268 28.4394 138.412 27.8714 138.412C27.5514 138.412 27.2354 138.36 26.9234 138.256C26.6114 138.152 26.3554 138.008 26.1554 137.824L26.7554 136.72C26.8994 136.856 27.0674 136.964 27.2594 137.044C27.4594 137.124 27.6594 137.164 27.8594 137.164C28.1234 137.164 28.3394 137.096 28.5074 136.96C28.6834 136.824 28.8434 136.596 28.9874 136.276L29.0954 136.024L26.2994 129.592H27.8594L29.8754 134.332L31.9034 129.592H33.3434ZM40.1291 132.832C40.1291 132.936 40.1211 133.084 40.1051 133.276H35.0771C35.1651 133.748 35.3931 134.124 35.7611 134.404C36.1371 134.676 36.6011 134.812 37.1531 134.812C37.8571 134.812 38.4371 134.58 38.8931 134.116L39.6971 135.04C39.4091 135.384 39.0451 135.644 38.6051 135.82C38.1651 135.996 37.6691 136.084 37.1171 136.084C36.4131 136.084 35.7931 135.944 35.2571 135.664C34.7211 135.384 34.3051 134.996 34.0091 134.5C33.7211 133.996 33.5771 133.428 33.5771 132.796C33.5771 132.172 33.7171 131.612 33.9971 131.116C34.2851 130.612 34.6811 130.22 35.1851 129.94C35.6891 129.66 36.2571 129.52 36.8891 129.52C37.5131 129.52 38.0691 129.66 38.5571 129.94C39.0531 130.212 39.4371 130.6 39.7091 131.104C39.9891 131.6 40.1291 132.176 40.1291 132.832ZM36.8891 130.72C36.4091 130.72 36.0011 130.864 35.6651 131.152C35.3371 131.432 35.1371 131.808 35.0651 132.28H38.7011C38.6371 131.816 38.4411 131.44 38.1131 131.152C37.7851 130.864 37.3771 130.72 36.8891 130.72ZM42.9979 130.528C43.4299 129.856 44.1899 129.52 45.2779 129.52V130.948C45.1499 130.924 45.0339 130.912 44.9299 130.912C44.3459 130.912 43.8899 131.084 43.5619 131.428C43.2339 131.764 43.0699 132.252 43.0699 132.892V136H41.5699V129.592H42.9979V130.528ZM48.5538 136.084C48.0338 136.084 47.5258 136.016 47.0298 135.88C46.5338 135.744 46.1378 135.572 45.8418 135.364L46.4178 134.224C46.7058 134.416 47.0498 134.572 47.4498 134.692C47.8578 134.804 48.2578 134.86 48.6498 134.86C49.5458 134.86 49.9938 134.624 49.9938 134.152C49.9938 133.928 49.8778 133.772 49.6458 133.684C49.4218 133.596 49.0578 133.512 48.5538 133.432C48.0258 133.352 47.5938 133.26 47.2578 133.156C46.9298 133.052 46.6418 132.872 46.3938 132.616C46.1538 132.352 46.0338 131.988 46.0338 131.524C46.0338 130.916 46.2858 130.432 46.7898 130.072C47.3018 129.704 47.9898 129.52 48.8538 129.52C49.2938 129.52 49.7338 129.572 50.1738 129.676C50.6138 129.772 50.9738 129.904 51.2538 130.072L50.6778 131.212C50.1338 130.892 49.5218 130.732 48.8418 130.732C48.4018 130.732 48.0658 130.8 47.8338 130.936C47.6098 131.064 47.4978 131.236 47.4978 131.452C47.4978 131.692 47.6178 131.864 47.8578 131.968C48.1058 132.064 48.4858 132.156 48.9978 132.244C49.5098 132.324 49.9298 132.416 50.2578 132.52C50.5858 132.624 50.8658 132.8 51.0978 133.048C51.3378 133.296 51.4578 133.648 51.4578 134.104C51.4578 134.704 51.1978 135.184 50.6778 135.544C50.1578 135.904 49.4498 136.084 48.5538 136.084ZM57.494 130.528C57.926 129.856 58.686 129.52 59.774 129.52V130.948C59.646 130.924 59.53 130.912 59.426 130.912C58.842 130.912 58.386 131.084 58.058 131.428C57.73 131.764 57.566 132.252 57.566 132.892V136H56.066V129.592H57.494V130.528ZM67.0119 132.832C67.0119 132.936 67.0039 133.084 66.9879 133.276H61.9599C62.0479 133.748 62.2759 134.124 62.6439 134.404C63.0199 134.676 63.4839 134.812 64.0359 134.812C64.7399 134.812 65.3199 134.58 65.7759 134.116L66.5799 135.04C66.2919 135.384 65.9279 135.644 65.4879 135.82C65.0479 135.996 64.5519 136.084 63.9999 136.084C63.2959 136.084 62.6759 135.944 62.1399 135.664C61.6039 135.384 61.1879 134.996 60.8919 134.5C60.6039 133.996 60.4599 133.428 60.4599 132.796C60.4599 132.172 60.5999 131.612 60.8799 131.116C61.1679 130.612 61.5639 130.22 62.0679 129.94C62.5719 129.66 63.1399 129.52 63.7719 129.52C64.3959 129.52 64.9519 129.66 65.4399 129.94C65.9359 130.212 66.3199 130.6 66.5919 131.104C66.8719 131.6 67.0119 132.176 67.0119 132.832ZM63.7719 130.72C63.2919 130.72 62.8839 130.864 62.5479 131.152C62.2199 131.432 62.0199 131.808 61.9479 132.28H65.5839C65.5199 131.816 65.3239 131.44 64.9959 131.152C64.6679 130.864 64.2599 130.72 63.7719 130.72ZM71.3928 136.084C70.7288 136.084 70.1328 135.944 69.6048 135.664C69.0768 135.384 68.6648 134.996 68.3688 134.5C68.0728 133.996 67.9248 133.428 67.9248 132.796C67.9248 132.164 68.0728 131.6 68.3688 131.104C68.6648 130.608 69.0728 130.22 69.5928 129.94C70.1208 129.66 70.7208 129.52 71.3928 129.52C72.0248 129.52 72.5768 129.648 73.0488 129.904C73.5288 130.16 73.8888 130.528 74.1288 131.008L72.9768 131.68C72.7928 131.384 72.5608 131.164 72.2808 131.02C72.0088 130.868 71.7088 130.792 71.3808 130.792C70.8208 130.792 70.3568 130.976 69.9888 131.344C69.6208 131.704 69.4368 132.188 69.4368 132.796C69.4368 133.404 69.6168 133.892 69.9768 134.26C70.3448 134.62 70.8128 134.8 71.3808 134.8C71.7088 134.8 72.0088 134.728 72.2808 134.584C72.5608 134.432 72.7928 134.208 72.9768 133.912L74.1288 134.584C73.8808 135.064 73.5168 135.436 73.0368 135.7C72.5648 135.956 72.0168 136.084 71.3928 136.084ZM81.3557 132.832C81.3557 132.936 81.3477 133.084 81.3317 133.276H76.3037C76.3917 133.748 76.6197 134.124 76.9877 134.404C77.3637 134.676 77.8277 134.812 78.3797 134.812C79.0837 134.812 79.6637 134.58 80.1197 134.116L80.9237 135.04C80.6357 135.384 80.2717 135.644 79.8317 135.82C79.3917 135.996 78.8957 136.084 78.3437 136.084C77.6397 136.084 77.0197 135.944 76.4837 135.664C75.9477 135.384 75.5317 134.996 75.2357 134.5C74.9477 133.996 74.8037 133.428 74.8037 132.796C74.8037 132.172 74.9437 131.612 75.2237 131.116C75.5117 130.612 75.9077 130.22 76.4117 129.94C76.9157 129.66 77.4837 129.52 78.1157 129.52C78.7397 129.52 79.2957 129.66 79.7837 129.94C80.2797 130.212 80.6637 130.6 80.9357 131.104C81.2157 131.6 81.3557 132.176 81.3557 132.832ZM78.1157 130.72C77.6357 130.72 77.2277 130.864 76.8917 131.152C76.5637 131.432 76.3637 131.808 76.2917 132.28H79.9277C79.8637 131.816 79.6677 131.44 79.3397 131.152C79.0117 130.864 78.6037 130.72 78.1157 130.72ZM82.7965 129.592H84.2965V136H82.7965V129.592ZM83.5525 128.536C83.2805 128.536 83.0525 128.452 82.8685 128.284C82.6845 128.108 82.5925 127.892 82.5925 127.636C82.5925 127.38 82.6845 127.168 82.8685 127C83.0525 126.824 83.2805 126.736 83.5525 126.736C83.8245 126.736 84.0525 126.82 84.2365 126.988C84.4205 127.148 84.5125 127.352 84.5125 127.6C84.5125 127.864 84.4205 128.088 84.2365 128.272C84.0605 128.448 83.8325 128.536 83.5525 128.536ZM92.2653 129.592L89.5173 136H87.9693L85.2212 129.592H86.7812L88.7733 134.344L90.8253 129.592H92.2653ZM99.051 132.832C99.051 132.936 99.043 133.084 99.027 133.276H93.999C94.087 133.748 94.315 134.124 94.683 134.404C95.059 134.676 95.523 134.812 96.075 134.812C96.779 134.812 97.359 134.58 97.815 134.116L98.619 135.04C98.331 135.384 97.967 135.644 97.527 135.82C97.087 135.996 96.591 136.084 96.039 136.084C95.335 136.084 94.715 135.944 94.179 135.664C93.643 135.384 93.227 134.996 92.931 134.5C92.643 133.996 92.499 133.428 92.499 132.796C92.499 132.172 92.639 131.612 92.919 131.116C93.207 130.612 93.603 130.22 94.107 129.94C94.611 129.66 95.179 129.52 95.811 129.52C96.435 129.52 96.991 129.66 97.479 129.94C97.975 130.212 98.359 130.6 98.631 131.104C98.911 131.6 99.051 132.176 99.051 132.832ZM95.811 130.72C95.331 130.72 94.923 130.864 94.587 131.152C94.259 131.432 94.059 131.808 93.987 132.28H97.623C97.559 131.816 97.363 131.44 97.035 131.152C96.707 130.864 96.299 130.72 95.811 130.72ZM17.8055 144.52C18.4295 144.52 18.9855 144.656 19.4735 144.928C19.9695 145.2 20.3575 145.584 20.6375 146.08C20.9175 146.576 21.0575 147.148 21.0575 147.796C21.0575 148.444 20.9175 149.02 20.6375 149.524C20.3575 150.02 19.9695 150.404 19.4735 150.676C18.9855 150.948 18.4295 151.084 17.8055 151.084C16.9415 151.084 16.2575 150.796 15.7535 150.22V153.328H14.2535V144.592H15.6815V145.432C15.9295 145.128 16.2335 144.9 16.5935 144.748C16.9615 144.596 17.3655 144.52 17.8055 144.52ZM17.6375 149.8C18.1895 149.8 18.6415 149.616 18.9935 149.248C19.3535 148.88 19.5335 148.396 19.5335 147.796C19.5335 147.196 19.3535 146.712 18.9935 146.344C18.6415 145.976 18.1895 145.792 17.6375 145.792C17.2775 145.792 16.9535 145.876 16.6655 146.044C16.3775 146.204 16.1495 146.436 15.9815 146.74C15.8135 147.044 15.7295 147.396 15.7295 147.796C15.7295 148.196 15.8135 148.548 15.9815 148.852C16.1495 149.156 16.3775 149.392 16.6655 149.56C16.9535 149.72 17.2775 149.8 17.6375 149.8ZM25.3601 151.084C24.7121 151.084 24.1281 150.944 23.6081 150.664C23.0881 150.384 22.6801 149.996 22.3841 149.5C22.0961 148.996 21.9521 148.428 21.9521 147.796C21.9521 147.164 22.0961 146.6 22.3841 146.104C22.6801 145.608 23.0881 145.22 23.6081 144.94C24.1281 144.66 24.7121 144.52 25.3601 144.52C26.0161 144.52 26.6041 144.66 27.1241 144.94C27.6441 145.22 28.0481 145.608 28.3361 146.104C28.6321 146.6 28.7801 147.164 28.7801 147.796C28.7801 148.428 28.6321 148.996 28.3361 149.5C28.0481 149.996 27.6441 150.384 27.1241 150.664C26.6041 150.944 26.0161 151.084 25.3601 151.084ZM25.3601 149.8C25.9121 149.8 26.3681 149.616 26.7281 149.248C27.0881 148.88 27.2681 148.396 27.2681 147.796C27.2681 147.196 27.0881 146.712 26.7281 146.344C26.3681 145.976 25.9121 145.792 25.3601 145.792C24.8081 145.792 24.3521 145.976 23.9921 146.344C23.6401 146.712 23.4641 147.196 23.4641 147.796C23.4641 148.396 23.6401 148.88 23.9921 149.248C24.3521 149.616 24.8081 149.8 25.3601 149.8ZM30.2145 144.592H31.7145V151H30.2145V144.592ZM30.9705 143.536C30.6985 143.536 30.4705 143.452 30.2865 143.284C30.1025 143.108 30.0105 142.892 30.0105 142.636C30.0105 142.38 30.1025 142.168 30.2865 142C30.4705 141.824 30.6985 141.736 30.9705 141.736C31.2425 141.736 31.4705 141.82 31.6545 141.988C31.8385 142.148 31.9305 142.352 31.9305 142.6C31.9305 142.864 31.8385 143.088 31.6545 143.272C31.4785 143.448 31.2505 143.536 30.9705 143.536ZM37.3192 144.52C38.1272 144.52 38.7752 144.756 39.2632 145.228C39.7512 145.7 39.9952 146.4 39.9952 147.328V151H38.4952V147.52C38.4952 146.96 38.3632 146.54 38.0992 146.26C37.8352 145.972 37.4592 145.828 36.9712 145.828C36.4192 145.828 35.9832 145.996 35.6632 146.332C35.3432 146.66 35.1832 147.136 35.1832 147.76V151H33.6832V144.592H35.1112V145.42C35.3592 145.124 35.6712 144.9 36.0472 144.748C36.4232 144.596 36.8472 144.52 37.3192 144.52ZM45.7501 150.652C45.5741 150.796 45.3581 150.904 45.1021 150.976C44.8541 151.048 44.5901 151.084 44.3101 151.084C43.6061 151.084 43.0621 150.9 42.6781 150.532C42.2941 150.164 42.1021 149.628 42.1021 148.924V145.84H41.0461V144.64H42.1021V143.176H43.6021V144.64H45.3181V145.84H43.6021V148.888C43.6021 149.2 43.6781 149.44 43.8301 149.608C43.9821 149.768 44.2021 149.848 44.4901 149.848C44.8261 149.848 45.1061 149.76 45.3301 149.584L45.7501 150.652ZM48.964 151.084C48.444 151.084 47.936 151.016 47.44 150.88C46.944 150.744 46.548 150.572 46.252 150.364L46.828 149.224C47.116 149.416 47.46 149.572 47.86 149.692C48.268 149.804 48.668 149.86 49.06 149.86C49.956 149.86 50.404 149.624 50.404 149.152C50.404 148.928 50.288 148.772 50.056 148.684C49.832 148.596 49.468 148.512 48.964 148.432C48.436 148.352 48.004 148.26 47.668 148.156C47.34 148.052 47.052 147.872 46.804 147.616C46.564 147.352 46.444 146.988 46.444 146.524C46.444 145.916 46.696 145.432 47.2 145.072C47.712 144.704 48.4 144.52 49.264 144.52C49.704 144.52 50.144 144.572 50.584 144.676C51.024 144.772 51.384 144.904 51.664 145.072L51.088 146.212C50.544 145.892 49.932 145.732 49.252 145.732C48.812 145.732 48.476 145.8 48.244 145.936C48.02 146.064 47.908 146.236 47.908 146.452C47.908 146.692 48.028 146.864 48.268 146.968C48.516 147.064 48.896 147.156 49.408 147.244C49.92 147.324 50.34 147.416 50.668 147.52C50.996 147.624 51.276 147.8 51.508 148.048C51.748 148.296 51.868 148.648 51.868 149.104C51.868 149.704 51.608 150.184 51.088 150.544C50.568 150.904 49.86 151.084 48.964 151.084ZM56.4762 144.592H57.9762V151H56.4762V144.592ZM57.2322 143.536C56.9602 143.536 56.7322 143.452 56.5482 143.284C56.3642 143.108 56.2722 142.892 56.2722 142.636C56.2722 142.38 56.3642 142.168 56.5482 142C56.7322 141.824 56.9602 141.736 57.2322 141.736C57.5042 141.736 57.7322 141.82 57.9162 141.988C58.1002 142.148 58.1922 142.352 58.1922 142.6C58.1922 142.864 58.1002 143.088 57.9162 143.272C57.7402 143.448 57.5122 143.536 57.2322 143.536ZM63.5809 144.52C64.3889 144.52 65.0369 144.756 65.5249 145.228C66.0129 145.7 66.2569 146.4 66.2569 147.328V151H64.7569V147.52C64.7569 146.96 64.6249 146.54 64.3609 146.26C64.0969 145.972 63.7209 145.828 63.2329 145.828C62.6809 145.828 62.2449 145.996 61.9249 146.332C61.6049 146.66 61.4449 147.136 61.4449 147.76V151H59.9449V144.592H61.3729V145.42C61.6209 145.124 61.9329 144.9 62.3089 144.748C62.6849 144.596 63.1089 144.52 63.5809 144.52ZM75.0282 144.52C75.6522 144.52 76.2082 144.656 76.6962 144.928C77.1922 145.2 77.5802 145.584 77.8602 146.08C78.1402 146.576 78.2802 147.148 78.2802 147.796C78.2802 148.444 78.1402 149.02 77.8602 149.524C77.5802 150.02 77.1922 150.404 76.6962 150.676C76.2082 150.948 75.6522 151.084 75.0282 151.084C74.5882 151.084 74.1842 151.008 73.8162 150.856C73.4562 150.704 73.1522 150.476 72.9042 150.172V151H71.4762V142.096H72.9762V145.372C73.2322 145.092 73.5322 144.88 73.8762 144.736C74.2282 144.592 74.6122 144.52 75.0282 144.52ZM74.8602 149.8C75.4122 149.8 75.8642 149.616 76.2162 149.248C76.5762 148.88 76.7562 148.396 76.7562 147.796C76.7562 147.196 76.5762 146.712 76.2162 146.344C75.8642 145.976 75.4122 145.792 74.8602 145.792C74.5002 145.792 74.1762 145.876 73.8882 146.044C73.6002 146.204 73.3722 146.436 73.2042 146.74C73.0362 147.044 72.9522 147.396 72.9522 147.796C72.9522 148.196 73.0362 148.548 73.2042 148.852C73.3722 149.156 73.6002 149.392 73.8882 149.56C74.1762 149.72 74.5002 149.8 74.8602 149.8ZM83.5548 150.652C83.3788 150.796 83.1628 150.904 82.9068 150.976C82.6588 151.048 82.3948 151.084 82.1148 151.084C81.4108 151.084 80.8668 150.9 80.4827 150.532C80.0988 150.164 79.9068 149.628 79.9068 148.924V145.84H78.8508V144.64H79.9068V143.176H81.4068V144.64H83.1228V145.84H81.4068V148.888C81.4068 149.2 81.4828 149.44 81.6348 149.608C81.7868 149.768 82.0068 149.848 82.2948 149.848C82.6308 149.848 82.9108 149.76 83.1348 149.584L83.5548 150.652ZM87.5178 151.084C86.8538 151.084 86.2578 150.944 85.7298 150.664C85.2018 150.384 84.7898 149.996 84.4938 149.5C84.1978 148.996 84.0498 148.428 84.0498 147.796C84.0498 147.164 84.1978 146.6 84.4938 146.104C84.7898 145.608 85.1978 145.22 85.7178 144.94C86.2458 144.66 86.8458 144.52 87.5178 144.52C88.1498 144.52 88.7018 144.648 89.1738 144.904C89.6538 145.16 90.0138 145.528 90.2538 146.008L89.1018 146.68C88.9178 146.384 88.6858 146.164 88.4058 146.02C88.1338 145.868 87.8338 145.792 87.5058 145.792C86.9458 145.792 86.4818 145.976 86.1138 146.344C85.7458 146.704 85.5618 147.188 85.5618 147.796C85.5618 148.404 85.7418 148.892 86.1018 149.26C86.4698 149.62 86.9378 149.8 87.5058 149.8C87.8338 149.8 88.1338 149.728 88.4058 149.584C88.6858 149.432 88.9178 149.208 89.1018 148.912L90.2538 149.584C90.0058 150.064 89.6418 150.436 89.1618 150.7C88.6898 150.956 88.1418 151.084 87.5178 151.084ZM92.2648 151.084C91.9928 151.084 91.7608 150.992 91.5688 150.808C91.3768 150.616 91.2808 150.376 91.2808 150.088C91.2808 149.792 91.3728 149.552 91.5568 149.368C91.7488 149.184 91.9848 149.092 92.2648 149.092C92.5448 149.092 92.7768 149.184 92.9608 149.368C93.1528 149.552 93.2488 149.792 93.2488 150.088C93.2488 150.376 93.1528 150.616 92.9608 150.808C92.7688 150.992 92.5368 151.084 92.2648 151.084Z" fill="black"/>
<path d="M39.1332 54.63H40.9782V58.815C40.4382 59.245 39.8082 59.575 39.0882 59.805C38.3682 60.035 37.6282 60.15 36.8682 60.15C35.7982 60.15 34.8332 59.92 33.9732 59.46C33.1132 58.99 32.4382 58.345 31.9482 57.525C31.4582 56.705 31.2132 55.78 31.2132 54.75C31.2132 53.72 31.4582 52.795 31.9482 51.975C32.4382 51.155 33.1132 50.515 33.9732 50.055C34.8432 49.585 35.8182 49.35 36.8982 49.35C37.7782 49.35 38.5782 49.495 39.2982 49.785C40.0182 50.075 40.6232 50.5 41.1132 51.06L39.8832 52.26C39.0832 51.46 38.1182 51.06 36.9882 51.06C36.2482 51.06 35.5882 51.215 35.0082 51.525C34.4382 51.835 33.9882 52.27 33.6582 52.83C33.3382 53.39 33.1782 54.03 33.1782 54.75C33.1782 55.45 33.3382 56.08 33.6582 56.64C33.9882 57.2 34.4382 57.64 35.0082 57.96C35.5882 58.28 36.2432 58.44 36.9732 58.44C37.7932 58.44 38.5132 58.26 39.1332 57.9V54.63ZM46.4301 51.9C47.6101 51.9 48.5101 52.185 49.1301 52.755C49.7601 53.315 50.0751 54.165 50.0751 55.305V60H48.3051V59.025C48.0751 59.375 47.7451 59.645 47.3151 59.835C46.8951 60.015 46.3851 60.105 45.7851 60.105C45.1851 60.105 44.6601 60.005 44.2101 59.805C43.7601 59.595 43.4101 59.31 43.1601 58.95C42.9201 58.58 42.8001 58.165 42.8001 57.705C42.8001 56.985 43.0651 56.41 43.5951 55.98C44.1351 55.54 44.9801 55.32 46.1301 55.32H48.2001V55.2C48.2001 54.64 48.0301 54.21 47.6901 53.91C47.3601 53.61 46.8651 53.46 46.2051 53.46C45.7551 53.46 45.3101 53.53 44.8701 53.67C44.4401 53.81 44.0751 54.005 43.7751 54.255L43.0401 52.89C43.4601 52.57 43.9651 52.325 44.5551 52.155C45.1451 51.985 45.7701 51.9 46.4301 51.9ZM46.1751 58.74C46.6451 58.74 47.0601 58.635 47.4201 58.425C47.7901 58.205 48.0501 57.895 48.2001 57.495V56.565H46.2651C45.1851 56.565 44.6451 56.92 44.6451 57.63C44.6451 57.97 44.7801 58.24 45.0501 58.44C45.3201 58.64 45.6951 58.74 46.1751 58.74ZM62.5915 51.9C63.6015 51.9 64.4015 52.195 64.9915 52.785C65.5815 53.365 65.8765 54.24 65.8765 55.41V60H64.0015V55.65C64.0015 54.95 63.8465 54.425 63.5365 54.075C63.2265 53.715 62.7815 53.535 62.2015 53.535C61.5715 53.535 61.0665 53.745 60.6865 54.165C60.3065 54.575 60.1165 55.165 60.1165 55.935V60H58.2415V55.65C58.2415 54.95 58.0865 54.425 57.7765 54.075C57.4665 53.715 57.0215 53.535 56.4415 53.535C55.8015 53.535 55.2915 53.74 54.9115 54.15C54.5415 54.56 54.3565 55.155 54.3565 55.935V60H52.4815V51.99H54.2665V53.01C54.5665 52.65 54.9415 52.375 55.3915 52.185C55.8415 51.995 56.3415 51.9 56.8915 51.9C57.4915 51.9 58.0215 52.015 58.4815 52.245C58.9515 52.465 59.3215 52.795 59.5915 53.235C59.9215 52.815 60.3465 52.49 60.8665 52.26C61.3865 52.02 61.9615 51.9 62.5915 51.9ZM75.8757 56.04C75.8757 56.17 75.8657 56.355 75.8457 56.595H69.5607C69.6707 57.185 69.9557 57.655 70.4157 58.005C70.8857 58.345 71.4657 58.515 72.1557 58.515C73.0357 58.515 73.7607 58.225 74.3307 57.645L75.3357 58.8C74.9757 59.23 74.5207 59.555 73.9707 59.775C73.4207 59.995 72.8007 60.105 72.1107 60.105C71.2307 60.105 70.4557 59.93 69.7857 59.58C69.1157 59.23 68.5957 58.745 68.2257 58.125C67.8657 57.495 67.6857 56.785 67.6857 55.995C67.6857 55.215 67.8607 54.515 68.2107 53.895C68.5707 53.265 69.0657 52.775 69.6957 52.425C70.3257 52.075 71.0357 51.9 71.8257 51.9C72.6057 51.9 73.3007 52.075 73.9107 52.425C74.5307 52.765 75.0107 53.25 75.3507 53.88C75.7007 54.5 75.8757 55.22 75.8757 56.04ZM71.8257 53.4C71.2257 53.4 70.7157 53.58 70.2957 53.94C69.8857 54.29 69.6357 54.76 69.5457 55.35H74.0907C74.0107 54.77 73.7657 54.3 73.3557 53.94C72.9457 53.58 72.4357 53.4 71.8257 53.4ZM11.4334 64.5H16.0234C17.1434 64.5 18.1384 64.72 19.0084 65.16C19.8784 65.59 20.5534 66.205 21.0334 67.005C21.5134 67.795 21.7534 68.71 21.7534 69.75C21.7534 70.79 21.5134 71.71 21.0334 72.51C20.5534 73.3 19.8784 73.915 19.0084 74.355C18.1384 74.785 17.1434 75 16.0234 75H11.4334V64.5ZM15.9334 73.35C16.7034 73.35 17.3784 73.205 17.9584 72.915C18.5484 72.615 18.9984 72.195 19.3084 71.655C19.6284 71.105 19.7884 70.47 19.7884 69.75C19.7884 69.03 19.6284 68.4 19.3084 67.86C18.9984 67.31 18.5484 66.89 17.9584 66.6C17.3784 66.3 16.7034 66.15 15.9334 66.15H13.3834V73.35H15.9334ZM31.176 71.04C31.176 71.17 31.166 71.355 31.146 71.595H24.861C24.971 72.185 25.256 72.655 25.716 73.005C26.186 73.345 26.766 73.515 27.456 73.515C28.336 73.515 29.061 73.225 29.631 72.645L30.636 73.8C30.276 74.23 29.821 74.555 29.271 74.775C28.721 74.995 28.101 75.105 27.411 75.105C26.531 75.105 25.756 74.93 25.086 74.58C24.416 74.23 23.896 73.745 23.526 73.125C23.166 72.495 22.986 71.785 22.986 70.995C22.986 70.215 23.161 69.515 23.511 68.895C23.871 68.265 24.366 67.775 24.996 67.425C25.626 67.075 26.336 66.9 27.126 66.9C27.906 66.9 28.601 67.075 29.211 67.425C29.831 67.765 30.311 68.25 30.651 68.88C31.001 69.5 31.176 70.22 31.176 71.04ZM27.126 68.4C26.526 68.4 26.016 68.58 25.596 68.94C25.186 69.29 24.936 69.76 24.846 70.35H29.391C29.311 69.77 29.066 69.3 28.656 68.94C28.246 68.58 27.736 68.4 27.126 68.4ZM40.3306 66.99L36.8956 75H34.9606L31.5256 66.99H33.4756L35.9656 72.93L38.5306 66.99H40.3306ZM48.8127 71.04C48.8127 71.17 48.8027 71.355 48.7827 71.595H42.4977C42.6077 72.185 42.8927 72.655 43.3527 73.005C43.8227 73.345 44.4027 73.515 45.0927 73.515C45.9727 73.515 46.6977 73.225 47.2677 72.645L48.2727 73.8C47.9127 74.23 47.4577 74.555 46.9077 74.775C46.3577 74.995 45.7377 75.105 45.0477 75.105C44.1677 75.105 43.3927 74.93 42.7227 74.58C42.0527 74.23 41.5327 73.745 41.1627 73.125C40.8027 72.495 40.6227 71.785 40.6227 70.995C40.6227 70.215 40.7977 69.515 41.1477 68.895C41.5077 68.265 42.0027 67.775 42.6327 67.425C43.2627 67.075 43.9727 66.9 44.7627 66.9C45.5427 66.9 46.2377 67.075 46.8477 67.425C47.4677 67.765 47.9477 68.25 48.2877 68.88C48.6377 69.5 48.8127 70.22 48.8127 71.04ZM44.7627 68.4C44.1627 68.4 43.6527 68.58 43.2327 68.94C42.8227 69.29 42.5727 69.76 42.4827 70.35H47.0277C46.9477 69.77 46.7027 69.3 46.2927 68.94C45.8827 68.58 45.3727 68.4 44.7627 68.4ZM50.6138 63.87H52.4888V75H50.6138V63.87ZM58.5497 75.105C57.7397 75.105 57.0097 74.93 56.3597 74.58C55.7097 74.23 55.1997 73.745 54.8297 73.125C54.4697 72.495 54.2897 71.785 54.2897 70.995C54.2897 70.205 54.4697 69.5 54.8297 68.88C55.1997 68.26 55.7097 67.775 56.3597 67.425C57.0097 67.075 57.7397 66.9 58.5497 66.9C59.3697 66.9 60.1047 67.075 60.7547 67.425C61.4047 67.775 61.9097 68.26 62.2697 68.88C62.6397 69.5 62.8247 70.205 62.8247 70.995C62.8247 71.785 62.6397 72.495 62.2697 73.125C61.9097 73.745 61.4047 74.23 60.7547 74.58C60.1047 74.93 59.3697 75.105 58.5497 75.105ZM58.5497 73.5C59.2397 73.5 59.8097 73.27 60.2597 72.81C60.7097 72.35 60.9347 71.745 60.9347 70.995C60.9347 70.245 60.7097 69.64 60.2597 69.18C59.8097 68.72 59.2397 68.49 58.5497 68.49C57.8597 68.49 57.2897 68.72 56.8397 69.18C56.3997 69.64 56.1797 70.245 56.1797 70.995C56.1797 71.745 56.3997 72.35 56.8397 72.81C57.2897 73.27 57.8597 73.5 58.5497 73.5ZM69.0577 66.9C69.8377 66.9 70.5327 67.07 71.1427 67.41C71.7627 67.75 72.2477 68.23 72.5977 68.85C72.9477 69.47 73.1227 70.185 73.1227 70.995C73.1227 71.805 72.9477 72.525 72.5977 73.155C72.2477 73.775 71.7627 74.255 71.1427 74.595C70.5327 74.935 69.8377 75.105 69.0577 75.105C67.9777 75.105 67.1227 74.745 66.4927 74.025V77.91H64.6177V66.99H66.4027V68.04C66.7127 67.66 67.0927 67.375 67.5427 67.185C68.0027 66.995 68.5077 66.9 69.0577 66.9ZM68.8477 73.5C69.5377 73.5 70.1027 73.27 70.5427 72.81C70.9927 72.35 71.2177 71.745 71.2177 70.995C71.2177 70.245 70.9927 69.64 70.5427 69.18C70.1027 68.72 69.5377 68.49 68.8477 68.49C68.3977 68.49 67.9927 68.595 67.6327 68.805C67.2727 69.005 66.9877 69.295 66.7777 69.675C66.5677 70.055 66.4627 70.495 66.4627 70.995C66.4627 71.495 66.5677 71.935 66.7777 72.315C66.9877 72.695 67.2727 72.99 67.6327 73.2C67.9927 73.4 68.3977 73.5 68.8477 73.5ZM82.4309 71.04C82.4309 71.17 82.4209 71.355 82.4009 71.595H76.1159C76.2259 72.185 76.5109 72.655 76.9709 73.005C77.4409 73.345 78.0209 73.515 78.7109 73.515C79.5909 73.515 80.3159 73.225 80.8859 72.645L81.8909 73.8C81.5309 74.23 81.0759 74.555 80.5259 74.775C79.9759 74.995 79.3559 75.105 78.6659 75.105C77.7859 75.105 77.0109 74.93 76.3409 74.58C75.6709 74.23 75.1509 73.745 74.7809 73.125C74.4209 72.495 74.2409 71.785 74.2409 70.995C74.2409 70.215 74.4159 69.515 74.7659 68.895C75.1259 68.265 75.6209 67.775 76.2509 67.425C76.8809 67.075 77.5909 66.9 78.3809 66.9C79.1609 66.9 79.8559 67.075 80.4659 67.425C81.0859 67.765 81.5659 68.25 81.9059 68.88C82.2559 69.5 82.4309 70.22 82.4309 71.04ZM78.3809 68.4C77.7809 68.4 77.2709 68.58 76.8509 68.94C76.4409 69.29 76.1909 69.76 76.1009 70.35H80.6459C80.5659 69.77 80.3209 69.3 79.9109 68.94C79.5009 68.58 78.9909 68.4 78.3809 68.4ZM86.017 68.16C86.557 67.32 87.507 66.9 88.867 66.9V68.685C88.707 68.655 88.562 68.64 88.432 68.64C87.702 68.64 87.132 68.855 86.722 69.285C86.312 69.705 86.107 70.315 86.107 71.115V75H84.232V66.99H86.017V68.16ZM92.9618 75.105C92.3118 75.105 91.6768 75.02 91.0568 74.85C90.4368 74.68 89.9418 74.465 89.5718 74.205L90.2918 72.78C90.6518 73.02 91.0818 73.215 91.5818 73.365C92.0918 73.505 92.5918 73.575 93.0818 73.575C94.2018 73.575 94.7618 73.28 94.7618 72.69C94.7618 72.41 94.6168 72.215 94.3268 72.105C94.0468 71.995 93.5918 71.89 92.9618 71.79C92.3018 71.69 91.7618 71.575 91.3418 71.445C90.9318 71.315 90.5718 71.09 90.2618 70.77C89.9618 70.44 89.8118 69.985 89.8118 69.405C89.8118 68.645 90.1268 68.04 90.7568 67.59C91.3968 67.13 92.2568 66.9 93.3368 66.9C93.8868 66.9 94.4368 66.965 94.9868 67.095C95.5368 67.215 95.9868 67.38 96.3368 67.59L95.6168 69.015C94.9368 68.615 94.1718 68.415 93.3218 68.415C92.7718 68.415 92.3518 68.5 92.0618 68.67C91.7818 68.83 91.6418 69.045 91.6418 69.315C91.6418 69.615 91.7918 69.83 92.0918 69.96C92.4018 70.08 92.8768 70.195 93.5168 70.305C94.1568 70.405 94.6818 70.52 95.0918 70.65C95.5018 70.78 95.8518 71 96.1418 71.31C96.4418 71.62 96.5918 72.06 96.5918 72.63C96.5918 73.38 96.2668 73.98 95.6168 74.43C94.9668 74.88 94.0818 75.105 92.9618 75.105Z" fill="black"/>
<rect x="119" width="310" height="77" rx="7" fill="white"/>
<rect x="120" y="1" width="308" height="75" rx="6" stroke="#88A1AC" stroke-opacity="0.2" stroke-width="2"/>
<path d="M152.499 40.4993L150.026 42.9724C149.499 43.4997 148.719 43.6838 148.012 43.448C147.208 43.1801 146.666 42.4278 146.666 41.5806V40.4993L147.797 34.8456C148.108 33.2876 149.476 32.166 151.065 32.166H158.933C160.522 32.166 161.89 33.2875 162.202 34.8456L163.333 40.4993V41.5806C163.333 42.4278 162.791 43.1801 161.987 43.448C161.279 43.6838 160.5 43.4997 159.973 42.9725L157.499 40.4993H152.499Z" stroke="black" stroke-width="1.4" stroke-linecap="round" stroke-linejoin="round"/>
<path d="M152.5 32.166L153.333 33.8327H156.667L157.5 32.166" stroke="black" stroke-width="1.4" stroke-linecap="round" stroke-linejoin="round"/>
<path d="M194.73 16.5C195.64 16.5 196.43 16.65 197.1 16.95C197.78 17.25 198.3 17.68 198.66 18.24C199.02 18.8 199.2 19.465 199.2 20.235C199.2 20.995 199.02 21.66 198.66 22.23C198.3 22.79 197.78 23.22 197.1 23.52C196.43 23.82 195.64 23.97 194.73 23.97H192.36V27H190.41V16.5H194.73ZM194.64 22.32C195.49 22.32 196.135 22.14 196.575 21.78C197.015 21.42 197.235 20.905 197.235 20.235C197.235 19.565 197.015 19.05 196.575 18.69C196.135 18.33 195.49 18.15 194.64 18.15H192.36V22.32H194.64ZM201.114 15.87H202.989V27H201.114V15.87ZM208.51 18.9C209.69 18.9 210.59 19.185 211.21 19.755C211.84 20.315 212.155 21.165 212.155 22.305V27H210.385V26.025C210.155 26.375 209.825 26.645 209.395 26.835C208.975 27.015 208.465 27.105 207.865 27.105C207.265 27.105 206.74 27.005 206.29 26.805C205.84 26.595 205.49 26.31 205.24 25.95C205 25.58 204.88 25.165 204.88 24.705C204.88 23.985 205.145 23.41 205.675 22.98C206.215 22.54 207.06 22.32 208.21 22.32H210.28V22.2C210.28 21.64 210.11 21.21 209.77 20.91C209.44 20.61 208.945 20.46 208.285 20.46C207.835 20.46 207.39 20.53 206.95 20.67C206.52 20.81 206.155 21.005 205.855 21.255L205.12 19.89C205.54 19.57 206.045 19.325 206.635 19.155C207.225 18.985 207.85 18.9 208.51 18.9ZM208.255 25.74C208.725 25.74 209.14 25.635 209.5 25.425C209.87 25.205 210.13 24.895 210.28 24.495V23.565H208.345C207.265 23.565 206.725 23.92 206.725 24.63C206.725 24.97 206.86 25.24 207.13 25.44C207.4 25.64 207.775 25.74 208.255 25.74ZM221.915 18.99L218.165 27.645C217.815 28.515 217.39 29.125 216.89 29.475C216.39 29.835 215.785 30.015 215.075 30.015C214.675 30.015 214.28 29.95 213.89 29.82C213.5 29.69 213.18 29.51 212.93 29.28L213.68 27.9C213.86 28.07 214.07 28.205 214.31 28.305C214.56 28.405 214.81 28.455 215.06 28.455C215.39 28.455 215.66 28.37 215.87 28.2C216.09 28.03 216.29 27.745 216.47 27.345L216.605 27.03L213.11 18.99H215.06L217.58 24.915L220.115 18.99H221.915ZM230.397 23.04C230.397 23.17 230.387 23.355 230.367 23.595H224.082C224.192 24.185 224.477 24.655 224.937 25.005C225.407 25.345 225.987 25.515 226.677 25.515C227.557 25.515 228.282 25.225 228.852 24.645L229.857 25.8C229.497 26.23 229.042 26.555 228.492 26.775C227.942 26.995 227.322 27.105 226.632 27.105C225.752 27.105 224.977 26.93 224.307 26.58C223.637 26.23 223.117 25.745 222.747 25.125C222.387 24.495 222.207 23.785 222.207 22.995C222.207 22.215 222.382 21.515 222.732 20.895C223.092 20.265 223.587 19.775 224.217 19.425C224.847 19.075 225.557 18.9 226.347 18.9C227.127 18.9 227.822 19.075 228.432 19.425C229.052 19.765 229.532 20.25 229.872 20.88C230.222 21.5 230.397 22.22 230.397 23.04ZM226.347 20.4C225.747 20.4 225.237 20.58 224.817 20.94C224.407 21.29 224.157 21.76 224.067 22.35H228.612C228.532 21.77 228.287 21.3 227.877 20.94C227.467 20.58 226.957 20.4 226.347 20.4ZM233.983 20.16C234.523 19.32 235.473 18.9 236.833 18.9V20.685C236.673 20.655 236.528 20.64 236.398 20.64C235.668 20.64 235.098 20.855 234.688 21.285C234.278 21.705 234.073 22.315 234.073 23.115V27H232.198V18.99H233.983V20.16ZM240.928 27.105C240.278 27.105 239.643 27.02 239.023 26.85C238.403 26.68 237.908 26.465 237.538 26.205L238.258 24.78C238.618 25.02 239.048 25.215 239.548 25.365C240.058 25.505 240.558 25.575 241.048 25.575C242.168 25.575 242.728 25.28 242.728 24.69C242.728 24.41 242.583 24.215 242.293 24.105C242.013 23.995 241.558 23.89 240.928 23.79C240.268 23.69 239.728 23.575 239.308 23.445C238.898 23.315 238.538 23.09 238.228 22.77C237.928 22.44 237.778 21.985 237.778 21.405C237.778 20.645 238.093 20.04 238.723 19.59C239.363 19.13 240.223 18.9 241.303 18.9C241.853 18.9 242.403 18.965 242.953 19.095C243.503 19.215 243.953 19.38 244.303 19.59L243.583 21.015C242.903 20.615 242.138 20.415 241.288 20.415C240.738 20.415 240.318 20.5 240.028 20.67C239.748 20.83 239.608 21.045 239.608 21.315C239.608 21.615 239.758 21.83 240.058 21.96C240.368 22.08 240.843 22.195 241.483 22.305C242.123 22.405 242.648 22.52 243.058 22.65C243.468 22.78 243.818 23 244.108 23.31C244.408 23.62 244.558 24.06 244.558 24.63C244.558 25.38 244.233 25.98 243.583 26.43C242.933 26.88 242.048 27.105 240.928 27.105Z" fill="black"/>
<path opacity="0.6" d="M196.428 42.692V44H190.128V35.6H196.26V36.908H191.688V39.092H195.744V40.376H191.688V42.692H196.428ZM200.412 37.52C201.356 37.52 202.076 37.748 202.572 38.204C203.076 38.652 203.328 39.332 203.328 40.244V44H201.912V43.22C201.728 43.5 201.464 43.716 201.12 43.868C200.784 44.012 200.376 44.084 199.896 44.084C199.416 44.084 198.996 44.004 198.636 43.844C198.276 43.676 197.996 43.448 197.796 43.16C197.604 42.864 197.508 42.532 197.508 42.164C197.508 41.588 197.72 41.128 198.144 40.784C198.576 40.432 199.252 40.256 200.172 40.256H201.828V40.16C201.828 39.712 201.692 39.368 201.42 39.128C201.156 38.888 200.76 38.768 200.232 38.768C199.872 38.768 199.516 38.824 199.164 38.936C198.82 39.048 198.528 39.204 198.288 39.404L197.7 38.312C198.036 38.056 198.44 37.86 198.912 37.724C199.384 37.588 199.884 37.52 200.412 37.52ZM200.208 42.992C200.584 42.992 200.916 42.908 201.204 42.74C201.5 42.564 201.708 42.316 201.828 41.996V41.252H200.28C199.416 41.252 198.984 41.536 198.984 42.104C198.984 42.376 199.092 42.592 199.308 42.752C199.524 42.912 199.824 42.992 200.208 42.992ZM206.682 38.528C207.114 37.856 207.874 37.52 208.962 37.52V38.948C208.834 38.924 208.718 38.912 208.614 38.912C208.03 38.912 207.574 39.084 207.246 39.428C206.918 39.764 206.754 40.252 206.754 40.892V44H205.254V37.592H206.682V38.528ZM213.87 37.52C214.678 37.52 215.326 37.756 215.814 38.228C216.302 38.7 216.546 39.4 216.546 40.328V44H215.046V40.52C215.046 39.96 214.914 39.54 214.65 39.26C214.386 38.972 214.01 38.828 213.522 38.828C212.97 38.828 212.534 38.996 212.214 39.332C211.894 39.66 211.734 40.136 211.734 40.76V44H210.234V37.592H211.662V38.42C211.91 38.124 212.222 37.9 212.598 37.748C212.974 37.596 213.398 37.52 213.87 37.52ZM225.317 37.52C225.941 37.52 226.497 37.656 226.985 37.928C227.481 38.2 227.869 38.584 228.149 39.08C228.429 39.576 228.569 40.148 228.569 40.796C228.569 41.444 228.429 42.02 228.149 42.524C227.869 43.02 227.481 43.404 226.985 43.676C226.497 43.948 225.941 44.084 225.317 44.084C224.877 44.084 224.473 44.008 224.105 43.856C223.745 43.704 223.441 43.476 223.193 43.172V44H221.765V35.096H223.265V38.372C223.521 38.092 223.821 37.88 224.165 37.736C224.517 37.592 224.901 37.52 225.317 37.52ZM225.149 42.8C225.701 42.8 226.153 42.616 226.505 42.248C226.865 41.88 227.045 41.396 227.045 40.796C227.045 40.196 226.865 39.712 226.505 39.344C226.153 38.976 225.701 38.792 225.149 38.792C224.789 38.792 224.465 38.876 224.177 39.044C223.889 39.204 223.661 39.436 223.493 39.74C223.325 40.044 223.241 40.396 223.241 40.796C223.241 41.196 223.325 41.548 223.493 41.852C223.661 42.156 223.889 42.392 224.177 42.56C224.465 42.72 224.789 42.8 225.149 42.8ZM229.992 37.592H231.492V44H229.992V37.592ZM230.748 36.536C230.476 36.536 230.248 36.452 230.064 36.284C229.88 36.108 229.788 35.892 229.788 35.636C229.788 35.38 229.88 35.168 230.064 35C230.248 34.824 230.476 34.736 230.748 34.736C231.02 34.736 231.248 34.82 231.432 34.988C231.616 35.148 231.708 35.352 231.708 35.6C231.708 35.864 231.616 36.088 231.432 36.272C231.256 36.448 231.028 36.536 230.748 36.536ZM237.313 43.652C237.137 43.796 236.921 43.904 236.665 43.976C236.417 44.048 236.153 44.084 235.873 44.084C235.169 44.084 234.625 43.9 234.241 43.532C233.857 43.164 233.665 42.628 233.665 41.924V38.84H232.609V37.64H233.665V36.176H235.165V37.64H236.881V38.84H235.165V41.888C235.165 42.2 235.241 42.44 235.393 42.608C235.545 42.768 235.765 42.848 236.053 42.848C236.389 42.848 236.669 42.76 236.893 42.584L237.313 43.652ZM241.276 44.084C240.612 44.084 240.016 43.944 239.488 43.664C238.96 43.384 238.548 42.996 238.252 42.5C237.956 41.996 237.808 41.428 237.808 40.796C237.808 40.164 237.956 39.6 238.252 39.104C238.548 38.608 238.956 38.22 239.476 37.94C240.004 37.66 240.604 37.52 241.276 37.52C241.908 37.52 242.46 37.648 242.932 37.904C243.412 38.16 243.772 38.528 244.012 39.008L242.86 39.68C242.676 39.384 242.444 39.164 242.164 39.02C241.892 38.868 241.592 38.792 241.264 38.792C240.704 38.792 240.24 38.976 239.872 39.344C239.504 39.704 239.32 40.188 239.32 40.796C239.32 41.404 239.5 41.892 239.86 42.26C240.228 42.62 240.696 42.8 241.264 42.8C241.592 42.8 241.892 42.728 242.164 42.584C242.444 42.432 242.676 42.208 242.86 41.912L244.012 42.584C243.764 43.064 243.4 43.436 242.92 43.7C242.448 43.956 241.9 44.084 241.276 44.084ZM248.094 44.084C247.446 44.084 246.862 43.944 246.342 43.664C245.822 43.384 245.414 42.996 245.118 42.5C244.83 41.996 244.686 41.428 244.686 40.796C244.686 40.164 244.83 39.6 245.118 39.104C245.414 38.608 245.822 38.22 246.342 37.94C246.862 37.66 247.446 37.52 248.094 37.52C248.75 37.52 249.338 37.66 249.858 37.94C250.378 38.22 250.782 38.608 251.07 39.104C251.366 39.6 251.514 40.164 251.514 40.796C251.514 41.428 251.366 41.996 251.07 42.5C250.782 42.996 250.378 43.384 249.858 43.664C249.338 43.944 248.75 44.084 248.094 44.084ZM248.094 42.8C248.646 42.8 249.102 42.616 249.462 42.248C249.822 41.88 250.002 41.396 250.002 40.796C250.002 40.196 249.822 39.712 249.462 39.344C249.102 38.976 248.646 38.792 248.094 38.792C247.542 38.792 247.086 38.976 246.726 39.344C246.374 39.712 246.198 40.196 246.198 40.796C246.198 41.396 246.374 41.88 246.726 42.248C247.086 42.616 247.542 42.8 248.094 42.8ZM252.949 37.592H254.449V44H252.949V37.592ZM253.705 36.536C253.433 36.536 253.205 36.452 253.021 36.284C252.837 36.108 252.745 35.892 252.745 35.636C252.745 35.38 252.837 35.168 253.021 35C253.205 34.824 253.433 34.736 253.705 34.736C253.977 34.736 254.205 34.82 254.389 34.988C254.573 35.148 254.665 35.352 254.665 35.6C254.665 35.864 254.573 36.088 254.389 36.272C254.213 36.448 253.985 36.536 253.705 36.536ZM260.054 37.52C260.862 37.52 261.51 37.756 261.998 38.228C262.486 38.7 262.73 39.4 262.73 40.328V44H261.23V40.52C261.23 39.96 261.098 39.54 260.834 39.26C260.57 38.972 260.194 38.828 259.706 38.828C259.154 38.828 258.718 38.996 258.398 39.332C258.078 39.66 257.918 40.136 257.918 40.76V44H256.418V37.592H257.846V38.42C258.094 38.124 258.406 37.9 258.782 37.748C259.158 37.596 259.582 37.52 260.054 37.52ZM271.501 37.52C272.125 37.52 272.681 37.656 273.169 37.928C273.665 38.2 274.053 38.584 274.333 39.08C274.613 39.576 274.753 40.148 274.753 40.796C274.753 41.444 274.613 42.02 274.333 42.524C274.053 43.02 273.665 43.404 273.169 43.676C272.681 43.948 272.125 44.084 271.501 44.084C270.637 44.084 269.953 43.796 269.449 43.22V46.328H267.949V37.592H269.377V38.432C269.625 38.128 269.929 37.9 270.289 37.748C270.657 37.596 271.061 37.52 271.501 37.52ZM271.333 42.8C271.885 42.8 272.337 42.616 272.689 42.248C273.049 41.88 273.229 41.396 273.229 40.796C273.229 40.196 273.049 39.712 272.689 39.344C272.337 38.976 271.885 38.792 271.333 38.792C270.973 38.792 270.649 38.876 270.361 39.044C270.073 39.204 269.845 39.436 269.677 39.74C269.509 40.044 269.425 40.396 269.425 40.796C269.425 41.196 269.509 41.548 269.677 41.852C269.845 42.156 270.073 42.392 270.361 42.56C270.649 42.72 270.973 42.8 271.333 42.8ZM276.175 35.096H277.675V44H276.175V35.096ZM282.092 37.52C283.036 37.52 283.756 37.748 284.252 38.204C284.756 38.652 285.008 39.332 285.008 40.244V44H283.592V43.22C283.408 43.5 283.144 43.716 282.8 43.868C282.464 44.012 282.056 44.084 281.576 44.084C281.096 44.084 280.676 44.004 280.316 43.844C279.956 43.676 279.676 43.448 279.476 43.16C279.284 42.864 279.188 42.532 279.188 42.164C279.188 41.588 279.4 41.128 279.824 40.784C280.256 40.432 280.932 40.256 281.852 40.256H283.508V40.16C283.508 39.712 283.372 39.368 283.1 39.128C282.836 38.888 282.44 38.768 281.912 38.768C281.552 38.768 281.196 38.824 280.844 38.936C280.5 39.048 280.208 39.204 279.968 39.404L279.38 38.312C279.716 38.056 280.12 37.86 280.592 37.724C281.064 37.588 281.564 37.52 282.092 37.52ZM281.888 42.992C282.264 42.992 282.596 42.908 282.884 42.74C283.18 42.564 283.388 42.316 283.508 41.996V41.252H281.96C281.096 41.252 280.664 41.536 280.664 42.104C280.664 42.376 280.772 42.592 280.988 42.752C281.204 42.912 281.504 42.992 281.888 42.992ZM292.816 37.592L289.816 44.516C289.536 45.212 289.196 45.7 288.796 45.98C288.396 46.268 287.912 46.412 287.344 46.412C287.024 46.412 286.708 46.36 286.396 46.256C286.084 46.152 285.828 46.008 285.628 45.824L286.228 44.72C286.372 44.856 286.54 44.964 286.732 45.044C286.932 45.124 287.132 45.164 287.332 45.164C287.596 45.164 287.812 45.096 287.98 44.96C288.156 44.824 288.316 44.596 288.46 44.276L288.568 44.024L285.772 37.592H287.332L289.348 42.332L291.376 37.592H292.816ZM293.754 37.592H295.254V44H293.754V37.592ZM294.51 36.536C294.238 36.536 294.01 36.452 293.826 36.284C293.642 36.108 293.55 35.892 293.55 35.636C293.55 35.38 293.642 35.168 293.826 35C294.01 34.824 294.238 34.736 294.51 34.736C294.782 34.736 295.01 34.82 295.194 34.988C295.378 35.148 295.47 35.352 295.47 35.6C295.47 35.864 295.378 36.088 295.194 36.272C295.018 36.448 294.79 36.536 294.51 36.536ZM300.858 37.52C301.666 37.52 302.314 37.756 302.802 38.228C303.29 38.7 303.534 39.4 303.534 40.328V44H302.034V40.52C302.034 39.96 301.902 39.54 301.638 39.26C301.374 38.972 300.998 38.828 300.51 38.828C299.958 38.828 299.522 38.996 299.202 39.332C298.882 39.66 298.722 40.136 298.722 40.76V44H297.222V37.592H298.65V38.42C298.898 38.124 299.21 37.9 299.586 37.748C299.962 37.596 300.386 37.52 300.858 37.52ZM311.856 37.592V43.028C311.856 45.284 310.704 46.412 308.4 46.412C307.784 46.412 307.2 46.332 306.648 46.172C306.096 46.02 305.64 45.796 305.28 45.5L305.952 44.372C306.232 44.604 306.584 44.788 307.008 44.924C307.44 45.068 307.876 45.14 308.316 45.14C309.02 45.14 309.536 44.98 309.864 44.66C310.192 44.34 310.356 43.852 310.356 43.196V42.86C310.1 43.14 309.788 43.352 309.42 43.496C309.052 43.64 308.648 43.712 308.208 43.712C307.6 43.712 307.048 43.584 306.552 43.328C306.064 43.064 305.676 42.696 305.388 42.224C305.108 41.752 304.968 41.212 304.968 40.604C304.968 39.996 305.108 39.46 305.388 38.996C305.676 38.524 306.064 38.16 306.552 37.904C307.048 37.648 307.6 37.52 308.208 37.52C308.672 37.52 309.092 37.596 309.468 37.748C309.852 37.9 310.172 38.132 310.428 38.444V37.592H311.856ZM308.436 42.44C309.004 42.44 309.468 42.272 309.828 41.936C310.196 41.592 310.38 41.148 310.38 40.604C310.38 40.068 310.196 39.632 309.828 39.296C309.468 38.96 309.004 38.792 308.436 38.792C307.86 38.792 307.388 38.96 307.02 39.296C306.66 39.632 306.48 40.068 306.48 40.604C306.48 41.148 306.66 41.592 307.02 41.936C307.388 42.272 307.86 42.44 308.436 42.44ZM323.504 37.592V43.028C323.504 45.284 322.352 46.412 320.048 46.412C319.432 46.412 318.848 46.332 318.296 46.172C317.744 46.02 317.288 45.796 316.928 45.5L317.6 44.372C317.88 44.604 318.232 44.788 318.656 44.924C319.088 45.068 319.524 45.14 319.964 45.14C320.668 45.14 321.184 44.98 321.512 44.66C321.84 44.34 322.004 43.852 322.004 43.196V42.86C321.748 43.14 321.436 43.352 321.068 43.496C320.7 43.64 320.296 43.712 319.856 43.712C319.248 43.712 318.696 43.584 318.2 43.328C317.712 43.064 317.324 42.696 317.036 42.224C316.756 41.752 316.616 41.212 316.616 40.604C316.616 39.996 316.756 39.46 317.036 38.996C317.324 38.524 317.712 38.16 318.2 37.904C318.696 37.648 319.248 37.52 319.856 37.52C320.32 37.52 320.74 37.596 321.116 37.748C321.5 37.9 321.82 38.132 322.076 38.444V37.592H323.504ZM320.084 42.44C320.652 42.44 321.116 42.272 321.476 41.936C321.844 41.592 322.028 41.148 322.028 40.604C322.028 40.068 321.844 39.632 321.476 39.296C321.116 38.96 320.652 38.792 320.084 38.792C319.508 38.792 319.036 38.96 318.668 39.296C318.308 39.632 318.128 40.068 318.128 40.604C318.128 41.148 318.308 41.592 318.668 41.936C319.036 42.272 319.508 42.44 320.084 42.44ZM327.924 37.52C328.868 37.52 329.588 37.748 330.084 38.204C330.588 38.652 330.84 39.332 330.84 40.244V44H329.424V43.22C329.24 43.5 328.976 43.716 328.632 43.868C328.296 44.012 327.888 44.084 327.408 44.084C326.928 44.084 326.508 44.004 326.148 43.844C325.788 43.676 325.508 43.448 325.308 43.16C325.116 42.864 325.02 42.532 325.02 42.164C325.02 41.588 325.232 41.128 325.656 40.784C326.088 40.432 326.764 40.256 327.684 40.256H329.34V40.16C329.34 39.712 329.204 39.368 328.932 39.128C328.668 38.888 328.272 38.768 327.744 38.768C327.384 38.768 327.028 38.824 326.676 38.936C326.332 39.048 326.04 39.204 325.8 39.404L325.212 38.312C325.548 38.056 325.952 37.86 326.424 37.724C326.896 37.588 327.396 37.52 327.924 37.52ZM327.72 42.992C328.096 42.992 328.428 42.908 328.716 42.74C329.012 42.564 329.22 42.316 329.34 41.996V41.252H327.792C326.928 41.252 326.496 41.536 326.496 42.104C326.496 42.376 326.604 42.592 326.82 42.752C327.036 42.912 327.336 42.992 327.72 42.992ZM340.853 37.52C341.661 37.52 342.301 37.756 342.773 38.228C343.245 38.692 343.481 39.392 343.481 40.328V44H341.981V40.52C341.981 39.96 341.857 39.54 341.609 39.26C341.361 38.972 341.005 38.828 340.541 38.828C340.037 38.828 339.633 38.996 339.329 39.332C339.025 39.66 338.873 40.132 338.873 40.748V44H337.373V40.52C337.373 39.96 337.249 39.54 337.001 39.26C336.753 38.972 336.397 38.828 335.933 38.828C335.421 38.828 335.013 38.992 334.709 39.32C334.413 39.648 334.265 40.124 334.265 40.748V44H332.765V37.592H334.193V38.408C334.433 38.12 334.733 37.9 335.093 37.748C335.453 37.596 335.853 37.52 336.293 37.52C336.773 37.52 337.197 37.612 337.565 37.796C337.941 37.972 338.237 38.236 338.453 38.588C338.717 38.252 339.057 37.992 339.473 37.808C339.889 37.616 340.349 37.52 340.853 37.52ZM351.481 40.832C351.481 40.936 351.473 41.084 351.457 41.276H346.429C346.517 41.748 346.745 42.124 347.113 42.404C347.489 42.676 347.953 42.812 348.505 42.812C349.209 42.812 349.789 42.58 350.245 42.116L351.049 43.04C350.761 43.384 350.397 43.644 349.957 43.82C349.517 43.996 349.021 44.084 348.469 44.084C347.765 44.084 347.145 43.944 346.609 43.664C346.073 43.384 345.657 42.996 345.361 42.5C345.073 41.996 344.929 41.428 344.929 40.796C344.929 40.172 345.069 39.612 345.349 39.116C345.637 38.612 346.033 38.22 346.537 37.94C347.041 37.66 347.609 37.52 348.241 37.52C348.865 37.52 349.421 37.66 349.909 37.94C350.405 38.212 350.789 38.6 351.061 39.104C351.341 39.6 351.481 40.176 351.481 40.832ZM348.241 38.72C347.761 38.72 347.353 38.864 347.017 39.152C346.689 39.432 346.489 39.808 346.417 40.28H350.053C349.989 39.816 349.793 39.44 349.465 39.152C349.137 38.864 348.729 38.72 348.241 38.72ZM354.902 44.084C354.382 44.084 353.874 44.016 353.378 43.88C352.882 43.744 352.486 43.572 352.19 43.364L352.766 42.224C353.054 42.416 353.398 42.572 353.798 42.692C354.206 42.804 354.606 42.86 354.998 42.86C355.894 42.86 356.342 42.624 356.342 42.152C356.342 41.928 356.226 41.772 355.994 41.684C355.77 41.596 355.406 41.512 354.902 41.432C354.374 41.352 353.942 41.26 353.606 41.156C353.278 41.052 352.99 40.872 352.742 40.616C352.502 40.352 352.382 39.988 352.382 39.524C352.382 38.916 352.634 38.432 353.138 38.072C353.65 37.704 354.338 37.52 355.202 37.52C355.642 37.52 356.082 37.572 356.522 37.676C356.962 37.772 357.322 37.904 357.602 38.072L357.026 39.212C356.482 38.892 355.87 38.732 355.19 38.732C354.75 38.732 354.414 38.8 354.182 38.936C353.958 39.064 353.846 39.236 353.846 39.452C353.846 39.692 353.966 39.864 354.206 39.968C354.454 40.064 354.834 40.156 355.346 40.244C355.858 40.324 356.278 40.416 356.606 40.52C356.934 40.624 357.214 40.8 357.446 41.048C357.686 41.296 357.806 41.648 357.806 42.104C357.806 42.704 357.546 43.184 357.026 43.544C356.506 43.904 355.798 44.084 354.902 44.084ZM365.294 44.084C364.646 44.084 364.062 43.944 363.542 43.664C363.022 43.384 362.614 42.996 362.318 42.5C362.03 41.996 361.886 41.428 361.886 40.796C361.886 40.164 362.03 39.6 362.318 39.104C362.614 38.608 363.022 38.22 363.542 37.94C364.062 37.66 364.646 37.52 365.294 37.52C365.95 37.52 366.538 37.66 367.058 37.94C367.578 38.22 367.982 38.608 368.27 39.104C368.566 39.6 368.714 40.164 368.714 40.796C368.714 41.428 368.566 41.996 368.27 42.5C367.982 42.996 367.578 43.384 367.058 43.664C366.538 43.944 365.95 44.084 365.294 44.084ZM365.294 42.8C365.846 42.8 366.302 42.616 366.662 42.248C367.022 41.88 367.202 41.396 367.202 40.796C367.202 40.196 367.022 39.712 366.662 39.344C366.302 38.976 365.846 38.792 365.294 38.792C364.742 38.792 364.286 38.976 363.926 39.344C363.574 39.712 363.398 40.196 363.398 40.796C363.398 41.396 363.574 41.88 363.926 42.248C364.286 42.616 364.742 42.8 365.294 42.8ZM371.576 38.528C372.008 37.856 372.768 37.52 373.856 37.52V38.948C373.728 38.924 373.612 38.912 373.508 38.912C372.924 38.912 372.468 39.084 372.14 39.428C371.812 39.764 371.648 40.252 371.648 40.892V44H370.148V37.592H371.576V38.528ZM191.964 59.084C191.444 59.084 190.936 59.016 190.44 58.88C189.944 58.744 189.548 58.572 189.252 58.364L189.828 57.224C190.116 57.416 190.46 57.572 190.86 57.692C191.268 57.804 191.668 57.86 192.06 57.86C192.956 57.86 193.404 57.624 193.404 57.152C193.404 56.928 193.288 56.772 193.056 56.684C192.832 56.596 192.468 56.512 191.964 56.432C191.436 56.352 191.004 56.26 190.668 56.156C190.34 56.052 190.052 55.872 189.804 55.616C189.564 55.352 189.444 54.988 189.444 54.524C189.444 53.916 189.696 53.432 190.2 53.072C190.712 52.704 191.4 52.52 192.264 52.52C192.704 52.52 193.144 52.572 193.584 52.676C194.024 52.772 194.384 52.904 194.664 53.072L194.088 54.212C193.544 53.892 192.932 53.732 192.252 53.732C191.812 53.732 191.476 53.8 191.244 53.936C191.02 54.064 190.908 54.236 190.908 54.452C190.908 54.692 191.028 54.864 191.268 54.968C191.516 55.064 191.896 55.156 192.408 55.244C192.92 55.324 193.34 55.416 193.668 55.52C193.996 55.624 194.276 55.8 194.508 56.048C194.748 56.296 194.868 56.648 194.868 57.104C194.868 57.704 194.608 58.184 194.088 58.544C193.568 58.904 192.86 59.084 191.964 59.084ZM200.012 58.652C199.836 58.796 199.62 58.904 199.364 58.976C199.116 59.048 198.852 59.084 198.572 59.084C197.868 59.084 197.324 58.9 196.94 58.532C196.556 58.164 196.364 57.628 196.364 56.924V53.84H195.308V52.64H196.364V51.176H197.864V52.64H199.58V53.84H197.864V56.888C197.864 57.2 197.94 57.44 198.092 57.608C198.244 57.768 198.464 57.848 198.752 57.848C199.088 57.848 199.368 57.76 199.592 57.584L200.012 58.652ZM202.674 53.528C203.106 52.856 203.866 52.52 204.954 52.52V53.948C204.826 53.924 204.71 53.912 204.606 53.912C204.022 53.912 203.566 54.084 203.238 54.428C202.91 54.764 202.746 55.252 202.746 55.892V59H201.246V52.592H202.674V53.528ZM212.192 55.832C212.192 55.936 212.184 56.084 212.168 56.276H207.14C207.228 56.748 207.456 57.124 207.824 57.404C208.2 57.676 208.664 57.812 209.216 57.812C209.92 57.812 210.5 57.58 210.956 57.116L211.76 58.04C211.472 58.384 211.108 58.644 210.668 58.82C210.228 58.996 209.732 59.084 209.18 59.084C208.476 59.084 207.856 58.944 207.32 58.664C206.784 58.384 206.368 57.996 206.072 57.5C205.784 56.996 205.64 56.428 205.64 55.796C205.64 55.172 205.78 54.612 206.06 54.116C206.348 53.612 206.744 53.22 207.248 52.94C207.752 52.66 208.32 52.52 208.952 52.52C209.576 52.52 210.132 52.66 210.62 52.94C211.116 53.212 211.5 53.6 211.772 54.104C212.052 54.6 212.192 55.176 212.192 55.832ZM208.952 53.72C208.472 53.72 208.064 53.864 207.728 54.152C207.4 54.432 207.2 54.808 207.128 55.28H210.764C210.7 54.816 210.504 54.44 210.176 54.152C209.848 53.864 209.44 53.72 208.952 53.72ZM215.905 52.52C216.849 52.52 217.569 52.748 218.065 53.204C218.569 53.652 218.821 54.332 218.821 55.244V59H217.405V58.22C217.221 58.5 216.957 58.716 216.613 58.868C216.277 59.012 215.869 59.084 215.389 59.084C214.909 59.084 214.489 59.004 214.129 58.844C213.769 58.676 213.489 58.448 213.289 58.16C213.097 57.864 213.001 57.532 213.001 57.164C213.001 56.588 213.213 56.128 213.637 55.784C214.069 55.432 214.745 55.256 215.665 55.256H217.321V55.16C217.321 54.712 217.185 54.368 216.913 54.128C216.649 53.888 216.253 53.768 215.725 53.768C215.365 53.768 215.009 53.824 214.657 53.936C214.313 54.048 214.021 54.204 213.781 54.404L213.193 53.312C213.529 53.056 213.933 52.86 214.405 52.724C214.877 52.588 215.377 52.52 215.905 52.52ZM215.701 57.992C216.077 57.992 216.409 57.908 216.697 57.74C216.993 57.564 217.201 57.316 217.321 56.996V56.252H215.773C214.909 56.252 214.477 56.536 214.477 57.104C214.477 57.376 214.585 57.592 214.801 57.752C215.017 57.912 215.317 57.992 215.701 57.992ZM228.834 52.52C229.642 52.52 230.282 52.756 230.754 53.228C231.226 53.692 231.462 54.392 231.462 55.328V59H229.962V55.52C229.962 54.96 229.838 54.54 229.59 54.26C229.342 53.972 228.986 53.828 228.522 53.828C228.018 53.828 227.614 53.996 227.31 54.332C227.006 54.66 226.854 55.132 226.854 55.748V59H225.354V55.52C225.354 54.96 225.23 54.54 224.982 54.26C224.734 53.972 224.378 53.828 223.914 53.828C223.402 53.828 222.994 53.992 222.69 54.32C222.394 54.648 222.246 55.124 222.246 55.748V59H220.746V52.592H222.174V53.408C222.414 53.12 222.714 52.9 223.074 52.748C223.434 52.596 223.834 52.52 224.274 52.52C224.754 52.52 225.178 52.612 225.546 52.796C225.922 52.972 226.218 53.236 226.434 53.588C226.698 53.252 227.038 52.992 227.454 52.808C227.87 52.616 228.33 52.52 228.834 52.52ZM233.379 52.592H234.879V59H233.379V52.592ZM234.135 51.536C233.863 51.536 233.635 51.452 233.451 51.284C233.267 51.108 233.175 50.892 233.175 50.636C233.175 50.38 233.267 50.168 233.451 50C233.635 49.824 233.863 49.736 234.135 49.736C234.407 49.736 234.635 49.82 234.819 49.988C235.003 50.148 235.095 50.352 235.095 50.6C235.095 50.864 235.003 51.088 234.819 51.272C234.643 51.448 234.415 51.536 234.135 51.536ZM240.483 52.52C241.291 52.52 241.939 52.756 242.427 53.228C242.915 53.7 243.159 54.4 243.159 55.328V59H241.659V55.52C241.659 54.96 241.527 54.54 241.263 54.26C240.999 53.972 240.623 53.828 240.135 53.828C239.583 53.828 239.147 53.996 238.827 54.332C238.507 54.66 238.347 55.136 238.347 55.76V59H236.847V52.592H238.275V53.42C238.523 53.124 238.835 52.9 239.211 52.748C239.587 52.596 240.011 52.52 240.483 52.52ZM251.481 52.592V58.028C251.481 60.284 250.329 61.412 248.025 61.412C247.409 61.412 246.825 61.332 246.273 61.172C245.721 61.02 245.265 60.796 244.905 60.5L245.577 59.372C245.857 59.604 246.209 59.788 246.633 59.924C247.065 60.068 247.501 60.14 247.941 60.14C248.645 60.14 249.161 59.98 249.489 59.66C249.817 59.34 249.981 58.852 249.981 58.196V57.86C249.725 58.14 249.413 58.352 249.045 58.496C248.677 58.64 248.273 58.712 247.833 58.712C247.225 58.712 246.673 58.584 246.177 58.328C245.689 58.064 245.301 57.696 245.013 57.224C244.733 56.752 244.593 56.212 244.593 55.604C244.593 54.996 244.733 54.46 245.013 53.996C245.301 53.524 245.689 53.16 246.177 52.904C246.673 52.648 247.225 52.52 247.833 52.52C248.297 52.52 248.717 52.596 249.093 52.748C249.477 52.9 249.797 53.132 250.053 53.444V52.592H251.481ZM248.061 57.44C248.629 57.44 249.093 57.272 249.453 56.936C249.821 56.592 250.005 56.148 250.005 55.604C250.005 55.068 249.821 54.632 249.453 54.296C249.093 53.96 248.629 53.792 248.061 53.792C247.485 53.792 247.013 53.96 246.645 54.296C246.285 54.632 246.105 55.068 246.105 55.604C246.105 56.148 246.285 56.592 246.645 56.936C247.013 57.272 247.485 57.44 248.061 57.44ZM253.933 59.084C253.661 59.084 253.429 58.992 253.237 58.808C253.045 58.616 252.949 58.376 252.949 58.088C252.949 57.792 253.041 57.552 253.225 57.368C253.417 57.184 253.653 57.092 253.933 57.092C254.213 57.092 254.445 57.184 254.629 57.368C254.821 57.552 254.917 57.792 254.917 58.088C254.917 58.376 254.821 58.616 254.629 58.808C254.437 58.992 254.205 59.084 253.933 59.084Z" fill="black"/>
<rect x="119" y="89" width="310" height="77" rx="7" fill="white"/>
<rect x="120" y="90" width="308" height="75" rx="6" stroke="#88A1AC" stroke-opacity="0.2" stroke-width="2"/>
<path fill-rule="evenodd" clip-rule="evenodd" d="M156.454 127.19L160.416 123.228C159.315 121.867 157.633 121 155.75 121C152.436 121 149.75 123.686 149.75 127C149.75 130.314 152.436 133 155.75 133C156.86 133 157.897 132.7 158.788 132.175L156.454 129.841C155.722 129.109 155.722 127.922 156.454 127.19ZM162.205 123.179C162.29 123.322 162.263 123.503 162.145 123.62L157.515 128.25C157.369 128.397 157.369 128.634 157.515 128.781L160.78 132.046C160.927 132.192 160.927 132.431 160.773 132.57C159.443 133.769 157.682 134.5 155.75 134.5C151.608 134.5 148.25 131.142 148.25 127C148.25 122.858 151.608 119.5 155.75 119.5C158.497 119.5 160.898 120.976 162.205 123.179ZM156.5 124.75C156.914 124.75 157.25 124.414 157.25 124C157.25 123.586 156.914 123.25 156.5 123.25C156.086 123.25 155.75 123.586 155.75 124C155.75 124.414 156.086 124.75 156.5 124.75Z" fill="black"/>
<path d="M195.27 116.15C194.21 116.15 193.25 115.92 192.39 115.46C191.54 114.99 190.87 114.345 190.38 113.525C189.9 112.705 189.66 111.78 189.66 110.75C189.66 109.72 189.905 108.795 190.395 107.975C190.885 107.155 191.555 106.515 192.405 106.055C193.265 105.585 194.225 105.35 195.285 105.35C196.145 105.35 196.93 105.5 197.64 105.8C198.35 106.1 198.95 106.535 199.44 107.105L198.18 108.29C197.42 107.47 196.485 107.06 195.375 107.06C194.655 107.06 194.01 107.22 193.44 107.54C192.87 107.85 192.425 108.285 192.105 108.845C191.785 109.405 191.625 110.04 191.625 110.75C191.625 111.46 191.785 112.095 192.105 112.655C192.425 113.215 192.87 113.655 193.44 113.975C194.01 114.285 194.655 114.44 195.375 114.44C196.485 114.44 197.42 114.025 198.18 113.195L199.44 114.395C198.95 114.965 198.345 115.4 197.625 115.7C196.915 116 196.13 116.15 195.27 116.15ZM204.435 116.105C203.625 116.105 202.895 115.93 202.245 115.58C201.595 115.23 201.085 114.745 200.715 114.125C200.355 113.495 200.175 112.785 200.175 111.995C200.175 111.205 200.355 110.5 200.715 109.88C201.085 109.26 201.595 108.775 202.245 108.425C202.895 108.075 203.625 107.9 204.435 107.9C205.255 107.9 205.99 108.075 206.64 108.425C207.29 108.775 207.795 109.26 208.155 109.88C208.525 110.5 208.71 111.205 208.71 111.995C208.71 112.785 208.525 113.495 208.155 114.125C207.795 114.745 207.29 115.23 206.64 115.58C205.99 115.93 205.255 116.105 204.435 116.105ZM204.435 114.5C205.125 114.5 205.695 114.27 206.145 113.81C206.595 113.35 206.82 112.745 206.82 111.995C206.82 111.245 206.595 110.64 206.145 110.18C205.695 109.72 205.125 109.49 204.435 109.49C203.745 109.49 203.175 109.72 202.725 110.18C202.285 110.64 202.065 111.245 202.065 111.995C202.065 112.745 202.285 113.35 202.725 113.81C203.175 114.27 203.745 114.5 204.435 114.5ZM210.503 104.87H212.378V116H210.503V104.87ZM214.839 104.87H216.714V116H214.839V104.87ZM222.235 107.9C223.415 107.9 224.315 108.185 224.935 108.755C225.565 109.315 225.88 110.165 225.88 111.305V116H224.11V115.025C223.88 115.375 223.55 115.645 223.12 115.835C222.7 116.015 222.19 116.105 221.59 116.105C220.99 116.105 220.465 116.005 220.015 115.805C219.565 115.595 219.215 115.31 218.965 114.95C218.725 114.58 218.605 114.165 218.605 113.705C218.605 112.985 218.87 112.41 219.4 111.98C219.94 111.54 220.785 111.32 221.935 111.32H224.005V111.2C224.005 110.64 223.835 110.21 223.495 109.91C223.165 109.61 222.67 109.46 222.01 109.46C221.56 109.46 221.115 109.53 220.675 109.67C220.245 109.81 219.88 110.005 219.58 110.255L218.845 108.89C219.265 108.57 219.77 108.325 220.36 108.155C220.95 107.985 221.575 107.9 222.235 107.9ZM221.98 114.74C222.45 114.74 222.865 114.635 223.225 114.425C223.595 114.205 223.855 113.895 224.005 113.495V112.565H222.07C220.99 112.565 220.45 112.92 220.45 113.63C220.45 113.97 220.585 114.24 220.855 114.44C221.125 114.64 221.5 114.74 221.98 114.74ZM232.727 107.9C233.507 107.9 234.202 108.07 234.812 108.41C235.432 108.75 235.917 109.23 236.267 109.85C236.617 110.47 236.792 111.185 236.792 111.995C236.792 112.805 236.617 113.525 236.267 114.155C235.917 114.775 235.432 115.255 234.812 115.595C234.202 115.935 233.507 116.105 232.727 116.105C232.177 116.105 231.672 116.01 231.212 115.82C230.762 115.63 230.382 115.345 230.072 114.965V116H228.287V104.87H230.162V108.965C230.482 108.615 230.857 108.35 231.287 108.17C231.727 107.99 232.207 107.9 232.727 107.9ZM232.517 114.5C233.207 114.5 233.772 114.27 234.212 113.81C234.662 113.35 234.887 112.745 234.887 111.995C234.887 111.245 234.662 110.64 234.212 110.18C233.772 109.72 233.207 109.49 232.517 109.49C232.067 109.49 231.662 109.595 231.302 109.805C230.942 110.005 230.657 110.295 230.447 110.675C230.237 111.055 230.132 111.495 230.132 111.995C230.132 112.495 230.237 112.935 230.447 113.315C230.657 113.695 230.942 113.99 231.302 114.2C231.662 114.4 232.067 114.5 232.517 114.5ZM242.17 116.105C241.36 116.105 240.63 115.93 239.98 115.58C239.33 115.23 238.82 114.745 238.45 114.125C238.09 113.495 237.91 112.785 237.91 111.995C237.91 111.205 238.09 110.5 238.45 109.88C238.82 109.26 239.33 108.775 239.98 108.425C240.63 108.075 241.36 107.9 242.17 107.9C242.99 107.9 243.725 108.075 244.375 108.425C245.025 108.775 245.53 109.26 245.89 109.88C246.26 110.5 246.445 111.205 246.445 111.995C246.445 112.785 246.26 113.495 245.89 114.125C245.53 114.745 245.025 115.23 244.375 115.58C243.725 115.93 242.99 116.105 242.17 116.105ZM242.17 114.5C242.86 114.5 243.43 114.27 243.88 113.81C244.33 113.35 244.555 112.745 244.555 111.995C244.555 111.245 244.33 110.64 243.88 110.18C243.43 109.72 242.86 109.49 242.17 109.49C241.48 109.49 240.91 109.72 240.46 110.18C240.02 110.64 239.8 111.245 239.8 111.995C239.8 112.745 240.02 113.35 240.46 113.81C240.91 114.27 241.48 114.5 242.17 114.5ZM250.023 109.16C250.563 108.32 251.513 107.9 252.873 107.9V109.685C252.713 109.655 252.568 109.64 252.438 109.64C251.708 109.64 251.138 109.855 250.728 110.285C250.318 110.705 250.113 111.315 250.113 112.115V116H248.238V107.99H250.023V109.16ZM257.479 107.9C258.659 107.9 259.559 108.185 260.179 108.755C260.809 109.315 261.124 110.165 261.124 111.305V116H259.354V115.025C259.124 115.375 258.794 115.645 258.364 115.835C257.944 116.015 257.434 116.105 256.834 116.105C256.234 116.105 255.709 116.005 255.259 115.805C254.809 115.595 254.459 115.31 254.209 114.95C253.969 114.58 253.849 114.165 253.849 113.705C253.849 112.985 254.114 112.41 254.644 111.98C255.184 111.54 256.029 111.32 257.179 111.32H259.249V111.2C259.249 110.64 259.079 110.21 258.739 109.91C258.409 109.61 257.914 109.46 257.254 109.46C256.804 109.46 256.359 109.53 255.919 109.67C255.489 109.81 255.124 110.005 254.824 110.255L254.089 108.89C254.509 108.57 255.014 108.325 255.604 108.155C256.194 107.985 256.819 107.9 257.479 107.9ZM257.224 114.74C257.694 114.74 258.109 114.635 258.469 114.425C258.839 114.205 259.099 113.895 259.249 113.495V112.565H257.314C256.234 112.565 255.694 112.92 255.694 113.63C255.694 113.97 255.829 114.24 256.099 114.44C256.369 114.64 256.744 114.74 257.224 114.74ZM268.346 115.565C268.126 115.745 267.856 115.88 267.536 115.97C267.226 116.06 266.896 116.105 266.546 116.105C265.666 116.105 264.986 115.875 264.506 115.415C264.026 114.955 263.786 114.285 263.786 113.405V109.55H262.466V108.05H263.786V106.22H265.661V108.05H267.806V109.55H265.661V113.36C265.661 113.75 265.756 114.05 265.946 114.26C266.136 114.46 266.411 114.56 266.771 114.56C267.191 114.56 267.541 114.45 267.821 114.23L268.346 115.565ZM277.155 112.04C277.155 112.17 277.145 112.355 277.125 112.595H270.84C270.95 113.185 271.235 113.655 271.695 114.005C272.165 114.345 272.745 114.515 273.435 114.515C274.315 114.515 275.04 114.225 275.61 113.645L276.615 114.8C276.255 115.23 275.8 115.555 275.25 115.775C274.7 115.995 274.08 116.105 273.39 116.105C272.51 116.105 271.735 115.93 271.065 115.58C270.395 115.23 269.875 114.745 269.505 114.125C269.145 113.495 268.965 112.785 268.965 111.995C268.965 111.215 269.14 110.515 269.49 109.895C269.85 109.265 270.345 108.775 270.975 108.425C271.605 108.075 272.315 107.9 273.105 107.9C273.885 107.9 274.58 108.075 275.19 108.425C275.81 108.765 276.29 109.25 276.63 109.88C276.98 110.5 277.155 111.22 277.155 112.04ZM273.105 109.4C272.505 109.4 271.995 109.58 271.575 109.94C271.165 110.29 270.915 110.76 270.825 111.35H275.37C275.29 110.77 275.045 110.3 274.635 109.94C274.225 109.58 273.715 109.4 273.105 109.4Z" fill="black"/>
<path opacity="0.6" d="M193.584 124.6C194.312 124.6 194.944 124.72 195.48 124.96C196.024 125.2 196.44 125.544 196.728 125.992C197.016 126.44 197.16 126.972 197.16 127.588C197.16 128.196 197.016 128.728 196.728 129.184C196.44 129.632 196.024 129.976 195.48 130.216C194.944 130.456 194.312 130.576 193.584 130.576H191.688V133H190.128V124.6H193.584ZM193.512 129.256C194.192 129.256 194.708 129.112 195.06 128.824C195.412 128.536 195.588 128.124 195.588 127.588C195.588 127.052 195.412 126.64 195.06 126.352C194.708 126.064 194.192 125.92 193.512 125.92H191.688V129.256H193.512ZM200.963 126.52C201.907 126.52 202.627 126.748 203.123 127.204C203.627 127.652 203.879 128.332 203.879 129.244V133H202.463V132.22C202.279 132.5 202.015 132.716 201.671 132.868C201.335 133.012 200.927 133.084 200.447 133.084C199.967 133.084 199.547 133.004 199.187 132.844C198.827 132.676 198.547 132.448 198.347 132.16C198.155 131.864 198.059 131.532 198.059 131.164C198.059 130.588 198.271 130.128 198.695 129.784C199.127 129.432 199.803 129.256 200.723 129.256H202.379V129.16C202.379 128.712 202.243 128.368 201.971 128.128C201.707 127.888 201.311 127.768 200.783 127.768C200.423 127.768 200.067 127.824 199.715 127.936C199.371 128.048 199.079 128.204 198.839 128.404L198.251 127.312C198.587 127.056 198.991 126.86 199.463 126.724C199.935 126.588 200.435 126.52 200.963 126.52ZM200.759 131.992C201.135 131.992 201.467 131.908 201.755 131.74C202.051 131.564 202.259 131.316 202.379 130.996V130.252H200.831C199.967 130.252 199.535 130.536 199.535 131.104C199.535 131.376 199.643 131.592 199.859 131.752C200.075 131.912 200.375 131.992 200.759 131.992ZM207.232 127.528C207.664 126.856 208.424 126.52 209.512 126.52V127.948C209.384 127.924 209.268 127.912 209.164 127.912C208.58 127.912 208.124 128.084 207.796 128.428C207.468 128.764 207.304 129.252 207.304 129.892V133H205.804V126.592H207.232V127.528ZM214.871 132.652C214.695 132.796 214.479 132.904 214.223 132.976C213.975 133.048 213.711 133.084 213.431 133.084C212.727 133.084 212.183 132.9 211.799 132.532C211.415 132.164 211.223 131.628 211.223 130.924V127.84H210.167V126.64H211.223V125.176H212.723V126.64H214.439V127.84H212.723V130.888C212.723 131.2 212.799 131.44 212.951 131.608C213.103 131.768 213.323 131.848 213.611 131.848C213.947 131.848 214.227 131.76 214.451 131.584L214.871 132.652ZM219.741 126.52C220.549 126.52 221.197 126.756 221.685 127.228C222.173 127.7 222.417 128.4 222.417 129.328V133H220.917V129.52C220.917 128.96 220.785 128.54 220.521 128.26C220.257 127.972 219.881 127.828 219.393 127.828C218.841 127.828 218.405 127.996 218.085 128.332C217.765 128.66 217.605 129.136 217.605 129.76V133H216.105V126.592H217.533V127.42C217.781 127.124 218.093 126.9 218.469 126.748C218.845 126.596 219.269 126.52 219.741 126.52ZM230.403 129.832C230.403 129.936 230.395 130.084 230.379 130.276H225.351C225.439 130.748 225.667 131.124 226.035 131.404C226.411 131.676 226.875 131.812 227.427 131.812C228.131 131.812 228.711 131.58 229.167 131.116L229.971 132.04C229.683 132.384 229.319 132.644 228.879 132.82C228.439 132.996 227.943 133.084 227.391 133.084C226.687 133.084 226.067 132.944 225.531 132.664C224.995 132.384 224.579 131.996 224.283 131.5C223.995 130.996 223.851 130.428 223.851 129.796C223.851 129.172 223.991 128.612 224.271 128.116C224.559 127.612 224.955 127.22 225.459 126.94C225.963 126.66 226.531 126.52 227.163 126.52C227.787 126.52 228.343 126.66 228.831 126.94C229.327 127.212 229.711 127.6 229.983 128.104C230.263 128.6 230.403 129.176 230.403 129.832ZM227.163 127.72C226.683 127.72 226.275 127.864 225.939 128.152C225.611 128.432 225.411 128.808 225.339 129.28H228.975C228.911 128.816 228.715 128.44 228.387 128.152C228.059 127.864 227.651 127.72 227.163 127.72ZM233.271 127.528C233.703 126.856 234.463 126.52 235.551 126.52V127.948C235.423 127.924 235.307 127.912 235.203 127.912C234.619 127.912 234.163 128.084 233.835 128.428C233.507 128.764 233.343 129.252 233.343 129.892V133H231.843V126.592H233.271V127.528ZM250.195 126.592L247.831 133H246.391L244.735 128.584L243.055 133H241.615L239.263 126.592H240.679L242.371 131.32L244.135 126.592H245.395L247.123 131.344L248.863 126.592H250.195ZM251.226 126.592H252.726V133H251.226V126.592ZM251.982 125.536C251.71 125.536 251.482 125.452 251.298 125.284C251.114 125.108 251.022 124.892 251.022 124.636C251.022 124.38 251.114 124.168 251.298 124C251.482 123.824 251.71 123.736 251.982 123.736C252.254 123.736 252.482 123.82 252.666 123.988C252.85 124.148 252.942 124.352 252.942 124.6C252.942 124.864 252.85 125.088 252.666 125.272C252.49 125.448 252.262 125.536 251.982 125.536ZM258.547 132.652C258.371 132.796 258.155 132.904 257.899 132.976C257.651 133.048 257.387 133.084 257.107 133.084C256.403 133.084 255.859 132.9 255.475 132.532C255.091 132.164 254.899 131.628 254.899 130.924V127.84H253.843V126.64H254.899V125.176H256.399V126.64H258.115V127.84H256.399V130.888C256.399 131.2 256.475 131.44 256.627 131.608C256.779 131.768 256.999 131.848 257.287 131.848C257.623 131.848 257.903 131.76 258.127 131.584L258.547 132.652ZM263.417 126.52C264.225 126.52 264.873 126.756 265.361 127.228C265.849 127.7 266.093 128.4 266.093 129.328V133H264.593V129.52C264.593 128.96 264.461 128.54 264.197 128.26C263.933 127.972 263.557 127.828 263.069 127.828C262.517 127.828 262.081 127.996 261.761 128.332C261.441 128.66 261.281 129.136 261.281 129.76V133H259.781V124.096H261.281V127.336C261.529 127.072 261.833 126.872 262.193 126.736C262.561 126.592 262.969 126.52 263.417 126.52ZM277.516 126.592V133H276.088V132.184C275.848 132.472 275.548 132.696 275.188 132.856C274.828 133.008 274.44 133.084 274.024 133.084C273.168 133.084 272.492 132.848 271.996 132.376C271.508 131.896 271.264 131.188 271.264 130.252V126.592H272.764V130.048C272.764 130.624 272.892 131.056 273.148 131.344C273.412 131.624 273.784 131.764 274.264 131.764C274.8 131.764 275.224 131.6 275.536 131.272C275.856 130.936 276.016 130.456 276.016 129.832V126.592H277.516ZM281.46 133.084C280.94 133.084 280.432 133.016 279.936 132.88C279.44 132.744 279.044 132.572 278.748 132.364L279.324 131.224C279.612 131.416 279.956 131.572 280.356 131.692C280.764 131.804 281.164 131.86 281.556 131.86C282.452 131.86 282.9 131.624 282.9 131.152C282.9 130.928 282.784 130.772 282.552 130.684C282.328 130.596 281.964 130.512 281.46 130.432C280.932 130.352 280.5 130.26 280.164 130.156C279.836 130.052 279.548 129.872 279.3 129.616C279.06 129.352 278.94 128.988 278.94 128.524C278.94 127.916 279.192 127.432 279.696 127.072C280.208 126.704 280.896 126.52 281.76 126.52C282.2 126.52 282.64 126.572 283.08 126.676C283.52 126.772 283.88 126.904 284.16 127.072L283.584 128.212C283.04 127.892 282.428 127.732 281.748 127.732C281.308 127.732 280.972 127.8 280.74 127.936C280.516 128.064 280.404 128.236 280.404 128.452C280.404 128.692 280.524 128.864 280.764 128.968C281.012 129.064 281.392 129.156 281.904 129.244C282.416 129.324 282.836 129.416 283.164 129.52C283.492 129.624 283.772 129.8 284.004 130.048C284.244 130.296 284.364 130.648 284.364 131.104C284.364 131.704 284.104 132.184 283.584 132.544C283.064 132.904 282.356 133.084 281.46 133.084ZM292.824 132.652C292.648 132.796 292.432 132.904 292.176 132.976C291.928 133.048 291.664 133.084 291.384 133.084C290.68 133.084 290.136 132.9 289.752 132.532C289.368 132.164 289.176 131.628 289.176 130.924V127.84H288.12V126.64H289.176V125.176H290.676V126.64H292.392V127.84H290.676V130.888C290.676 131.2 290.752 131.44 290.904 131.608C291.056 131.768 291.276 131.848 291.564 131.848C291.9 131.848 292.18 131.76 292.404 131.584L292.824 132.652ZM296.727 133.084C296.079 133.084 295.495 132.944 294.975 132.664C294.455 132.384 294.047 131.996 293.751 131.5C293.463 130.996 293.319 130.428 293.319 129.796C293.319 129.164 293.463 128.6 293.751 128.104C294.047 127.608 294.455 127.22 294.975 126.94C295.495 126.66 296.079 126.52 296.727 126.52C297.383 126.52 297.971 126.66 298.491 126.94C299.011 127.22 299.415 127.608 299.703 128.104C299.999 128.6 300.147 129.164 300.147 129.796C300.147 130.428 299.999 130.996 299.703 131.5C299.415 131.996 299.011 132.384 298.491 132.664C297.971 132.944 297.383 133.084 296.727 133.084ZM296.727 131.8C297.279 131.8 297.735 131.616 298.095 131.248C298.455 130.88 298.635 130.396 298.635 129.796C298.635 129.196 298.455 128.712 298.095 128.344C297.735 127.976 297.279 127.792 296.727 127.792C296.175 127.792 295.719 127.976 295.359 128.344C295.007 128.712 294.831 129.196 294.831 129.796C294.831 130.396 295.007 130.88 295.359 131.248C295.719 131.616 296.175 131.8 296.727 131.8ZM308.45 126.52C309.074 126.52 309.63 126.656 310.118 126.928C310.614 127.2 311.002 127.584 311.282 128.08C311.562 128.576 311.702 129.148 311.702 129.796C311.702 130.444 311.562 131.02 311.282 131.524C311.002 132.02 310.614 132.404 310.118 132.676C309.63 132.948 309.074 133.084 308.45 133.084C308.01 133.084 307.606 133.008 307.238 132.856C306.878 132.704 306.574 132.476 306.326 132.172V133H304.898V124.096H306.398V127.372C306.654 127.092 306.954 126.88 307.298 126.736C307.65 126.592 308.034 126.52 308.45 126.52ZM308.282 131.8C308.834 131.8 309.286 131.616 309.638 131.248C309.998 130.88 310.178 130.396 310.178 129.796C310.178 129.196 309.998 128.712 309.638 128.344C309.286 127.976 308.834 127.792 308.282 127.792C307.922 127.792 307.598 127.876 307.31 128.044C307.022 128.204 306.794 128.436 306.626 128.74C306.458 129.044 306.374 129.396 306.374 129.796C306.374 130.196 306.458 130.548 306.626 130.852C306.794 131.156 307.022 131.392 307.31 131.56C307.598 131.72 307.922 131.8 308.282 131.8ZM319.329 126.592V133H317.901V132.184C317.661 132.472 317.361 132.696 317.001 132.856C316.641 133.008 316.253 133.084 315.837 133.084C314.981 133.084 314.305 132.848 313.809 132.376C313.321 131.896 313.077 131.188 313.077 130.252V126.592H314.577V130.048C314.577 130.624 314.705 131.056 314.961 131.344C315.225 131.624 315.597 131.764 316.077 131.764C316.613 131.764 317.037 131.6 317.349 131.272C317.669 130.936 317.829 130.456 317.829 129.832V126.592H319.329ZM321.293 126.592H322.793V133H321.293V126.592ZM322.049 125.536C321.777 125.536 321.549 125.452 321.365 125.284C321.181 125.108 321.089 124.892 321.089 124.636C321.089 124.38 321.181 124.168 321.365 124C321.549 123.824 321.777 123.736 322.049 123.736C322.321 123.736 322.549 123.82 322.733 123.988C322.917 124.148 323.009 124.352 323.009 124.6C323.009 124.864 322.917 125.088 322.733 125.272C322.557 125.448 322.329 125.536 322.049 125.536ZM324.761 124.096H326.261V133H324.761V124.096ZM334.506 124.096V133H333.066V132.172C332.818 132.476 332.51 132.704 332.142 132.856C331.782 133.008 331.382 133.084 330.942 133.084C330.326 133.084 329.77 132.948 329.274 132.676C328.786 132.404 328.402 132.02 328.122 131.524C327.842 131.02 327.702 130.444 327.702 129.796C327.702 129.148 327.842 128.576 328.122 128.08C328.402 127.584 328.786 127.2 329.274 126.928C329.77 126.656 330.326 126.52 330.942 126.52C331.366 126.52 331.754 126.592 332.106 126.736C332.458 126.88 332.758 127.096 333.006 127.384V124.096H334.506ZM331.122 131.8C331.482 131.8 331.806 131.72 332.094 131.56C332.382 131.392 332.61 131.156 332.778 130.852C332.946 130.548 333.03 130.196 333.03 129.796C333.03 129.396 332.946 129.044 332.778 128.74C332.61 128.436 332.382 128.204 332.094 128.044C331.806 127.876 331.482 127.792 331.122 127.792C330.762 127.792 330.438 127.876 330.15 128.044C329.862 128.204 329.634 128.436 329.466 128.74C329.298 129.044 329.214 129.396 329.214 129.796C329.214 130.196 329.298 130.548 329.466 130.852C329.634 131.156 329.862 131.392 330.15 131.56C330.438 131.72 330.762 131.8 331.122 131.8ZM342.233 126.52C343.177 126.52 343.897 126.748 344.393 127.204C344.897 127.652 345.149 128.332 345.149 129.244V133H343.733V132.22C343.549 132.5 343.285 132.716 342.941 132.868C342.605 133.012 342.197 133.084 341.717 133.084C341.237 133.084 340.817 133.004 340.457 132.844C340.097 132.676 339.817 132.448 339.617 132.16C339.425 131.864 339.329 131.532 339.329 131.164C339.329 130.588 339.541 130.128 339.965 129.784C340.397 129.432 341.073 129.256 341.993 129.256H343.649V129.16C343.649 128.712 343.513 128.368 343.241 128.128C342.977 127.888 342.581 127.768 342.053 127.768C341.693 127.768 341.337 127.824 340.985 127.936C340.641 128.048 340.349 128.204 340.109 128.404L339.521 127.312C339.857 127.056 340.261 126.86 340.733 126.724C341.205 126.588 341.705 126.52 342.233 126.52ZM342.029 131.992C342.405 131.992 342.737 131.908 343.025 131.74C343.321 131.564 343.529 131.316 343.649 130.996V130.252H342.101C341.237 130.252 340.805 130.536 340.805 131.104C340.805 131.376 340.913 131.592 341.129 131.752C341.345 131.912 341.645 131.992 342.029 131.992ZM353.942 126.52C354.566 126.52 355.122 126.656 355.61 126.928C356.106 127.2 356.494 127.584 356.774 128.08C357.054 128.576 357.194 129.148 357.194 129.796C357.194 130.444 357.054 131.02 356.774 131.524C356.494 132.02 356.106 132.404 355.61 132.676C355.122 132.948 354.566 133.084 353.942 133.084C353.502 133.084 353.098 133.008 352.73 132.856C352.37 132.704 352.066 132.476 351.818 132.172V133H350.39V124.096H351.89V127.372C352.146 127.092 352.446 126.88 352.79 126.736C353.142 126.592 353.526 126.52 353.942 126.52ZM353.774 131.8C354.326 131.8 354.778 131.616 355.13 131.248C355.49 130.88 355.67 130.396 355.67 129.796C355.67 129.196 355.49 128.712 355.13 128.344C354.778 127.976 354.326 127.792 353.774 127.792C353.414 127.792 353.09 127.876 352.802 128.044C352.514 128.204 352.286 128.436 352.118 128.74C351.95 129.044 351.866 129.396 351.866 129.796C351.866 130.196 351.95 130.548 352.118 130.852C352.286 131.156 352.514 131.392 352.802 131.56C353.09 131.72 353.414 131.8 353.774 131.8ZM358.617 126.592H360.117V133H358.617V126.592ZM359.373 125.536C359.101 125.536 358.873 125.452 358.689 125.284C358.505 125.108 358.413 124.892 358.413 124.636C358.413 124.38 358.505 124.168 358.689 124C358.873 123.824 359.101 123.736 359.373 123.736C359.645 123.736 359.873 123.82 360.057 123.988C360.241 124.148 360.333 124.352 360.333 124.6C360.333 124.864 360.241 125.088 360.057 125.272C359.881 125.448 359.653 125.536 359.373 125.536ZM365.938 132.652C365.762 132.796 365.546 132.904 365.29 132.976C365.042 133.048 364.778 133.084 364.498 133.084C363.794 133.084 363.25 132.9 362.866 132.532C362.482 132.164 362.29 131.628 362.29 130.924V127.84H361.234V126.64H362.29V125.176H363.79V126.64H365.506V127.84H363.79V130.888C363.79 131.2 363.866 131.44 364.018 131.608C364.17 131.768 364.39 131.848 364.678 131.848C365.014 131.848 365.294 131.76 365.518 131.584L365.938 132.652ZM369.901 133.084C369.237 133.084 368.641 132.944 368.113 132.664C367.585 132.384 367.173 131.996 366.877 131.5C366.581 130.996 366.433 130.428 366.433 129.796C366.433 129.164 366.581 128.6 366.877 128.104C367.173 127.608 367.581 127.22 368.101 126.94C368.629 126.66 369.229 126.52 369.901 126.52C370.533 126.52 371.085 126.648 371.557 126.904C372.037 127.16 372.397 127.528 372.637 128.008L371.485 128.68C371.301 128.384 371.069 128.164 370.789 128.02C370.517 127.868 370.217 127.792 369.889 127.792C369.329 127.792 368.865 127.976 368.497 128.344C368.129 128.704 367.945 129.188 367.945 129.796C367.945 130.404 368.125 130.892 368.485 131.26C368.853 131.62 369.321 131.8 369.889 131.8C370.217 131.8 370.517 131.728 370.789 131.584C371.069 131.432 371.301 131.208 371.485 130.912L372.637 131.584C372.389 132.064 372.025 132.436 371.545 132.7C371.073 132.956 370.525 133.084 369.901 133.084ZM376.719 133.084C376.071 133.084 375.487 132.944 374.967 132.664C374.447 132.384 374.039 131.996 373.743 131.5C373.455 130.996 373.311 130.428 373.311 129.796C373.311 129.164 373.455 128.6 373.743 128.104C374.039 127.608 374.447 127.22 374.967 126.94C375.487 126.66 376.071 126.52 376.719 126.52C377.375 126.52 377.963 126.66 378.483 126.94C379.003 127.22 379.407 127.608 379.695 128.104C379.991 128.6 380.139 129.164 380.139 129.796C380.139 130.428 379.991 130.996 379.695 131.5C379.407 131.996 379.003 132.384 378.483 132.664C377.963 132.944 377.375 133.084 376.719 133.084ZM376.719 131.8C377.271 131.8 377.727 131.616 378.087 131.248C378.447 130.88 378.627 130.396 378.627 129.796C378.627 129.196 378.447 128.712 378.087 128.344C377.727 127.976 377.271 127.792 376.719 127.792C376.167 127.792 375.711 127.976 375.351 128.344C374.999 128.712 374.823 129.196 374.823 129.796C374.823 130.396 374.999 130.88 375.351 131.248C375.711 131.616 376.167 131.8 376.719 131.8ZM381.574 126.592H383.074V133H381.574V126.592ZM382.33 125.536C382.058 125.536 381.83 125.452 381.646 125.284C381.462 125.108 381.37 124.892 381.37 124.636C381.37 124.38 381.462 124.168 381.646 124C381.83 123.824 382.058 123.736 382.33 123.736C382.602 123.736 382.83 123.82 383.014 123.988C383.198 124.148 383.29 124.352 383.29 124.6C383.29 124.864 383.198 125.088 383.014 125.272C382.838 125.448 382.61 125.536 382.33 125.536ZM388.679 126.52C389.487 126.52 390.135 126.756 390.623 127.228C391.111 127.7 391.355 128.4 391.355 129.328V133H389.855V129.52C389.855 128.96 389.723 128.54 389.459 128.26C389.195 127.972 388.819 127.828 388.331 127.828C387.779 127.828 387.343 127.996 387.023 128.332C386.703 128.66 386.543 129.136 386.543 129.76V133H385.043V126.592H386.471V127.42C386.719 127.124 387.031 126.9 387.407 126.748C387.783 126.596 388.207 126.52 388.679 126.52ZM196.344 141.592V147.028C196.344 149.284 195.192 150.412 192.888 150.412C192.272 150.412 191.688 150.332 191.136 150.172C190.584 150.02 190.128 149.796 189.768 149.5L190.44 148.372C190.72 148.604 191.072 148.788 191.496 148.924C191.928 149.068 192.364 149.14 192.804 149.14C193.508 149.14 194.024 148.98 194.352 148.66C194.68 148.34 194.844 147.852 194.844 147.196V146.86C194.588 147.14 194.276 147.352 193.908 147.496C193.54 147.64 193.136 147.712 192.696 147.712C192.088 147.712 191.536 147.584 191.04 147.328C190.552 147.064 190.164 146.696 189.876 146.224C189.596 145.752 189.456 145.212 189.456 144.604C189.456 143.996 189.596 143.46 189.876 142.996C190.164 142.524 190.552 142.16 191.04 141.904C191.536 141.648 192.088 141.52 192.696 141.52C193.16 141.52 193.58 141.596 193.956 141.748C194.34 141.9 194.66 142.132 194.916 142.444V141.592H196.344ZM192.924 146.44C193.492 146.44 193.956 146.272 194.316 145.936C194.684 145.592 194.868 145.148 194.868 144.604C194.868 144.068 194.684 143.632 194.316 143.296C193.956 142.96 193.492 142.792 192.924 142.792C192.348 142.792 191.876 142.96 191.508 143.296C191.148 143.632 190.968 144.068 190.968 144.604C190.968 145.148 191.148 145.592 191.508 145.936C191.876 146.272 192.348 146.44 192.924 146.44ZM200.764 141.52C201.708 141.52 202.428 141.748 202.924 142.204C203.428 142.652 203.68 143.332 203.68 144.244V148H202.264V147.22C202.08 147.5 201.816 147.716 201.472 147.868C201.136 148.012 200.728 148.084 200.248 148.084C199.768 148.084 199.348 148.004 198.988 147.844C198.628 147.676 198.348 147.448 198.148 147.16C197.956 146.864 197.86 146.532 197.86 146.164C197.86 145.588 198.072 145.128 198.496 144.784C198.928 144.432 199.604 144.256 200.524 144.256H202.18V144.16C202.18 143.712 202.044 143.368 201.772 143.128C201.508 142.888 201.112 142.768 200.584 142.768C200.224 142.768 199.868 142.824 199.516 142.936C199.172 143.048 198.88 143.204 198.64 143.404L198.052 142.312C198.388 142.056 198.792 141.86 199.264 141.724C199.736 141.588 200.236 141.52 200.764 141.52ZM200.56 146.992C200.936 146.992 201.268 146.908 201.556 146.74C201.852 146.564 202.06 146.316 202.18 145.996V145.252H200.632C199.768 145.252 199.336 145.536 199.336 146.104C199.336 146.376 199.444 146.592 199.66 146.752C199.876 146.912 200.176 146.992 200.56 146.992ZM213.693 141.52C214.501 141.52 215.141 141.756 215.613 142.228C216.085 142.692 216.321 143.392 216.321 144.328V148H214.821V144.52C214.821 143.96 214.697 143.54 214.449 143.26C214.201 142.972 213.845 142.828 213.381 142.828C212.877 142.828 212.473 142.996 212.169 143.332C211.865 143.66 211.713 144.132 211.713 144.748V148H210.213V144.52C210.213 143.96 210.089 143.54 209.841 143.26C209.593 142.972 209.237 142.828 208.773 142.828C208.261 142.828 207.853 142.992 207.549 143.32C207.253 143.648 207.105 144.124 207.105 144.748V148H205.605V141.592H207.033V142.408C207.273 142.12 207.573 141.9 207.933 141.748C208.293 141.596 208.693 141.52 209.133 141.52C209.613 141.52 210.037 141.612 210.405 141.796C210.781 141.972 211.077 142.236 211.293 142.588C211.557 142.252 211.897 141.992 212.313 141.808C212.729 141.616 213.189 141.52 213.693 141.52ZM224.321 144.832C224.321 144.936 224.313 145.084 224.297 145.276H219.269C219.357 145.748 219.585 146.124 219.953 146.404C220.329 146.676 220.793 146.812 221.345 146.812C222.049 146.812 222.629 146.58 223.085 146.116L223.889 147.04C223.601 147.384 223.237 147.644 222.797 147.82C222.357 147.996 221.861 148.084 221.309 148.084C220.605 148.084 219.985 147.944 219.449 147.664C218.913 147.384 218.497 146.996 218.201 146.5C217.913 145.996 217.769 145.428 217.769 144.796C217.769 144.172 217.909 143.612 218.189 143.116C218.477 142.612 218.873 142.22 219.377 141.94C219.881 141.66 220.449 141.52 221.081 141.52C221.705 141.52 222.261 141.66 222.749 141.94C223.245 142.212 223.629 142.6 223.901 143.104C224.181 143.6 224.321 144.176 224.321 144.832ZM221.081 142.72C220.601 142.72 220.193 142.864 219.857 143.152C219.529 143.432 219.329 143.808 219.257 144.28H222.893C222.829 143.816 222.633 143.44 222.305 143.152C221.977 142.864 221.569 142.72 221.081 142.72ZM226.241 148.084C225.969 148.084 225.737 147.992 225.545 147.808C225.353 147.616 225.257 147.376 225.257 147.088C225.257 146.792 225.349 146.552 225.533 146.368C225.725 146.184 225.961 146.092 226.241 146.092C226.521 146.092 226.753 146.184 226.937 146.368C227.129 146.552 227.225 146.792 227.225 147.088C227.225 147.376 227.129 147.616 226.937 147.808C226.745 147.992 226.513 148.084 226.241 148.084Z" fill="black"/>
</svg>
