<svg width="191" height="46" viewBox="0 0 191 46" fill="none" xmlns="http://www.w3.org/2000/svg">
<path d="M0 23C0 10.2975 10.2975 0 23 0H168C180.703 0 191 10.2975 191 23C191 35.7025 180.703 46 168 46H23C10.2975 46 0 35.7025 0 23Z" fill="white"/>
<path d="M1 23C1 10.8497 10.8497 1 23 1H168C180.15 1 190 10.8497 190 23C190 35.1503 180.15 45 168 45H23C10.8497 45 1 35.1503 1 23Z" stroke="#88A1AC" stroke-opacity="0.2" stroke-width="2"/>
<path d="M146.75 24H157.25" stroke="black" stroke-width="1.4" stroke-linecap="round" stroke-linejoin="round"/>
<path d="M152 18.75L157.25 24L152 29.25" stroke="black" stroke-width="1.4" stroke-linecap="round" stroke-linejoin="round"/>
<path d="M29.7301 29H26.1985V18.0909H29.842C30.9109 18.0909 31.8288 18.3093 32.5959 18.7461C33.3629 19.1793 33.9506 19.8026 34.359 20.6158C34.771 21.4254 34.9769 22.3967 34.9769 23.5295C34.9769 24.6658 34.7692 25.6424 34.3537 26.4592C33.9418 27.2759 33.3452 27.9045 32.5639 28.3448C31.7827 28.7816 30.8381 29 29.7301 29ZM27.8445 27.5618H29.6396C30.4705 27.5618 31.1612 27.4055 31.7116 27.093C32.2621 26.777 32.674 26.3207 32.9474 25.7241C33.2209 25.1239 33.3576 24.3924 33.3576 23.5295C33.3576 22.6737 33.2209 21.9474 32.9474 21.3509C32.6776 20.7543 32.2745 20.3015 31.7383 19.9925C31.2021 19.6836 30.5362 19.5291 29.7408 19.5291H27.8445V27.5618ZM40.3422 29.1651C39.5752 29.1651 38.9058 28.9893 38.3341 28.6378C37.7623 28.2862 37.3184 27.7944 37.0024 27.1623C36.6863 26.5302 36.5283 25.7915 36.5283 24.9464C36.5283 24.0977 36.6863 23.3555 37.0024 22.7198C37.3184 22.0842 37.7623 21.5906 38.3341 21.239C38.9058 20.8874 39.5752 20.7116 40.3422 20.7116C41.1093 20.7116 41.7787 20.8874 42.3504 21.239C42.9221 21.5906 43.366 22.0842 43.6821 22.7198C43.9981 23.3555 44.1562 24.0977 44.1562 24.9464C44.1562 25.7915 43.9981 26.5302 43.6821 27.1623C43.366 27.7944 42.9221 28.2862 42.3504 28.6378C41.7787 28.9893 41.1093 29.1651 40.3422 29.1651ZM40.3476 27.8281C40.8447 27.8281 41.2567 27.6967 41.5834 27.4339C41.9101 27.1712 42.1515 26.8214 42.3078 26.3846C42.4676 25.9478 42.5475 25.4666 42.5475 24.9411C42.5475 24.419 42.4676 23.9396 42.3078 23.5028C42.1515 23.0625 41.9101 22.7092 41.5834 22.4428C41.2567 22.1765 40.8447 22.0433 40.3476 22.0433C39.8469 22.0433 39.4314 22.1765 39.1011 22.4428C38.7744 22.7092 38.5312 23.0625 38.3714 23.5028C38.2151 23.9396 38.137 24.419 38.137 24.9411C38.137 25.4666 38.2151 25.9478 38.3714 26.3846C38.5312 26.8214 38.7744 27.1712 39.1011 27.4339C39.4314 27.6967 39.8469 27.8281 40.3476 27.8281ZM49.3803 29.1651C48.5884 29.1651 47.9066 28.9858 47.3349 28.6271C46.7667 28.2649 46.3299 27.766 46.0245 27.1303C45.7191 26.4947 45.5664 25.7667 45.5664 24.9464C45.5664 24.1154 45.7227 23.3821 46.0352 22.7464C46.3477 22.1072 46.788 21.6083 47.3562 21.2496C47.9244 20.891 48.5938 20.7116 49.3643 20.7116C49.9858 20.7116 50.5398 20.8271 51.0263 21.0579C51.5128 21.2852 51.9052 21.6048 52.2035 22.0167C52.5053 22.4286 52.6847 22.9098 52.7415 23.4602H51.1914C51.1062 23.0767 50.9109 22.7464 50.6055 22.4695C50.3036 22.1925 49.8988 22.054 49.391 22.054C48.9471 22.054 48.5582 22.1712 48.2244 22.4055C47.8942 22.6364 47.6367 22.9666 47.4521 23.3963C47.2674 23.8224 47.1751 24.3267 47.1751 24.9091C47.1751 25.5057 47.2656 26.0206 47.4467 26.4538C47.6278 26.8871 47.8835 27.2227 48.2138 27.4606C48.5476 27.6985 48.94 27.8175 49.391 27.8175C49.6928 27.8175 49.9663 27.7624 50.2113 27.6523C50.4599 27.5387 50.6676 27.3771 50.8345 27.1676C51.005 26.9581 51.1239 26.706 51.1914 26.4112H52.7415C52.6847 26.9403 52.5124 27.4126 52.2248 27.8281C51.9371 28.2436 51.5518 28.5703 51.0689 28.8082C50.5895 29.0462 50.0266 29.1651 49.3803 29.1651ZM59.6276 25.6069V20.8182H61.2256V29H59.6595V27.5831H59.5743C59.3861 28.0199 59.0843 28.3839 58.6688 28.6751C58.2568 28.9627 57.7437 29.1065 57.1294 29.1065C56.6038 29.1065 56.1386 28.9911 55.7338 28.7603C55.3325 28.5259 55.0164 28.1797 54.7856 27.7216C54.5583 27.2635 54.4447 26.6971 54.4447 26.0224V20.8182H56.0374V25.8306C56.0374 26.3881 56.1919 26.832 56.5008 27.1623C56.8097 27.4925 57.211 27.6577 57.7046 27.6577C58.0029 27.6577 58.2994 27.5831 58.5942 27.4339C58.8925 27.2848 59.1393 27.0593 59.3346 26.7575C59.5335 26.4556 59.6311 26.0721 59.6276 25.6069ZM63.3656 29V20.8182H64.8944V22.1499H64.9956C65.166 21.6989 65.4448 21.3473 65.8319 21.0952C66.2189 20.8395 66.6824 20.7116 67.2221 20.7116C67.769 20.7116 68.2271 20.8395 68.5964 21.0952C68.9693 21.3509 69.2445 21.7024 69.4221 22.1499H69.5073C69.7026 21.7131 70.0133 21.3651 70.4395 21.1058C70.8656 20.843 71.3734 20.7116 71.9629 20.7116C72.7051 20.7116 73.3105 20.9442 73.7793 21.4094C74.2516 21.8746 74.4877 22.576 74.4877 23.5135V29H72.8951V23.6626C72.8951 23.1087 72.7441 22.7074 72.4423 22.4588C72.1404 22.2102 71.78 22.0859 71.361 22.0859C70.8425 22.0859 70.4395 22.2457 70.1518 22.5653C69.8642 22.8814 69.7203 23.288 69.7203 23.7852V29H68.133V23.5614C68.133 23.1175 67.9945 22.7607 67.7175 22.4908C67.4405 22.2209 67.0801 22.0859 66.6362 22.0859C66.3343 22.0859 66.0556 22.1658 65.7999 22.3256C65.5478 22.4819 65.3436 22.7003 65.1873 22.9808C65.0346 23.2614 64.9583 23.5863 64.9583 23.9556V29H63.3656ZM80.1487 29.1651C79.3426 29.1651 78.6483 28.9929 78.066 28.6484C77.4871 28.3004 77.0397 27.8121 76.7236 27.1836C76.4111 26.5515 76.2549 25.8111 76.2549 24.9624C76.2549 24.1243 76.4111 23.3857 76.7236 22.7464C77.0397 22.1072 77.48 21.6083 78.0447 21.2496C78.6128 20.891 79.2769 20.7116 80.0368 20.7116C80.4985 20.7116 80.9459 20.788 81.3792 20.9407C81.8124 21.0934 82.2013 21.3331 82.5457 21.6598C82.8902 21.9865 83.1618 22.4109 83.3607 22.9329C83.5596 23.4513 83.659 24.0817 83.659 24.8239V25.3885H77.1551V24.1953H82.0983C82.0983 23.7763 82.0131 23.4052 81.8426 23.082C81.6721 22.7553 81.4324 22.4979 81.1235 22.3097C80.8181 22.1214 80.4594 22.0273 80.0475 22.0273C79.6001 22.0273 79.2094 22.1374 78.8756 22.3576C78.5454 22.5742 78.2897 22.8583 78.1086 23.2099C77.931 23.5579 77.8422 23.9361 77.8422 24.3445V25.2766C77.8422 25.8235 77.9381 26.2887 78.1299 26.6722C78.3252 27.0558 78.5969 27.3487 78.9449 27.5511C79.2929 27.75 79.6995 27.8494 80.1647 27.8494C80.4665 27.8494 80.7417 27.8068 80.9903 27.7216C81.2389 27.6328 81.4537 27.5014 81.6349 27.3274C81.816 27.1534 81.9545 26.9386 82.0503 26.6829L83.5578 26.9545C83.4371 27.3984 83.2204 27.7873 82.9079 28.1211C82.599 28.4513 82.2101 28.7088 81.7414 28.8935C81.2762 29.0746 80.7453 29.1651 80.1487 29.1651ZM87.0188 24.142V29H85.4261V20.8182H86.9549V22.1499H87.0561C87.2443 21.7166 87.5391 21.3686 87.9403 21.1058C88.3452 20.843 88.8548 20.7116 89.4691 20.7116C90.0266 20.7116 90.5149 20.8288 90.9339 21.0632C91.353 21.294 91.6779 21.6385 91.9087 22.0966C92.1396 22.5547 92.255 23.1211 92.255 23.7958V29H90.6623V23.9876C90.6623 23.3945 90.5078 22.9311 90.1989 22.5973C89.8899 22.2599 89.4656 22.0913 88.9258 22.0913C88.5565 22.0913 88.228 22.1712 87.9403 22.331C87.6563 22.4908 87.4308 22.7251 87.2638 23.0341C87.1005 23.3395 87.0188 23.7088 87.0188 24.142ZM98.2102 20.8182V22.0966H93.7411V20.8182H98.2102ZM94.9396 18.858H96.5323V26.5977C96.5323 26.9066 96.5785 27.1392 96.6708 27.2955C96.7631 27.4482 96.8821 27.5529 97.0277 27.6097C97.1768 27.663 97.3384 27.6896 97.5124 27.6896C97.6403 27.6896 97.7521 27.6808 97.848 27.663C97.9439 27.6452 98.0185 27.631 98.0717 27.6204L98.3594 28.9361C98.267 28.9716 98.1357 29.0071 97.9652 29.0426C97.7947 29.0817 97.5817 29.103 97.326 29.1065C96.907 29.1136 96.5163 29.0391 96.1541 28.8828C95.7919 28.7266 95.4989 28.4851 95.2752 28.1584C95.0515 27.8317 94.9396 27.4215 94.9396 26.9279V18.858ZM102.353 29.1811C101.835 29.1811 101.366 29.0852 100.947 28.8935C100.528 28.6982 100.196 28.4158 99.9507 28.0465C99.7093 27.6772 99.5885 27.2244 99.5885 26.6882C99.5885 26.2266 99.6773 25.8466 99.8548 25.5483C100.032 25.25 100.272 25.0138 100.574 24.8398C100.876 24.6658 101.213 24.5344 101.586 24.4457C101.959 24.3569 102.339 24.2894 102.726 24.2433C103.216 24.1864 103.614 24.1403 103.919 24.1048C104.225 24.0657 104.446 24.0036 104.585 23.9183C104.723 23.8331 104.793 23.6946 104.793 23.5028V23.4656C104.793 23.0004 104.661 22.6399 104.399 22.3842C104.139 22.1286 103.752 22.0007 103.237 22.0007C102.701 22.0007 102.278 22.1197 101.97 22.3576C101.664 22.592 101.453 22.853 101.336 23.1406L99.8389 22.7997C100.016 22.3026 100.276 21.9013 100.617 21.5959C100.961 21.2869 101.357 21.0632 101.804 20.9247C102.252 20.7827 102.722 20.7116 103.216 20.7116C103.543 20.7116 103.889 20.7507 104.255 20.8288C104.624 20.9034 104.968 21.0419 105.288 21.2443C105.611 21.4467 105.876 21.7362 106.082 22.1126C106.288 22.4854 106.391 22.9702 106.391 23.5668V29H104.835V27.8814H104.771C104.668 28.0874 104.514 28.2898 104.308 28.4886C104.102 28.6875 103.837 28.8526 103.514 28.984C103.191 29.1154 102.804 29.1811 102.353 29.1811ZM102.699 27.9027C103.14 27.9027 103.516 27.8157 103.829 27.6417C104.145 27.4677 104.384 27.2404 104.548 26.9599C104.715 26.6758 104.798 26.3722 104.798 26.049V24.9943C104.741 25.0511 104.631 25.1044 104.468 25.1541C104.308 25.2003 104.125 25.2411 103.919 25.2766C103.713 25.3086 103.513 25.3388 103.317 25.3672C103.122 25.392 102.959 25.4134 102.827 25.4311C102.518 25.4702 102.236 25.5359 101.98 25.6282C101.728 25.7205 101.526 25.8537 101.373 26.0277C101.224 26.1982 101.149 26.4254 101.149 26.7095C101.149 27.1037 101.295 27.402 101.586 27.6044C101.877 27.8033 102.248 27.9027 102.699 27.9027ZM112.331 20.8182V22.0966H107.862V20.8182H112.331ZM109.061 18.858H110.653V26.5977C110.653 26.9066 110.7 27.1392 110.792 27.2955C110.884 27.4482 111.003 27.5529 111.149 27.6097C111.298 27.663 111.46 27.6896 111.634 27.6896C111.761 27.6896 111.873 27.6808 111.969 27.663C112.065 27.6452 112.14 27.631 112.193 27.6204L112.48 28.9361C112.388 28.9716 112.257 29.0071 112.086 29.0426C111.916 29.0817 111.703 29.103 111.447 29.1065C111.028 29.1136 110.637 29.0391 110.275 28.8828C109.913 28.7266 109.62 28.4851 109.396 28.1584C109.173 27.8317 109.061 27.4215 109.061 26.9279V18.858ZM114.093 29V20.8182H115.686V29H114.093ZM114.897 19.5558C114.62 19.5558 114.383 19.4634 114.184 19.2788C113.988 19.0906 113.891 18.8668 113.891 18.6076C113.891 18.3448 113.988 18.1211 114.184 17.9364C114.383 17.7482 114.62 17.6541 114.897 17.6541C115.174 17.6541 115.411 17.7482 115.606 17.9364C115.805 18.1211 115.904 18.3448 115.904 18.6076C115.904 18.8668 115.805 19.0906 115.606 19.2788C115.411 19.4634 115.174 19.5558 114.897 19.5558ZM121.275 29.1651C120.508 29.1651 119.838 28.9893 119.267 28.6378C118.695 28.2862 118.251 27.7944 117.935 27.1623C117.619 26.5302 117.461 25.7915 117.461 24.9464C117.461 24.0977 117.619 23.3555 117.935 22.7198C118.251 22.0842 118.695 21.5906 119.267 21.239C119.838 20.8874 120.508 20.7116 121.275 20.7116C122.042 20.7116 122.711 20.8874 123.283 21.239C123.855 21.5906 124.299 22.0842 124.615 22.7198C124.931 23.3555 125.089 24.0977 125.089 24.9464C125.089 25.7915 124.931 26.5302 124.615 27.1623C124.299 27.7944 123.855 28.2862 123.283 28.6378C122.711 28.9893 122.042 29.1651 121.275 29.1651ZM121.28 27.8281C121.777 27.8281 122.189 27.6967 122.516 27.4339C122.843 27.1712 123.084 26.8214 123.24 26.3846C123.4 25.9478 123.48 25.4666 123.48 24.9411C123.48 24.419 123.4 23.9396 123.24 23.5028C123.084 23.0625 122.843 22.7092 122.516 22.4428C122.189 22.1765 121.777 22.0433 121.28 22.0433C120.779 22.0433 120.364 22.1765 120.034 22.4428C119.707 22.7092 119.464 23.0625 119.304 23.5028C119.148 23.9396 119.07 24.419 119.07 24.9411C119.07 25.4666 119.148 25.9478 119.304 26.3846C119.464 26.8214 119.707 27.1712 120.034 27.4339C120.364 27.6967 120.779 27.8281 121.28 27.8281ZM128.459 24.142V29H126.867V20.8182H128.395V22.1499H128.497C128.685 21.7166 128.979 21.3686 129.381 21.1058C129.786 20.843 130.295 20.7116 130.91 20.7116C131.467 20.7116 131.955 20.8288 132.374 21.0632C132.793 21.294 133.118 21.6385 133.349 22.0966C133.58 22.5547 133.695 23.1211 133.695 23.7958V29H132.103V23.9876C132.103 23.3945 131.948 22.9311 131.639 22.5973C131.33 22.2599 130.906 22.0913 130.366 22.0913C129.997 22.0913 129.668 22.1712 129.381 22.331C129.097 22.4908 128.871 22.7251 128.704 23.0341C128.541 23.3395 128.459 23.7088 128.459 24.142Z" fill="black"/>
</svg>
