<svg width="214" height="260" viewBox="0 0 214 260" fill="none" xmlns="http://www.w3.org/2000/svg">
<mask id="mask0_16497_54023" style="mask-type:luminance" maskUnits="userSpaceOnUse" x="0" y="0" width="214" height="260">
<path d="M0.503906 0.556641H213.168V259.365H0.503906V0.556641Z" fill="white"/>
</mask>
<g mask="url(#mask0_16497_54023)">
<mask id="mask1_16497_54023" style="mask-type:luminance" maskUnits="userSpaceOnUse" x="-117" y="-12" width="352" height="271">
<path d="M-91.9574 -11.293L234.242 23.2603L209.359 258.182L-116.84 223.629L-91.9574 -11.293Z" fill="white"/>
</mask>
<g mask="url(#mask1_16497_54023)">
<mask id="mask2_16497_54023" style="mask-type:luminance" maskUnits="userSpaceOnUse" x="-117" y="-12" width="352" height="271">
<path d="M-91.9574 -11.293L234.242 23.2603L209.359 258.182L-116.84 223.629L-91.9574 -11.293Z" fill="white"/>
</mask>
<g mask="url(#mask2_16497_54023)">
<path fill-rule="evenodd" clip-rule="evenodd" d="M212.086 231.929C212.07 230.463 211.412 229.186 210.331 228.363C209.97 227.454 209.531 226.49 209.218 225.871L206.49 220.455L198.763 205.839L176.318 161.827C177.423 158.864 178.269 155.62 178.873 152.266C180.213 145.15 180.738 137.454 181.765 130.941C183.7 118.935 185.354 106.858 186.726 94.75C188.089 82.6419 189.124 70.4945 189.79 58.3159L190.981 34.0134C191.012 33.355 191.263 28.6293 191.169 26.7406C191.005 23.1826 188.215 21.9287 187.642 21.7877C176.757 18.8409 165.409 16.8033 153.873 15.2516C127.674 11.7641 100.448 10.8786 75.166 8.20615L-40.5864 -0.430215C-41.6208 -0.500747 -42.6161 -0.23429 -43.4155 0.267277C-45.2572 0.69831 -46.7227 2.28922 -46.8951 4.319L-52.5456 102.579L-53.0315 126.529C-53.0158 126.78 -53.055 127.948 -53.0315 129.28C-53.1256 129.358 -53.2118 129.429 -53.2666 129.507C-60.3042 138.01 -67.4124 146.349 -74.7478 154.444C-82.0754 162.548 -89.5989 170.463 -97.4751 178.167L-108.243 189.115C-108.478 189.382 -109.638 190.471 -110.579 191.411C-112.318 192.062 -113.533 193.684 -113.572 195.636L-113.141 210.479C-113.102 211.317 -113.251 213.512 -113.063 214.907C-112.875 216.255 -112.397 217.305 -111.926 217.987C-111.448 218.614 -110.649 219.327 -109.497 219.868C-108.384 220.4 -106.542 220.8 -105.9 220.996L-94.5597 223.614L-48.3058 229.39L131.052 249.225C131.42 249.264 131.757 249.256 132.102 249.209L184.296 254.491C188.434 254.844 193.685 256.192 198.52 256.662C201.122 256.937 203.669 256.96 205.879 256.568C206.608 256.435 208.975 255.73 209.743 252.846C210.08 251.639 210.456 248.504 210.495 248.136L212.086 231.929ZM74.3353 17.2814C95.981 19.5776 119.061 20.5181 141.694 22.9632C155.448 24.4601 169.061 26.482 182.039 29.7344L181.937 33.8488L180.738 57.8143C180.056 69.7814 179.037 81.7641 177.682 93.7469C176.334 105.69 174.688 117.642 172.807 129.491C171.749 135.918 171.271 143.582 169.947 150.612C169.57 152.571 169.116 154.523 168.583 156.341C165.95 156.357 160.809 156.396 160.064 156.357L119.61 152.156L26.0986 137.454C9.31959 135.346 -8.5174 134.954 -25.7196 132.924C-31.8716 132.187 -37.914 131.302 -43.7917 130.009L-43.8309 126.38L-43.3528 103.01L-37.9767 8.84878L74.3353 17.2814ZM-91.0252 184.687C-83.0472 176.819 -75.3904 168.802 -67.914 160.549C-61.3387 153.285 -54.9516 145.832 -48.635 138.245C-41.5503 139.962 -34.1992 141.153 -26.7698 142.023C-9.55972 144.013 8.23025 144.437 24.9701 146.506L118.497 161.121L159.9 165.385C160.738 165.385 164.68 165.596 168.034 165.495L190.652 209.899L198.403 224.64L198.434 224.727C163.638 220.832 128.716 218.049 93.8337 214.899L91.7726 198.841C106.373 200.636 120.926 202.469 135.542 204.107C146.561 205.353 157.556 206.435 168.614 207.36C169.092 207.571 169.625 207.634 170.142 207.477C170.229 207.485 170.307 207.493 170.393 207.501C171.553 207.587 172.603 206.741 172.69 205.542C172.76 204.46 172.031 203.512 170.965 203.316C168.693 198.324 166.702 193.441 164.97 188.512C163.238 183.574 161.726 178.496 160.276 173.261C160.425 173.026 160.503 172.736 160.526 172.454C160.613 171.294 159.758 170.244 158.559 170.158C147.454 169.272 136.396 167.979 125.362 166.513C108.763 164.303 92.1644 161.662 75.6127 159.374L69.2334 158.488C68.9356 158.12 68.5908 157.838 68.1049 157.697C67.4544 157.548 66.8509 157.736 66.3572 158.057L56.4748 156.717C56.2475 156.482 55.981 156.247 55.6597 156.129C55.0092 155.894 54.3745 156.035 53.8337 156.357L-4.2149 148.371C-4.29327 148.324 -4.33244 148.277 -4.37164 148.23C-4.92022 147.924 -5.54718 147.9 -6.06442 148.096L-15.4531 146.803C-15.6569 146.741 -15.9077 146.717 -16.1193 146.741L-40.0378 143.449C-40.2024 143.433 -40.3748 143.457 -40.5864 143.48C-41.4014 143.308 -42.2713 143.629 -42.8042 144.327C-48.5252 152.556 -55.4375 159.907 -61.5425 167.846C-63.0942 169.852 -64.5676 171.905 -66.0017 174.006C-66.8481 174.123 -67.5848 174.75 -67.8042 175.643C-68.0472 176.788 -67.334 177.948 -66.1898 178.19C-50.2024 181.842 -34.1444 184.46 -18.0393 186.584C-4.32461 188.41 9.43715 189.828 23.2381 191.247L14.4136 206.357C11.608 205.98 8.76317 205.636 5.96535 205.212L-79.6851 195.973L-99.3011 193.065L-91.0252 184.687ZM-53.0315 164.789L-48.4312 158.778C-46.3544 159.288 -44.2227 159.719 -42.0911 160.071C-41.9265 160.087 -41.8011 160.103 -41.6365 160.118C-42.7886 161.498 -43.9406 162.916 -45.0456 164.303C-45.5237 164.875 -45.9234 165.502 -46.4014 166.074C-48.6585 165.667 -50.8215 165.236 -53.0315 164.789ZM-49.3168 169.891C-50.9234 172.054 -52.4437 174.233 -53.9328 176.451C-56.229 175.996 -58.5488 175.455 -60.8372 174.969L-55.892 168.527C-53.729 169.006 -51.519 169.452 -49.3168 169.891ZM-38.5096 156.239C-39.497 156.098 -40.4453 155.996 -41.4328 155.847C-42.8277 155.62 -44.2227 155.346 -45.6099 155.032L-40.0299 147.744L-32.4986 148.794C-34.4814 151.294 -36.4955 153.786 -38.5096 156.239ZM-27.5221 149.491L-19.8183 150.557C-21.5503 153.081 -23.3136 155.557 -25.124 158.034C-25.4531 158.002 -25.7823 157.963 -26.1114 157.893C-28.5801 157.501 -31.0958 157.234 -33.5723 156.929C-31.5503 154.437 -29.497 151.991 -27.5221 149.491ZM-44.5989 170.73C-41.4798 171.263 -38.3607 171.803 -35.2024 172.305C-36.6444 174.531 -38.0158 176.803 -39.2227 179.131C-42.5848 178.567 -45.9469 177.963 -49.3089 177.313C-47.8199 175.095 -46.2447 172.885 -44.5989 170.73ZM-41.6914 166.952C-40.0535 164.875 -38.3763 162.846 -36.6992 160.808C-33.8152 161.2 -30.8842 161.553 -27.961 161.944C-29.5205 164.068 -31.0879 166.239 -32.577 168.418C-35.6569 167.963 -38.6898 167.438 -41.6914 166.952ZM-30.5942 173.002C-28.0002 173.363 -25.3669 173.763 -22.7729 174.084C-22.3575 174.123 -21.903 174.17 -21.4955 174.217L-25.4531 181.216C-28.5331 180.761 -31.66 180.306 -34.74 179.813C-33.4939 177.532 -32.0911 175.259 -30.5942 173.002ZM-22.2478 169.883C-24.1365 169.64 -26.0331 169.358 -27.8826 169.123C-26.3622 166.952 -24.7948 164.781 -23.1882 162.618C-20.6334 162.971 -18.0393 163.332 -15.4923 163.684L-19.2306 170.244C-20.218 170.103 -21.2133 169.993 -22.2478 169.883ZM-20.3513 158.708C-18.5409 156.231 -16.7776 153.755 -15.1318 151.216L-8.95628 152.078L-13.2745 159.711C-15.6177 159.374 -17.961 159.006 -20.3513 158.708ZM-16.9187 174.781C-14.0268 175.134 -11.182 175.471 -8.29013 175.785L-11.7384 183.089C-13.635 182.846 -15.5315 182.642 -17.4672 182.391C-18.6193 182.227 -19.8183 182.062 -20.9704 181.897L-16.9187 174.781ZM-14.6067 170.737L-10.9077 164.209C-8.35282 164.523 -5.83715 164.828 -3.27445 165.103L-6.39358 171.686C-9.12085 171.404 -11.8873 171.067 -14.6067 170.737ZM-8.64279 160.197L-4.37947 152.65L2.12523 153.543L-1.3779 161.012C-3.77602 160.8 -6.21333 160.495 -8.64279 160.197ZM-3.62712 176.317C-1.10361 176.584 1.37288 176.803 3.89639 177.07C2.67382 179.57 1.49044 182.07 0.385422 184.578C-2.09107 184.311 -4.52054 183.974 -6.99702 183.669L-3.62712 176.317ZM-1.73057 172.227L1.31019 165.628C3.99043 165.91 6.63934 166.153 9.32743 166.435C8.17539 168.606 7.07037 170.785 5.95752 172.995C3.39482 172.728 0.83213 172.493 -1.73057 172.227ZM3.1989 161.537L6.61583 154.186L15.0092 155.33C13.8494 157.665 12.6346 160.032 11.4277 162.368C8.70047 162.078 5.92617 161.827 3.1989 161.537ZM8.69263 177.54C11.4199 177.783 14.1472 178.073 16.8823 178.324C15.8165 180.879 14.7898 183.433 13.8494 186.004C10.8792 185.69 7.90109 185.377 4.93088 185.056L8.69263 177.54ZM10.7538 173.426L14.0375 166.897C16.5218 167.117 19.0375 167.383 21.5218 167.642C20.5892 169.711 19.6566 171.827 18.771 173.896C18.7161 173.974 18.7083 174.1 18.6534 174.178C16.0045 173.935 13.3556 173.7 10.7538 173.426ZM62.1409 172.195L60.5186 178.441L57.5798 178.175C55.1111 177.869 52.6268 177.65 50.1895 177.391L52.5328 171.012L62.1409 172.195ZM54.0139 166.874L56.1848 160.98L64.7898 162.187L63.2538 168.026L54.0139 166.874ZM57.0547 182.368L87.8227 185.299C87.5876 188.316 87.5641 191.27 87.9324 194.1C77.0077 192.775 66.0751 191.451 55.1346 190.252C47.3682 189.429 39.6017 188.606 31.8274 187.822C32.9011 185.189 34.0139 182.595 35.166 180.009C42.4387 180.737 49.7506 181.513 57.0547 182.368ZM76.4042 173.958L74.7585 179.664C74.7585 179.703 74.7506 179.742 74.7428 179.781L64.8212 178.817L66.4356 172.697L76.4042 173.958ZM67.5406 168.559L69.0688 162.759L75.0798 163.606C76.4826 163.794 77.9168 164.037 79.3196 164.225L77.6817 169.844L67.5406 168.559ZM85.887 175.173L89.3666 175.455C88.9591 177.328 88.5908 179.209 88.3008 181.137L78.9983 180.236L80.6519 174.531L85.887 175.173ZM81.9293 170.377L83.5594 164.836C86.271 165.252 88.9904 165.62 91.702 166.035C91.271 167.736 90.793 169.484 90.3541 171.27L86.3807 170.933L81.9293 170.377ZM49.6879 166.333L41.4826 165.299C42.282 163.3 43.0343 161.294 43.7475 159.288L51.8588 160.4L49.6879 166.333ZM48.1676 170.424L45.7694 176.882C42.8384 176.568 39.8682 176.216 36.9293 175.949C37.8776 173.755 38.8572 171.568 39.7506 169.413L48.1676 170.424ZM36.9842 164.821C33.9199 164.538 30.8635 164.256 27.7992 163.974C28.7788 161.827 29.7193 159.679 30.6519 157.524L39.3823 158.739C38.6221 160.745 37.8227 162.783 36.9842 164.821ZM35.213 168.927C34.2647 171.121 33.2851 173.308 32.2977 175.495C29.2412 175.212 26.177 174.93 23.0735 174.648C24.0218 172.454 25.0014 170.267 25.9889 168.073C29.0453 168.355 32.1487 168.645 35.213 168.927ZM23.2929 163.543C20.8478 163.324 18.4575 163.065 16.0124 162.853L19.4607 155.965L26.2475 156.89C25.2679 159.084 24.3196 161.317 23.2929 163.543ZM21.3494 178.755C24.4058 179.037 27.423 179.311 30.4403 179.632C29.2882 182.219 28.1832 184.813 27.1096 187.407C24.1785 187.101 21.2005 186.827 18.2694 186.513C19.2569 183.864 20.2835 181.31 21.3494 178.755ZM27.9481 191.748C36.8353 192.65 45.7224 193.551 54.6801 194.499C65.6284 195.698 76.5531 197.023 87.4465 198.339L89.5312 214.523C81.6707 213.817 73.8494 213.112 65.9967 212.321C50.3306 210.745 34.6331 209.045 19.0218 207.015L27.9481 191.748ZM92.0782 185.745L104.32 186.921C104.116 189.977 103.998 193.049 104.1 196.106C100.142 195.604 96.177 195.142 92.1801 194.632C92.1958 194.507 92.2114 194.342 92.1801 194.217C91.8431 191.513 91.8118 188.637 92.0782 185.745ZM105.315 176.733C105.064 178.7 104.853 180.683 104.688 182.665L92.6111 181.513C92.9011 179.585 93.2694 177.665 93.677 175.785L105.315 176.733ZM94.6174 171.592C95.0484 169.891 95.4795 168.23 95.8948 166.647C99.3509 167.14 102.807 167.626 106.31 168.128C106.153 169.57 105.958 171.043 105.801 172.485L94.6174 171.592ZM117.572 177.697C117.384 179.507 117.188 181.364 117.078 183.183C117.055 183.394 117.078 183.598 117.055 183.81L108.904 183.026C109.077 181.004 109.288 179.029 109.547 177.007L117.572 177.697ZM110.033 172.814C110.213 171.458 110.362 170.056 110.511 168.692C113.183 169.06 115.816 169.468 118.489 169.828C118.316 171.067 118.152 172.258 118.026 173.449L110.033 172.814ZM116.851 188.12C116.726 191.278 116.632 194.476 116.671 197.65C113.912 197.313 111.146 196.976 108.387 196.647C108.301 193.512 108.418 190.44 108.622 187.328L116.851 188.12ZM129.327 179.107C129.163 181.09 129.037 183.073 128.99 185.071C128.99 185.111 128.983 185.158 128.983 185.197C126.961 184.899 124.907 184.601 122.885 184.382L121.271 184.209C121.295 183.966 121.279 183.716 121.31 183.465C121.42 181.647 121.608 179.875 121.796 178.057L129.327 179.107ZM122.282 173.857C122.407 172.705 122.572 171.553 122.729 170.448C123.434 170.518 124.132 170.636 124.829 170.753C126.6 170.98 128.418 171.176 130.189 171.404C130.025 172.556 129.86 173.7 129.735 174.899L122.282 173.857ZM128.943 189.484C128.936 192.697 129.014 195.91 129.139 199.092C126.373 198.755 123.646 198.465 120.879 198.136C120.848 194.922 120.934 191.717 121.067 188.48L122.392 188.621C124.578 188.857 126.765 189.17 128.943 189.484ZM133.371 185.91C133.356 185.659 133.379 185.455 133.363 185.205C133.395 183.371 133.544 181.553 133.653 179.734L142.509 180.918C142.486 183.081 142.541 185.299 142.603 187.469C139.531 186.937 136.451 186.404 133.371 185.91ZM142.737 191.78C142.838 194.75 142.901 197.673 142.925 200.636C140.652 200.393 138.34 200.15 136.067 199.907C135.284 199.828 134.5 199.742 133.716 199.617C133.552 196.474 133.465 193.339 133.418 190.212C136.498 190.745 139.61 191.278 142.737 191.78ZM134.022 175.479C134.147 174.28 134.265 173.128 134.437 171.937C137.282 172.281 140.088 172.618 142.932 172.963C142.799 174.201 142.713 175.44 142.619 176.678L134.022 175.479ZM150.91 188.77C149.547 188.582 148.238 188.363 146.882 188.136C146.82 185.918 146.765 183.708 146.788 181.498L158.685 183.136C159.406 185.416 160.088 187.658 160.903 189.868C157.588 189.601 154.241 189.248 150.91 188.77ZM162.564 194.256C163.638 197.117 164.837 200.001 166.083 202.877C159.79 202.336 153.458 201.748 147.18 201.082C147.188 198.214 147.117 195.369 147.008 192.485C148.113 192.642 149.179 192.838 150.291 192.995C154.406 193.598 158.497 194.029 162.564 194.256ZM146.906 177.219C146.961 175.933 147.055 174.648 147.196 173.332C150.166 173.645 153.152 173.919 156.13 174.194C156.514 175.69 156.937 177.156 157.368 178.621L146.906 177.219ZM201.389 247.297L185.088 245.448L131.937 240.063C131.647 240.032 131.318 240.04 131.02 240.048L-47.1773 220.338L-92.9061 214.664L-103.141 212.289L-103.948 212.078L-103.98 209.993L-104.215 201.584C-103.353 201.717 -102.655 201.835 -102.287 201.874L-80.8607 205.063L4.71144 214.295C24.7977 217.132 44.9074 219.382 65.0719 221.396C110.918 225.957 156.906 229.162 202.674 234.429L201.443 246.842L201.389 247.297Z" fill="#2C8184"/>
</g>
</g>
</g>
</svg>
