<svg width="86" height="225" viewBox="0 0 86 225" fill="none" xmlns="http://www.w3.org/2000/svg">
<mask id="mask0_16497_54049" style="mask-type:luminance" maskUnits="userSpaceOnUse" x="0" y="0" width="145" height="225">
<path d="M144.451 0V224.702H-0.000228882V0L144.451 0Z" fill="white"/>
</mask>
<g mask="url(#mask0_16497_54049)">
<mask id="mask1_16497_54049" style="mask-type:luminance" maskUnits="userSpaceOnUse" x="-31" y="-34" width="286" height="288">
<path d="M254.773 38.1584L182.501 253.566L-30.0541 182.249L42.2186 -33.1582L254.773 38.1584Z" fill="white"/>
</mask>
<g mask="url(#mask1_16497_54049)">
<mask id="mask2_16497_54049" style="mask-type:luminance" maskUnits="userSpaceOnUse" x="-31" y="-34" width="286" height="288">
<path d="M254.773 38.1584L182.501 253.566L-30.0541 182.249L42.2186 -33.1582L254.773 38.1584Z" fill="white"/>
</mask>
<g mask="url(#mask2_16497_54049)">
<path fill-rule="evenodd" clip-rule="evenodd" d="M128.143 222.359C139.366 220.815 150.29 217.265 159.867 211.794C172.344 204.663 185.4 193.793 196.348 180.917C207.054 168.315 215.737 153.808 220.048 139.028C228.684 109.451 225.102 80.1799 212.563 56.23C199.499 31.2849 176.685 12.0764 147.704 4.25512C119.906 -3.25272 89.9535 0.987095 64.4284 13.6282C38.3077 26.5435 16.9206 48.2598 7.14 74.8664C-5.03084 108.009 0.486404 141.105 17.6964 167.766C34.3109 193.487 61.85 213.205 94.8516 220.932C105.573 223.409 117.022 223.879 128.143 222.359ZM47.3908 183.683C50.2043 175.65 53.0099 167.641 55.9017 159.639C62.6024 164.114 69.5459 168.15 76.6855 171.598C74.1306 180.627 71.9127 189.765 70.0162 198.989C61.7638 194.749 54.1698 189.592 47.3908 183.683ZM18.0256 80.1015C24.397 89.7802 31.803 98.4557 40.0005 106.105C36.6541 114.749 33.3704 123.417 30.0867 132.053C24.0052 126.41 18.2137 120.533 12.7278 114.584C12.2811 103.346 13.919 91.7238 18.0256 80.1015ZM53.7623 33.9573C58.0961 32.5937 62.5162 31.4652 67.0695 30.6501C65.0475 37.2175 62.9159 43.7457 60.6745 50.2426C53.1118 51.4573 45.8077 53.0561 38.7152 55.2191C35.5177 56.1987 32.3673 57.288 29.2403 58.4636C35.8312 49.0592 44.2325 40.7912 53.7623 33.9573ZM104.06 13.636C102.845 17.0137 101.615 20.415 100.392 23.7849C91.8657 23.0717 83.3234 23.0169 75.0005 23.8946C75.2121 23.1736 75.408 22.4134 75.6196 21.6924C84.6713 17.7818 94.2717 15.0467 104.06 13.636ZM177.469 32.2802C175.189 37.7661 172.83 43.2206 170.385 48.683C160.408 41.6062 149.201 35.8774 137.359 31.6768C139.812 26.3633 142.367 21.1203 145.04 15.9479C157.195 19.2943 168.12 24.9213 177.469 32.2802ZM201.725 61.426C199.812 65.5639 197.916 69.741 195.988 73.9025C195.392 73.0561 194.867 72.1783 194.232 71.3476C188.809 64.1924 182.258 57.7661 174.953 52.0921C177.383 46.7786 179.703 41.426 181.952 36.042C189.993 43.2598 196.67 51.8648 201.725 61.426ZM118.574 178.174C120.518 172.131 122.595 166.112 124.875 160.196C126.529 155.877 128.284 151.598 130.071 147.327C141.309 148.777 152.751 149.185 164.131 148.487C160.745 157.359 157.602 166.277 154.648 175.258C142.367 178.589 130.298 179.404 118.574 178.174ZM97.6102 209.216C89.7811 207.374 82.2967 204.78 75.2278 201.559C77.0851 192.265 79.2952 183.064 81.8422 173.973C84.3265 175.039 86.7952 176.073 89.303 177.006C96.4503 179.639 103.778 181.653 111.27 182.907C108.598 191.928 106.341 201.112 104.632 210.486C102.25 210.156 99.8908 209.741 97.6102 209.216ZM91.2387 171.755C88.5977 170.783 85.9801 169.67 83.3782 168.534C84.4049 165.031 85.455 161.544 86.5601 158.072C88.6604 151.473 90.9331 144.96 93.2685 138.44C96.0585 139.467 98.9033 140.423 101.756 141.285C109.123 143.526 116.693 145.243 124.342 146.489C122.743 150.384 121.09 154.255 119.585 158.213C117.164 164.561 114.93 170.964 112.9 177.445C105.565 176.238 98.3077 174.365 91.2387 171.755ZM63.4017 59.5137C63.8955 58.1266 64.3735 56.7003 64.8438 55.3053C72.8453 54.263 80.8469 54.2473 88.8093 55.1642C85.2278 64.788 81.6228 74.3962 78.0099 84.0357C70.9801 81.7394 63.9425 79.4667 56.9441 77.1783C59.1306 71.2771 61.3328 65.415 63.4017 59.5137ZM51.6149 75.415C42.5475 72.4605 33.5193 69.4902 24.4989 66.4965C29.734 64.263 34.9927 62.2175 40.3453 60.5796C46.2623 58.7771 52.3438 57.4134 58.582 56.3084C58.4331 56.763 58.2764 57.2097 58.1275 57.6564C56.0271 63.5811 53.8014 69.4902 51.6149 75.415ZM124.946 33.636C126.529 34.0514 128.08 34.6 129.624 35.0623C129.185 36.0263 128.715 36.9902 128.3 37.962C125.494 44.3257 122.798 50.7833 120.11 57.2175C119.381 56.9432 118.668 56.6141 117.955 56.3789C110.91 53.8633 103.739 51.9275 96.4895 50.6344C99.0836 43.6752 101.631 36.7003 104.178 29.7253C111.16 30.509 118.104 31.8178 124.946 33.636ZM193.292 79.8351C190.494 85.9949 187.72 92.1627 184.961 98.3617C177.877 91.8805 170.142 85.5639 161.897 79.741C165.541 72.2802 169.099 64.8194 172.587 57.3116C179.052 62.4996 184.922 68.252 189.797 74.7018C191.027 76.3711 192.179 78.0796 193.292 79.8351ZM132.312 141.951C136.576 132.053 141.113 122.28 145.808 112.57C155.392 115.901 164.938 119.247 174.452 122.703C171.678 129.31 169.029 135.995 166.427 142.688C155.055 143.565 143.582 143.323 132.312 141.951ZM117.924 62.4056C115.134 69.1532 112.344 75.9087 109.515 82.5858C108.065 86.0263 106.615 89.4746 105.189 92.9542C97.908 90.5404 90.6039 88.1736 83.3155 85.7912C87.0538 75.8695 90.7685 65.9401 94.4441 56.0263C102.414 57.3507 110.267 59.5451 117.924 62.4056ZM114.711 84.7645C117.54 78.0639 120.353 71.2614 123.159 64.4589C124.993 65.2191 126.819 65.9793 128.621 66.7865C137.712 70.9793 146.474 76.0655 154.75 81.6297C150.808 89.6313 146.858 97.6329 142.971 105.658C140.792 104.898 138.613 104.138 136.395 103.393C127.798 100.454 119.17 97.5858 110.518 94.7097C111.921 91.4025 113.3 88.0796 114.711 84.7645ZM159.397 84.8272C167.728 90.7598 175.51 97.1862 182.587 103.785C180.58 108.362 178.629 112.962 176.67 117.586C167.234 114.153 157.751 110.791 148.269 107.5C151.952 99.9291 155.659 92.3742 159.397 84.8272ZM186.889 107.931C188.817 109.866 190.737 111.833 192.579 113.855C196.928 118.628 201.121 123.526 205.345 128.409C197.563 125.384 189.765 122.413 181.913 119.522C183.566 115.642 185.22 111.771 186.889 107.931ZM179.711 124.678C188.66 127.97 197.563 131.34 206.411 134.835C195.432 138.393 184.107 140.846 172.689 142.116C174.993 136.293 177.305 130.47 179.711 124.678ZM196.717 110.086C194.319 107.46 191.834 104.89 189.287 102.429C191.725 96.9119 194.209 91.4338 196.693 85.9636C198.496 89.4981 200.071 93.1971 201.466 96.9824C204.734 105.846 207.093 115.172 209.17 124.263C205.048 119.506 200.964 114.733 196.717 110.086ZM157.226 76.5357C147.163 69.8115 136.442 63.926 125.306 59.2786C127.971 52.9307 130.612 46.5435 133.402 40.2347C133.911 39.0514 134.468 37.9228 135.008 36.7551C146.897 40.9166 158.135 46.6532 168.018 53.8084C164.515 61.4338 160.925 69.0043 157.226 76.5357ZM90.8391 49.741C82.8845 48.7144 74.8673 48.5733 66.8814 49.3884C69.0914 42.8836 71.1839 36.3084 73.1823 29.7332C81.4425 28.7222 89.8908 28.5341 98.4096 29.1689C95.8939 36.0655 93.3939 42.915 90.8391 49.741ZM76.0428 89.2786C72.3751 98.9887 68.7623 108.714 65.1181 118.432C58.6134 114.318 52.4378 109.663 46.6306 104.514C49.4441 97.1627 52.2654 89.8037 55.0083 82.4213C62.0068 84.7097 69.0209 86.9746 76.0428 89.2786ZM81.3485 91.0263C88.5663 93.3852 95.7999 95.7598 103.01 98.1188C98.488 109.067 94.1228 120.07 90.0162 131.191C83.0883 128.393 76.3955 125.125 69.9691 121.379C73.7779 111.246 77.5475 101.136 81.3485 91.0263ZM108.37 99.8899C117.132 102.797 125.863 105.697 134.593 108.683C136.568 109.349 138.527 110.062 140.502 110.728C135.659 120.807 130.949 130.901 126.544 141.16C118.715 139.937 110.964 138.221 103.41 135.917C100.667 135.086 97.9629 134.145 95.267 133.181C99.4049 121.99 103.794 110.909 108.37 99.8899ZM169.522 150.062C169.789 149.357 170.079 148.667 170.377 147.97C182.25 146.826 194.052 144.506 205.533 140.964C203.135 143.738 200.674 146.434 198.049 148.926C193.715 153.103 189.044 156.99 184.06 160.658C180.314 163.424 176.435 165.995 172.367 168.236C168.801 170.211 165.087 171.865 161.223 173.236C163.848 165.493 166.591 157.758 169.522 150.062ZM206.693 95.0388C204.695 89.6391 202.328 84.451 199.538 79.5843C201.301 75.7128 203.065 71.8492 204.852 68.0169C210.91 82.0216 213.676 97.7347 212.43 114.036C210.831 107.602 208.99 101.207 206.693 95.0388ZM131.983 29.9605C130.118 29.3884 128.284 28.7457 126.403 28.2363C119.765 26.4416 112.963 25.1329 106.176 24.2943C107.563 20.5012 108.95 16.7159 110.322 12.8915C120.048 12.0451 129.875 12.5623 139.46 14.5764C136.85 19.6548 134.366 24.7724 131.983 29.9605ZM21.5992 71.4495C30.9409 74.5529 40.2826 77.6329 49.6635 80.6893C47.1949 87.2802 44.687 93.8633 42.1713 100.407C34.0209 92.5388 26.756 83.6203 20.5726 73.6517C20.9017 72.915 21.2701 72.1862 21.5992 71.4495ZM44.4911 110.102C50.361 115.156 56.5914 119.741 63.1118 123.808C61.8422 127.249 60.5334 130.713 59.256 134.153C57.1792 139.741 55.1808 145.344 53.1275 150.932C46.709 146.316 40.5177 141.332 34.5695 136.081C37.8297 127.406 41.1447 118.754 44.4911 110.102ZM64.4911 136.12C65.6588 132.993 66.8265 129.859 68.0021 126.708C74.4441 130.391 81.1447 133.667 88.0726 136.434C85.6902 143.025 83.4017 149.678 81.2466 156.348C80.2121 159.608 79.2403 162.86 78.2529 166.136C71.2544 162.703 64.4519 158.691 57.8532 154.247C60.0632 148.181 62.2654 142.147 64.4911 136.12ZM110.212 210.979C111.921 201.692 114.201 192.602 116.881 183.675C128.48 185.015 140.408 184.498 152.563 181.653C150.087 189.475 147.853 197.351 145.784 205.258C139.703 207.758 133.206 209.537 126.568 210.454C121.129 211.207 115.635 211.332 110.212 210.979ZM153.927 201.355C153.425 201.63 152.908 201.865 152.406 202.139C154.436 194.694 156.623 187.296 159.013 179.913C159.852 179.67 160.698 179.428 161.552 179.153C166.27 177.602 170.792 175.564 175.11 173.174C179.389 170.823 183.464 168.119 187.422 165.219C192.03 161.81 196.341 158.213 200.447 154.365C196.717 160.948 192.218 167.272 187.234 173.134C177.195 184.874 165.322 194.827 153.927 201.355ZM13.5585 123.636C18.1745 128.409 22.955 133.127 27.9786 137.656C26.1369 142.523 24.4362 147.406 22.6572 152.265C18.1118 143.291 15.0083 133.652 13.5585 123.636ZM27.7826 161.207C27.2654 160.384 26.7873 159.545 26.2936 158.738C28.3234 153.048 30.3767 147.351 32.4848 141.692C38.4488 146.888 44.6792 151.826 51.1525 156.402C48.3547 164.114 45.6196 171.826 42.908 179.569C37.1322 173.965 32.0538 167.797 27.7826 161.207Z" fill="#2C8184"/>
</g>
</g>
</g>
</svg>
