<svg width="134" height="276" viewBox="0 0 134 276" fill="none" xmlns="http://www.w3.org/2000/svg">
<mask id="mask0_16497_54010" style="mask-type:luminance" maskUnits="userSpaceOnUse" x="0" y="0" width="135" height="276">
<path d="M0.0820312 0.154297H134.502V275.013H0.0820312V0.154297Z" fill="white"/>
</mask>
<g mask="url(#mask0_16497_54010)">
<mask id="mask1_16497_54010" style="mask-type:luminance" maskUnits="userSpaceOnUse" x="-21" y="-34" width="227" height="329">
<path d="M-20.1602 11.2989L94.7145 -33.7324L205.639 249.253L90.7646 294.285L-20.1602 11.2989Z" fill="white"/>
</mask>
<g mask="url(#mask1_16497_54010)">
<mask id="mask2_16497_54010" style="mask-type:luminance" maskUnits="userSpaceOnUse" x="-21" y="-34" width="227" height="329">
<path d="M-20.1602 11.2989L94.7145 -33.7324L205.639 249.253L90.7646 294.285L-20.1602 11.2989Z" fill="white"/>
</mask>
<g mask="url(#mask2_16497_54010)">
<path fill-rule="evenodd" clip-rule="evenodd" d="M128.634 117.466C122.309 115.154 115.922 114.01 109.488 113.696C103.43 113.391 97.3093 113.884 91.2278 114.77C89.6055 106.282 87.2231 97.6382 83.3203 89.8482C80.0679 83.2965 75.7576 77.3561 70.0992 72.5207C57.6933 61.8937 41.2748 58.7981 28.8923 49.6993C24.8014 46.6821 21.2826 42.8655 18.7826 37.4031L15.734 27.1601L15.5146 10.6163C15.93 6.39996 12.8657 2.61469 8.64156 2.16015C4.4331 1.73695 0.663505 4.80121 0.216797 9.02535L0.545951 29.4642L4.84846 43.8373C8.55536 51.9485 13.7983 57.6852 19.8563 62.121C31.9409 70.9689 48.0695 73.8529 60.1306 84.2134C65.256 88.61 68.7513 94.3388 71.2983 100.522C73.6337 106.173 75.1228 112.239 76.2513 118.21C66.9018 122.724 60.8202 130.013 57.1369 138.759C52.2544 150.326 51.7372 164.597 52.9049 177.16C55.209 201.807 68.6024 235.365 89.6133 255.436C105.295 270.381 125.013 278.101 147.466 271.126C161.447 266.776 170.24 257.129 175.319 245.123C182.106 229.033 181.816 208.383 178.657 192.184C175.499 176.188 168.932 156.949 158.305 141.807C150.577 130.757 140.679 121.909 128.634 117.466ZM123.352 131.941C132.521 135.326 139.848 142.27 145.734 150.671C148.563 154.707 151.032 159.135 153.211 163.673C139.394 168.438 125.538 173.304 111.87 178.665L100.781 153.163C102.035 151.815 102.952 150.036 103.242 147.779C103.548 145.06 103.265 142.168 102.646 139.253C101.91 135.93 100.671 132.56 99.4566 129.347C101.29 129.198 103.109 129.088 104.927 129.072C111.095 128.923 117.294 129.691 123.352 131.941ZM96.1102 146.917C96.024 147.724 95.7497 148.359 95.1541 148.594C94.6055 148.853 93.9472 148.618 93.3673 148.163C92.3798 147.411 91.6588 146.392 91.0318 145.303C89.8641 143.249 89.0569 140.883 88.3124 138.782L85.9221 131.329C87.9833 130.922 90.0601 130.554 92.1055 130.201C93.1322 132.92 94.2372 135.734 95.0287 138.586C95.8594 141.423 96.4002 144.253 96.1102 146.917ZM69.7152 149.402C71.3688 143.398 74.3155 138.03 79.3312 134.315L81.5569 141.228C82.4347 143.688 83.4065 146.47 84.7936 148.884C85.9065 150.797 87.2779 152.536 88.9707 153.861C90.6478 155.146 92.4033 155.71 94.104 155.82L105.178 181.282C104.229 181.659 103.289 182.027 102.341 182.395C92.1917 186.619 82.176 191.196 72.4268 196.235C70.2638 189.049 68.767 182.05 68.1635 175.757C67.419 167.254 67.3798 157.779 69.7152 149.402ZM161.181 239.065C157.819 246.996 152.129 253.524 142.897 256.369C126.29 261.541 111.808 255.334 100.193 244.276C90.8281 235.334 83.2576 223.336 77.803 210.875C87.6855 205.663 97.897 200.969 108.258 196.666C124.919 189.77 142.019 183.798 159.01 177.944C160.969 183.869 162.497 189.723 163.571 195.138C166.212 208.586 166.816 225.702 161.181 239.065Z" fill="#2C8184"/>
</g>
</g>
</g>
</svg>
