<svg width="161" height="618" viewBox="0 0 161 618" fill="none" xmlns="http://www.w3.org/2000/svg">
<path d="M154.974 252.17C151.33 251.982 148.367 248.714 148.555 245.093C148.743 241.441 152.004 238.479 155.632 238.667C159.276 238.855 162.239 242.123 162.051 245.743C161.863 249.396 158.595 252.358 154.974 252.17Z" fill="#2C8184"/>
<path d="M155.107 379.569C151.424 379.459 148.469 376.379 148.524 372.696C148.579 368.848 151.878 365.776 155.711 366.011C159.378 366.238 162.247 369.428 162.082 373.095C161.91 376.763 158.775 379.678 155.107 379.569Z" fill="#2C8184"/>
<path d="M155.256 277.696C151.518 277.664 148.54 274.686 148.508 270.948C148.469 267.045 151.666 263.95 155.561 264.091C159.292 264.232 162.176 267.312 162.098 271.05C162.011 274.78 158.986 277.719 155.256 277.696Z" fill="#2C8184"/>
<path d="M155.467 354.129C151.564 354.215 148.461 351.166 148.485 347.263C148.508 343.533 151.416 340.579 155.138 340.5C159.041 340.406 162.144 343.463 162.113 347.358C162.09 351.088 159.19 354.042 155.467 354.129Z" fill="#2C8184"/>
<path d="M155.467 315.008C159.378 315.094 162.325 318.284 162.129 322.218C161.941 325.948 158.9 328.754 155.138 328.675C151.22 328.589 148.273 325.4 148.477 321.465C148.665 317.735 151.706 314.922 155.467 315.008Z" fill="#2C8184"/>
<path d="M162.129 296.456C162.082 300.374 158.932 303.352 154.998 303.196C151.259 303.047 148.422 300.045 148.469 296.276C148.516 292.357 151.667 289.371 155.601 289.536C159.339 289.685 162.176 292.686 162.129 296.456Z" fill="#2C8184"/>
<path d="M149.245 283.566C149.284 287.132 146.094 290.337 142.529 290.306C138.947 290.282 135.804 287.046 135.899 283.48C135.985 280.071 138.986 277.054 142.403 276.952C145.961 276.85 149.206 279.985 149.245 283.566Z" fill="#2C8184"/>
<path d="M155.28 391.559C158.877 391.543 162.051 394.74 161.996 398.345C161.949 401.958 158.705 405.077 155.116 404.96C151.667 404.85 148.681 401.833 148.603 398.393C148.525 394.795 151.667 391.574 155.28 391.559Z" fill="#2C8184"/>
<path d="M142.436 341.261C138.846 341.183 135.743 337.899 135.892 334.341C136.033 330.744 139.364 327.687 142.914 327.899C146.339 328.095 149.262 331.198 149.246 334.6C149.23 338.189 146.009 341.339 142.436 341.261Z" fill="#2C8184"/>
<path d="M161.948 219.998C161.909 223.595 158.586 226.761 155.036 226.597C151.603 226.432 148.617 223.297 148.649 219.888C148.688 216.299 152.011 213.125 155.569 213.289C159.001 213.454 161.979 216.589 161.948 219.998Z" fill="#2C8184"/>
<path d="M149.214 360.14C149.159 363.738 145.813 366.888 142.263 366.7C138.838 366.52 135.868 363.361 135.923 359.96C135.977 356.363 139.324 353.213 142.874 353.401C146.307 353.581 149.269 356.739 149.214 360.14Z" fill="#2C8184"/>
<path d="M149.268 309.144C149.236 312.757 146.015 315.892 142.418 315.806C138.805 315.712 135.718 312.428 135.866 308.847C136.015 305.398 139.064 302.436 142.504 302.405C146.109 302.365 149.291 305.539 149.268 309.144Z" fill="#2C8184"/>
<path d="M161.847 423.886C161.761 427.319 158.681 430.313 155.257 430.289C151.659 430.258 148.532 426.935 148.76 423.377C148.979 419.929 152.161 417.029 155.554 417.186C158.995 417.342 161.942 420.469 161.847 423.886Z" fill="#2C8184"/>
<path d="M142.662 251.536C146.236 251.599 149.379 254.929 149.183 258.464C149.003 261.881 145.868 264.835 142.474 264.773C138.901 264.718 135.758 261.379 135.954 257.853C136.134 254.436 139.277 251.481 142.662 251.536Z" fill="#2C8184"/>
<path d="M149.12 385.422C149.183 388.839 146.22 391.951 142.78 392.076C139.206 392.209 135.954 389.004 136.025 385.422C136.087 381.982 139.144 378.973 142.568 378.973C145.993 378.973 149.057 381.982 149.12 385.422Z" fill="#2C8184"/>
<path d="M136.251 296.158C136.369 299.677 133.469 302.718 129.934 302.781C126.408 302.843 123.422 299.889 123.422 296.362C123.43 293 126.165 290.124 129.527 289.951C133.03 289.771 136.126 292.632 136.251 296.158Z" fill="#2C8184"/>
<path d="M129.849 328.267C126.322 328.275 123.352 325.265 123.407 321.746C123.47 318.212 126.526 315.289 130.037 315.414C133.399 315.524 136.197 318.361 136.267 321.723C136.338 325.242 133.376 328.267 129.849 328.267Z" fill="#2C8184"/>
<path d="M155.1 188.056C158.611 187.939 161.651 190.838 161.714 194.373C161.777 197.899 158.822 200.893 155.296 200.885C151.934 200.885 149.057 198.142 148.885 194.78C148.705 191.277 151.565 188.174 155.1 188.056Z" fill="#2C8184"/>
<path d="M142.458 239.145C138.979 239.082 136.04 236.034 136.103 232.57C136.173 229.09 139.214 226.151 142.678 226.214C146.157 226.284 149.096 229.325 149.034 232.797C148.963 236.277 145.922 239.215 142.458 239.145Z" fill="#2C8184"/>
<path d="M136.196 347.107C136.306 350.657 133.484 353.619 129.934 353.674C126.384 353.729 123.477 350.861 123.477 347.303C123.484 343.917 126.149 341.119 129.527 340.955C133.069 340.782 136.078 343.565 136.196 347.107Z" fill="#2C8184"/>
<path d="M149.087 448.863C149.26 445.375 152.018 442.867 155.545 442.993C159.048 443.118 161.587 445.822 161.517 449.349C161.439 453.016 158.539 455.657 154.848 455.414C151.368 455.179 148.907 452.381 149.087 448.863Z" fill="#2C8184"/>
<path d="M148.775 207.014C148.869 210.54 146.361 213.26 142.866 213.416C139.175 213.573 136.354 210.877 136.369 207.194C136.377 203.667 138.963 201.05 142.482 201.003C146.009 200.956 148.673 203.503 148.775 207.014Z" fill="#2C8184"/>
<path d="M123.595 372.93C123.525 369.458 126.048 366.715 129.489 366.543C133.125 366.354 136.009 369.019 136.08 372.648C136.158 376.284 133.407 379.074 129.763 379.035C126.291 378.996 123.666 376.402 123.595 372.93Z" fill="#2C8184"/>
<path d="M136.142 270.776C136.205 274.232 133.595 277.03 130.162 277.202C126.55 277.383 123.595 274.616 123.532 271.003C123.47 267.39 126.314 264.53 129.935 264.585C133.391 264.64 136.079 267.32 136.142 270.776Z" fill="#2C8184"/>
<path d="M129.895 251.597C126.368 251.62 123.742 249.089 123.664 245.578C123.578 241.879 126.297 239.16 129.989 239.238C133.5 239.316 136.039 241.942 136.007 245.468C135.984 248.979 133.405 251.566 129.895 251.597Z" fill="#2C8184"/>
<path d="M142.426 404.693C145.882 404.615 148.688 407.209 148.876 410.641C149.064 414.254 146.313 417.224 142.708 417.303C139.088 417.381 136.219 414.552 136.266 410.931C136.298 407.475 138.978 404.764 142.426 404.693Z" fill="#2C8184"/>
<path d="M154.966 480.673C151.722 480.501 149.253 477.836 149.316 474.56C149.386 471.128 152.192 468.518 155.632 468.698C159.041 468.871 161.565 471.794 161.267 475.226C160.993 478.463 158.242 480.838 154.966 480.673Z" fill="#2C8184"/>
<path d="M135.813 423.76C135.797 427.06 133.219 429.67 129.92 429.717C126.456 429.756 123.736 426.966 123.862 423.502C123.987 420.218 126.675 417.687 129.967 417.757C133.258 417.828 135.829 420.461 135.813 423.76Z" fill="#2C8184"/>
<path d="M135.93 398.368C135.875 401.879 133.25 404.418 129.731 404.363C126.22 404.301 123.681 401.675 123.743 398.148C123.798 394.645 126.424 392.106 129.942 392.161C133.453 392.216 135.985 394.841 135.93 398.368Z" fill="#2C8184"/>
<path d="M116.972 340.65C113.453 340.579 110.914 337.876 111.031 334.333C111.157 330.83 113.907 328.33 117.45 328.503C120.788 328.675 123.186 331.23 123.171 334.608C123.155 338.134 120.506 340.72 116.972 340.65Z" fill="#2C8184"/>
<path d="M123.108 258.111C123.131 261.59 120.412 264.247 116.932 264.161C113.633 264.074 111.125 261.512 111.102 258.197C111.078 254.717 113.79 252.06 117.269 252.147C120.569 252.233 123.084 254.803 123.108 258.111Z" fill="#2C8184"/>
<path d="M117.286 315.179C113.735 315.273 111.071 312.718 111.024 309.176C110.985 305.625 113.587 303.008 117.137 303.024C120.514 303.039 123.046 305.461 123.179 308.815C123.328 312.365 120.804 315.092 117.286 315.179Z" fill="#2C8184"/>
<path d="M142.52 175.721C146 175.697 148.665 178.409 148.578 181.896C148.492 185.204 145.937 187.719 142.614 187.743C139.135 187.774 136.478 185.063 136.556 181.575C136.643 178.26 139.205 175.752 142.52 175.721Z" fill="#2C8184"/>
<path d="M142.536 442.554C138.994 442.539 136.415 439.89 136.486 436.332C136.556 432.797 139.252 430.266 142.81 430.391C146.172 430.501 148.617 433.017 148.649 436.394C148.688 439.952 146.094 442.57 142.536 442.554Z" fill="#2C8184"/>
<path d="M117.027 354.02C120.499 353.981 123.148 356.614 123.132 360.078C123.116 363.55 120.444 366.152 116.972 366.081C113.673 366.011 111.165 363.526 111.079 360.227C110.985 356.755 113.563 354.059 117.027 354.02Z" fill="#2C8184"/>
<path d="M135.883 219.865C135.922 223.368 133.312 226.002 129.809 225.994C126.314 225.978 123.727 223.321 123.79 219.81C123.853 216.488 126.329 213.988 129.652 213.901C133.155 213.799 135.836 216.37 135.883 219.865Z" fill="#2C8184"/>
<path d="M116.91 277.569C120.437 277.467 123.117 280.03 123.164 283.541C123.211 287.06 120.601 289.701 117.09 289.685C113.736 289.677 111.189 287.248 111.048 283.925C110.891 280.406 113.423 277.663 116.91 277.569Z" fill="#2C8184"/>
<path d="M142.599 456.018C145.82 456.033 148.516 458.753 148.492 461.974C148.476 465.203 145.765 467.891 142.536 467.875C139.315 467.859 136.627 465.14 136.643 461.919C136.658 458.69 139.378 456.002 142.599 456.018Z" fill="#2C8184"/>
<path d="M104.331 327.75C101.149 327.726 98.4454 324.976 98.4689 321.802C98.4924 318.62 101.235 315.908 104.417 315.932C107.591 315.955 110.303 318.706 110.279 321.88C110.248 325.062 107.505 327.773 104.331 327.75Z" fill="#2C8184"/>
<path d="M129.864 200.398C126.643 200.414 123.924 197.726 123.908 194.497C123.893 191.276 126.581 188.557 129.81 188.541C133.031 188.525 135.75 191.213 135.766 194.442C135.781 197.663 133.093 200.383 129.864 200.398Z" fill="#2C8184"/>
<path d="M117.073 226.754C120.294 226.738 123.014 229.426 123.029 232.655C123.045 235.876 120.357 238.596 117.136 238.611C113.907 238.627 111.195 235.939 111.172 232.71C111.156 229.489 113.852 226.77 117.073 226.754Z" fill="#2C8184"/>
<path d="M117.018 379.559C120.286 379.512 122.967 382.075 123.061 385.335C123.17 388.768 120.404 391.558 116.971 391.487C113.711 391.417 111.125 388.768 111.141 385.5C111.156 382.232 113.75 379.606 117.018 379.559Z" fill="#2C8184"/>
<path d="M161.219 143.611C161.165 146.817 158.414 149.489 155.208 149.442C152.003 149.387 149.331 146.636 149.386 143.431C149.433 140.226 152.191 137.553 155.389 137.6C158.602 137.655 161.266 140.414 161.219 143.611Z" fill="#2C8184"/>
<path d="M104.465 378.613C101.315 378.668 98.4776 375.816 98.5482 372.665C98.6187 369.671 101.291 367.015 104.285 366.968C107.427 366.913 110.272 369.765 110.194 372.908C110.123 375.91 107.459 378.558 104.465 378.613Z" fill="#2C8184"/>
<path d="M122.983 411.095C122.921 414.269 120.068 416.988 116.902 416.871C113.728 416.753 110.922 413.822 111.267 410.695C111.628 407.302 113.657 405.319 117.098 405.154C120.264 404.998 123.038 407.921 122.983 411.095Z" fill="#2C8184"/>
<path d="M135.687 449.09C135.758 452.225 132.999 455.054 129.857 455.062C126.706 455.07 123.814 452.256 124.018 449.121C124.245 445.72 126.236 443.706 129.614 443.393C132.717 443.095 135.617 445.94 135.687 449.09Z" fill="#2C8184"/>
<path d="M122.802 436.378C122.857 439.403 120.239 442.115 117.199 442.17C114.174 442.224 111.462 439.607 111.407 436.566C111.352 433.541 113.97 430.829 117.011 430.775C120.036 430.712 122.739 433.337 122.802 436.378Z" fill="#2C8184"/>
<path d="M104.574 265.031C107.732 265.149 110.412 268.072 110.232 271.199C110.052 274.357 107.066 277.116 103.962 276.716C100.6 276.285 98.6412 274.224 98.5393 270.799C98.4452 267.633 101.423 264.913 104.574 265.031Z" fill="#2C8184"/>
<path d="M155.397 494.364C158.539 494.419 161.274 497.358 161.094 500.461C160.914 503.439 158.163 506.002 155.209 505.947C152.066 505.892 149.323 502.953 149.511 499.85C149.691 496.88 152.442 494.309 155.397 494.364Z" fill="#2C8184"/>
<path d="M142.466 493.117C139.425 493.054 136.808 490.342 136.87 487.317C136.933 484.269 139.645 481.659 142.67 481.722C145.71 481.785 148.328 484.496 148.265 487.521C148.203 490.562 145.491 493.179 142.466 493.117Z" fill="#2C8184"/>
<path d="M142.418 162.122C139.268 162.036 136.564 159.136 136.713 156.009C136.862 152.859 139.824 150.069 142.92 150.437C146.282 150.845 148.257 152.874 148.39 156.299C148.515 159.457 145.569 162.208 142.418 162.122Z" fill="#2C8184"/>
<path d="M104.496 239.638C107.513 239.716 110.154 242.428 110.147 245.437C110.131 248.604 107.168 251.401 104.034 251.19C101.024 250.994 98.4616 248.157 98.5948 245.187C98.7359 242.177 101.51 239.568 104.496 239.638Z" fill="#2C8184"/>
<path d="M135.593 169.098C135.53 172.116 132.842 174.757 129.84 174.757C126.682 174.757 123.884 171.81 124.08 168.683C124.268 165.681 127.082 163.119 130.044 163.236C133.053 163.362 135.655 166.112 135.593 169.098Z" fill="#2C8184"/>
<path d="M104.488 341.425C107.677 341.488 110.389 344.356 110.256 347.53C110.13 350.727 107.207 353.392 104.049 353.204C101.024 353.024 98.4844 350.328 98.4844 347.303C98.4844 344.113 101.298 341.362 104.488 341.425Z" fill="#2C8184"/>
<path d="M104.276 392.561C107.301 392.507 110.013 395.124 110.068 398.165C110.123 401.198 107.505 403.902 104.464 403.956C101.439 404.019 98.7354 401.394 98.6727 398.353C98.6179 395.328 101.235 392.624 104.276 392.561Z" fill="#2C8184"/>
<path d="M122.927 207.155C122.959 210.314 120.09 213.127 116.948 213.033C113.946 212.939 111.313 210.251 111.282 207.257C111.25 204.107 114.118 201.286 117.261 201.387C120.255 201.474 122.896 204.162 122.927 207.155Z" fill="#2C8184"/>
<path d="M110.271 296.229C110.349 299.387 107.677 302.185 104.511 302.263C101.352 302.342 98.5547 299.677 98.4763 296.503C98.3979 293.345 101.063 290.547 104.229 290.469C107.387 290.383 110.193 293.055 110.271 296.229Z" fill="#2C8184"/>
<path d="M97.2623 309.004C97.3249 312.068 94.6996 314.733 91.6275 314.733C88.5632 314.725 85.8281 312.045 86.0475 308.989C86.2748 305.72 88.187 303.793 91.4394 303.51C94.4801 303.244 97.2074 305.932 97.2623 309.004Z" fill="#2C8184"/>
<path d="M97.2624 334.78C97.1448 337.852 94.3705 340.384 91.3298 340.203C88.2655 340.023 85.6793 337.186 86.0633 334.169C86.4709 330.924 88.4693 329.083 91.7373 328.981C94.8016 328.887 97.3878 331.724 97.2624 334.78Z" fill="#2C8184"/>
<path d="M97.1449 359.89C97.2311 363.025 94.7232 365.681 91.5884 365.525C88.2969 365.368 86.3925 363.503 86.1652 360.211C85.9458 357.084 88.5555 354.522 91.6903 354.545C94.6762 354.576 97.0587 356.912 97.1449 359.89Z" fill="#2C8184"/>
<path d="M135.375 474.577C135.328 477.884 132.655 480.494 129.552 480.189C126.268 479.875 124.426 477.908 124.332 474.609C124.238 471.482 127.02 468.88 130.124 469.178C133.423 469.483 135.132 471.482 135.375 474.577Z" fill="#2C8184"/>
<path d="M160.906 117.954C160.961 121.011 158.351 123.66 155.287 123.652C152.223 123.644 149.519 120.987 149.73 117.939C149.958 114.679 151.854 112.758 155.099 112.476C158.139 112.218 160.843 114.89 160.906 117.954Z" fill="#2C8184"/>
<path d="M142.677 136.261C139.284 136.183 136.815 133.581 137.128 130.438C137.45 127.155 139.417 125.384 142.708 125.344C145.851 125.297 148.312 127.993 148.006 131.136C147.693 134.427 145.686 136.073 142.677 136.261Z" fill="#2C8184"/>
<path d="M122.679 181.934C122.561 185.006 119.849 187.483 116.801 187.302C113.737 187.13 111.221 184.363 111.581 181.323C111.965 178.086 113.948 176.284 117.2 176.189C120.273 176.103 122.788 178.87 122.679 181.934Z" fill="#2C8184"/>
<path d="M109.974 219.851C110.029 222.907 107.427 225.556 104.363 225.548C101.299 225.541 98.5871 222.884 98.7987 219.835C99.026 216.575 100.93 214.655 104.175 214.373C107.208 214.114 109.919 216.787 109.974 219.851Z" fill="#2C8184"/>
<path d="M91.5094 278.025C94.558 277.947 97.2226 280.533 97.2383 283.605C97.2539 286.669 94.6129 289.389 91.5643 289.201C88.3041 289.005 86.3762 287.108 86.0705 283.864C85.7806 280.831 88.4373 278.104 91.5094 278.025Z" fill="#2C8184"/>
<path d="M160.632 525.862C160.217 529.114 158.43 531.011 155.099 530.877C151.761 530.752 149.942 528.738 150.06 525.423C150.178 522.092 152.2 520.274 155.507 520.384C158.869 520.493 160.452 522.57 160.632 525.862Z" fill="#2C8184"/>
<path d="M109.762 424.184C109.441 427.162 107.67 429.035 104.331 429.114C101.15 429.192 98.6888 426.559 98.9944 423.385C99.3157 420.062 101.314 418.338 104.621 418.354C107.631 418.369 109.849 420.846 109.762 424.184Z" fill="#2C8184"/>
<path d="M129.472 148.886C126.188 148.4 124.347 146.511 124.55 143.181C124.762 139.818 126.87 138.047 130.177 138.243C133.539 138.439 135.303 140.555 135.123 143.87C134.927 147.24 132.779 148.784 129.472 148.886Z" fill="#2C8184"/>
<path d="M91.5797 390.915C88.2568 390.578 86.2819 388.83 86.3289 385.452C86.3838 382.09 88.3587 380.178 91.7051 380.217C95.0672 380.257 96.9794 382.239 96.9481 385.594C96.9167 388.979 94.8791 390.656 91.5797 390.915Z" fill="#2C8184"/>
<path d="M104.598 189.137C107.85 189.544 109.755 191.331 109.629 194.67C109.496 198.016 107.482 199.842 104.167 199.724C100.828 199.607 99.0102 197.585 99.1199 194.27C99.2218 190.908 101.299 189.309 104.598 189.137Z" fill="#2C8184"/>
<path d="M122.466 462.155C122.067 465.454 120.248 467.358 116.902 467.233C113.548 467.108 111.706 465.07 111.824 461.739C111.941 458.385 113.979 456.551 117.31 456.661C120.679 456.763 122.294 458.855 122.466 462.155Z" fill="#2C8184"/>
<path d="M79.1744 291.119C82.1995 291.511 84.0177 293.149 84.0961 296.354C84.1666 299.419 81.792 301.676 78.7121 301.566C75.6713 301.464 73.4299 299.019 73.7277 295.955C74.0412 292.773 75.9926 291.276 79.1744 291.119Z" fill="#2C8184"/>
<path d="M143.141 100.202C145.68 100.531 147.545 102.106 147.663 105.272C147.78 108.242 145.257 110.672 142.295 110.398C139.191 110.115 137.498 108.274 137.483 105.139C137.459 102.341 139.818 100.163 143.141 100.202Z" fill="#2C8184"/>
<path d="M78.5166 250.571C75.5229 249.999 73.6263 248.275 73.8614 245.085C74.0809 241.943 76.0871 240.164 79.2376 240.367C82.3802 240.579 84.1592 242.593 83.9555 245.751C83.7595 248.918 81.6906 250.422 78.5166 250.571Z" fill="#2C8184"/>
<path d="M160.506 92.6256C160.154 95.7133 158.571 97.5864 155.365 97.7039C152.332 97.8215 149.934 95.3528 150.177 92.3278C150.428 89.1616 152.277 87.3983 155.444 87.4688C158.649 87.5394 160.208 89.5143 160.506 92.6256Z" fill="#2C8184"/>
<path d="M122.318 155.799C122.263 159.388 119.865 161.692 116.817 161.442C113.65 161.191 111.965 159.349 111.918 156.175C111.879 153.127 114.34 150.838 117.396 151.073C120.586 151.316 122.122 153.228 122.318 155.799Z" fill="#2C8184"/>
<path d="M109.559 168.893C109.104 172.169 107.482 174.128 104.284 174.05C101.118 173.979 99.2686 172.067 99.3235 168.909C99.3783 165.742 101.298 163.909 104.465 163.94C107.686 163.963 109.151 166.056 109.559 168.893Z" fill="#2C8184"/>
<path d="M96.9106 232.514C96.9968 235.586 94.7711 237.922 91.7069 237.953C88.6269 237.984 86.2915 235.719 86.3856 232.639C86.4953 229.473 88.2116 227.671 91.3699 227.428C94.4263 227.201 96.8244 229.465 96.9106 232.514Z" fill="#2C8184"/>
<path d="M90.9454 405.814C94.5739 405.736 96.9407 408.017 96.8153 411.081C96.6821 414.247 94.9344 416.01 91.7683 416.175C88.7119 416.332 86.3529 413.973 86.4627 410.916C86.5802 407.719 88.4219 406.12 90.9454 405.814Z" fill="#2C8184"/>
<path d="M147.849 512.742C147.606 516.057 145.976 518.087 142.591 518.087C139.236 518.087 137.356 516.159 137.371 512.813C137.395 509.67 139.197 507.813 142.34 507.695C145.702 507.57 147.457 509.482 147.849 512.742Z" fill="#2C8184"/>
<path d="M78.2813 265.735C81.8549 265.696 84.2139 268.015 84.0493 271.033C83.869 274.16 82.1135 275.899 78.9787 276.033C75.9693 276.158 73.6104 273.768 73.7671 270.751C73.9239 267.592 75.7734 266.017 78.2813 265.735Z" fill="#2C8184"/>
<path d="M130.076 494.943C133.062 495.351 134.888 496.95 134.982 500.124C135.068 503.141 132.686 505.414 129.661 505.32C126.667 505.225 124.402 502.773 124.7 499.771C125.006 496.628 126.934 495.131 130.076 494.943Z" fill="#2C8184"/>
<path d="M84.0883 372.859C83.7121 375.908 82.129 377.773 78.955 377.89C75.9613 378.008 73.5475 375.508 73.8061 372.522C74.0804 369.395 75.9299 367.616 79.0647 367.702C82.2387 367.788 83.7826 369.763 84.0883 372.859Z" fill="#2C8184"/>
<path d="M122.278 487.382C121.793 490.611 120.162 492.562 116.981 492.46C113.838 492.366 111.988 490.439 112.067 487.296C112.145 484.153 114.081 482.319 117.231 482.374C120.413 482.437 121.902 484.506 122.278 487.382Z" fill="#2C8184"/>
<path d="M79.4014 352.498C75.8199 352.451 73.508 350.061 73.7588 347.035C74.0096 343.893 75.8278 342.208 78.9782 342.153C81.9955 342.106 84.2917 344.567 84.0644 347.592C83.8215 350.766 81.9171 352.294 79.4014 352.498Z" fill="#2C8184"/>
<path d="M96.8323 207.147C96.5345 210.25 94.9749 212.139 91.7931 212.327C88.7759 212.499 86.3307 210.062 86.5266 207.045C86.7304 203.894 88.5407 202.092 91.699 202.115C94.8809 202.131 96.4718 204.075 96.8323 207.147Z" fill="#2C8184"/>
<path d="M84.1121 321.708C84.1748 324.788 81.8943 327.155 78.83 327.021C75.656 326.896 73.8849 325.141 73.7281 321.967C73.5714 318.894 75.9146 316.59 78.9867 316.637C81.8786 316.677 84.0416 318.824 84.1121 321.708Z" fill="#2C8184"/>
<path d="M96.7525 436.504C96.3136 439.584 94.6757 441.583 91.4939 441.473C88.3512 441.363 86.5174 439.373 86.6428 436.222C86.7603 433.299 88.6255 431.489 91.5722 431.465C94.7619 431.442 96.3606 433.424 96.7525 436.504Z" fill="#2C8184"/>
<path d="M66.2343 339.607C63.2171 339.137 61.2892 337.578 61.2735 334.67C61.2579 331.575 63.1936 329.607 66.2814 329.686C69.3691 329.756 71.2343 331.794 71.0698 334.897C70.9209 337.797 68.8911 339.247 66.2343 339.607Z" fill="#2C8184"/>
<path d="M61.127 309.169C61.5031 306.143 63.1097 304.122 66.2759 304.161C69.1991 304.208 71.0721 306.073 71.1113 308.988C71.1505 312.123 69.2147 314.059 66.0799 314.043C63.1332 314.027 61.5737 312.084 61.127 309.169Z" fill="#2C8184"/>
<path d="M91.6197 176.691C94.6369 177.099 96.6432 178.721 96.5648 181.879C96.4943 184.787 94.6213 186.652 91.7059 186.66C88.5789 186.66 86.6667 184.709 86.7137 181.59C86.7608 178.658 88.7043 177.107 91.6197 176.691Z" fill="#2C8184"/>
<path d="M137.576 538.368C137.96 535.476 139.512 533.666 142.466 533.439C145.162 533.235 147.772 535.884 147.49 538.572C147.184 541.487 145.413 543.321 142.466 543.259C139.52 543.204 137.968 541.26 137.576 538.368Z" fill="#2C8184"/>
<path d="M71.1188 258.118C70.6251 261.143 69.0263 263.055 66.0718 262.977C63.1486 262.898 61.2834 260.986 61.3618 258.047C61.4323 255.124 63.3445 253.274 66.2834 253.329C69.2379 253.384 70.7191 255.398 71.1188 258.118Z" fill="#2C8184"/>
<path d="M66.2599 278.619C69.1126 279.05 71.0483 280.602 71.0718 283.509C71.111 286.613 69.1831 288.58 66.0875 288.517C62.9997 288.462 61.1188 286.433 61.2834 283.329C61.4245 280.453 63.3916 278.925 66.2599 278.619Z" fill="#2C8184"/>
<path d="M160.334 551.222C159.887 554.075 158.327 556.018 155.396 556.034C152.269 556.05 150.31 554.114 150.381 550.995C150.459 547.883 152.497 546.01 155.624 546.183C158.523 546.34 160.044 548.322 160.334 551.222Z" fill="#2C8184"/>
<path d="M122.152 130.868C121.674 133.893 120.013 135.876 116.847 135.719C113.947 135.578 112.097 133.681 112.168 130.743C112.246 127.608 114.229 125.719 117.356 125.852C120.279 125.97 121.815 127.937 122.152 130.868Z" fill="#2C8184"/>
<path d="M84.0409 398.195C83.5158 401.432 81.8544 403.407 78.6882 403.25C75.5691 403.086 73.7353 401.071 73.9234 397.937C74.0958 395.029 75.9688 393.242 78.9155 393.258C82.1052 393.281 83.602 395.358 84.0409 398.195Z" fill="#2C8184"/>
<path d="M109.284 143.447C108.947 146.315 107.411 148.274 104.472 148.329C101.541 148.392 99.6365 146.542 99.566 143.627C99.5033 140.696 101.353 138.792 104.268 138.713C107.215 138.635 108.821 140.547 109.284 143.447Z" fill="#2C8184"/>
<path d="M78.9472 428.681C75.9221 428.187 74.0099 426.581 74.0883 423.626C74.1666 420.703 76.0789 418.845 79.0099 418.916C81.9331 418.987 83.7826 420.899 83.7278 423.838C83.6729 426.8 81.6588 428.281 78.9472 428.681Z" fill="#2C8184"/>
<path d="M71.1342 359.89C70.8756 362.758 69.3552 364.584 66.4712 364.952C63.8458 365.281 61.1107 362.695 61.2831 360.031C61.4634 357.115 63.1875 355.25 66.0951 355.187C69.0261 355.117 70.6248 357.013 71.1342 359.89Z" fill="#2C8184"/>
<path d="M78.7752 214.896C81.8081 215.226 83.8457 216.809 83.8457 219.975C83.8457 222.906 81.9962 224.802 79.0886 224.881C75.9538 224.959 74.0024 223.047 73.9711 219.912C73.9397 216.958 75.8676 215.39 78.7752 214.896Z" fill="#2C8184"/>
<path d="M129.786 123.173C126.745 122.757 124.778 121.151 124.825 118C124.872 114.881 126.769 113.008 129.888 113.039C132.999 113.071 134.864 114.983 134.849 118.102C134.833 121.245 132.842 122.82 129.786 123.173Z" fill="#2C8184"/>
<path d="M104.168 469.607C107.381 470.038 109.387 471.661 109.309 474.827C109.238 477.75 107.365 479.615 104.434 479.623C101.299 479.623 99.395 477.672 99.4342 474.537C99.4734 471.582 101.48 470.093 104.168 469.607Z" fill="#2C8184"/>
<path d="M129.911 530.556C127.043 530.219 125.076 528.675 125.021 525.736C124.958 522.797 126.816 520.877 129.739 520.814C132.67 520.744 134.582 522.609 134.661 525.532C134.731 528.479 132.819 530.086 129.911 530.556Z" fill="#2C8184"/>
<path d="M96.5106 462.013C96.0639 464.92 94.4573 466.793 91.5341 466.723C88.6344 466.644 86.8006 464.756 86.8711 461.84C86.9416 458.941 88.8304 457.107 91.7457 457.17C94.6611 457.232 96.1893 459.168 96.5106 462.013Z" fill="#2C8184"/>
<path d="M70.9845 385.523C70.6162 388.423 69.0252 390.312 66.0785 390.241C63.1475 390.171 61.3607 388.258 61.4547 385.319C61.5488 382.6 63.3356 380.837 66.0629 380.797C69.0174 380.758 70.6083 382.616 70.9845 385.523Z" fill="#2C8184"/>
<path d="M66.3135 227.992C69.268 228.415 70.9843 230.085 70.7727 233.055C70.5846 235.806 68.7508 237.42 66.0078 237.295C63.0533 237.161 61.3762 235.273 61.5721 232.31C61.7602 229.552 63.6019 228.172 66.3135 227.992Z" fill="#2C8184"/>
<path d="M142.576 84.5763C139.708 84.2785 137.858 82.7033 137.913 79.7096C137.96 76.9509 139.724 75.1955 142.49 75.1798C145.46 75.1641 147.271 76.9901 147.231 79.9682C147.184 82.7268 145.405 84.2472 142.576 84.5763Z" fill="#2C8184"/>
<path d="M78.8525 189.67C81.8932 190.093 83.7271 191.723 83.6017 194.662C83.4763 197.577 81.5406 199.325 78.6095 199.168C75.9058 199.027 74.1895 197.225 74.1973 194.49C74.2051 191.519 76.133 190.038 78.8525 189.67Z" fill="#2C8184"/>
<path d="M96.2829 156.119C96.1419 158.846 94.7469 160.696 91.9413 160.829C88.9397 160.978 87.0902 159.277 87.0666 156.244C87.0431 153.438 88.7438 151.738 91.5494 151.675C94.355 151.62 95.9224 153.274 96.2829 156.119Z" fill="#2C8184"/>
<path d="M121.886 512.852C121.573 515.728 120.013 517.616 117.074 517.593C114.151 517.569 112.349 515.696 112.404 512.757C112.451 510.038 114.206 508.267 116.926 508.188C119.864 508.102 121.494 509.913 121.886 512.852Z" fill="#2C8184"/>
<path d="M79.2441 444.693C82.0733 445.101 83.5623 446.762 83.3664 449.56C83.1626 452.405 81.3444 453.855 78.5545 453.667C75.7096 453.471 74.2598 451.645 74.4479 448.855C74.636 445.994 76.4777 444.725 79.2441 444.693Z" fill="#2C8184"/>
<path d="M121.589 105.453C121.283 108.313 119.715 109.88 116.855 109.732C113.955 109.59 112.513 107.78 112.686 104.959C112.842 102.294 114.488 100.844 117.145 100.884C120.045 100.923 121.44 102.623 121.589 105.453Z" fill="#2C8184"/>
<path d="M70.6942 411.026C70.4591 413.831 68.9936 415.485 66.1487 415.462C63.3118 415.438 61.6973 413.808 61.713 410.971C61.7287 408.134 63.3666 406.527 66.2036 406.535C69.0563 406.543 70.4904 408.22 70.6942 411.026Z" fill="#2C8184"/>
<path d="M57.9206 347.327C57.6855 350.172 56.2043 351.802 53.3203 351.731C50.4363 351.653 48.9316 349.937 49.0256 347.092C49.1197 344.427 50.6949 342.922 53.3517 342.891C56.2357 342.86 57.7012 344.49 57.9206 347.327Z" fill="#2C8184"/>
<path d="M53.3046 291.824C56.2748 292.083 57.9284 293.541 57.9049 296.393C57.8814 299.23 56.2513 300.845 53.4143 300.829C50.5773 300.813 48.9864 299.175 48.9785 296.338C48.9707 293.454 50.7027 292.083 53.3046 291.824Z" fill="#2C8184"/>
<path d="M96.0397 487.342C95.8516 490.148 94.4253 491.809 91.5334 491.754C88.8689 491.707 87.3406 490.187 87.3093 487.522C87.2701 484.646 88.8767 483.055 91.745 483.086C94.4331 483.11 95.7889 484.701 96.0397 487.342Z" fill="#2C8184"/>
<path d="M134.418 92.4531C134.254 95.2431 132.851 97.0142 129.983 97.0926C127.154 97.171 125.414 95.5722 125.328 92.7274C125.241 89.8904 126.84 88.1506 129.693 88.0644C132.538 87.9703 134.089 89.6083 134.418 92.4531Z" fill="#2C8184"/>
<path d="M53.5551 275.327C50.7494 275.162 49.0645 273.767 49.0723 270.899C49.0801 268.038 50.7024 266.487 53.5394 266.518C56.1804 266.542 57.7165 268.038 57.8184 270.679C57.9203 273.524 56.3685 275.045 53.5551 275.327Z" fill="#2C8184"/>
<path d="M108.962 499.991C108.743 502.907 107.301 504.647 104.433 504.67C101.596 504.701 99.8951 503.071 99.8559 500.219C99.8246 497.374 101.462 495.689 104.307 495.634C107.183 495.579 108.641 497.303 108.962 499.991Z" fill="#2C8184"/>
<path d="M146.934 563.799C146.73 566.44 145.421 568.093 142.709 568.14C139.81 568.18 138.203 566.557 138.274 563.666C138.352 560.977 139.959 559.512 142.639 559.535C145.343 559.567 146.691 561.166 146.934 563.799Z" fill="#2C8184"/>
<path d="M53.6176 377.186C50.7963 377.037 49.1035 375.666 49.1035 372.758C49.1114 370.094 50.6004 368.526 53.265 368.456C56.1255 368.378 57.7634 369.937 57.7791 372.821C57.7947 375.501 56.2352 376.889 53.6176 377.186Z" fill="#2C8184"/>
<path d="M78.7673 173.392C76.1811 173.142 74.5902 171.786 74.5745 169.098C74.551 166.221 76.1419 164.607 79.018 164.67C81.9177 164.725 83.3833 166.472 83.2344 169.317C83.1011 171.997 81.4162 173.267 78.7673 173.392Z" fill="#2C8184"/>
<path d="M104.41 122.461C101.652 122.194 100.061 120.846 100.037 118.158C100.014 115.282 101.597 113.66 104.473 113.722C107.373 113.777 108.838 115.517 108.705 118.362C108.58 121.066 106.863 122.28 104.41 122.461Z" fill="#2C8184"/>
<path d="M65.9382 432.139C68.595 432.264 70.3035 433.518 70.4288 436.183C70.5699 439.02 69.0339 440.72 66.1577 440.736C63.5088 440.752 61.9727 439.208 61.91 436.559C61.8473 433.886 63.3991 432.491 65.9382 432.139Z" fill="#2C8184"/>
<path d="M57.8189 245.124C57.5838 248.016 56.275 249.67 53.5712 249.701C50.6794 249.74 49.0806 248.118 49.159 245.234C49.2374 242.554 50.8518 241.096 53.5242 241.119C56.2436 241.143 57.4897 242.836 57.8189 245.124Z" fill="#2C8184"/>
<path d="M134.198 550.845C133.94 553.69 132.631 555.336 129.958 555.367C127.09 555.398 125.491 553.76 125.578 550.908C125.664 548.259 127.278 546.801 129.927 546.833C132.615 546.864 133.861 548.557 134.198 550.845Z" fill="#2C8184"/>
<path d="M66.3226 186.049C63.5248 185.595 61.8633 184.208 62.0044 181.543C62.1455 178.918 63.8304 177.39 66.4715 177.562C68.8775 177.719 70.3586 179.27 70.3586 181.716C70.3508 184.419 68.5875 185.626 66.3226 186.049Z" fill="#2C8184"/>
<path d="M91.6344 135.101C89.0482 134.803 87.4024 133.463 87.4181 130.783C87.4338 128.134 88.9933 126.566 91.6422 126.566C94.2911 126.566 95.8507 128.134 95.8585 130.791C95.8742 133.471 94.2284 134.803 91.6344 135.101Z" fill="#2C8184"/>
<path d="M78.9946 478.979C76.4162 478.713 74.7469 477.412 74.7078 474.763C74.6686 472.137 76.2046 470.531 78.83 470.484C81.4476 470.429 83.0463 471.981 83.109 474.606C83.1717 477.255 81.5416 478.611 78.9946 478.979Z" fill="#2C8184"/>
<path d="M57.7087 220.101C57.2541 222.632 55.8591 224.285 53.2024 224.105C50.5927 223.925 49.0801 222.224 49.2839 219.599C49.472 217.209 51.0315 215.728 53.4767 215.775C56.1413 215.822 57.4422 217.506 57.7087 220.101Z" fill="#2C8184"/>
<path d="M117.011 534.059C119.613 534.302 121.29 535.602 121.329 538.283C121.36 540.932 119.84 542.538 117.191 542.585C114.542 542.64 112.951 541.104 112.881 538.455C112.818 535.775 114.432 534.403 117.011 534.059Z" fill="#2C8184"/>
<path d="M70.3111 461.848C70.0446 464.215 68.7672 465.884 66.3926 465.978C63.7907 466.088 62.1136 464.45 62.145 461.848C62.1685 459.466 63.7672 457.914 66.1653 457.898C68.587 457.891 69.8879 459.489 70.3111 461.848Z" fill="#2C8184"/>
<path d="M95.7742 512.813C95.4921 515.18 94.2225 516.849 91.8322 516.928C89.2382 517.022 87.5689 515.376 87.6081 512.782C87.6473 510.392 89.2539 508.848 91.652 508.848C94.0658 508.848 95.3667 510.454 95.7742 512.813Z" fill="#2C8184"/>
<path d="M44.8646 359.851C44.6686 362.257 43.4069 363.942 41.0244 364.107C38.399 364.279 36.6984 362.665 36.6592 360.047C36.6122 357.633 38.1953 356.066 40.6091 355.988C43.0542 355.901 44.3787 357.508 44.8646 359.851Z" fill="#2C8184"/>
<path d="M83.1313 143.401C82.6768 146.081 81.2975 147.766 78.6721 147.617C76.3053 147.484 74.7536 145.901 74.8163 143.495C74.879 140.901 76.5404 139.318 79.1423 139.427C81.5561 139.529 82.7316 141.245 83.1313 143.401Z" fill="#2C8184"/>
<path d="M134.042 66.9891C133.736 69.5047 132.412 71.221 129.779 71.2054C127.38 71.1897 125.797 69.6458 125.742 67.2477C125.672 64.6458 127.286 63.0079 129.896 63C132.318 62.9922 133.611 64.6066 134.042 66.9891Z" fill="#2C8184"/>
<path d="M44.943 334.678C44.512 337.194 43.117 338.879 40.4446 338.706C38.0465 338.557 36.5026 336.967 36.581 334.521C36.6672 331.888 38.3365 330.305 40.9775 330.446C43.3992 330.579 44.6687 332.225 44.943 334.678Z" fill="#2C8184"/>
<path d="M44.9434 309.301C44.4418 311.801 43.0233 313.462 40.3509 313.227C37.9606 313.016 36.4402 311.401 36.5813 308.948C36.7302 306.331 38.423 304.771 41.0719 304.975C43.4857 305.163 44.7318 306.832 44.9434 309.301Z" fill="#2C8184"/>
<path d="M53.5784 427.883C51.1881 427.64 49.511 426.371 49.3935 423.98C49.2681 421.363 50.8982 419.678 53.5079 419.686C55.906 419.693 57.4656 421.292 57.4969 423.698C57.5361 426.128 55.9295 427.444 53.5784 427.883Z" fill="#2C8184"/>
<path d="M146.8 54.4653C146.369 56.981 144.974 58.6659 142.302 58.4935C139.904 58.3446 138.36 56.7537 138.438 54.3085C138.525 51.6753 140.194 50.0922 142.835 50.2333C145.257 50.3587 146.534 52.0123 146.8 54.4653Z" fill="#2C8184"/>
<path d="M44.8246 258.235C44.3935 260.633 43.0612 262.256 40.6083 262.17C38.1945 262.091 36.6271 260.485 36.6976 258.047C36.7681 255.633 38.3826 254.074 40.812 254.137C43.2493 254.199 44.5268 255.861 44.8246 258.235Z" fill="#2C8184"/>
<path d="M44.942 283.415C44.5502 286.119 43.1944 287.812 40.5612 287.733C38.1709 287.655 36.6113 286.088 36.6113 283.682C36.6113 281.08 38.2493 279.481 40.859 279.52C43.3041 279.559 44.4797 281.284 44.942 283.415Z" fill="#2C8184"/>
<path d="M108.408 92.4604C108.157 94.8428 106.887 96.4964 104.427 96.52C101.981 96.5513 100.43 94.9761 100.422 92.5231C100.414 90.2739 101.895 88.7613 104.105 88.6281C106.574 88.4714 107.953 90.0152 108.408 92.4604Z" fill="#2C8184"/>
<path d="M142.537 585.523C144.927 585.751 146.314 586.997 146.306 589.285C146.299 591.801 144.762 593.188 142.286 593.047C140.005 592.922 138.728 591.417 138.83 589.136C138.924 586.832 140.382 585.688 142.537 585.523Z" fill="#2C8184"/>
<path d="M91.6745 109.16C89.3391 108.948 87.8736 107.702 87.8501 105.414C87.8187 102.898 89.3626 101.417 91.8548 101.519C94.1432 101.613 95.499 103.125 95.4363 105.421C95.3736 107.726 93.9237 108.948 91.6745 109.16Z" fill="#2C8184"/>
<path d="M44.746 385.548C44.3698 387.969 43.0297 389.576 40.5689 389.474C38.1394 389.372 36.6269 387.734 36.7601 385.281C36.8855 383.063 38.3902 381.582 40.6394 381.574C43.1081 381.559 44.4168 383.15 44.746 385.548Z" fill="#2C8184"/>
<path d="M70.1066 156.143C69.9656 158.314 68.8449 159.889 66.58 160.101C64.0957 160.336 62.4499 158.901 62.3167 156.456C62.1834 153.996 63.7116 152.42 66.1803 152.389C68.453 152.365 69.7461 153.815 70.1066 156.143Z" fill="#2C8184"/>
<path d="M57.4745 194.497C57.1062 196.918 55.7661 198.517 53.3052 198.415C50.8679 198.313 49.3632 196.676 49.4965 194.223C49.614 192.005 51.1187 190.523 53.3758 190.516C55.8444 190.508 57.1532 192.091 57.4745 194.497Z" fill="#2C8184"/>
<path d="M40.6237 228.816C42.873 228.973 44.3855 230.149 44.5187 232.39C44.6755 234.835 43.257 236.442 40.7962 236.497C38.3432 236.544 36.8541 235.023 36.8933 232.562C36.9325 230.313 38.3745 229.067 40.6237 228.816Z" fill="#2C8184"/>
<path d="M69.7626 487.435C69.5824 489.614 68.493 490.915 66.3222 490.954C63.9554 491.009 62.6231 489.731 62.6388 487.349C62.6545 485.194 63.8771 483.94 66.0322 483.877C68.4068 483.814 69.6137 485.139 69.7626 487.435Z" fill="#2C8184"/>
<path d="M57.1918 449.059C57.0193 451.457 55.836 452.875 53.4927 452.899C51.1729 452.93 49.778 451.59 49.7544 449.263C49.7231 446.935 51.0554 445.556 53.3908 445.516C55.7341 445.477 56.941 446.864 57.1918 449.059Z" fill="#2C8184"/>
<path d="M107.952 550.76C107.85 553.268 106.714 554.647 104.324 554.632C102.176 554.624 100.907 553.425 100.844 551.27C100.781 548.918 102.043 547.586 104.418 547.57C106.596 547.555 107.67 548.856 107.952 550.76Z" fill="#2C8184"/>
<path d="M27.9595 350.901C25.7808 350.729 24.4877 349.632 24.4407 347.461C24.3937 345.094 25.6711 343.762 28.0457 343.777C30.2009 343.785 31.4548 345.016 31.5175 347.171C31.5802 349.553 30.2558 350.752 27.9595 350.901Z" fill="#2C8184"/>
<path d="M57.0186 168.965C56.8775 171.253 55.6941 172.586 53.3195 172.531C51.1644 172.476 49.934 171.23 49.9183 169.082C49.8948 166.708 51.2114 165.43 53.5703 165.47C55.7333 165.509 56.8383 166.786 57.0186 168.965Z" fill="#2C8184"/>
<path d="M117.152 567.53C114.848 567.389 113.445 566.198 113.461 563.815C113.477 561.441 114.88 560.148 117.231 560.195C119.386 560.234 120.671 561.503 120.749 563.651C120.836 566.01 119.543 567.311 117.152 567.53Z" fill="#2C8184"/>
<path d="M44.2842 207.013C44.2058 209.325 43.1008 210.72 40.7027 210.735C38.5632 210.751 37.2701 209.568 37.1839 207.412C37.0977 205.069 38.3359 203.706 40.7105 203.674C42.8736 203.651 44.0334 204.873 44.2842 207.013Z" fill="#2C8184"/>
<path d="M129.848 580.32C127.583 580.148 126.164 578.972 126.149 576.629C126.125 574.302 127.458 572.914 129.793 572.883C132.113 572.86 133.5 574.2 133.531 576.535C133.555 578.863 132.199 580.109 129.848 580.32Z" fill="#2C8184"/>
<path d="M27.9593 325.499C25.4515 325.209 24.2211 323.861 24.3857 321.55C24.5503 319.191 26.0785 318.054 28.3669 318.25C30.4985 318.43 31.6349 319.794 31.58 321.918C31.5252 324.308 30.0597 325.358 27.9593 325.499Z" fill="#2C8184"/>
<path d="M31.5419 270.751C31.44 273.039 30.3115 274.419 27.9369 274.411C25.7974 274.395 24.5278 273.196 24.4651 271.056C24.4024 268.713 25.6642 267.381 28.0231 267.373C30.1783 267.373 31.3068 268.611 31.5419 270.751Z" fill="#2C8184"/>
<path d="M31.6126 296.189C31.5342 298.47 30.4292 299.904 28.0702 299.951C25.7348 299.99 24.4104 298.697 24.3947 296.346C24.379 294.222 25.5624 292.913 27.6862 292.78C29.9903 292.631 31.3304 293.838 31.6126 296.189Z" fill="#2C8184"/>
<path d="M44.4099 410.854C44.2218 413.339 42.9836 414.702 40.6168 414.64C38.2344 414.585 36.9805 413.143 37.0667 410.799C37.145 408.644 38.4381 407.398 40.5933 407.351C42.9758 407.296 44.1827 408.668 44.4099 410.854Z" fill="#2C8184"/>
<path d="M78.6812 114.451C81.1812 114.616 82.5135 115.815 82.4429 118.197C82.3881 120.352 81.1263 121.575 78.9711 121.591C76.5965 121.606 75.3269 120.266 75.3661 117.907C75.4053 115.713 76.7533 114.686 78.6812 114.451Z" fill="#2C8184"/>
<path d="M53.6576 471.254C55.7344 471.63 56.9962 472.829 56.7924 474.984C56.5965 477.116 55.1858 478.26 53.0385 478.025C51.1184 477.821 49.9978 476.552 50.0761 474.592C50.1702 472.422 51.5181 471.387 53.6576 471.254Z" fill="#2C8184"/>
<path d="M31.369 398.376C31.0321 400.437 29.8722 401.746 27.7013 401.574C25.7813 401.425 24.5744 400.155 24.6606 398.188C24.7546 396.033 26.1026 394.795 28.2578 394.944C30.1935 395.085 31.2045 396.394 31.369 398.376Z" fill="#2C8184"/>
<path d="M18.5015 309.184C18.1488 311.081 17.0908 312.358 15.1473 312.28C13.235 312.209 11.9968 310.932 12.0673 309.004C12.1378 307.092 13.4153 305.861 15.351 305.924C17.2789 305.987 18.2821 307.303 18.5015 309.184Z" fill="#2C8184"/>
<path d="M40.8842 185.093C38.8152 184.913 37.4516 183.862 37.4281 181.723C37.4046 179.803 38.6193 178.541 40.5158 178.455C42.6397 178.353 43.9563 179.63 43.9955 181.746C44.0347 183.682 42.7651 184.724 40.8842 185.093Z" fill="#2C8184"/>
<path d="M107.772 67.1539C107.474 69.2307 106.338 70.563 104.151 70.4298C102.208 70.3122 101.001 69.0583 101.04 67.0912C101.095 64.9204 102.427 63.6665 104.59 63.7762C106.549 63.8702 107.56 65.1712 107.772 67.1539Z" fill="#2C8184"/>
<path d="M44.1974 436.134C43.9702 438.556 42.8965 439.865 40.7335 439.872C38.5861 439.872 37.3244 438.642 37.3166 436.495C37.3009 434.347 38.5391 433.117 40.6943 433.062C42.92 433.007 43.8213 434.465 44.1974 436.134Z" fill="#2C8184"/>
<path d="M91.7678 76.5273C93.6409 76.88 94.934 77.9302 94.8713 79.8659C94.8007 81.9819 93.4293 83.2672 91.3054 83.0556C89.4324 82.8753 88.2412 81.543 88.4058 79.6073C88.5625 77.7029 89.8556 76.6998 91.7678 76.5273Z" fill="#2C8184"/>
<path d="M53.351 146.81C51.4388 146.45 50.1535 145.384 50.2319 143.417C50.3181 141.481 51.5955 140.243 53.547 140.313C55.4827 140.392 56.7131 141.677 56.6504 143.628C56.5877 145.588 55.2633 146.591 53.351 146.81Z" fill="#2C8184"/>
<path d="M66.2681 134.247C64.1521 134.083 62.8198 133.033 62.7806 130.87C62.7336 128.722 63.9483 127.445 66.0957 127.39C68.2352 127.343 69.5126 128.558 69.5753 130.705C69.6301 132.868 68.3606 133.981 66.2681 134.247Z" fill="#2C8184"/>
<path d="M133.328 41.213C133.139 43.6581 132.089 44.9904 129.918 45.0296C127.771 45.0766 126.486 43.8619 126.431 41.7067C126.384 39.5594 127.599 38.3054 129.754 38.2114C131.987 38.1173 132.92 39.5594 133.328 41.213Z" fill="#2C8184"/>
<path d="M31.4308 245.211C31.3289 247.35 30.3101 248.714 28.1549 248.816C26.0154 248.91 24.691 247.734 24.5891 245.595C24.4794 243.455 25.6549 242.139 27.8022 242.021C29.9574 241.904 31.1095 243.15 31.4308 245.211Z" fill="#2C8184"/>
<path d="M78.7601 522.225C80.8761 522.413 82.2475 523.479 82.2397 525.673C82.2319 527.64 81.025 528.894 79.0736 528.957C76.9027 529.035 75.5939 527.765 75.5783 525.587C75.5626 523.604 76.8322 522.562 78.7601 522.225Z" fill="#2C8184"/>
<path d="M142.654 25.4062C144.786 25.657 146.048 26.7856 145.993 28.9721C145.93 31.1429 144.653 32.3655 142.482 32.3106C140.311 32.2636 139.104 30.9783 139.144 28.8075C139.183 26.6131 140.523 25.563 142.654 25.4062Z" fill="#2C8184"/>
<path d="M120.563 54.3486C120.367 56.4489 119.293 57.7577 117.13 57.7655C114.983 57.7655 113.721 56.5351 113.713 54.3878C113.697 52.2405 114.936 50.9865 117.083 50.963C119.246 50.9474 120.343 52.2326 120.563 54.3486Z" fill="#2C8184"/>
<path d="M91.8546 541.856C89.6759 541.77 88.3044 540.751 88.2025 538.549C88.1085 536.378 89.2762 535.038 91.4627 534.936C93.6257 534.834 94.9659 536.002 95.0756 538.188C95.1853 540.375 93.9627 541.558 91.8546 541.856Z" fill="#2C8184"/>
<path d="M31.4796 372.774C31.315 374.882 30.2492 376.199 28.094 376.23C25.7429 376.269 24.4498 374.937 24.5439 372.594C24.6222 370.454 25.9388 369.294 28.0705 369.341C30.2257 369.388 31.2993 370.674 31.4796 372.774Z" fill="#2C8184"/>
<path d="M31.2912 220.014C30.9777 221.903 29.9432 223.173 28.0075 223.18C26.0796 223.196 24.7943 221.981 24.7473 220.077C24.7003 217.953 26.0326 216.629 28.1564 216.715C30.0686 216.785 31.0796 218.118 31.2912 220.014Z" fill="#2C8184"/>
<path d="M15.2634 286.809C13.3747 286.535 12.0816 285.5 12.1364 283.557C12.1913 281.637 13.4844 280.43 15.4201 280.516C17.1364 280.594 18.312 281.77 18.359 283.494C18.4217 285.446 17.1678 286.504 15.2634 286.809Z" fill="#2C8184"/>
<path d="M82.0744 92.5692C81.7844 94.4579 80.7421 95.7431 78.8142 95.6648C76.9098 95.5942 75.7108 94.309 75.8127 92.3811C75.8989 90.6805 77.0744 89.5127 78.7986 89.4736C80.7343 89.4344 81.7766 90.6805 82.0744 92.5692Z" fill="#2C8184"/>
<path d="M18.5015 334.412C18.2663 336.371 17.271 337.68 15.351 337.743C13.4231 337.805 12.1535 336.583 12.083 334.678C12.0124 332.758 13.2428 331.489 15.1472 331.41C17.0986 331.324 18.1018 332.648 18.5015 334.412Z" fill="#2C8184"/>
<path d="M66.2586 509.654C68.1473 510.007 69.4247 511.065 69.3385 513.001C69.2601 514.897 67.9905 516.135 66.0705 516.057C64.1661 515.987 62.9435 514.709 63.0062 512.789C63.0767 510.869 64.3855 509.866 66.2586 509.654Z" fill="#2C8184"/>
<path d="M31.141 423.8C30.7962 425.712 29.7069 426.966 27.779 426.825C25.8981 426.684 24.7069 425.367 24.8871 423.439C25.0438 421.754 26.2272 420.602 27.967 420.633C29.9028 420.665 30.9138 421.934 31.141 423.8Z" fill="#2C8184"/>
<path d="M107.325 576.55C107.169 578.345 106.205 579.474 104.402 579.489C102.6 579.513 101.479 578.408 101.463 576.605C101.44 574.803 102.537 573.682 104.339 573.666C106.15 573.643 107.137 574.748 107.325 576.55Z" fill="#2C8184"/>
<path d="M116.973 592.381C115.171 592.044 114.003 591.009 114.097 589.23C114.207 587.271 115.492 586.095 117.498 586.338C119.262 586.55 120.296 587.843 120.108 589.606C119.936 591.354 118.705 592.287 116.973 592.381Z" fill="#2C8184"/>
<path d="M43.8771 461.756C43.7126 463.66 42.7251 464.953 40.7972 465.047C39.0652 465.134 37.8583 464.029 37.6389 462.344C37.3881 460.384 38.5715 459.076 40.421 458.856C42.3568 458.629 43.4383 459.914 43.8771 461.756Z" fill="#2C8184"/>
<path d="M129.739 598.965C131.463 599.098 132.686 600.023 132.85 601.731C133.038 603.675 131.871 604.952 129.951 605.078C128.203 605.195 126.988 604.075 126.824 602.374C126.628 600.423 127.819 599.318 129.739 598.965Z" fill="#2C8184"/>
<path d="M18.2265 258.04C18.1403 259.772 17.2312 260.979 15.4287 261.089C13.6262 261.206 12.4271 260.132 12.3174 258.338C12.1999 256.535 13.2657 255.336 15.0604 255.219C16.8629 255.109 17.9209 256.183 18.2265 258.04Z" fill="#2C8184"/>
<path d="M18.3362 360.147C17.9757 362.075 16.8707 363.258 14.9193 363.062C13.2186 362.89 12.1058 361.675 12.2233 359.927C12.3487 358.007 13.6262 356.847 15.5697 357.036C17.2782 357.2 18.203 358.423 18.3362 360.147Z" fill="#2C8184"/>
<path d="M145.655 614.858C145.341 616.771 144.236 617.97 142.292 617.813C140.6 617.68 139.455 616.473 139.542 614.725C139.628 612.782 140.905 611.614 142.841 611.763C144.542 611.896 145.498 613.111 145.655 614.858Z" fill="#2C8184"/>
<path d="M5.04485 321.629C5.02918 323.11 4.31601 324.105 2.90535 324.309C1.26742 324.536 0.154569 323.666 0.0291772 322.021C-0.0883782 320.375 0.875572 319.372 2.53701 319.348C3.9947 319.325 4.78623 320.249 5.04485 321.629Z" fill="#2C8184"/>
<path d="M27.9677 197.318C26.1182 197.122 25.0837 196.127 25.1778 194.316C25.2718 192.482 26.4474 191.542 28.242 191.667C29.8408 191.785 30.7812 192.804 30.7891 194.418C30.7891 196.252 29.7154 197.177 27.9677 197.318Z" fill="#2C8184"/>
<path d="M2.71746 344.818C4.08893 345.132 5.06072 345.931 4.95884 347.397C4.84129 349.035 3.76762 349.983 2.12185 349.732C0.734703 349.513 -0.135202 348.486 0.0685587 347.021C0.272321 345.618 1.23627 344.858 2.71746 344.818Z" fill="#2C8184"/>
<path d="M91.7218 566.598C89.9742 566.543 88.9005 565.642 88.9162 563.785C88.924 562.154 89.8566 561.175 91.4867 561.12C93.3206 561.057 94.3707 562.045 94.3629 563.902C94.3629 565.532 93.4225 566.426 91.7218 566.598Z" fill="#2C8184"/>
<path d="M30.5 169.091C30.2492 170.65 29.3558 171.622 27.7179 171.465C26.3229 171.332 25.4373 170.384 25.5078 168.942C25.594 167.304 26.6128 166.387 28.2429 166.528C29.6458 166.653 30.3981 167.625 30.5 169.091Z" fill="#2C8184"/>
<path d="M2.52888 293.848C4.09628 294.044 5.08374 294.906 4.98186 296.551C4.89565 297.97 3.97089 298.855 2.53672 298.84C0.890951 298.816 -0.0416506 297.813 0.0445568 296.183C0.122926 294.757 1.07904 294.004 2.52888 293.848Z" fill="#2C8184"/>
<path d="M56.2835 500.022C56.2208 501.778 55.3509 502.914 53.517 502.961C51.6988 503 50.6487 501.942 50.6408 500.124C50.6251 498.517 51.5656 497.483 53.1643 497.357C54.959 497.216 56.0248 498.165 56.2835 500.022Z" fill="#2C8184"/>
<path d="M43.5312 156.181C43.445 157.937 42.5516 159.018 40.7256 159.05C39.119 159.081 38.0688 158.172 37.9278 156.581C37.771 154.81 38.6644 153.603 40.4904 153.478C42.2851 153.352 43.3196 154.332 43.5312 156.181Z" fill="#2C8184"/>
<path d="M81.541 551.15C81.4 552.843 80.5066 553.752 78.8373 553.705C77.1523 553.666 76.2667 552.694 76.3059 551.033C76.3451 549.348 77.3169 548.462 78.9862 548.501C80.6711 548.54 81.4705 549.528 81.541 551.15Z" fill="#2C8184"/>
<path d="M53.2492 115.461C54.9028 115.492 55.9452 116.276 55.9922 117.969C56.0392 119.638 55.0988 120.586 53.4216 120.61C51.9483 120.626 51.0235 119.795 50.8903 118.337C50.7492 116.691 51.5878 115.704 53.2492 115.461Z" fill="#2C8184"/>
<path d="M17.9372 232.717C17.8039 234.41 16.9262 235.35 15.2726 235.342C13.3682 235.335 12.4591 234.214 12.6002 232.388C12.7177 230.726 13.7992 229.927 15.4372 230.021C17.1064 230.115 17.8823 231.134 17.9372 232.717Z" fill="#2C8184"/>
<path d="M30.6158 449.004C30.5453 450.783 29.7381 451.778 28.0531 451.81C26.3917 451.849 25.4199 450.963 25.3807 449.286C25.3337 447.617 26.2192 446.653 27.9042 446.606C29.5892 446.551 30.4434 447.491 30.6158 449.004Z" fill="#2C8184"/>
<path d="M94.1349 54.4264C93.9076 55.8527 93.1318 56.8245 91.6819 56.8088C90.0205 56.7853 89.0409 55.743 89.2054 54.0894C89.3465 52.6944 90.334 51.801 91.8073 51.9186C93.2493 52.0283 94.0017 52.9844 94.1349 54.4264Z" fill="#2C8184"/>
<path d="M142.56 0.798828C144.426 1.07312 145.288 2.06842 145.115 3.70635C144.943 5.38347 143.806 6.15933 142.176 5.95557C140.726 5.76748 139.951 4.80353 140.013 3.33801C140.084 1.62171 141.157 0.916383 142.56 0.798828Z" fill="#2C8184"/>
<path d="M18.0698 385.627C17.8425 387.492 16.7766 388.448 14.9898 388.307C13.1716 388.158 12.2861 386.928 12.4663 385.164C12.6309 383.589 13.681 382.68 15.2955 382.735C17.1293 382.79 17.9992 383.887 18.0698 385.627Z" fill="#2C8184"/>
<path d="M43.2968 487.539C43.0695 489.193 42.1369 490.102 40.4833 489.961C38.8062 489.82 38.0068 488.707 38.1793 487.084C38.3282 485.658 39.2686 484.835 40.7341 484.874C42.4191 484.914 43.2106 485.909 43.2968 487.539Z" fill="#2C8184"/>
<path d="M129.676 13.5254C131.541 13.6978 132.458 14.5755 132.411 16.2292C132.364 17.8828 131.408 18.7762 129.762 18.7292C128.109 18.69 127.231 17.726 127.254 16.0802C127.278 14.3875 128.328 13.6665 129.676 13.5254Z" fill="#2C8184"/>
<path d="M15.452 204.717C16.8235 205.022 17.7953 205.822 17.6934 207.287C17.5759 208.933 16.5022 209.874 14.8564 209.623C13.4614 209.411 12.5994 208.377 12.8031 206.919C12.9991 205.508 13.9708 204.756 15.452 204.717Z" fill="#2C8184"/>
<path d="M68.6725 537.937C68.6411 539.63 67.8809 540.641 66.4781 540.798C64.8402 540.986 63.7743 540.022 63.7351 538.36C63.7038 536.918 64.6286 536.009 66.0784 535.915C67.5909 535.813 68.2649 536.863 68.6725 537.937Z" fill="#2C8184"/>
<path d="M65.9691 102.49C67.7873 102.545 68.9158 103.407 68.9628 105.241C69.002 107.051 67.9597 108.086 66.1415 108.102C64.5349 108.109 63.5161 107.192 63.3907 105.594C63.2497 103.799 64.1979 102.749 65.9691 102.49Z" fill="#2C8184"/>
<path d="M119.708 28.6357C119.598 30.4696 118.767 31.4413 117.074 31.4492C115.601 31.457 114.676 30.6263 114.559 29.1686C114.418 27.5385 115.233 26.457 116.925 26.3316C118.634 26.2141 119.457 27.2172 119.708 28.6357Z" fill="#2C8184"/>
<path d="M17.8422 410.985C17.709 412.631 16.8469 413.602 15.1619 413.548C13.4848 413.493 12.6071 412.474 12.6933 410.812C12.7638 409.347 13.6572 408.485 15.1228 408.438C16.7999 408.383 17.6855 409.316 17.8422 410.985Z" fill="#2C8184"/>
<path d="M106.957 41.746C106.73 43.3918 105.797 44.3087 104.143 44.1676C102.474 44.0266 101.667 42.9137 101.839 41.2993C101.988 39.8651 102.929 39.0422 104.394 39.0814C106.071 39.1206 106.871 40.1159 106.957 41.746Z" fill="#2C8184"/>
</svg>
