\\<svg width="1112" height="95" viewBox="0 0 1112 95" fill="none" xmlns="http://www.w3.org/2000/svg">
<g filter="url(#filter0_d_16497_54471)">
<path d="M38.219 15.623C41.086 17.691 43.154 20.699 43.154 24.271C43.154 29.676 39.911 34 32.438 34H2.35797V1.1H31.028C38.501 1.1 40.804 4.484 40.804 9.466C40.804 11.581 39.817 13.743 38.219 15.623ZM14.578 9.09V12.662H25.858C27.08 12.662 28.584 12.662 28.584 10.876C28.584 9.09 27.08 9.09 25.858 9.09H14.578ZM28.208 25.07C29.43 25.07 30.934 25.07 30.934 23.331C30.934 21.592 29.43 21.592 28.208 21.592H14.578V25.07H28.208ZM88.0266 17.503C88.0266 28.924 81.7756 34.47 67.3466 34.47C52.8706 34.47 46.6666 28.971 46.6666 17.503V1.1H58.8866V17.503C58.8866 21.028 60.1556 24.13 67.3466 24.13C74.5376 24.13 75.8066 20.981 75.8066 17.503V1.1H88.0266V17.503ZM92.4329 22.391H104.653C104.653 23.989 106.157 25.07 113.912 25.07C121.15 25.07 122.231 24.6 122.231 23.378C122.231 21.968 121.15 21.78 113.442 21.545C98.5899 21.075 92.9029 18.631 92.9029 10.97C92.9029 3.732 99.9999 0.629998 112.972 0.629998C125.803 0.629998 133.041 3.732 133.041 12.145H120.821C120.821 10.406 118.001 10.03 112.032 10.03C106.298 10.03 105.123 10.312 105.123 11.581C105.123 12.85 106.298 12.803 113.442 13.085C126.414 13.602 134.451 14.495 134.451 23.096C134.451 32.167 126.931 34.47 113.442 34.47C99.9529 34.47 92.4329 32.167 92.4329 22.391ZM151.084 1.1V34H138.864V1.1H151.084ZM186.129 1.1H198.349V34H182.369L168.175 14.589V34H155.955V1.1H171.935L186.129 20.511V1.1ZM238.027 10.5H215.467V13.555H238.027V21.545H215.467V24.6H238.027V34H203.247V1.1H238.027V10.5ZM241.945 22.391H254.165C254.165 23.989 255.669 25.07 263.424 25.07C270.662 25.07 271.743 24.6 271.743 23.378C271.743 21.968 270.662 21.78 262.954 21.545C248.102 21.075 242.415 18.631 242.415 10.97C242.415 3.732 249.512 0.629998 262.484 0.629998C275.315 0.629998 282.553 3.732 282.553 12.145H270.333C270.333 10.406 267.513 10.03 261.544 10.03C255.81 10.03 254.635 10.312 254.635 11.581C254.635 12.85 255.81 12.803 262.954 13.085C275.926 13.602 283.963 14.495 283.963 23.096C283.963 32.167 276.443 34.47 262.954 34.47C249.465 34.47 241.945 32.167 241.945 22.391ZM287.906 22.391H300.126C300.126 23.989 301.63 25.07 309.385 25.07C316.623 25.07 317.704 24.6 317.704 23.378C317.704 21.968 316.623 21.78 308.915 21.545C294.063 21.075 288.376 18.631 288.376 10.97C288.376 3.732 295.473 0.629998 308.445 0.629998C321.276 0.629998 328.514 3.732 328.514 12.145H316.294C316.294 10.406 313.474 10.03 307.505 10.03C301.771 10.03 300.596 10.312 300.596 11.581C300.596 12.85 301.771 12.803 308.915 13.085C321.887 13.602 329.924 14.495 329.924 23.096C329.924 32.167 322.404 34.47 308.915 34.47C295.426 34.47 287.906 32.167 287.906 22.391ZM390.935 11.44H368.375V14.965H388.115V25.305H368.375V34H356.155V1.1H390.935V11.44ZM433.769 13.696C433.769 18.49 431.56 22.438 427.941 24.553L433.769 34H419.293L414.734 26.292H407.543V34H395.323V1.1H421.173C428.646 1.1 433.769 6.364 433.769 13.696ZM407.543 11.44V15.952H418.823C420.045 15.952 421.549 15.952 421.549 13.696C421.549 11.44 420.045 11.44 418.823 11.44H407.543ZM458.373 34.47C443.897 34.47 437.693 28.971 437.693 17.503C437.693 6.082 443.897 0.629998 458.373 0.629998C472.802 0.629998 479.053 6.129 479.053 17.503C479.053 28.924 472.802 34.47 458.373 34.47ZM458.373 24.13C465.564 24.13 466.833 20.981 466.833 17.503C466.833 14.072 465.611 10.97 458.373 10.97C451.135 10.97 449.913 14.025 449.913 17.503C449.913 21.028 451.182 24.13 458.373 24.13ZM533.865 1.1V34H521.645V18.349L512.668 34H504.678L495.701 18.349V34H483.481V1.1H498.521L508.673 19.9L518.825 1.1H533.865ZM592.068 34L589.812 28.078H575.806L573.55 34H560.108L573.738 1.1H591.88L605.51 34H592.068ZM579.002 19.618H586.616L582.809 9.56L579.002 19.618ZM639.65 1.1H651.87V34H635.89L621.696 14.589V34H609.476V1.1H625.456L639.65 20.511V1.1ZM673.03 23.19L656.298 1.1H670.398L679.14 13.32L687.882 1.1H701.982L685.25 23.19V34H673.03V23.19ZM761.532 1.1H774.645L763.835 34H745.693L740.288 15.059L734.883 34H716.741L705.931 1.1H719.044L725.859 24.318L733.003 1.1H747.573L754.717 24.318L761.532 1.1ZM810.565 1.1H822.785V34H810.565V22.72H791.295V34H779.075V1.1H791.295V12.38H810.565V1.1ZM862.432 10.5H839.872V13.555H862.432V21.545H839.872V24.6H862.432V34H827.652V1.1H862.432V10.5ZM905.266 13.696C905.266 18.49 903.057 22.438 899.438 24.553L905.266 34H890.79L886.231 26.292H879.04V34H866.82V1.1H892.67C900.143 1.1 905.266 6.364 905.266 13.696ZM879.04 11.44V15.952H890.32C891.542 15.952 893.046 15.952 893.046 13.696C893.046 11.44 891.542 11.44 890.32 11.44H879.04ZM944.44 10.5H921.88V13.555H944.44V21.545H921.88V24.6H944.44V34H909.66V1.1H944.44V10.5ZM948.828 25.54H960.108V34L954.797 44.34H949.768L952.964 34H948.828V25.54ZM1006.23 22.673V16.093H1027.57V34H1020.52L1019.62 29.253C1016.85 32.496 1012.53 34.47 1005.62 34.47C993.493 34.47 986.349 28.971 986.349 17.503C986.349 6.082 993.493 0.629998 1007.03 0.629998C1020.19 0.629998 1027.05 5.236 1027.57 14.213H1015.07C1014.6 12.521 1012.2 10.97 1007.03 10.97C999.791 10.97 998.569 14.025 998.569 17.973C998.569 21.968 999.838 25.54 1007.03 25.54C1011.73 25.54 1014.6 24.882 1015.07 22.673H1006.23ZM1066.78 10.5H1044.22V13.555H1066.78V21.545H1044.22V24.6H1066.78V34H1032V1.1H1066.78V10.5ZM1111.12 1.1V11.44H1097.02V34H1084.8V11.44H1070.7V1.1H1111.12ZM85.3357 69.696C85.3357 74.49 83.1267 78.438 79.5077 80.553L85.3357 90H70.8597L66.3007 82.292H59.1097V90H46.8897V57.1H72.7397C80.2127 57.1 85.3357 62.364 85.3357 69.696ZM59.1097 67.44V71.952H70.3897C71.6117 71.952 73.1157 71.952 73.1157 69.696C73.1157 67.44 71.6117 67.44 70.3897 67.44H59.1097ZM124.51 66.5H101.95V69.555H124.51V77.545H101.95V80.6H124.51V90H89.7296V57.1H124.51V66.5ZM184.029 57.1H197.142L186.332 90H168.19L162.785 71.059L157.38 90H139.238L128.428 57.1H141.541L148.356 80.318L155.5 57.1H170.07L177.214 80.318L184.029 57.1ZM223.193 90L220.937 84.078H206.931L204.675 90H191.233L204.863 57.1H223.005L236.635 90H223.193ZM210.127 75.618H217.741L213.934 65.56L210.127 75.618ZM279.048 69.696C279.048 74.49 276.839 78.438 273.22 80.553L279.048 90H264.572L260.013 82.292H252.822V90H240.602V57.1H266.452C273.925 57.1 279.048 62.364 279.048 69.696ZM252.822 67.44V71.952H264.102C265.324 71.952 266.828 71.952 266.828 69.696C266.828 67.44 265.324 67.44 264.102 67.44H252.822ZM307.881 57.1C315.824 57.1 323.297 62.364 323.297 73.55C323.297 84.736 315.824 90 307.881 90H283.441V57.1H307.881ZM304.121 79.66C306.753 79.66 311.077 79.66 311.077 73.55C311.077 67.44 306.753 67.44 304.121 67.44H295.661V79.66H304.121ZM327.234 78.391H339.454C339.454 79.989 340.958 81.07 348.713 81.07C355.951 81.07 357.032 80.6 357.032 79.378C357.032 77.968 355.951 77.78 348.243 77.545C333.391 77.075 327.704 74.631 327.704 66.97C327.704 59.732 334.801 56.63 347.773 56.63C360.604 56.63 367.842 59.732 367.842 68.145H355.622C355.622 66.406 352.802 66.03 346.833 66.03C341.099 66.03 339.924 66.312 339.924 67.581C339.924 68.85 341.099 68.803 348.243 69.085C361.215 69.602 369.252 70.495 369.252 79.096C369.252 88.167 361.732 90.47 348.243 90.47C334.754 90.47 327.234 88.167 327.234 78.391ZM430.263 67.44H407.703V70.965H427.443V81.305H407.703V90H395.483V57.1H430.263V67.44ZM473.097 69.696C473.097 74.49 470.888 78.438 467.269 80.553L473.097 90H458.621L454.062 82.292H446.871V90H434.651V57.1H460.501C467.974 57.1 473.097 62.364 473.097 69.696ZM446.871 67.44V71.952H458.151C459.373 71.952 460.877 71.952 460.877 69.696C460.877 67.44 459.373 67.44 458.151 67.44H446.871ZM497.701 90.47C483.225 90.47 477.021 84.971 477.021 73.503C477.021 62.082 483.225 56.63 497.701 56.63C512.13 56.63 518.381 62.129 518.381 73.503C518.381 84.924 512.13 90.47 497.701 90.47ZM497.701 80.13C504.892 80.13 506.161 76.981 506.161 73.503C506.161 70.072 504.939 66.97 497.701 66.97C490.463 66.97 489.241 70.025 489.241 73.503C489.241 77.028 490.51 80.13 497.701 80.13ZM573.194 57.1V90H560.974V74.349L551.997 90H544.007L535.03 74.349V90H522.81V57.1H537.85L548.002 75.9L558.154 57.1H573.194ZM634.686 66.5H612.126V69.555H634.686V77.545H612.126V80.6H634.686V90H599.906V57.1H634.686V66.5ZM670.564 57.1H684.006L670.376 90H652.234L638.604 57.1H652.046L661.305 81.54L670.564 57.1ZM722.753 66.5H700.193V69.555H722.753V77.545H700.193V80.6H722.753V90H687.973V57.1H722.753V66.5ZM765.587 69.696C765.587 74.49 763.378 78.438 759.759 80.553L765.587 90H751.111L746.552 82.292H739.361V90H727.141V57.1H752.991C760.464 57.1 765.587 62.364 765.587 69.696ZM739.361 67.44V71.952H750.641C751.863 71.952 753.367 71.952 753.367 69.696C753.367 67.44 751.863 67.44 750.641 67.44H739.361ZM782.02 79.19L765.288 57.1H779.388L788.13 69.32L796.872 57.1H810.972L794.24 79.19V90H782.02V79.19ZM870.522 57.1H883.635L872.825 90H854.683L849.278 71.059L843.873 90H825.731L814.921 57.1H828.034L834.849 80.318L841.993 57.1H856.563L863.707 80.318L870.522 57.1ZM919.555 57.1H931.775V90H919.555V78.72H900.285V90H888.065V57.1H900.285V68.38H919.555V57.1ZM971.422 66.5H948.862V69.555H971.422V77.545H948.862V80.6H971.422V90H936.642V57.1H971.422V66.5ZM1014.26 69.696C1014.26 74.49 1012.05 78.438 1008.43 80.553L1014.26 90H999.78L995.221 82.292H988.03V90H975.81V57.1H1001.66C1009.13 57.1 1014.26 62.364 1014.26 69.696ZM988.03 67.44V71.952H999.31C1000.53 71.952 1002.04 71.952 1002.04 69.696C1002.04 67.44 1000.53 67.44 999.31 67.44H988.03ZM1053.43 66.5H1030.87V69.555H1053.43V77.545H1030.87V80.6H1053.43V90H1018.65V57.1H1053.43V66.5ZM1057.82 81.54H1069.1V90H1057.82V81.54Z" fill="#21728D"/>
<path d="M38.219 15.623L36.6951 14.3277L35.2923 15.978L37.049 17.2451L38.219 15.623ZM2.35797 34H0.357969V36H2.35797V34ZM2.35797 1.1V-0.900002H0.357969V1.1H2.35797ZM14.578 9.09V7.09H12.578V9.09H14.578ZM14.578 12.662H12.578V14.662H14.578V12.662ZM14.578 21.592V19.592H12.578V21.592H14.578ZM14.578 25.07H12.578V27.07H14.578V25.07ZM37.049 17.2451C39.571 19.0642 41.154 21.5318 41.154 24.271H45.154C45.154 19.8662 42.601 16.3178 39.389 14.0009L37.049 17.2451ZM41.154 24.271C41.154 26.5807 40.4665 28.4571 39.1794 29.7529C37.9011 31.0398 35.7866 32 32.438 32V36C36.5623 36 39.8059 34.7981 42.0173 32.5718C44.2199 30.3544 45.154 27.3663 45.154 24.271H41.154ZM32.438 32H2.35797V36H32.438V32ZM4.35797 34V1.1H0.357969V34H4.35797ZM2.35797 3.1H31.028V-0.900002H2.35797V3.1ZM31.028 3.1C34.5082 3.1 36.3416 3.89291 37.3238 4.84835C38.2903 5.78854 38.804 7.24899 38.804 9.466H42.804C42.804 6.70102 42.1661 3.97845 40.1129 1.98115C38.0753 -0.000923157 35.0207 -0.900002 31.028 -0.900002V3.1ZM38.804 9.466C38.804 10.966 38.0909 12.6855 36.6951 14.3277L39.7429 16.9183C41.543 14.8005 42.804 12.196 42.804 9.466H38.804ZM12.578 9.09V12.662H16.578V9.09H12.578ZM14.578 14.662H25.858V10.662H14.578V14.662ZM25.858 14.662C26.353 14.662 27.481 14.6934 28.4572 14.2812C29.0162 14.0452 29.5963 13.6426 30.0164 12.9836C30.4296 12.3353 30.584 11.602 30.584 10.876H26.584C26.584 11.043 26.5503 10.9795 26.6434 10.8335C26.7433 10.6768 26.871 10.609 26.9013 10.5963C26.9052 10.5946 26.8323 10.6232 26.6217 10.642C26.4126 10.6607 26.1791 10.662 25.858 10.662V14.662ZM30.584 10.876C30.584 10.15 30.4296 9.41673 30.0164 8.76844C29.5963 8.10943 29.0162 7.70679 28.4572 7.47075C27.481 7.05859 26.353 7.09 25.858 7.09V11.09C26.1791 11.09 26.4126 11.0913 26.6217 11.11C26.8323 11.1288 26.9052 11.1574 26.9013 11.1557C26.871 11.143 26.7433 11.0752 26.6434 10.9185C26.5503 10.7725 26.584 10.709 26.584 10.876H30.584ZM25.858 7.09H14.578V11.09H25.858V7.09ZM28.208 27.07C28.705 27.07 29.8224 27.1001 30.7897 26.7024C31.3421 26.4753 31.9263 26.084 32.3532 25.4318C32.7754 24.7868 32.934 24.0546 32.934 23.331H28.934C28.934 23.4769 28.9045 23.3968 29.0066 23.2409C29.1133 23.0779 29.2451 23.0126 29.2688 23.0028C29.2744 23.0005 29.2557 23.0087 29.2024 23.0197C29.1494 23.0307 29.0758 23.0417 28.9764 23.0503C28.7645 23.0687 28.5287 23.07 28.208 23.07V27.07ZM32.934 23.331C32.934 22.6074 32.7754 21.8752 32.3532 21.2302C31.9263 20.578 31.3421 20.1867 30.7897 19.9596C29.8224 19.5619 28.705 19.592 28.208 19.592V23.592C28.5287 23.592 28.7645 23.5933 28.9764 23.6117C29.0758 23.6203 29.1494 23.6313 29.2024 23.6423C29.2557 23.6533 29.2744 23.6615 29.2688 23.6592C29.2451 23.6494 29.1133 23.5841 29.0066 23.4211C28.9045 23.2652 28.934 23.1851 28.934 23.331H32.934ZM28.208 19.592H14.578V23.592H28.208V19.592ZM12.578 21.592V25.07H16.578V21.592H12.578ZM14.578 27.07H28.208V23.07H14.578V27.07ZM46.6666 1.1V-0.900002H44.6666V1.1H46.6666ZM58.8866 1.1H60.8866V-0.900002H58.8866V1.1ZM75.8066 1.1V-0.900002H73.8066V1.1H75.8066ZM88.0266 1.1H90.0266V-0.900002H88.0266V1.1ZM86.0266 17.503C86.0266 22.8512 84.5754 26.4271 81.8147 28.7349C78.9748 31.1089 74.3688 32.47 67.3466 32.47V36.47C74.7533 36.47 80.4873 35.0581 84.3802 31.8038C88.3523 28.4834 90.0266 23.5758 90.0266 17.503H86.0266ZM67.3466 32.47C60.2957 32.47 55.6922 31.1186 52.8605 28.7523C50.1096 26.4535 48.6666 22.8812 48.6666 17.503H44.6666C44.6666 23.5928 46.3255 28.504 50.2956 31.8217C54.1849 35.0719 59.9214 36.47 67.3466 36.47V32.47ZM48.6666 17.503V1.1H44.6666V17.503H48.6666ZM46.6666 3.1H58.8866V-0.900002H46.6666V3.1ZM56.8866 1.1V17.503H60.8866V1.1H56.8866ZM56.8866 17.503C56.8866 19.4491 57.2253 21.7721 59.0057 23.5526C60.7694 25.3163 63.5284 26.13 67.3466 26.13V22.13C63.9738 22.13 62.5027 21.3927 61.8342 20.7242C61.1824 20.0724 60.8866 19.0819 60.8866 17.503H56.8866ZM67.3466 26.13C71.1726 26.13 73.9299 25.301 75.6908 23.5316C77.4656 21.7482 77.8066 19.4311 77.8066 17.503H73.8066C73.8066 19.0529 73.513 20.0493 72.8556 20.7099C72.1843 21.3845 70.7115 22.13 67.3466 22.13V26.13ZM77.8066 17.503V1.1H73.8066V17.503H77.8066ZM75.8066 3.1H88.0266V-0.900002H75.8066V3.1ZM86.0266 1.1V17.503H90.0266V1.1H86.0266ZM92.4329 22.391V20.391H90.4329V22.391H92.4329ZM104.653 22.391H106.653V20.391H104.653V22.391ZM113.442 21.545L113.379 23.544L113.381 23.5441L113.442 21.545ZM133.041 12.145V14.145H135.041V12.145H133.041ZM120.821 12.145H118.821V14.145H120.821V12.145ZM113.442 13.085L113.522 11.0866L113.521 11.0866L113.442 13.085ZM92.4329 24.391H104.653V20.391H92.4329V24.391ZM102.653 22.391C102.653 23.1284 102.837 23.9735 103.45 24.737C104.03 25.4581 104.84 25.9122 105.715 26.2178C107.407 26.8092 110.022 27.07 113.912 27.07V23.07C110.046 23.07 108.032 22.7903 107.034 22.4417C106.564 22.2773 106.512 22.1616 106.568 22.2305C106.657 22.3418 106.653 22.4526 106.653 22.391H102.653ZM113.912 27.07C117.492 27.07 119.801 26.961 121.234 26.6314C121.949 26.4668 122.755 26.1843 123.368 25.5673C124.078 24.8521 124.231 24.0052 124.231 23.378H120.231C120.231 23.3895 120.229 23.3005 120.275 23.1635C120.327 23.009 120.417 22.8622 120.53 22.7485C120.714 22.5633 120.797 22.6274 120.337 22.7331C119.421 22.944 117.57 23.07 113.912 23.07V27.07ZM124.231 23.378C124.231 22.7717 124.111 21.8633 123.349 21.1085C122.698 20.4644 121.838 20.2069 121.128 20.0615C119.684 19.7659 117.277 19.661 113.503 19.5459L113.381 23.5441C117.315 23.664 119.302 23.7706 120.326 23.9802C120.849 24.0875 120.741 24.156 120.534 23.951C120.216 23.6355 120.231 23.2793 120.231 23.378H124.231ZM113.505 19.546C106.073 19.3108 101.34 18.5764 98.4922 17.1627C97.1303 16.4867 96.2827 15.6932 95.7518 14.7816C95.2128 13.8563 94.9029 12.6417 94.9029 10.97H90.9029C90.9029 13.1288 91.3039 15.0926 92.2953 16.7948C93.2948 18.5109 94.7972 19.7942 96.7136 20.7455C100.422 22.5866 105.959 23.3092 113.379 23.544L113.505 19.546ZM94.9029 10.97C94.9029 9.50269 95.2571 8.34717 95.8812 7.40636C96.5127 6.45421 97.5027 5.59932 98.9599 4.87831C101.936 3.40581 106.577 2.63 112.972 2.63V-1.37C106.395 -1.37 101.002 -0.59481 97.1859 1.29319C95.2473 2.25243 93.6523 3.53017 92.5478 5.19533C91.4358 6.87183 90.9029 8.81831 90.9029 10.97H94.9029ZM112.972 2.63C119.303 2.63 123.909 3.40891 126.874 4.9959C128.318 5.769 129.33 6.71101 129.992 7.821C130.654 8.93188 131.041 10.335 131.041 12.145H135.041C135.041 9.74852 134.523 7.60899 133.427 5.77209C132.331 3.9343 130.731 2.52337 128.762 1.46935C124.9 -0.597916 119.472 -1.37 112.972 -1.37V2.63ZM133.041 10.145H120.821V14.145H133.041V10.145ZM122.821 12.145C122.821 11.0597 122.333 10.1422 121.519 9.50568C120.81 8.9504 119.922 8.65971 119.084 8.47988C117.396 8.11767 114.995 8.03 112.032 8.03V12.03C115.038 12.03 117.031 12.1303 118.245 12.3909C118.532 12.4524 118.737 12.5153 118.878 12.5712C119.021 12.6278 119.065 12.6639 119.055 12.6561C118.956 12.5791 118.821 12.3608 118.821 12.145H122.821ZM112.032 8.03C109.224 8.03 107.257 8.09077 105.985 8.37914C105.34 8.52545 104.563 8.7923 103.964 9.40716C103.284 10.1047 103.123 10.9363 103.123 11.581H107.123C107.123 11.5711 107.125 11.6548 107.081 11.7861C107.031 11.9329 106.945 12.0799 106.828 12.1994C106.628 12.4045 106.504 12.3629 106.869 12.2801C107.619 12.1102 109.105 12.03 112.032 12.03V8.03ZM103.123 11.581C103.123 12.2411 103.298 13.1731 104.164 13.8699C104.83 14.4056 105.667 14.5829 106.3 14.68C107.633 14.8846 109.891 14.9464 113.363 15.0834L113.521 11.0866C109.849 10.9416 107.947 10.8859 106.907 10.7263C106.353 10.6412 106.45 10.5747 106.672 10.7535C106.832 10.8825 106.973 11.0688 107.056 11.2851C107.127 11.4711 107.123 11.5977 107.123 11.581H103.123ZM113.362 15.0834C119.934 15.3453 124.837 15.7036 128.108 16.9314C129.686 17.5238 130.723 18.2648 131.381 19.1602C132.029 20.0419 132.451 21.2663 132.451 23.096H136.451C136.451 20.6252 135.869 18.5126 134.604 16.7917C133.35 15.0845 131.566 13.9572 129.514 13.1866C125.523 11.6884 119.922 11.3417 113.522 11.0866L113.362 15.0834ZM132.451 23.096C132.451 25.0854 132.041 26.5464 131.361 27.6536C130.685 28.755 129.649 29.658 128.14 30.3812C125.017 31.8784 120.17 32.47 113.442 32.47V36.47C120.203 36.47 125.86 35.9101 129.869 33.9881C131.927 33.0017 133.614 31.6281 134.77 29.7465C135.921 27.8706 136.451 25.6421 136.451 23.096H132.451ZM113.442 32.47C106.707 32.47 101.884 31.8756 98.7793 30.3106C97.2856 29.5576 96.2422 28.6037 95.5519 27.4047C94.8535 26.1915 94.4329 24.5812 94.4329 22.391H90.4329C90.4329 25.0888 90.9523 27.4324 92.0854 29.4005C93.2266 31.3828 94.9063 32.8377 96.9787 33.8824C101.006 35.9129 106.688 36.47 113.442 36.47V32.47ZM151.084 1.1H153.084V-0.900002H151.084V1.1ZM151.084 34V36H153.084V34H151.084ZM138.864 34H136.864V36H138.864V34ZM138.864 1.1V-0.900002H136.864V1.1H138.864ZM149.084 1.1V34H153.084V1.1H149.084ZM151.084 32H138.864V36H151.084V32ZM140.864 34V1.1H136.864V34H140.864ZM138.864 3.1H151.084V-0.900002H138.864V3.1ZM186.129 1.1V-0.900002H184.129V1.1H186.129ZM198.349 1.1H200.349V-0.900002H198.349V1.1ZM198.349 34V36H200.349V34H198.349ZM182.369 34L180.754 35.1805L181.353 36H182.369V34ZM168.175 14.589L169.789 13.4085L166.175 8.46557V14.589H168.175ZM168.175 34V36H170.175V34H168.175ZM155.955 34H153.955V36H155.955V34ZM155.955 1.1V-0.900002H153.955V1.1H155.955ZM171.935 1.1L173.549 -0.0805283L172.95 -0.900002H171.935V1.1ZM186.129 20.511L184.514 21.6915L188.129 26.6344V20.511H186.129ZM186.129 3.1H198.349V-0.900002H186.129V3.1ZM196.349 1.1V34H200.349V1.1H196.349ZM198.349 32H182.369V36H198.349V32ZM183.983 32.8195L169.789 13.4085L166.56 15.7695L180.754 35.1805L183.983 32.8195ZM166.175 14.589V34H170.175V14.589H166.175ZM168.175 32H155.955V36H168.175V32ZM157.955 34V1.1H153.955V34H157.955ZM155.955 3.1H171.935V-0.900002H155.955V3.1ZM170.32 2.28052L184.514 21.6915L187.743 19.3305L173.549 -0.0805283L170.32 2.28052ZM188.129 20.511V1.1H184.129V20.511H188.129ZM238.027 10.5V12.5H240.027V10.5H238.027ZM215.467 10.5V8.5H213.467V10.5H215.467ZM215.467 13.555H213.467V15.555H215.467V13.555ZM238.027 13.555H240.027V11.555H238.027V13.555ZM238.027 21.545V23.545H240.027V21.545H238.027ZM215.467 21.545V19.545H213.467V21.545H215.467ZM215.467 24.6H213.467V26.6H215.467V24.6ZM238.027 24.6H240.027V22.6H238.027V24.6ZM238.027 34V36H240.027V34H238.027ZM203.247 34H201.247V36H203.247V34ZM203.247 1.1V-0.900002H201.247V1.1H203.247ZM238.027 1.1H240.027V-0.900002H238.027V1.1ZM238.027 8.5H215.467V12.5H238.027V8.5ZM213.467 10.5V13.555H217.467V10.5H213.467ZM215.467 15.555H238.027V11.555H215.467V15.555ZM236.027 13.555V21.545H240.027V13.555H236.027ZM238.027 19.545H215.467V23.545H238.027V19.545ZM213.467 21.545V24.6H217.467V21.545H213.467ZM215.467 26.6H238.027V22.6H215.467V26.6ZM236.027 24.6V34H240.027V24.6H236.027ZM238.027 32H203.247V36H238.027V32ZM205.247 34V1.1H201.247V34H205.247ZM203.247 3.1H238.027V-0.900002H203.247V3.1ZM236.027 1.1V10.5H240.027V1.1H236.027ZM241.945 22.391V20.391H239.945V22.391H241.945ZM254.165 22.391H256.165V20.391H254.165V22.391ZM262.954 21.545L262.89 23.544L262.893 23.5441L262.954 21.545ZM282.553 12.145V14.145H284.553V12.145H282.553ZM270.333 12.145H268.333V14.145H270.333V12.145ZM262.954 13.085L263.033 11.0866L263.033 11.0866L262.954 13.085ZM241.945 24.391H254.165V20.391H241.945V24.391ZM252.165 22.391C252.165 23.1284 252.348 23.9735 252.962 24.737C253.542 25.4581 254.351 25.9122 255.226 26.2178C256.919 26.8092 259.534 27.07 263.424 27.07V23.07C259.558 23.07 257.544 22.7903 256.546 22.4417C256.075 22.2773 256.024 22.1616 256.079 22.2305C256.169 22.3418 256.165 22.4526 256.165 22.391H252.165ZM263.424 27.07C267.004 27.07 269.312 26.961 270.746 26.6314C271.461 26.4668 272.267 26.1843 272.88 25.5673C273.59 24.8521 273.743 24.0052 273.743 23.378H269.743C269.743 23.3895 269.74 23.3005 269.787 23.1635C269.839 23.009 269.929 22.8622 270.042 22.7485C270.225 22.5633 270.309 22.6274 269.849 22.7331C268.932 22.944 267.082 23.07 263.424 23.07V27.07ZM273.743 23.378C273.743 22.7717 273.623 21.8633 272.86 21.1085C272.21 20.4644 271.35 20.2069 270.64 20.0615C269.196 19.7659 266.789 19.661 263.015 19.5459L262.893 23.5441C266.826 23.664 268.814 23.7706 269.837 23.9802C270.361 24.0875 270.253 24.156 270.046 23.951C269.727 23.6355 269.743 23.2793 269.743 23.378H273.743ZM263.017 19.546C255.585 19.3108 250.852 18.5764 248.004 17.1627C246.642 16.4867 245.794 15.6932 245.263 14.7816C244.725 13.8563 244.415 12.6417 244.415 10.97H240.415C240.415 13.1288 240.816 15.0926 241.807 16.7948C242.807 18.5109 244.309 19.7942 246.225 20.7455C249.934 22.5866 255.47 23.3092 262.89 23.544L263.017 19.546ZM244.415 10.97C244.415 9.50269 244.769 8.34717 245.393 7.40636C246.024 6.45421 247.014 5.59932 248.472 4.87831C251.447 3.40581 256.089 2.63 262.484 2.63V-1.37C255.906 -1.37 250.513 -0.59481 246.698 1.29319C244.759 2.25243 243.164 3.53017 242.06 5.19533C240.948 6.87183 240.415 8.81831 240.415 10.97H244.415ZM262.484 2.63C268.815 2.63 273.421 3.40891 276.386 4.9959C277.83 5.769 278.841 6.71101 279.503 7.821C280.166 8.93188 280.553 10.335 280.553 12.145H284.553C284.553 9.74852 284.034 7.60899 282.939 5.77209C281.843 3.9343 280.243 2.52337 278.274 1.46935C274.412 -0.597916 268.983 -1.37 262.484 -1.37V2.63ZM282.553 10.145H270.333V14.145H282.553V10.145ZM272.333 12.145C272.333 11.0597 271.845 10.1422 271.031 9.50568C270.321 8.9504 269.434 8.65971 268.596 8.47988C266.908 8.11767 264.507 8.03 261.544 8.03V12.03C264.549 12.03 266.543 12.1303 267.757 12.3909C268.043 12.4524 268.248 12.5153 268.389 12.5712C268.532 12.6278 268.576 12.6639 268.566 12.6561C268.468 12.5791 268.333 12.3608 268.333 12.145H272.333ZM261.544 8.03C258.736 8.03 256.768 8.09077 255.497 8.37914C254.851 8.52545 254.075 8.7923 253.476 9.40716C252.796 10.1047 252.635 10.9363 252.635 11.581H256.635C256.635 11.5711 256.637 11.6548 256.592 11.7861C256.543 11.9329 256.456 12.0799 256.34 12.1994C256.14 12.4045 256.016 12.3629 256.381 12.2801C257.13 12.1102 258.617 12.03 261.544 12.03V8.03ZM252.635 11.581C252.635 12.2411 252.81 13.1731 253.676 13.8699C254.342 14.4056 255.179 14.5829 255.812 14.68C257.145 14.8846 259.403 14.9464 262.875 15.0834L263.033 11.0866C259.361 10.9416 257.459 10.8859 256.418 10.7263C255.864 10.6412 255.961 10.5747 256.184 10.7535C256.344 10.8825 256.485 11.0688 256.568 11.2851C256.639 11.4711 256.635 11.5977 256.635 11.581H252.635ZM262.874 15.0834C269.445 15.3453 274.349 15.7036 277.62 16.9314C279.198 17.5238 280.235 18.2648 280.892 19.1602C281.54 20.0419 281.963 21.2663 281.963 23.096H285.963C285.963 20.6252 285.38 18.5126 284.116 16.7917C282.861 15.0845 281.078 13.9572 279.026 13.1866C275.035 11.6884 269.434 11.3417 263.033 11.0866L262.874 15.0834ZM281.963 23.096C281.963 25.0854 281.552 26.5464 280.872 27.6536C280.196 28.755 279.16 29.658 277.652 30.3812C274.529 31.8784 269.682 32.47 262.954 32.47V36.47C269.715 36.47 275.372 35.9101 279.381 33.9881C281.439 33.0017 283.126 31.6281 284.281 29.7465C285.433 27.8706 285.963 25.6421 285.963 23.096H281.963ZM262.954 32.47C256.219 32.47 251.396 31.8756 248.291 30.3106C246.797 29.5576 245.754 28.6037 245.064 27.4047C244.365 26.1915 243.945 24.5812 243.945 22.391H239.945C239.945 25.0888 240.464 27.4324 241.597 29.4005C242.738 31.3828 244.418 32.8377 246.49 33.8824C250.518 35.9129 256.2 36.47 262.954 36.47V32.47ZM287.906 22.391V20.391H285.906V22.391H287.906ZM300.126 22.391H302.126V20.391H300.126V22.391ZM308.915 21.545L308.851 23.544L308.854 23.5441L308.915 21.545ZM328.514 12.145V14.145H330.514V12.145H328.514ZM316.294 12.145H314.294V14.145H316.294V12.145ZM308.915 13.085L308.994 11.0866L308.993 11.0866L308.915 13.085ZM287.906 24.391H300.126V20.391H287.906V24.391ZM298.126 22.391C298.126 23.1284 298.309 23.9735 298.923 24.737C299.503 25.4581 300.312 25.9122 301.187 26.2178C302.88 26.8092 305.495 27.07 309.385 27.07V23.07C305.519 23.07 303.504 22.7903 302.507 22.4417C302.036 22.2773 301.985 22.1616 302.04 22.2305C302.13 22.3418 302.126 22.4526 302.126 22.391H298.126ZM309.385 27.07C312.964 27.07 315.273 26.961 316.707 26.6314C317.422 26.4668 318.228 26.1843 318.841 25.5673C319.551 24.8521 319.704 24.0052 319.704 23.378H315.704C315.704 23.3895 315.701 23.3005 315.747 23.1635C315.799 23.009 315.89 22.8622 316.003 22.7485C316.186 22.5633 316.27 22.6274 315.81 22.7331C314.893 22.944 313.043 23.07 309.385 23.07V27.07ZM319.704 23.378C319.704 22.7717 319.584 21.8633 318.821 21.1085C318.171 20.4644 317.311 20.2069 316.601 20.0615C315.157 19.7659 312.75 19.661 308.975 19.5459L308.854 23.5441C312.787 23.664 314.775 23.7706 315.798 23.9802C316.322 24.0875 316.214 24.156 316.007 23.951C315.688 23.6355 315.704 23.2793 315.704 23.378H319.704ZM308.978 19.546C301.546 19.3108 296.813 18.5764 293.965 17.1627C292.603 16.4867 291.755 15.6932 291.224 14.7816C290.685 13.8563 290.376 12.6417 290.376 10.97H286.376C286.376 13.1288 286.777 15.0926 287.768 16.7948C288.767 18.5109 290.27 19.7942 292.186 20.7455C295.895 22.5866 301.431 23.3092 308.851 23.544L308.978 19.546ZM290.376 10.97C290.376 9.50269 290.73 8.34717 291.354 7.40636C291.985 6.45421 292.975 5.59932 294.433 4.87831C297.408 3.40581 302.05 2.63 308.445 2.63V-1.37C301.867 -1.37 296.474 -0.59481 292.659 1.29319C290.72 2.25243 289.125 3.53017 288.02 5.19533C286.908 6.87183 286.376 8.81831 286.376 10.97H290.376ZM308.445 2.63C314.776 2.63 319.382 3.40891 322.347 4.9959C323.791 5.769 324.802 6.71101 325.464 7.821C326.127 8.93188 326.514 10.335 326.514 12.145H330.514C330.514 9.74852 329.995 7.60899 328.9 5.77209C327.804 3.9343 326.204 2.52337 324.235 1.46935C320.373 -0.597916 314.944 -1.37 308.445 -1.37V2.63ZM328.514 10.145H316.294V14.145H328.514V10.145ZM318.294 12.145C318.294 11.0597 317.806 10.1422 316.992 9.50568C316.282 8.9504 315.395 8.65971 314.557 8.47988C312.869 8.11767 310.468 8.03 307.505 8.03V12.03C310.51 12.03 312.504 12.1303 313.718 12.3909C314.004 12.4524 314.209 12.5153 314.35 12.5712C314.493 12.6278 314.537 12.6639 314.527 12.6561C314.429 12.5791 314.294 12.3608 314.294 12.145H318.294ZM307.505 8.03C304.697 8.03 302.729 8.09077 301.458 8.37914C300.812 8.52545 300.036 8.7923 299.437 9.40716C298.757 10.1047 298.596 10.9363 298.596 11.581H302.596C302.596 11.5711 302.597 11.6548 302.553 11.7861C302.504 11.9329 302.417 12.0799 302.301 12.1994C302.101 12.4045 301.977 12.3629 302.342 12.2801C303.091 12.1102 304.578 12.03 307.505 12.03V8.03ZM298.596 11.581C298.596 12.2411 298.771 13.1731 299.637 13.8699C300.303 14.4056 301.14 14.5829 301.773 14.68C303.106 14.8846 305.364 14.9464 308.836 15.0834L308.993 11.0866C305.321 10.9416 303.42 10.8859 302.379 10.7263C301.825 10.6412 301.922 10.5747 302.145 10.7535C302.305 10.8825 302.446 11.0688 302.528 11.2851C302.599 11.4711 302.596 11.5977 302.596 11.581H298.596ZM308.835 15.0834C315.406 15.3453 320.31 15.7036 323.581 16.9314C325.159 17.5238 326.195 18.2648 326.853 19.1602C327.501 20.0419 327.924 21.2663 327.924 23.096H331.924C331.924 20.6252 331.341 18.5126 330.077 16.7917C328.822 15.0845 327.039 13.9572 324.986 13.1866C320.996 11.6884 315.395 11.3417 308.994 11.0866L308.835 15.0834ZM327.924 23.096C327.924 25.0854 327.513 26.5464 326.833 27.6536C326.157 28.755 325.121 29.658 323.613 30.3812C320.49 31.8784 315.643 32.47 308.915 32.47V36.47C315.676 36.47 321.333 35.9101 325.342 33.9881C327.4 33.0017 329.087 31.6281 330.242 29.7465C331.394 27.8706 331.924 25.6421 331.924 23.096H327.924ZM308.915 32.47C302.179 32.47 297.356 31.8756 294.252 30.3106C292.758 29.5576 291.715 28.6037 291.025 27.4047C290.326 26.1915 289.906 24.5812 289.906 22.391H285.906C285.906 25.0888 286.425 27.4324 287.558 29.4005C288.699 31.3828 290.379 32.8377 292.451 33.8824C296.479 35.9129 302.161 36.47 308.915 36.47V32.47ZM390.935 11.44V13.44H392.935V11.44H390.935ZM368.375 11.44V9.44H366.375V11.44H368.375ZM368.375 14.965H366.375V16.965H368.375V14.965ZM388.115 14.965H390.115V12.965H388.115V14.965ZM388.115 25.305V27.305H390.115V25.305H388.115ZM368.375 25.305V23.305H366.375V25.305H368.375ZM368.375 34V36H370.375V34H368.375ZM356.155 34H354.155V36H356.155V34ZM356.155 1.1V-0.900002H354.155V1.1H356.155ZM390.935 1.1H392.935V-0.900002H390.935V1.1ZM390.935 9.44H368.375V13.44H390.935V9.44ZM366.375 11.44V14.965H370.375V11.44H366.375ZM368.375 16.965H388.115V12.965H368.375V16.965ZM386.115 14.965V25.305H390.115V14.965H386.115ZM388.115 23.305H368.375V27.305H388.115V23.305ZM366.375 25.305V34H370.375V25.305H366.375ZM368.375 32H356.155V36H368.375V32ZM358.155 34V1.1H354.155V34H358.155ZM356.155 3.1H390.935V-0.900002H356.155V3.1ZM388.935 1.1V11.44H392.935V1.1H388.935ZM427.941 24.553L426.932 22.8263L425.163 23.8598L426.239 25.6031L427.941 24.553ZM433.769 34V36H437.353L435.471 32.9499L433.769 34ZM419.293 34L417.571 35.0182L418.152 36H419.293V34ZM414.734 26.292L416.455 25.2738L415.875 24.292H414.734V26.292ZM407.543 26.292V24.292H405.543V26.292H407.543ZM407.543 34V36H409.543V34H407.543ZM395.323 34H393.323V36H395.323V34ZM395.323 1.1V-0.900002H393.323V1.1H395.323ZM407.543 11.44V9.44H405.543V11.44H407.543ZM407.543 15.952H405.543V17.952H407.543V15.952ZM431.769 13.696C431.769 17.8533 429.876 21.1058 426.932 22.8263L428.95 26.2797C433.244 23.7702 435.769 19.1267 435.769 13.696H431.769ZM426.239 25.6031L432.067 35.0501L435.471 32.9499L429.643 23.5029L426.239 25.6031ZM433.769 32H419.293V36H433.769V32ZM421.014 32.9818L416.455 25.2738L413.012 27.3102L417.571 35.0182L421.014 32.9818ZM414.734 24.292H407.543V28.292H414.734V24.292ZM405.543 26.292V34H409.543V26.292H405.543ZM407.543 32H395.323V36H407.543V32ZM397.323 34V1.1H393.323V34H397.323ZM395.323 3.1H421.173V-0.900002H395.323V3.1ZM421.173 3.1C424.425 3.1 427.047 4.23658 428.853 6.0571C430.662 7.88 431.769 10.5063 431.769 13.696H435.769C435.769 9.55373 434.314 5.88199 431.693 3.2399C429.069 0.595421 425.393 -0.900002 421.173 -0.900002V3.1ZM405.543 11.44V15.952H409.543V11.44H405.543ZM407.543 17.952H418.823V13.952H407.543V17.952ZM418.823 17.952C419.301 17.952 420.531 17.9969 421.585 17.4347C422.191 17.1115 422.724 16.6082 423.08 15.9013C423.421 15.2257 423.549 14.4706 423.549 13.696H419.549C419.549 14.0494 419.488 14.1403 419.509 14.0992C419.521 14.0755 419.547 14.0344 419.591 13.9906C419.634 13.9474 419.675 13.9199 419.703 13.9053C419.745 13.8828 419.718 13.9093 419.54 13.9293C419.358 13.9499 419.148 13.952 418.823 13.952V17.952ZM423.549 13.696C423.549 12.9214 423.421 12.1663 423.08 11.4907C422.724 10.7838 422.191 10.2805 421.585 9.95729C420.531 9.3951 419.301 9.44 418.823 9.44V13.44C419.148 13.44 419.358 13.4421 419.54 13.4627C419.718 13.4827 419.745 13.5092 419.703 13.4867C419.675 13.4721 419.634 13.4446 419.591 13.4014C419.547 13.3576 419.521 13.3165 419.509 13.2928C419.488 13.2517 419.549 13.3426 419.549 13.696H423.549ZM418.823 9.44H407.543V13.44H418.823V9.44ZM458.373 32.47C451.322 32.47 446.718 31.1186 443.887 28.7523C441.136 26.4535 439.693 22.8812 439.693 17.503H435.693C435.693 23.5928 437.352 28.504 441.322 31.8217C445.211 35.0719 450.948 36.47 458.373 36.47V32.47ZM439.693 17.503C439.693 12.151 441.134 8.60413 443.882 6.32227C446.714 3.97079 451.319 2.63 458.373 2.63V-1.37C450.951 -1.37 445.216 0.015213 441.326 3.24498C437.353 6.54436 435.693 11.434 435.693 17.503H439.693ZM458.373 2.63C465.398 2.63 470.006 3.98054 472.846 6.33967C475.603 8.63047 477.053 12.181 477.053 17.503H481.053C481.053 11.451 479.377 6.56503 475.402 3.26283C471.509 0.0289536 465.776 -1.37 458.373 -1.37V2.63ZM477.053 17.503C477.053 22.8512 475.601 26.4271 472.841 28.7349C470.001 31.1089 465.395 32.47 458.373 32.47V36.47C465.779 36.47 471.513 35.0581 475.406 31.8038C479.378 28.4834 481.053 23.5758 481.053 17.503H477.053ZM458.373 26.13C462.199 26.13 464.956 25.301 466.717 23.5316C468.492 21.7482 468.833 19.4311 468.833 17.503H464.833C464.833 19.0529 464.539 20.0493 463.882 20.7099C463.21 21.3845 461.738 22.13 458.373 22.13V26.13ZM468.833 17.503C468.833 15.6057 468.506 13.3024 466.728 11.5322C464.969 9.78217 462.211 8.97 458.373 8.97V12.97C461.772 12.97 463.244 13.7088 463.906 14.3675C464.548 15.0061 464.833 15.9693 464.833 17.503H468.833ZM458.373 8.97C454.542 8.97 451.782 9.76698 450.021 11.5112C448.237 13.2784 447.913 15.5878 447.913 17.503H451.913C451.913 15.9402 452.2 14.9831 452.836 14.3533C453.495 13.7005 454.965 12.97 458.373 12.97V8.97ZM447.913 17.503C447.913 19.4491 448.251 21.7721 450.032 23.5526C451.796 25.3163 454.554 26.13 458.373 26.13V22.13C455 22.13 453.529 21.3927 452.86 20.7242C452.208 20.0724 451.913 19.0819 451.913 17.503H447.913ZM533.865 1.1H535.865V-0.900002H533.865V1.1ZM533.865 34V36H535.865V34H533.865ZM521.645 34H519.645V36H521.645V34ZM521.645 18.349H523.645V10.8423L519.91 17.3539L521.645 18.349ZM512.668 34V36H513.826L514.403 34.9951L512.668 34ZM504.678 34L502.943 34.9951L503.52 36H504.678V34ZM495.701 18.349L497.436 17.3539L493.701 10.8423V18.349H495.701ZM495.701 34V36H497.701V34H495.701ZM483.481 34H481.481V36H483.481V34ZM483.481 1.1V-0.900002H481.481V1.1H483.481ZM498.521 1.1L500.281 0.149696L499.714 -0.900002H498.521V1.1ZM508.673 19.9L506.913 20.8503L508.673 24.1092L510.433 20.8503L508.673 19.9ZM518.825 1.1V-0.900002H517.632L517.065 0.149696L518.825 1.1ZM531.865 1.1V34H535.865V1.1H531.865ZM533.865 32H521.645V36H533.865V32ZM523.645 34V18.349H519.645V34H523.645ZM519.91 17.3539L510.933 33.0049L514.403 34.9951L523.38 19.3441L519.91 17.3539ZM512.668 32H504.678V36H512.668V32ZM506.413 33.0049L497.436 17.3539L493.966 19.3441L502.943 34.9951L506.413 33.0049ZM493.701 18.349V34H497.701V18.349H493.701ZM495.701 32H483.481V36H495.701V32ZM485.481 34V1.1H481.481V34H485.481ZM483.481 3.1H498.521V-0.900002H483.481V3.1ZM496.761 2.05029L506.913 20.8503L510.433 18.9497L500.281 0.149696L496.761 2.05029ZM510.433 20.8503L520.585 2.05029L517.065 0.149696L506.913 18.9497L510.433 20.8503ZM518.825 3.1H533.865V-0.900002H518.825V3.1ZM592.068 34L590.199 34.712L590.689 36H592.068V34ZM589.812 28.078L591.681 27.366L591.19 26.078H589.812V28.078ZM575.806 28.078V26.078H574.427L573.937 27.366L575.806 28.078ZM573.55 34V36H574.928L575.419 34.712L573.55 34ZM560.108 34L558.26 33.2345L557.114 36H560.108V34ZM573.738 1.1V-0.900002H572.401L571.89 0.334518L573.738 1.1ZM591.88 1.1L593.727 0.334518L593.216 -0.900002H591.88V1.1ZM605.51 34V36H608.503L607.357 33.2345L605.51 34ZM579.002 19.618L577.131 18.91L576.106 21.618H579.002V19.618ZM586.616 19.618V21.618H589.511L588.486 18.91L586.616 19.618ZM582.809 9.56L584.679 8.85201L582.809 3.91021L580.938 8.85201L582.809 9.56ZM593.937 33.288L591.681 27.366L587.943 28.79L590.199 34.712L593.937 33.288ZM589.812 26.078H575.806V30.078H589.812V26.078ZM573.937 27.366L571.681 33.288L575.419 34.712L577.675 28.79L573.937 27.366ZM573.55 32H560.108V36H573.55V32ZM561.955 34.7655L575.585 1.86548L571.89 0.334518L558.26 33.2345L561.955 34.7655ZM573.738 3.1H591.88V-0.900002H573.738V3.1ZM590.032 1.86548L603.662 34.7655L607.357 33.2345L593.727 0.334518L590.032 1.86548ZM605.51 32H592.068V36H605.51V32ZM579.002 21.618H586.616V17.618H579.002V21.618ZM588.486 18.91L584.679 8.85201L580.938 10.268L584.745 20.326L588.486 18.91ZM580.938 8.85201L577.131 18.91L580.872 20.326L584.679 10.268L580.938 8.85201ZM639.65 1.1V-0.900002H637.65V1.1H639.65ZM651.87 1.1H653.87V-0.900002H651.87V1.1ZM651.87 34V36H653.87V34H651.87ZM635.89 34L634.276 35.1805L634.875 36H635.89V34ZM621.696 14.589L623.311 13.4085L619.696 8.46557V14.589H621.696ZM621.696 34V36H623.696V34H621.696ZM609.476 34H607.476V36H609.476V34ZM609.476 1.1V-0.900002H607.476V1.1H609.476ZM625.456 1.1L627.071 -0.0805283L626.471 -0.900002H625.456V1.1ZM639.65 20.511L638.036 21.6915L641.65 26.6344V20.511H639.65ZM639.65 3.1H651.87V-0.900002H639.65V3.1ZM649.87 1.1V34H653.87V1.1H649.87ZM651.87 32H635.89V36H651.87V32ZM637.505 32.8195L623.311 13.4085L620.082 15.7695L634.276 35.1805L637.505 32.8195ZM619.696 14.589V34H623.696V14.589H619.696ZM621.696 32H609.476V36H621.696V32ZM611.476 34V1.1H607.476V34H611.476ZM609.476 3.1H625.456V-0.900002H609.476V3.1ZM623.842 2.28052L638.036 21.6915L641.265 19.3305L627.071 -0.0805283L623.842 2.28052ZM641.65 20.511V1.1H637.65V20.511H641.65ZM673.03 23.19H675.03V22.5181L674.624 21.9824L673.03 23.19ZM656.298 1.1V-0.900002H652.274L654.704 2.30758L656.298 1.1ZM670.398 1.1L672.025 -0.0636597L671.426 -0.900002H670.398V1.1ZM679.14 13.32L677.513 14.4837L679.14 16.7574L680.767 14.4837L679.14 13.32ZM687.882 1.1V-0.900002H686.854L686.255 -0.0636597L687.882 1.1ZM701.982 1.1L703.576 2.30758L706.006 -0.900002H701.982V1.1ZM685.25 23.19L683.656 21.9824L683.25 22.5181V23.19H685.25ZM685.25 34V36H687.25V34H685.25ZM673.03 34H671.03V36H673.03V34ZM674.624 21.9824L657.892 -0.10759L654.704 2.30758L671.436 24.3976L674.624 21.9824ZM656.298 3.1H670.398V-0.900002H656.298V3.1ZM668.771 2.26366L677.513 14.4837L680.767 12.1563L672.025 -0.0636597L668.771 2.26366ZM680.767 14.4837L689.509 2.26366L686.255 -0.0636597L677.513 12.1563L680.767 14.4837ZM687.882 3.1H701.982V-0.900002H687.882V3.1ZM700.388 -0.10759L683.656 21.9824L686.844 24.3976L703.576 2.30758L700.388 -0.10759ZM683.25 23.19V34H687.25V23.19H683.25ZM685.25 32H673.03V36H685.25V32ZM675.03 34V23.19H671.03V34H675.03ZM761.532 1.1V-0.900002H760.035L759.613 0.53672L761.532 1.1ZM774.645 1.1L776.545 1.7243L777.407 -0.900002H774.645V1.1ZM763.835 34V36H765.283L765.735 34.6243L763.835 34ZM745.693 34L743.77 34.5488L744.184 36H745.693V34ZM740.288 15.059L742.211 14.5102L740.288 7.77053L738.365 14.5102L740.288 15.059ZM734.883 34V36H736.392L736.806 34.5488L734.883 34ZM716.741 34L714.841 34.6243L715.293 36H716.741V34ZM705.931 1.1V-0.900002H703.169L704.031 1.7243L705.931 1.1ZM719.044 1.1L720.963 0.53672L720.541 -0.900002H719.044V1.1ZM725.859 24.318L723.94 24.8813L725.814 31.2654L727.771 24.9062L725.859 24.318ZM733.003 1.1V-0.900002H731.526L731.091 0.511826L733.003 1.1ZM747.573 1.1L749.484 0.511826L749.05 -0.900002H747.573V1.1ZM754.717 24.318L752.805 24.9062L754.762 31.2654L756.636 24.8813L754.717 24.318ZM761.532 3.1H774.645V-0.900002H761.532V3.1ZM772.745 0.475693L761.935 33.3757L765.735 34.6243L776.545 1.7243L772.745 0.475693ZM763.835 32H745.693V36H763.835V32ZM747.616 33.4512L742.211 14.5102L738.365 15.6078L743.77 34.5488L747.616 33.4512ZM738.365 14.5102L732.96 33.4512L736.806 34.5488L742.211 15.6078L738.365 14.5102ZM734.883 32H716.741V36H734.883V32ZM718.641 33.3757L707.831 0.475693L704.031 1.7243L714.841 34.6243L718.641 33.3757ZM705.931 3.1H719.044V-0.900002H705.931V3.1ZM717.125 1.66328L723.94 24.8813L727.778 23.7547L720.963 0.53672L717.125 1.66328ZM727.771 24.9062L734.914 1.68817L731.091 0.511826L723.947 23.7298L727.771 24.9062ZM733.003 3.1H747.573V-0.900002H733.003V3.1ZM745.661 1.68817L752.805 24.9062L756.628 23.7298L749.484 0.511826L745.661 1.68817ZM756.636 24.8813L763.451 1.66328L759.613 0.53672L752.798 23.7547L756.636 24.8813ZM810.565 1.1V-0.900002H808.565V1.1H810.565ZM822.785 1.1H824.785V-0.900002H822.785V1.1ZM822.785 34V36H824.785V34H822.785ZM810.565 34H808.565V36H810.565V34ZM810.565 22.72H812.565V20.72H810.565V22.72ZM791.295 22.72V20.72H789.295V22.72H791.295ZM791.295 34V36H793.295V34H791.295ZM779.075 34H777.075V36H779.075V34ZM779.075 1.1V-0.900002H777.075V1.1H779.075ZM791.295 1.1H793.295V-0.900002H791.295V1.1ZM791.295 12.38H789.295V14.38H791.295V12.38ZM810.565 12.38V14.38H812.565V12.38H810.565ZM810.565 3.1H822.785V-0.900002H810.565V3.1ZM820.785 1.1V34H824.785V1.1H820.785ZM822.785 32H810.565V36H822.785V32ZM812.565 34V22.72H808.565V34H812.565ZM810.565 20.72H791.295V24.72H810.565V20.72ZM789.295 22.72V34H793.295V22.72H789.295ZM791.295 32H779.075V36H791.295V32ZM781.075 34V1.1H777.075V34H781.075ZM779.075 3.1H791.295V-0.900002H779.075V3.1ZM789.295 1.1V12.38H793.295V1.1H789.295ZM791.295 14.38H810.565V10.38H791.295V14.38ZM812.565 12.38V1.1H808.565V12.38H812.565ZM862.432 10.5V12.5H864.432V10.5H862.432ZM839.872 10.5V8.5H837.872V10.5H839.872ZM839.872 13.555H837.872V15.555H839.872V13.555ZM862.432 13.555H864.432V11.555H862.432V13.555ZM862.432 21.545V23.545H864.432V21.545H862.432ZM839.872 21.545V19.545H837.872V21.545H839.872ZM839.872 24.6H837.872V26.6H839.872V24.6ZM862.432 24.6H864.432V22.6H862.432V24.6ZM862.432 34V36H864.432V34H862.432ZM827.652 34H825.652V36H827.652V34ZM827.652 1.1V-0.900002H825.652V1.1H827.652ZM862.432 1.1H864.432V-0.900002H862.432V1.1ZM862.432 8.5H839.872V12.5H862.432V8.5ZM837.872 10.5V13.555H841.872V10.5H837.872ZM839.872 15.555H862.432V11.555H839.872V15.555ZM860.432 13.555V21.545H864.432V13.555H860.432ZM862.432 19.545H839.872V23.545H862.432V19.545ZM837.872 21.545V24.6H841.872V21.545H837.872ZM839.872 26.6H862.432V22.6H839.872V26.6ZM860.432 24.6V34H864.432V24.6H860.432ZM862.432 32H827.652V36H862.432V32ZM829.652 34V1.1H825.652V34H829.652ZM827.652 3.1H862.432V-0.900002H827.652V3.1ZM860.432 1.1V10.5H864.432V1.1H860.432ZM899.438 24.553L898.429 22.8263L896.66 23.8598L897.736 25.6031L899.438 24.553ZM905.266 34V36H908.85L906.968 32.9499L905.266 34ZM890.79 34L889.068 35.0182L889.649 36H890.79V34ZM886.231 26.292L887.952 25.2738L887.372 24.292H886.231V26.292ZM879.04 26.292V24.292H877.04V26.292H879.04ZM879.04 34V36H881.04V34H879.04ZM866.82 34H864.82V36H866.82V34ZM866.82 1.1V-0.900002H864.82V1.1H866.82ZM879.04 11.44V9.44H877.04V11.44H879.04ZM879.04 15.952H877.04V17.952H879.04V15.952ZM903.266 13.696C903.266 17.8533 901.373 21.1058 898.429 22.8263L900.447 26.2797C904.741 23.7702 907.266 19.1267 907.266 13.696H903.266ZM897.736 25.6031L903.564 35.0501L906.968 32.9499L901.14 23.5029L897.736 25.6031ZM905.266 32H890.79V36H905.266V32ZM892.511 32.9818L887.952 25.2738L884.509 27.3102L889.068 35.0182L892.511 32.9818ZM886.231 24.292H879.04V28.292H886.231V24.292ZM877.04 26.292V34H881.04V26.292H877.04ZM879.04 32H866.82V36H879.04V32ZM868.82 34V1.1H864.82V34H868.82ZM866.82 3.1H892.67V-0.900002H866.82V3.1ZM892.67 3.1C895.922 3.1 898.544 4.23658 900.35 6.0571C902.159 7.88 903.266 10.5063 903.266 13.696H907.266C907.266 9.55373 905.811 5.88199 903.19 3.2399C900.566 0.595421 896.891 -0.900002 892.67 -0.900002V3.1ZM877.04 11.44V15.952H881.04V11.44H877.04ZM879.04 17.952H890.32V13.952H879.04V17.952ZM890.32 17.952C890.799 17.952 892.028 17.9969 893.082 17.4347C893.688 17.1115 894.221 16.6082 894.577 15.9013C894.918 15.2257 895.046 14.4706 895.046 13.696H891.046C891.046 14.0494 890.986 14.1403 891.006 14.0992C891.018 14.0755 891.044 14.0344 891.088 13.9906C891.131 13.9474 891.172 13.9199 891.2 13.9053C891.242 13.8828 891.215 13.9093 891.037 13.9293C890.855 13.9499 890.645 13.952 890.32 13.952V17.952ZM895.046 13.696C895.046 12.9214 894.918 12.1663 894.577 11.4907C894.221 10.7838 893.688 10.2805 893.082 9.95729C892.028 9.3951 890.799 9.44 890.32 9.44V13.44C890.645 13.44 890.855 13.4421 891.037 13.4627C891.215 13.4827 891.242 13.5092 891.2 13.4867C891.172 13.4721 891.131 13.4446 891.088 13.4014C891.044 13.3576 891.018 13.3165 891.006 13.2928C890.986 13.2517 891.046 13.3426 891.046 13.696H895.046ZM890.32 9.44H879.04V13.44H890.32V9.44ZM944.44 10.5V12.5H946.44V10.5H944.44ZM921.88 10.5V8.5H919.88V10.5H921.88ZM921.88 13.555H919.88V15.555H921.88V13.555ZM944.44 13.555H946.44V11.555H944.44V13.555ZM944.44 21.545V23.545H946.44V21.545H944.44ZM921.88 21.545V19.545H919.88V21.545H921.88ZM921.88 24.6H919.88V26.6H921.88V24.6ZM944.44 24.6H946.44V22.6H944.44V24.6ZM944.44 34V36H946.44V34H944.44ZM909.66 34H907.66V36H909.66V34ZM909.66 1.1V-0.900002H907.66V1.1H909.66ZM944.44 1.1H946.44V-0.900002H944.44V1.1ZM944.44 8.5H921.88V12.5H944.44V8.5ZM919.88 10.5V13.555H923.88V10.5H919.88ZM921.88 15.555H944.44V11.555H921.88V15.555ZM942.44 13.555V21.545H946.44V13.555H942.44ZM944.44 19.545H921.88V23.545H944.44V19.545ZM919.88 21.545V24.6H923.88V21.545H919.88ZM921.88 26.6H944.44V22.6H921.88V26.6ZM942.44 24.6V34H946.44V24.6H942.44ZM944.44 32H909.66V36H944.44V32ZM911.66 34V1.1H907.66V34H911.66ZM909.66 3.1H944.44V-0.900002H909.66V3.1ZM942.44 1.1V10.5H946.44V1.1H942.44ZM948.828 25.54V23.54H946.828V25.54H948.828ZM960.108 25.54H962.108V23.54H960.108V25.54ZM960.108 34L961.887 34.9138L962.108 34.4836V34H960.108ZM954.797 44.34V46.34H956.018L956.576 45.2538L954.797 44.34ZM949.768 44.34L947.857 43.7494L947.056 46.34H949.768V44.34ZM952.964 34L954.875 34.5906L955.675 32H952.964V34ZM948.828 34H946.828V36H948.828V34ZM948.828 27.54H960.108V23.54H948.828V27.54ZM958.108 25.54V34H962.108V25.54H958.108ZM958.329 33.0862L953.018 43.4262L956.576 45.2538L961.887 34.9138L958.329 33.0862ZM954.797 42.34H949.768V46.34H954.797V42.34ZM951.679 44.9306L954.875 34.5906L951.053 33.4094L947.857 43.7494L951.679 44.9306ZM952.964 32H948.828V36H952.964V32ZM950.828 34V25.54H946.828V34H950.828ZM1006.23 22.673H1004.23V24.673H1006.23V22.673ZM1006.23 16.093V14.093H1004.23V16.093H1006.23ZM1027.57 16.093H1029.57V14.093H1027.57V16.093ZM1027.57 34V36H1029.57V34H1027.57ZM1020.52 34L1018.55 34.3698L1018.86 36H1020.52V34ZM1019.62 29.253L1021.59 28.8832L1020.82 24.7797L1018.1 27.9532L1019.62 29.253ZM1027.57 14.213V16.213H1029.69L1029.56 14.098L1027.57 14.213ZM1015.07 14.213L1013.14 14.7483L1013.55 16.213H1015.07V14.213ZM1015.07 22.673L1017.02 23.0892L1017.54 20.673H1015.07V22.673ZM1008.23 22.673V16.093H1004.23V22.673H1008.23ZM1006.23 18.093H1027.57V14.093H1006.23V18.093ZM1025.57 16.093V34H1029.57V16.093H1025.57ZM1027.57 32H1020.52V36H1027.57V32ZM1022.48 33.6302L1021.59 28.8832L1017.66 29.6227L1018.55 34.3698L1022.48 33.6302ZM1018.1 27.9532C1015.82 30.631 1012.12 32.47 1005.62 32.47V36.47C1012.93 36.47 1017.89 34.361 1021.15 30.5528L1018.1 27.9532ZM1005.62 32.47C999.82 32.47 995.539 31.1509 992.732 28.7635C989.982 26.424 988.349 22.8029 988.349 17.503H984.349C984.349 23.6711 986.288 28.5335 990.141 31.8105C993.937 35.0396 999.291 36.47 1005.62 36.47V32.47ZM988.349 17.503C988.349 12.2341 989.975 8.66214 992.865 6.34356C995.838 3.95792 1000.48 2.63 1007.03 2.63V-1.37C1000.04 -1.37 994.344 0.0280762 990.361 3.22369C986.295 6.48636 984.349 11.3509 984.349 17.503H988.349ZM1007.03 2.63C1013.43 2.63 1017.98 3.75856 1020.93 5.72142C1023.78 7.60997 1025.34 10.3981 1025.57 14.328L1029.56 14.098C1029.27 9.05087 1027.15 5.04752 1023.15 2.38882C1019.25 -0.195564 1013.79 -1.37 1007.03 -1.37V2.63ZM1027.57 12.213H1015.07V16.213H1027.57V12.213ZM1016.99 13.6777C1016.55 12.095 1015.3 10.9003 1013.64 10.1396C1011.99 9.38047 1009.79 8.97 1007.03 8.97V12.97C1009.44 12.97 1011.02 13.335 1011.97 13.7744C1012.93 14.2122 1013.11 14.639 1013.14 14.7483L1016.99 13.6777ZM1007.03 8.97C1003.2 8.97 1000.41 9.76484 998.644 11.604C996.873 13.4434 996.569 15.8735 996.569 17.973H1000.57C1000.57 16.1245 1000.88 15.0531 1001.53 14.378C1002.18 13.7027 1003.62 12.97 1007.03 12.97V8.97ZM996.569 17.973C996.569 20.1086 996.891 22.6179 998.596 24.5703C1000.35 26.5733 1003.14 27.54 1007.03 27.54V23.54C1003.73 23.54 1002.29 22.7207 1001.61 21.939C1000.88 21.1066 1000.57 19.8324 1000.57 17.973H996.569ZM1007.03 27.54C1009.42 27.54 1011.57 27.3799 1013.25 26.8379C1014.98 26.2773 1016.58 25.1622 1017.02 23.0892L1013.11 22.2568C1013.08 22.3928 1013.01 22.7112 1012.02 23.0318C1010.97 23.3711 1009.34 23.54 1007.03 23.54V27.54ZM1015.07 20.673H1006.23V24.673H1015.07V20.673ZM1066.78 10.5V12.5H1068.78V10.5H1066.78ZM1044.22 10.5V8.5H1042.22V10.5H1044.22ZM1044.22 13.555H1042.22V15.555H1044.22V13.555ZM1066.78 13.555H1068.78V11.555H1066.78V13.555ZM1066.78 21.545V23.545H1068.78V21.545H1066.78ZM1044.22 21.545V19.545H1042.22V21.545H1044.22ZM1044.22 24.6H1042.22V26.6H1044.22V24.6ZM1066.78 24.6H1068.78V22.6H1066.78V24.6ZM1066.78 34V36H1068.78V34H1066.78ZM1032 34H1030V36H1032V34ZM1032 1.1V-0.900002H1030V1.1H1032ZM1066.78 1.1H1068.78V-0.900002H1066.78V1.1ZM1066.78 8.5H1044.22V12.5H1066.78V8.5ZM1042.22 10.5V13.555H1046.22V10.5H1042.22ZM1044.22 15.555H1066.78V11.555H1044.22V15.555ZM1064.78 13.555V21.545H1068.78V13.555H1064.78ZM1066.78 19.545H1044.22V23.545H1066.78V19.545ZM1042.22 21.545V24.6H1046.22V21.545H1042.22ZM1044.22 26.6H1066.78V22.6H1044.22V26.6ZM1064.78 24.6V34H1068.78V24.6H1064.78ZM1066.78 32H1032V36H1066.78V32ZM1034 34V1.1H1030V34H1034ZM1032 3.1H1066.78V-0.900002H1032V3.1ZM1064.78 1.1V10.5H1068.78V1.1H1064.78ZM1111.12 1.1H1113.12V-0.900002H1111.12V1.1ZM1111.12 11.44V13.44H1113.12V11.44H1111.12ZM1097.02 11.44V9.44H1095.02V11.44H1097.02ZM1097.02 34V36H1099.02V34H1097.02ZM1084.8 34H1082.8V36H1084.8V34ZM1084.8 11.44H1086.8V9.44H1084.8V11.44ZM1070.7 11.44H1068.7V13.44H1070.7V11.44ZM1070.7 1.1V-0.900002H1068.7V1.1H1070.7ZM1109.12 1.1V11.44H1113.12V1.1H1109.12ZM1111.12 9.44H1097.02V13.44H1111.12V9.44ZM1095.02 11.44V34H1099.02V11.44H1095.02ZM1097.02 32H1084.8V36H1097.02V32ZM1086.8 34V11.44H1082.8V34H1086.8ZM1084.8 9.44H1070.7V13.44H1084.8V9.44ZM1072.7 11.44V1.1H1068.7V11.44H1072.7ZM1070.7 3.1H1111.12V-0.900002H1070.7V3.1ZM79.5077 80.553L78.4986 78.8263L76.7301 79.8598L77.8056 81.6031L79.5077 80.553ZM85.3357 90V92H88.9195L87.0379 88.9499L85.3357 90ZM70.8597 90L69.1383 91.0182L69.719 92H70.8597V90ZM66.3007 82.292L68.0221 81.2738L67.4414 80.292H66.3007V82.292ZM59.1097 82.292V80.292H57.1097V82.292H59.1097ZM59.1097 90V92H61.1097V90H59.1097ZM46.8897 90H44.8897V92H46.8897V90ZM46.8897 57.1V55.1H44.8897V57.1H46.8897ZM59.1097 67.44V65.44H57.1097V67.44H59.1097ZM59.1097 71.952H57.1097V73.952H59.1097V71.952ZM83.3357 69.696C83.3357 73.8533 81.4425 77.1058 78.4986 78.8263L80.5168 82.2797C84.8109 79.7702 87.3357 75.1267 87.3357 69.696H83.3357ZM77.8056 81.6031L83.6336 91.0501L87.0379 88.9499L81.2099 79.5029L77.8056 81.6031ZM85.3357 88H70.8597V92H85.3357V88ZM72.5811 88.9818L68.0221 81.2738L64.5793 83.3102L69.1383 91.0182L72.5811 88.9818ZM66.3007 80.292H59.1097V84.292H66.3007V80.292ZM57.1097 82.292V90H61.1097V82.292H57.1097ZM59.1097 88H46.8897V92H59.1097V88ZM48.8897 90V57.1H44.8897V90H48.8897ZM46.8897 59.1H72.7397V55.1H46.8897V59.1ZM72.7397 59.1C75.9921 59.1 78.6141 60.2366 80.4203 62.0571C82.2288 63.88 83.3357 66.5063 83.3357 69.696H87.3357C87.3357 65.5537 85.8811 61.882 83.2599 59.2399C80.6363 56.5954 76.9603 55.1 72.7397 55.1V59.1ZM57.1097 67.44V71.952H61.1097V67.44H57.1097ZM59.1097 73.952H70.3897V69.952H59.1097V73.952ZM70.3897 73.952C70.8683 73.952 72.098 73.9969 73.1521 73.4347C73.7582 73.1115 74.2904 72.6082 74.6471 71.9013C74.9881 71.2257 75.1157 70.4706 75.1157 69.696H71.1157C71.1157 70.0494 71.0553 70.1403 71.0761 70.0992C71.088 70.0755 71.114 70.0344 71.1576 69.9906C71.2006 69.9474 71.2423 69.9199 71.2698 69.9053C71.312 69.8828 71.2848 69.9093 71.1072 69.9293C70.9248 69.9499 70.7147 69.952 70.3897 69.952V73.952ZM75.1157 69.696C75.1157 68.9214 74.9881 68.1663 74.6471 67.4907C74.2904 66.7838 73.7582 66.2805 73.1521 65.9573C72.098 65.3951 70.8683 65.44 70.3897 65.44V69.44C70.7147 69.44 70.9248 69.4421 71.1072 69.4627C71.2848 69.4827 71.312 69.5092 71.2698 69.4867C71.2423 69.4721 71.2006 69.4446 71.1576 69.4014C71.114 69.3576 71.088 69.3165 71.0761 69.2928C71.0553 69.2517 71.1157 69.3426 71.1157 69.696H75.1157ZM70.3897 65.44H59.1097V69.44H70.3897V65.44ZM124.51 66.5V68.5H126.51V66.5H124.51ZM101.95 66.5V64.5H99.9496V66.5H101.95ZM101.95 69.555H99.9496V71.555H101.95V69.555ZM124.51 69.555H126.51V67.555H124.51V69.555ZM124.51 77.545V79.545H126.51V77.545H124.51ZM101.95 77.545V75.545H99.9496V77.545H101.95ZM101.95 80.6H99.9496V82.6H101.95V80.6ZM124.51 80.6H126.51V78.6H124.51V80.6ZM124.51 90V92H126.51V90H124.51ZM89.7296 90H87.7296V92H89.7296V90ZM89.7296 57.1V55.1H87.7296V57.1H89.7296ZM124.51 57.1H126.51V55.1H124.51V57.1ZM124.51 64.5H101.95V68.5H124.51V64.5ZM99.9496 66.5V69.555H103.95V66.5H99.9496ZM101.95 71.555H124.51V67.555H101.95V71.555ZM122.51 69.555V77.545H126.51V69.555H122.51ZM124.51 75.545H101.95V79.545H124.51V75.545ZM99.9496 77.545V80.6H103.95V77.545H99.9496ZM101.95 82.6H124.51V78.6H101.95V82.6ZM122.51 80.6V90H126.51V80.6H122.51ZM124.51 88H89.7296V92H124.51V88ZM91.7296 90V57.1H87.7296V90H91.7296ZM89.7296 59.1H124.51V55.1H89.7296V59.1ZM122.51 57.1V66.5H126.51V57.1H122.51ZM184.029 57.1V55.1H182.531L182.109 56.5367L184.029 57.1ZM197.142 57.1L199.042 57.7243L199.904 55.1H197.142V57.1ZM186.332 90V92H187.78L188.232 90.6243L186.332 90ZM168.19 90L166.266 90.5488L166.68 92H168.19V90ZM162.785 71.059L164.708 70.5102L162.785 63.7705L160.861 70.5102L162.785 71.059ZM157.38 90V92H158.889L159.303 90.5488L157.38 90ZM139.238 90L137.337 90.6243L137.789 92H139.238V90ZM128.428 57.1V55.1H125.665L126.527 57.7243L128.428 57.1ZM141.541 57.1L143.46 56.5367L143.038 55.1H141.541V57.1ZM148.356 80.318L146.436 80.8813L148.31 87.2655L150.267 80.9062L148.356 80.318ZM155.5 57.1V55.1H154.022L153.588 56.5118L155.5 57.1ZM170.07 57.1L171.981 56.5118L171.547 55.1H170.07V57.1ZM177.214 80.318L175.302 80.9062L177.259 87.2655L179.133 80.8813L177.214 80.318ZM184.029 59.1H197.142V55.1H184.029V59.1ZM195.241 56.4757L184.431 89.3757L188.232 90.6243L199.042 57.7243L195.241 56.4757ZM186.332 88H168.19V92H186.332V88ZM170.113 89.4512L164.708 70.5102L160.861 71.6078L166.266 90.5488L170.113 89.4512ZM160.861 70.5102L155.456 89.4512L159.303 90.5488L164.708 71.6078L160.861 70.5102ZM157.38 88H139.238V92H157.38V88ZM141.138 89.3757L130.328 56.4757L126.527 57.7243L137.337 90.6243L141.138 89.3757ZM128.428 59.1H141.541V55.1H128.428V59.1ZM139.621 57.6633L146.436 80.8813L150.275 79.7547L143.46 56.5367L139.621 57.6633ZM150.267 80.9062L157.411 57.6882L153.588 56.5118L146.444 79.7298L150.267 80.9062ZM155.5 59.1H170.07V55.1H155.5V59.1ZM168.158 57.6882L175.302 80.9062L179.125 79.7298L171.981 56.5118L168.158 57.6882ZM179.133 80.8813L185.948 57.6633L182.109 56.5367L175.294 79.7547L179.133 80.8813ZM223.193 90L221.324 90.712L221.815 92H223.193V90ZM220.937 84.078L222.806 83.366L222.315 82.078H220.937V84.078ZM206.931 84.078V82.078H205.553L205.062 83.366L206.931 84.078ZM204.675 90V92H206.053L206.544 90.712L204.675 90ZM191.233 90L189.385 89.2345L188.24 92H191.233V90ZM204.863 57.1V55.1H203.527L203.015 56.3345L204.863 57.1ZM223.005 57.1L224.853 56.3345L224.341 55.1H223.005V57.1ZM236.635 90V92H239.629L238.483 89.2345L236.635 90ZM210.127 75.618L208.257 74.91L207.232 77.618H210.127V75.618ZM217.741 75.618V77.618H220.637L219.612 74.91L217.741 75.618ZM213.934 65.56L215.805 64.852L213.934 59.9102L212.064 64.852L213.934 65.56ZM225.062 89.288L222.806 83.366L219.068 84.79L221.324 90.712L225.062 89.288ZM220.937 82.078H206.931V86.078H220.937V82.078ZM205.062 83.366L202.806 89.288L206.544 90.712L208.8 84.79L205.062 83.366ZM204.675 88H191.233V92H204.675V88ZM193.081 90.7655L206.711 57.8655L203.015 56.3345L189.385 89.2345L193.081 90.7655ZM204.863 59.1H223.005V55.1H204.863V59.1ZM221.157 57.8655L234.787 90.7655L238.483 89.2345L224.853 56.3345L221.157 57.8655ZM236.635 88H223.193V92H236.635V88ZM210.127 77.618H217.741V73.618H210.127V77.618ZM219.612 74.91L215.805 64.852L212.064 66.268L215.871 76.326L219.612 74.91ZM212.064 64.852L208.257 74.91L211.998 76.326L215.805 66.268L212.064 64.852ZM273.22 80.553L272.21 78.8263L270.442 79.8598L271.517 81.6031L273.22 80.553ZM279.048 90V92H282.631L280.75 88.9499L279.048 90ZM264.572 90L262.85 91.0182L263.431 92H264.572V90ZM260.013 82.292L261.734 81.2738L261.153 80.292H260.013V82.292ZM252.822 82.292V80.292H250.822V82.292H252.822ZM252.822 90V92H254.822V90H252.822ZM240.602 90H238.602V92H240.602V90ZM240.602 57.1V55.1H238.602V57.1H240.602ZM252.822 67.44V65.44H250.822V67.44H252.822ZM252.822 71.952H250.822V73.952H252.822V71.952ZM277.048 69.696C277.048 73.8533 275.154 77.1058 272.21 78.8263L274.229 82.2797C278.523 79.7702 281.048 75.1267 281.048 69.696H277.048ZM271.517 81.6031L277.345 91.0501L280.75 88.9499L274.922 79.5029L271.517 81.6031ZM279.048 88H264.572V92H279.048V88ZM266.293 88.9818L261.734 81.2738L258.291 83.3102L262.85 91.0182L266.293 88.9818ZM260.013 80.292H252.822V84.292H260.013V80.292ZM250.822 82.292V90H254.822V82.292H250.822ZM252.822 88H240.602V92H252.822V88ZM242.602 90V57.1H238.602V90H242.602ZM240.602 59.1H266.452V55.1H240.602V59.1ZM266.452 59.1C269.704 59.1 272.326 60.2366 274.132 62.0571C275.941 63.88 277.048 66.5063 277.048 69.696H281.048C281.048 65.5537 279.593 61.882 276.972 59.2399C274.348 56.5954 270.672 55.1 266.452 55.1V59.1ZM250.822 67.44V71.952H254.822V67.44H250.822ZM252.822 73.952H264.102V69.952H252.822V73.952ZM264.102 73.952C264.58 73.952 265.81 73.9969 266.864 73.4347C267.47 73.1115 268.002 72.6082 268.359 71.9013C268.7 71.2257 268.828 70.4706 268.828 69.696H264.828C264.828 70.0494 264.767 70.1403 264.788 70.0992C264.8 70.0755 264.826 70.0344 264.87 69.9906C264.913 69.9474 264.954 69.9199 264.982 69.9053C265.024 69.8828 264.997 69.9093 264.819 69.9293C264.637 69.9499 264.427 69.952 264.102 69.952V73.952ZM268.828 69.696C268.828 68.9214 268.7 68.1663 268.359 67.4907C268.002 66.7838 267.47 66.2805 266.864 65.9573C265.81 65.3951 264.58 65.44 264.102 65.44V69.44C264.427 69.44 264.637 69.4421 264.819 69.4627C264.997 69.4827 265.024 69.5092 264.982 69.4867C264.954 69.4721 264.913 69.4446 264.87 69.4014C264.826 69.3576 264.8 69.3165 264.788 69.2928C264.767 69.2517 264.828 69.3426 264.828 69.696H268.828ZM264.102 65.44H252.822V69.44H264.102V65.44ZM283.441 90H281.441V92H283.441V90ZM283.441 57.1V55.1H281.441V57.1H283.441ZM295.661 67.44V65.44H293.661V67.44H295.661ZM295.661 79.66H293.661V81.66H295.661V79.66ZM307.881 59.1C311.421 59.1 314.757 60.2714 317.192 62.5812C319.601 64.8672 321.297 68.4275 321.297 73.55H325.297C325.297 67.4865 323.257 62.8218 319.945 59.6793C316.657 56.5606 312.284 55.1 307.881 55.1V59.1ZM321.297 73.55C321.297 78.6725 319.601 82.2328 317.192 84.5188C314.757 86.8286 311.421 88 307.881 88V92C312.284 92 316.657 90.5394 319.945 87.4207C323.257 84.2782 325.297 79.6135 325.297 73.55H321.297ZM307.881 88H283.441V92H307.881V88ZM285.441 90V57.1H281.441V90H285.441ZM283.441 59.1H307.881V55.1H283.441V59.1ZM304.121 81.66C305.34 81.66 307.609 81.7005 309.539 80.6548C310.569 80.0971 311.491 79.2446 312.135 78.0046C312.767 76.7883 313.077 75.3059 313.077 73.55H309.077C309.077 74.8491 308.847 75.6579 308.586 76.1601C308.337 76.6385 308.014 76.9317 307.634 77.1377C306.744 77.6195 305.535 77.66 304.121 77.66V81.66ZM313.077 73.55C313.077 71.7941 312.767 70.3117 312.135 69.0954C311.491 67.8554 310.569 67.0029 309.539 66.4452C307.609 65.3995 305.34 65.44 304.121 65.44V69.44C305.535 69.44 306.744 69.4805 307.634 69.9623C308.014 70.1684 308.337 70.4614 308.586 70.9399C308.847 71.4421 309.077 72.2509 309.077 73.55H313.077ZM304.121 65.44H295.661V69.44H304.121V65.44ZM293.661 67.44V79.66H297.661V67.44H293.661ZM295.661 81.66H304.121V77.66H295.661V81.66ZM327.234 78.391V76.391H325.234V78.391H327.234ZM339.454 78.391H341.454V76.391H339.454V78.391ZM348.243 77.545L348.18 79.544L348.182 79.5441L348.243 77.545ZM367.842 68.145V70.145H369.842V68.145H367.842ZM355.622 68.145H353.622V70.145H355.622V68.145ZM348.243 69.085L348.323 67.0866L348.322 67.0865L348.243 69.085ZM327.234 80.391H339.454V76.391H327.234V80.391ZM337.454 78.391C337.454 79.1284 337.638 79.9735 338.252 80.737C338.831 81.4581 339.641 81.9122 340.516 82.2178C342.209 82.8092 344.824 83.07 348.713 83.07V79.07C344.848 79.07 342.833 78.7903 341.835 78.4417C341.365 78.2773 341.314 78.1616 341.369 78.2305C341.458 78.3418 341.454 78.4526 341.454 78.391H337.454ZM348.713 83.07C352.293 83.07 354.602 82.961 356.035 82.6314C356.751 82.4668 357.556 82.1843 358.169 81.5673C358.88 80.8521 359.032 80.0052 359.032 79.378H355.032C355.032 79.3895 355.03 79.3005 355.076 79.1635C355.128 79.009 355.218 78.8622 355.331 78.7485C355.515 78.5633 355.598 78.6274 355.139 78.7331C354.222 78.944 352.371 79.07 348.713 79.07V83.07ZM359.032 79.378C359.032 78.7717 358.912 77.8633 358.15 77.1085C357.499 76.4644 356.639 76.2069 355.929 76.0615C354.486 75.7659 352.078 75.661 348.304 75.5459L348.182 79.5441C352.116 79.664 354.103 79.7706 355.127 79.9802C355.651 80.0875 355.543 80.156 355.336 79.951C355.017 79.6355 355.032 79.2793 355.032 79.378H359.032ZM348.306 75.546C340.875 75.3108 336.141 74.5764 333.293 73.1627C331.932 72.4867 331.084 71.6932 330.553 70.7816C330.014 69.8563 329.704 68.6417 329.704 66.97H325.704C325.704 69.1288 326.105 71.0926 327.097 72.7948C328.096 74.5109 329.598 75.7942 331.515 76.7455C335.224 78.5866 340.76 79.3092 348.18 79.544L348.306 75.546ZM329.704 66.97C329.704 65.5027 330.058 64.3472 330.682 63.4064C331.314 62.4542 332.304 61.5993 333.761 60.8783C336.737 59.4058 341.379 58.63 347.773 58.63V54.63C341.196 54.63 335.803 55.4052 331.987 57.2932C330.049 58.2524 328.454 59.5302 327.349 61.1953C326.237 62.8718 325.704 64.8183 325.704 66.97H329.704ZM347.773 58.63C354.104 58.63 358.711 59.4089 361.675 60.9959C363.12 61.769 364.131 62.711 364.793 63.821C365.456 64.9319 365.842 66.335 365.842 68.145H369.842C369.842 65.7485 369.324 63.609 368.228 61.7721C367.132 59.9343 365.532 58.5234 363.563 57.4693C359.701 55.4021 354.273 54.63 347.773 54.63V58.63ZM367.842 66.145H355.622V70.145H367.842V66.145ZM357.622 68.145C357.622 67.0597 357.134 66.1422 356.321 65.5057C355.611 64.9504 354.724 64.6597 353.886 64.4799C352.198 64.1177 349.796 64.03 346.833 64.03V68.03C349.839 68.03 351.832 68.1303 353.046 68.3909C353.333 68.4523 353.538 68.5153 353.679 68.5712C353.822 68.6278 353.866 68.6639 353.856 68.6561C353.758 68.5791 353.622 68.3608 353.622 68.145H357.622ZM346.833 64.03C344.026 64.03 342.058 64.0908 340.786 64.3791C340.141 64.5255 339.365 64.7923 338.765 65.4072C338.085 66.1047 337.924 66.9363 337.924 67.581H341.924C341.924 67.5711 341.926 67.6548 341.882 67.7861C341.833 67.9329 341.746 68.0799 341.629 68.1994C341.429 68.4045 341.305 68.3629 341.671 68.2801C342.42 68.1102 343.907 68.03 346.833 68.03V64.03ZM337.924 67.581C337.924 68.2411 338.1 69.1731 338.966 69.8699C339.631 70.4056 340.469 70.5829 341.101 70.68C342.435 70.8846 344.692 70.9464 348.164 71.0834L348.322 67.0865C344.65 66.9416 342.748 66.8859 341.708 66.7263C341.154 66.6412 341.251 66.5747 341.473 66.7535C341.634 66.8825 341.775 67.0688 341.857 67.2851C341.928 67.4711 341.924 67.5977 341.924 67.581H337.924ZM348.164 71.0834C354.735 71.3453 359.639 71.7036 362.909 72.9314C364.487 73.5238 365.524 74.2648 366.182 75.1602C366.83 76.0419 367.252 77.2663 367.252 79.096H371.252C371.252 76.6252 370.67 74.5126 369.405 72.7917C368.151 71.0845 366.368 69.9572 364.315 69.1866C360.324 67.6884 354.724 67.3417 348.323 67.0866L348.164 71.0834ZM367.252 79.096C367.252 81.0854 366.842 82.5464 366.162 83.6535C365.486 84.7549 364.45 85.658 362.941 86.3812C359.818 87.8784 354.971 88.47 348.243 88.47V92.47C355.004 92.47 360.662 91.9101 364.671 89.9881C366.728 89.0016 368.415 87.6281 369.571 85.7465C370.723 83.8706 371.252 81.6421 371.252 79.096H367.252ZM348.243 88.47C341.508 88.47 336.685 87.8756 333.581 86.3106C332.087 85.5576 331.043 84.6037 330.353 83.4047C329.655 82.1915 329.234 80.5812 329.234 78.391H325.234C325.234 81.0888 325.754 83.4324 326.887 85.4005C328.028 87.3828 329.708 88.8377 331.78 89.8824C335.808 91.9129 341.489 92.47 348.243 92.47V88.47ZM430.263 67.44V69.44H432.263V67.44H430.263ZM407.703 67.44V65.44H405.703V67.44H407.703ZM407.703 70.965H405.703V72.965H407.703V70.965ZM427.443 70.965H429.443V68.965H427.443V70.965ZM427.443 81.305V83.305H429.443V81.305H427.443ZM407.703 81.305V79.305H405.703V81.305H407.703ZM407.703 90V92H409.703V90H407.703ZM395.483 90H393.483V92H395.483V90ZM395.483 57.1V55.1H393.483V57.1H395.483ZM430.263 57.1H432.263V55.1H430.263V57.1ZM430.263 65.44H407.703V69.44H430.263V65.44ZM405.703 67.44V70.965H409.703V67.44H405.703ZM407.703 72.965H427.443V68.965H407.703V72.965ZM425.443 70.965V81.305H429.443V70.965H425.443ZM427.443 79.305H407.703V83.305H427.443V79.305ZM405.703 81.305V90H409.703V81.305H405.703ZM407.703 88H395.483V92H407.703V88ZM397.483 90V57.1H393.483V90H397.483ZM395.483 59.1H430.263V55.1H395.483V59.1ZM428.263 57.1V67.44H432.263V57.1H428.263ZM467.269 80.553L466.26 78.8263L464.492 79.8598L465.567 81.6031L467.269 80.553ZM473.097 90V92H476.681L474.8 88.9499L473.097 90ZM458.621 90L456.9 91.0182L457.481 92H458.621V90ZM454.062 82.292L455.784 81.2738L455.203 80.292H454.062V82.292ZM446.871 82.292V80.292H444.871V82.292H446.871ZM446.871 90V92H448.871V90H446.871ZM434.651 90H432.651V92H434.651V90ZM434.651 57.1V55.1H432.651V57.1H434.651ZM446.871 67.44V65.44H444.871V67.44H446.871ZM446.871 71.952H444.871V73.952H446.871V71.952ZM471.097 69.696C471.097 73.8533 469.204 77.1058 466.26 78.8263L468.279 82.2797C472.573 79.7702 475.097 75.1267 475.097 69.696H471.097ZM465.567 81.6031L471.395 91.0501L474.8 88.9499L468.972 79.5029L465.567 81.6031ZM473.097 88H458.621V92H473.097V88ZM460.343 88.9818L455.784 81.2738L452.341 83.3102L456.9 91.0182L460.343 88.9818ZM454.062 80.292H446.871V84.292H454.062V80.292ZM444.871 82.292V90H448.871V82.292H444.871ZM446.871 88H434.651V92H446.871V88ZM436.651 90V57.1H432.651V90H436.651ZM434.651 59.1H460.501V55.1H434.651V59.1ZM460.501 59.1C463.754 59.1 466.376 60.2366 468.182 62.0571C469.991 63.88 471.097 66.5063 471.097 69.696H475.097C475.097 65.5537 473.643 61.882 471.022 59.2399C468.398 56.5954 464.722 55.1 460.501 55.1V59.1ZM444.871 67.44V71.952H448.871V67.44H444.871ZM446.871 73.952H458.151V69.952H446.871V73.952ZM458.151 73.952C458.63 73.952 459.86 73.9969 460.914 73.4347C461.52 73.1115 462.052 72.6082 462.409 71.9013C462.75 71.2257 462.877 70.4706 462.877 69.696H458.877C458.877 70.0494 458.817 70.1403 458.838 70.0992C458.85 70.0755 458.876 70.0344 458.919 69.9906C458.962 69.9474 459.004 69.9199 459.031 69.9053C459.074 69.8828 459.047 69.9093 458.869 69.9293C458.687 69.9499 458.476 69.952 458.151 69.952V73.952ZM462.877 69.696C462.877 68.9214 462.75 68.1663 462.409 67.4907C462.052 66.7838 461.52 66.2805 460.914 65.9573C459.86 65.3951 458.63 65.44 458.151 65.44V69.44C458.476 69.44 458.687 69.4421 458.869 69.4627C459.047 69.4827 459.074 69.5092 459.031 69.4867C459.004 69.4721 458.962 69.4446 458.919 69.4014C458.876 69.3576 458.85 69.3165 458.838 69.2928C458.817 69.2517 458.877 69.3426 458.877 69.696H462.877ZM458.151 65.44H446.871V69.44H458.151V65.44ZM497.701 88.47C490.65 88.47 486.047 87.1186 483.215 84.7523C480.464 82.4535 479.021 78.8812 479.021 73.503H475.021C475.021 79.5928 476.68 84.504 480.65 87.8217C484.54 91.0719 490.276 92.47 497.701 92.47V88.47ZM479.021 73.503C479.021 68.151 480.463 64.6041 483.21 62.3223C486.042 59.9708 490.647 58.63 497.701 58.63V54.63C490.279 54.63 484.544 56.0152 480.655 59.245C476.682 62.5444 475.021 67.434 475.021 73.503H479.021ZM497.701 58.63C504.727 58.63 509.334 59.9805 512.174 62.3397C514.932 64.6305 516.381 68.181 516.381 73.503H520.381C520.381 67.451 518.705 62.565 514.73 59.2628C510.837 56.029 505.105 54.63 497.701 54.63V58.63ZM516.381 73.503C516.381 78.8512 514.93 82.4271 512.169 84.7349C509.33 87.1089 504.724 88.47 497.701 88.47V92.47C505.108 92.47 510.842 91.0581 514.735 87.8038C518.707 84.4834 520.381 79.5758 520.381 73.503H516.381ZM497.701 82.13C501.527 82.13 504.285 81.301 506.046 79.5316C507.82 77.7482 508.161 75.4311 508.161 73.503H504.161C504.161 75.0529 503.868 76.0493 503.21 76.7099C502.539 77.3845 501.066 78.13 497.701 78.13V82.13ZM508.161 73.503C508.161 71.6057 507.835 69.3024 506.056 67.5322C504.298 65.7822 501.54 64.97 497.701 64.97V68.97C501.101 68.97 502.573 69.7088 503.235 70.3675C503.876 71.0061 504.161 71.9693 504.161 73.503H508.161ZM497.701 64.97C493.871 64.97 491.111 65.767 489.35 67.5112C487.565 69.2784 487.241 71.5878 487.241 73.503H491.241C491.241 71.9402 491.528 70.9831 492.164 70.3533C492.824 69.7005 494.294 68.97 497.701 68.97V64.97ZM487.241 73.503C487.241 75.4491 487.58 77.7721 489.36 79.5526C491.124 81.3163 493.883 82.13 497.701 82.13V78.13C494.328 78.13 492.857 77.3927 492.189 76.7242C491.537 76.0724 491.241 75.0819 491.241 73.503H487.241ZM573.194 57.1H575.194V55.1H573.194V57.1ZM573.194 90V92H575.194V90H573.194ZM560.974 90H558.974V92H560.974V90ZM560.974 74.349H562.974V66.8423L559.239 73.3539L560.974 74.349ZM551.997 90V92H553.155L553.732 90.9951L551.997 90ZM544.007 90L542.272 90.9951L542.848 92H544.007V90ZM535.03 74.349L536.765 73.3539L533.03 66.8423V74.349H535.03ZM535.03 90V92H537.03V90H535.03ZM522.81 90H520.81V92H522.81V90ZM522.81 57.1V55.1H520.81V57.1H522.81ZM537.85 57.1L539.609 56.1497L539.043 55.1H537.85V57.1ZM548.002 75.9L546.242 76.8503L548.002 80.1092L549.761 76.8503L548.002 75.9ZM558.154 57.1V55.1H556.961L556.394 56.1497L558.154 57.1ZM571.194 57.1V90H575.194V57.1H571.194ZM573.194 88H560.974V92H573.194V88ZM562.974 90V74.349H558.974V90H562.974ZM559.239 73.3539L550.262 89.0049L553.732 90.9951L562.708 75.3441L559.239 73.3539ZM551.997 88H544.007V92H551.997V88ZM545.742 89.0049L536.765 73.3539L533.295 75.3441L542.272 90.9951L545.742 89.0049ZM533.03 74.349V90H537.03V74.349H533.03ZM535.03 88H522.81V92H535.03V88ZM524.81 90V57.1H520.81V90H524.81ZM522.81 59.1H537.85V55.1H522.81V59.1ZM536.09 58.0503L546.242 76.8503L549.761 74.9497L539.609 56.1497L536.09 58.0503ZM549.761 76.8503L559.913 58.0503L556.394 56.1497L546.242 74.9497L549.761 76.8503ZM558.154 59.1H573.194V55.1H558.154V59.1ZM634.686 66.5V68.5H636.686V66.5H634.686ZM612.126 66.5V64.5H610.126V66.5H612.126ZM612.126 69.555H610.126V71.555H612.126V69.555ZM634.686 69.555H636.686V67.555H634.686V69.555ZM634.686 77.545V79.545H636.686V77.545H634.686ZM612.126 77.545V75.545H610.126V77.545H612.126ZM612.126 80.6H610.126V82.6H612.126V80.6ZM634.686 80.6H636.686V78.6H634.686V80.6ZM634.686 90V92H636.686V90H634.686ZM599.906 90H597.906V92H599.906V90ZM599.906 57.1V55.1H597.906V57.1H599.906ZM634.686 57.1H636.686V55.1H634.686V57.1ZM634.686 64.5H612.126V68.5H634.686V64.5ZM610.126 66.5V69.555H614.126V66.5H610.126ZM612.126 71.555H634.686V67.555H612.126V71.555ZM632.686 69.555V77.545H636.686V69.555H632.686ZM634.686 75.545H612.126V79.545H634.686V75.545ZM610.126 77.545V80.6H614.126V77.545H610.126ZM612.126 82.6H634.686V78.6H612.126V82.6ZM632.686 80.6V90H636.686V80.6H632.686ZM634.686 88H599.906V92H634.686V88ZM601.906 90V57.1H597.906V90H601.906ZM599.906 59.1H634.686V55.1H599.906V59.1ZM632.686 57.1V66.5H636.686V57.1H632.686ZM670.564 57.1V55.1H669.183L668.694 56.3914L670.564 57.1ZM684.006 57.1L685.854 57.8655L687 55.1H684.006V57.1ZM670.376 90V92H671.713L672.224 90.7655L670.376 90ZM652.234 90L650.387 90.7655L650.898 92H652.234V90ZM638.604 57.1V55.1H635.611L636.757 57.8655L638.604 57.1ZM652.046 57.1L653.917 56.3914L653.427 55.1H652.046V57.1ZM661.305 81.54L659.435 82.2486L661.305 87.1853L663.176 82.2486L661.305 81.54ZM670.564 59.1H684.006V55.1H670.564V59.1ZM682.159 56.3345L668.529 89.2345L672.224 90.7655L685.854 57.8655L682.159 56.3345ZM670.376 88H652.234V92H670.376V88ZM654.082 89.2345L640.452 56.3345L636.757 57.8655L650.387 90.7655L654.082 89.2345ZM638.604 59.1H652.046V55.1H638.604V59.1ZM650.176 57.8085L659.435 82.2486L663.176 80.8315L653.917 56.3914L650.176 57.8085ZM663.176 82.2486L672.435 57.8085L668.694 56.3914L659.435 80.8315L663.176 82.2486ZM722.753 66.5V68.5H724.753V66.5H722.753ZM700.193 66.5V64.5H698.193V66.5H700.193ZM700.193 69.555H698.193V71.555H700.193V69.555ZM722.753 69.555H724.753V67.555H722.753V69.555ZM722.753 77.545V79.545H724.753V77.545H722.753ZM700.193 77.545V75.545H698.193V77.545H700.193ZM700.193 80.6H698.193V82.6H700.193V80.6ZM722.753 80.6H724.753V78.6H722.753V80.6ZM722.753 90V92H724.753V90H722.753ZM687.973 90H685.973V92H687.973V90ZM687.973 57.1V55.1H685.973V57.1H687.973ZM722.753 57.1H724.753V55.1H722.753V57.1ZM722.753 64.5H700.193V68.5H722.753V64.5ZM698.193 66.5V69.555H702.193V66.5H698.193ZM700.193 71.555H722.753V67.555H700.193V71.555ZM720.753 69.555V77.545H724.753V69.555H720.753ZM722.753 75.545H700.193V79.545H722.753V75.545ZM698.193 77.545V80.6H702.193V77.545H698.193ZM700.193 82.6H722.753V78.6H700.193V82.6ZM720.753 80.6V90H724.753V80.6H720.753ZM722.753 88H687.973V92H722.753V88ZM689.973 90V57.1H685.973V90H689.973ZM687.973 59.1H722.753V55.1H687.973V59.1ZM720.753 57.1V66.5H724.753V57.1H720.753ZM759.759 80.553L758.75 78.8263L756.981 79.8598L758.057 81.6031L759.759 80.553ZM765.587 90V92H769.17L767.289 88.9499L765.587 90ZM751.111 90L749.389 91.0182L749.97 92H751.111V90ZM746.552 82.292L748.273 81.2738L747.692 80.292H746.552V82.292ZM739.361 82.292V80.292H737.361V82.292H739.361ZM739.361 90V92H741.361V90H739.361ZM727.141 90H725.141V92H727.141V90ZM727.141 57.1V55.1H725.141V57.1H727.141ZM739.361 67.44V65.44H737.361V67.44H739.361ZM739.361 71.952H737.361V73.952H739.361V71.952ZM763.587 69.696C763.587 73.8533 761.693 77.1058 758.75 78.8263L760.768 82.2797C765.062 79.7702 767.587 75.1267 767.587 69.696H763.587ZM758.057 81.6031L763.885 91.0501L767.289 88.9499L761.461 79.5029L758.057 81.6031ZM765.587 88H751.111V92H765.587V88ZM752.832 88.9818L748.273 81.2738L744.83 83.3102L749.389 91.0182L752.832 88.9818ZM746.552 80.292H739.361V84.292H746.552V80.292ZM737.361 82.292V90H741.361V82.292H737.361ZM739.361 88H727.141V92H739.361V88ZM729.141 90V57.1H725.141V90H729.141ZM727.141 59.1H752.991V55.1H727.141V59.1ZM752.991 59.1C756.243 59.1 758.865 60.2366 760.671 62.0571C762.48 63.88 763.587 66.5063 763.587 69.696H767.587C767.587 65.5537 766.132 61.882 763.511 59.2399C760.887 56.5954 757.211 55.1 752.991 55.1V59.1ZM737.361 67.44V71.952H741.361V67.44H737.361ZM739.361 73.952H750.641V69.952H739.361V73.952ZM750.641 73.952C751.119 73.952 752.349 73.9969 753.403 73.4347C754.009 73.1115 754.541 72.6082 754.898 71.9013C755.239 71.2257 755.367 70.4706 755.367 69.696H751.367C751.367 70.0494 751.306 70.1403 751.327 70.0992C751.339 70.0755 751.365 70.0344 751.409 69.9906C751.452 69.9474 751.493 69.9199 751.521 69.9053C751.563 69.8828 751.536 69.9093 751.358 69.9293C751.176 69.9499 750.966 69.952 750.641 69.952V73.952ZM755.367 69.696C755.367 68.9214 755.239 68.1663 754.898 67.4907C754.541 66.7838 754.009 66.2805 753.403 65.9573C752.349 65.3951 751.119 65.44 750.641 65.44V69.44C750.966 69.44 751.176 69.4421 751.358 69.4627C751.536 69.4827 751.563 69.5092 751.521 69.4867C751.493 69.4721 751.452 69.4446 751.409 69.4014C751.365 69.3576 751.339 69.3165 751.327 69.2928C751.306 69.2517 751.367 69.3426 751.367 69.696H755.367ZM750.641 65.44H739.361V69.44H750.641V65.44ZM782.02 79.19H784.02V78.5181L783.614 77.9824L782.02 79.19ZM765.288 57.1V55.1H761.264L763.694 58.3076L765.288 57.1ZM779.388 57.1L781.014 55.9363L780.416 55.1H779.388V57.1ZM788.13 69.32L786.503 70.4837L788.13 72.7574L789.756 70.4837L788.13 69.32ZM796.872 57.1V55.1H795.844L795.245 55.9363L796.872 57.1ZM810.972 57.1L812.566 58.3076L814.996 55.1H810.972V57.1ZM794.24 79.19L792.646 77.9824L792.24 78.5181V79.19H794.24ZM794.24 90V92H796.24V90H794.24ZM782.02 90H780.02V92H782.02V90ZM783.614 77.9824L766.882 55.8924L763.694 58.3076L780.426 80.3976L783.614 77.9824ZM765.288 59.1H779.388V55.1H765.288V59.1ZM777.761 58.2637L786.503 70.4837L789.756 68.1563L781.014 55.9363L777.761 58.2637ZM789.756 70.4837L798.498 58.2637L795.245 55.9363L786.503 68.1563L789.756 70.4837ZM796.872 59.1H810.972V55.1H796.872V59.1ZM809.378 55.8924L792.646 77.9824L795.834 80.3976L812.566 58.3076L809.378 55.8924ZM792.24 79.19V90H796.24V79.19H792.24ZM794.24 88H782.02V92H794.24V88ZM784.02 90V79.19H780.02V90H784.02ZM870.522 57.1V55.1H869.024L868.603 56.5367L870.522 57.1ZM883.635 57.1L885.535 57.7243L886.397 55.1H883.635V57.1ZM872.825 90V92H874.273L874.725 90.6243L872.825 90ZM854.683 90L852.759 90.5488L853.174 92H854.683V90ZM849.278 71.059L851.201 70.5102L849.278 63.7705L847.354 70.5102L849.278 71.059ZM843.873 90V92H845.382L845.796 90.5488L843.873 90ZM825.731 90L823.831 90.6243L824.283 92H825.731V90ZM814.921 57.1V55.1H812.158L813.021 57.7243L814.921 57.1ZM828.034 57.1L829.953 56.5367L829.531 55.1H828.034V57.1ZM834.849 80.318L832.93 80.8813L834.804 87.2655L836.76 80.9062L834.849 80.318ZM841.993 57.1V55.1H840.516L840.081 56.5118L841.993 57.1ZM856.563 57.1L858.474 56.5118L858.04 55.1H856.563V57.1ZM863.707 80.318L861.795 80.9062L863.752 87.2655L865.626 80.8813L863.707 80.318ZM870.522 59.1H883.635V55.1H870.522V59.1ZM881.735 56.4757L870.925 89.3757L874.725 90.6243L885.535 57.7243L881.735 56.4757ZM872.825 88H854.683V92H872.825V88ZM856.606 89.4512L851.201 70.5102L847.354 71.6078L852.759 90.5488L856.606 89.4512ZM847.354 70.5102L841.949 89.4512L845.796 90.5488L851.201 71.6078L847.354 70.5102ZM843.873 88H825.731V92H843.873V88ZM827.631 89.3757L816.821 56.4757L813.021 57.7243L823.831 90.6243L827.631 89.3757ZM814.921 59.1H828.034V55.1H814.921V59.1ZM826.115 57.6633L832.93 80.8813L836.768 79.7547L829.953 56.5367L826.115 57.6633ZM836.76 80.9062L843.904 57.6882L840.081 56.5118L832.937 79.7298L836.76 80.9062ZM841.993 59.1H856.563V55.1H841.993V59.1ZM854.651 57.6882L861.795 80.9062L865.618 79.7298L858.474 56.5118L854.651 57.6882ZM865.626 80.8813L872.441 57.6633L868.603 56.5367L861.788 79.7547L865.626 80.8813ZM919.555 57.1V55.1H917.555V57.1H919.555ZM931.775 57.1H933.775V55.1H931.775V57.1ZM931.775 90V92H933.775V90H931.775ZM919.555 90H917.555V92H919.555V90ZM919.555 78.72H921.555V76.72H919.555V78.72ZM900.284 78.72V76.72H898.284V78.72H900.284ZM900.284 90V92H902.284V90H900.284ZM888.065 90H886.065V92H888.065V90ZM888.065 57.1V55.1H886.065V57.1H888.065ZM900.284 57.1H902.284V55.1H900.284V57.1ZM900.284 68.38H898.284V70.38H900.284V68.38ZM919.555 68.38V70.38H921.555V68.38H919.555ZM919.555 59.1H931.775V55.1H919.555V59.1ZM929.775 57.1V90H933.775V57.1H929.775ZM931.775 88H919.555V92H931.775V88ZM921.555 90V78.72H917.555V90H921.555ZM919.555 76.72H900.284V80.72H919.555V76.72ZM898.284 78.72V90H902.284V78.72H898.284ZM900.284 88H888.065V92H900.284V88ZM890.065 90V57.1H886.065V90H890.065ZM888.065 59.1H900.284V55.1H888.065V59.1ZM898.284 57.1V68.38H902.284V57.1H898.284ZM900.284 70.38H919.555V66.38H900.284V70.38ZM921.555 68.38V57.1H917.555V68.38H921.555ZM971.422 66.5V68.5H973.422V66.5H971.422ZM948.862 66.5V64.5H946.862V66.5H948.862ZM948.862 69.555H946.862V71.555H948.862V69.555ZM971.422 69.555H973.422V67.555H971.422V69.555ZM971.422 77.545V79.545H973.422V77.545H971.422ZM948.862 77.545V75.545H946.862V77.545H948.862ZM948.862 80.6H946.862V82.6H948.862V80.6ZM971.422 80.6H973.422V78.6H971.422V80.6ZM971.422 90V92H973.422V90H971.422ZM936.642 90H934.642V92H936.642V90ZM936.642 57.1V55.1H934.642V57.1H936.642ZM971.422 57.1H973.422V55.1H971.422V57.1ZM971.422 64.5H948.862V68.5H971.422V64.5ZM946.862 66.5V69.555H950.862V66.5H946.862ZM948.862 71.555H971.422V67.555H948.862V71.555ZM969.422 69.555V77.545H973.422V69.555H969.422ZM971.422 75.545H948.862V79.545H971.422V75.545ZM946.862 77.545V80.6H950.862V77.545H946.862ZM948.862 82.6H971.422V78.6H948.862V82.6ZM969.422 80.6V90H973.422V80.6H969.422ZM971.422 88H936.642V92H971.422V88ZM938.642 90V57.1H934.642V90H938.642ZM936.642 59.1H971.422V55.1H936.642V59.1ZM969.422 57.1V66.5H973.422V57.1H969.422ZM1008.43 80.553L1007.42 78.8263L1005.65 79.8598L1006.73 81.6031L1008.43 80.553ZM1014.26 90V92H1017.84L1015.96 88.9499L1014.26 90ZM999.78 90L998.058 91.0182L998.639 92H999.78V90ZM995.221 82.292L996.942 81.2738L996.361 80.292H995.221V82.292ZM988.03 82.292V80.292H986.03V82.292H988.03ZM988.03 90V92H990.03V90H988.03ZM975.81 90H973.81V92H975.81V90ZM975.81 57.1V55.1H973.81V57.1H975.81ZM988.03 67.44V65.44H986.03V67.44H988.03ZM988.03 71.952H986.03V73.952H988.03V71.952ZM1012.26 69.696C1012.26 73.8533 1010.36 77.1058 1007.42 78.8263L1009.44 82.2797C1013.73 79.7702 1016.26 75.1267 1016.26 69.696H1012.26ZM1006.73 81.6031L1012.55 91.0501L1015.96 88.9499L1010.13 79.5029L1006.73 81.6031ZM1014.26 88H999.78V92H1014.26V88ZM1001.5 88.9818L996.942 81.2738L993.499 83.3102L998.058 91.0182L1001.5 88.9818ZM995.221 80.292H988.03V84.292H995.221V80.292ZM986.03 82.292V90H990.03V82.292H986.03ZM988.03 88H975.81V92H988.03V88ZM977.81 90V57.1H973.81V90H977.81ZM975.81 59.1H1001.66V55.1H975.81V59.1ZM1001.66 59.1C1004.91 59.1 1007.53 60.2366 1009.34 62.0571C1011.15 63.88 1012.26 66.5063 1012.26 69.696H1016.26C1016.26 65.5537 1014.8 61.882 1012.18 59.2399C1009.56 56.5954 1005.88 55.1 1001.66 55.1V59.1ZM986.03 67.44V71.952H990.03V67.44H986.03ZM988.03 73.952H999.31V69.952H988.03V73.952ZM999.31 73.952C999.788 73.952 1001.02 73.9969 1002.07 73.4347C1002.68 73.1115 1003.21 72.6082 1003.57 71.9013C1003.91 71.2257 1004.04 70.4706 1004.04 69.696H1000.04C1000.04 70.0494 999.975 70.1403 999.996 70.0992C1000.01 70.0755 1000.03 70.0344 1000.08 69.9906C1000.12 69.9474 1000.16 69.9199 1000.19 69.9053C1000.23 69.8828 1000.2 69.9093 1000.03 69.9293C999.845 69.9499 999.635 69.952 999.31 69.952V73.952ZM1004.04 69.696C1004.04 68.9214 1003.91 68.1663 1003.57 67.4907C1003.21 66.7838 1002.68 66.2805 1002.07 65.9573C1001.02 65.3951 999.788 65.44 999.31 65.44V69.44C999.635 69.44 999.845 69.4421 1000.03 69.4627C1000.2 69.4827 1000.23 69.5092 1000.19 69.4867C1000.16 69.4721 1000.12 69.4446 1000.08 69.4014C1000.03 69.3576 1000.01 69.3165 999.996 69.2928C999.975 69.2517 1000.04 69.3426 1000.04 69.696H1004.04ZM999.31 65.44H988.03V69.44H999.31V65.44ZM1053.43 66.5V68.5H1055.43V66.5H1053.43ZM1030.87 66.5V64.5H1028.87V66.5H1030.87ZM1030.87 69.555H1028.87V71.555H1030.87V69.555ZM1053.43 69.555H1055.43V67.555H1053.43V69.555ZM1053.43 77.545V79.545H1055.43V77.545H1053.43ZM1030.87 77.545V75.545H1028.87V77.545H1030.87ZM1030.87 80.6H1028.87V82.6H1030.87V80.6ZM1053.43 80.6H1055.43V78.6H1053.43V80.6ZM1053.43 90V92H1055.43V90H1053.43ZM1018.65 90H1016.65V92H1018.65V90ZM1018.65 57.1V55.1H1016.65V57.1H1018.65ZM1053.43 57.1H1055.43V55.1H1053.43V57.1ZM1053.43 64.5H1030.87V68.5H1053.43V64.5ZM1028.87 66.5V69.555H1032.87V66.5H1028.87ZM1030.87 71.555H1053.43V67.555H1030.87V71.555ZM1051.43 69.555V77.545H1055.43V69.555H1051.43ZM1053.43 75.545H1030.87V79.545H1053.43V75.545ZM1028.87 77.545V80.6H1032.87V77.545H1028.87ZM1030.87 82.6H1053.43V78.6H1030.87V82.6ZM1051.43 80.6V90H1055.43V80.6H1051.43ZM1053.43 88H1018.65V92H1053.43V88ZM1020.65 90V57.1H1016.65V90H1020.65ZM1018.65 59.1H1053.43V55.1H1018.65V59.1ZM1051.43 57.1V66.5H1055.43V57.1H1051.43ZM1057.82 81.54V79.54H1055.82V81.54H1057.82ZM1069.1 81.54H1071.1V79.54H1069.1V81.54ZM1069.1 90V92H1071.1V90H1069.1ZM1057.82 90H1055.82V92H1057.82V90ZM1057.82 83.54H1069.1V79.54H1057.82V83.54ZM1067.1 81.54V90H1071.1V81.54H1067.1ZM1069.1 88H1057.82V92H1069.1V88ZM1059.82 90V81.54H1055.82V90H1059.82Z" fill="#2EE8AE"/>
</g>
<defs>
<filter id="filter0_d_16497_54471" x="0.357422" y="0.630859" width="1110.76" height="93.8398" filterUnits="userSpaceOnUse" color-interpolation-filters="sRGB">
<feFlood flood-opacity="0" result="BackgroundImageFix"/>
<feColorMatrix in="SourceAlpha" type="matrix" values="0 0 0 0 0 0 0 0 0 0 0 0 0 0 0 0 0 0 127 0" result="hardAlpha"/>
<feOffset dx="-2" dy="4"/>
<feComposite in2="hardAlpha" operator="out"/>
<feColorMatrix type="matrix" values="0 0 0 0 0.533333 0 0 0 0 0.631373 0 0 0 0 0.67451 0 0 0 1 0"/>
<feBlend mode="normal" in2="BackgroundImageFix" result="effect1_dropShadow_16497_54471"/>
<feBlend mode="normal" in="SourceGraphic" in2="effect1_dropShadow_16497_54471" result="shape"/>
</filter>
</defs>
</svg>
