<svg width="57" height="56" viewBox="0 0 57 56" fill="none" xmlns="http://www.w3.org/2000/svg">
<g clip-path="url(#clip0_35_2747)">
<path d="M16.108 10.7241C16.9062 9.57543 17.9044 8.57959 19.055 7.78415C20.105 7.08415 21.582 6.08315 23.479 6.30715C24.6122 6.41114 25.6645 6.93855 26.426 7.78415C27.826 9.47815 27.28 11.7461 27.126 12.2011C26.6178 13.9399 25.5894 15.4813 24.179 16.6181C27.126 17.3601 28.96 15.7851 30.073 15.1481C31.746 14.1891 31.837 13.1601 34.49 10.7241C36.443 8.94615 37.43 8.04315 38.914 7.78415C41.483 7.32215 43.814 9.09315 44.808 9.98915C45.3646 9.65681 46.0007 9.48133 46.649 9.48133C47.2972 9.48133 47.9334 9.65681 48.49 9.98915C49.939 10.9621 50.415 13.2651 49.19 15.1481C50.3243 15.2427 51.3791 15.7689 52.137 16.6181C54.328 19.4181 51.01 25.2351 49.19 28.4061C47.37 31.5771 42.967 38.4721 33.79 44.6181C28.512 48.1181 25.88 49.9171 22.002 49.7701C15.954 49.5531 11.747 44.9121 9.47899 42.4061C7.37899 40.0611 3.52199 35.8331 3.58499 29.8831C3.62699 25.8721 5.44699 22.8341 6.53199 21.0421C9.52799 16.0721 12.363 16.0721 16.108 10.7241Z" fill="white"/>
<path d="M54.65 18.8721C54.6566 20.18 54.397 21.4756 53.887 22.6801C51.206 29.3721 46.95 35.0491 42.12 40.3551C38.6055 44.1717 34.4352 47.3273 29.8069 49.6721C27.7261 50.7235 25.398 51.1882 23.0729 51.0161C22.2959 50.9741 21.3929 50.7431 21.2739 49.8681C21.1549 48.9931 22.0369 48.8111 22.6739 48.5801C29.905 45.9621 35.393 41.2721 39.985 35.1681C43.009 31.1851 46.593 27.6291 49.89 23.8491C50.8681 22.8529 51.6431 21.6761 52.172 20.3841C52.62 19.0681 52.557 17.7871 51.304 16.8421C50.051 15.8971 48.917 16.5621 47.993 17.4021C45.788 19.3831 44.346 21.9801 42.596 24.3251C42.274 24.7521 42.022 25.2421 41.665 25.6481C41.308 26.0541 40.685 26.4811 40.076 25.9421C39.467 25.4031 39.824 24.9341 40.181 24.5421C42.463 21.8191 44.276 18.7321 46.775 16.1911C47.0665 15.9325 47.3445 15.6592 47.608 15.3721C48.581 14.1611 49.344 12.6911 48.224 11.3891C47.104 10.0871 45.648 11.0041 44.458 11.7181C43.1 12.5301 42.267 13.8671 41.308 15.0781C40.16 16.5294 38.9933 17.9621 37.808 19.3761C37.465 19.7821 37.017 20.2021 36.408 19.7191C35.799 19.2361 36.142 18.8861 36.408 18.4941C38.151 15.9531 39.677 13.2371 42.008 11.1581C43.2629 9.98371 44.9095 9.3176 46.628 9.28906C51.437 9.28906 50.702 14.4271 50.702 14.4271C50.702 14.4271 53.971 15.3861 54.531 18.1301C54.5924 18.3734 54.6322 18.6217 54.65 18.8721Z" fill="#1E2532"/>
<path d="M26.167 6.49621C29.128 9.10721 28.897 13.6642 25.292 16.1072C24.732 16.4852 24.116 17.0032 23.458 16.2402C22.8 15.4772 23.381 14.9382 23.794 14.4132C24.5932 13.5736 25.2781 12.6321 25.831 11.6132C26.328 10.5002 26.58 9.42921 25.747 8.35821C24.837 7.18221 23.605 7.25921 22.366 7.53221C21.3839 7.79843 20.4946 8.33146 19.797 9.07221C16.5444 12.1358 13.4687 15.3821 10.585 18.7952C7.22498 22.8202 7.33698 27.4542 7.88298 32.1722C8.03698 33.5722 8.39398 34.8952 8.62498 36.2602C8.78598 37.2192 8.72998 38.1642 7.72898 38.6682C6.57398 39.2492 5.78998 38.4862 5.14598 37.7162C3.09498 35.2662 2.84998 32.2352 2.84998 29.2182C2.80693 27.2764 3.15679 25.346 3.87853 23.5428C4.60028 21.7397 5.67902 20.101 7.04998 18.7252C11.95 13.8672 15.989 5.78921 23.017 5.57221C24.142 5.50886 25.2545 5.83518 26.167 6.49621Z" fill="#1E2532"/>
<path d="M24.921 42.742C19.146 42.742 13.952 37.478 13.959 31.962C13.959 31.192 14.134 30.492 14.918 30.331C15.702 30.17 15.926 30.835 16.15 31.472C16.549 32.55 16.934 33.642 17.417 34.685C19.16 38.444 21.365 39.732 25.495 39.473C31.291 39.109 36.051 33.796 35.82 28.462C35.54 22.001 28.652 18.13 22.359 20.846C19.7924 21.9546 17.7034 23.9394 16.465 26.446C16.129 27.097 15.765 28.063 14.806 27.587C14.015 27.188 14.491 26.327 14.645 25.697C15.835 20.867 22.94 16.772 28.344 17.794C34.105 18.872 37.85 22.981 38.039 28.532C38.305 34.902 34.504 40.481 28.722 42.14C27.5035 42.5756 26.2144 42.7798 24.921 42.742Z" fill="#1E2532"/>
<path d="M44.003 8.5681C44.003 9.3381 43.569 9.5271 42.988 9.0931C40.699 7.3921 38.907 8.5821 37.227 10.0801C35.386 11.7181 33.636 13.4611 31.844 15.1551C31.263 15.7011 30.563 16.2821 29.828 15.6661C29.093 15.0501 29.394 14.0631 29.975 13.4051C32.18 10.9201 34.497 8.5051 37.542 7.0491C38.3636 6.60731 39.286 6.38665 40.2186 6.40874C41.1513 6.43082 42.0621 6.69491 42.862 7.1751C43.1541 7.29242 43.4118 7.48162 43.6113 7.72514C43.8107 7.96866 43.9455 8.25861 44.003 8.5681Z" fill="#1E2532"/>
<path d="M25.705 34.545C23.773 34.545 22.24 33.845 21.379 32.039C21.106 31.465 20.882 30.821 21.547 30.387C22.212 29.953 22.667 30.387 23.136 30.863C25.761 33.586 26.426 32.83 28.827 31.003C29.24 30.688 29.604 30.03 30.171 30.429C30.738 30.828 30.514 31.507 30.171 32.06C29.7029 32.8231 29.046 33.4527 28.2637 33.888C27.4815 34.3233 26.6002 34.5495 25.705 34.545Z" fill="#1E2532"/>
<path d="M13.35 45.857C13.3373 46.0034 13.2911 46.1449 13.215 46.2706C13.1389 46.3963 13.0349 46.5028 12.9112 46.582C12.7874 46.6611 12.647 46.7108 12.501 46.7271C12.355 46.7434 12.2072 46.7259 12.069 46.676C10.984 46.452 7.74998 43.288 7.61698 42.259C7.51198 41.475 7.74998 40.859 8.63898 40.81C9.44398 40.747 13.441 44.982 13.35 45.857Z" fill="#1E2532"/>
<path d="M30.416 25.312C30.5841 25.6005 30.6662 25.9311 30.6526 26.2648C30.6389 26.5984 30.5301 26.9212 30.339 27.195C30.191 27.4114 29.9853 27.5818 29.7452 27.687C29.5051 27.7922 29.2403 27.8279 28.981 27.79C28.7667 27.7864 28.5556 27.7382 28.3611 27.6483C28.1666 27.5585 27.9929 27.4291 27.8513 27.2683C27.7096 27.1076 27.6031 26.919 27.5385 26.7148C27.4738 26.5105 27.4525 26.295 27.476 26.082C27.4741 25.8678 27.5192 25.6558 27.6079 25.4608C27.6966 25.2658 27.8269 25.0925 27.9896 24.9532C28.1523 24.8138 28.3435 24.7117 28.5498 24.654C28.7561 24.5963 28.9725 24.5843 29.1839 24.619C29.4317 24.6184 29.6753 24.6819 29.8912 24.8033C30.1071 24.9247 30.2879 25.1 30.416 25.312Z" fill="#1E2532"/>
<path d="M21.75 24.9691C22.0332 24.7881 22.3655 24.699 22.7013 24.714C23.0371 24.7291 23.36 24.8475 23.626 25.0531C23.8316 25.2046 23.99 25.4113 24.0829 25.6492C24.1758 25.887 24.1994 26.1464 24.151 26.3971C24.1457 26.5925 24.0995 26.7846 24.0155 26.9611C23.9314 27.1376 23.8113 27.2945 23.663 27.4218C23.5146 27.5491 23.3412 27.6438 23.154 27.7C22.9668 27.7562 22.7699 27.7726 22.576 27.7481C22.3616 27.7476 22.15 27.7 21.9561 27.6086C21.7622 27.5173 21.5907 27.3844 21.4538 27.2195C21.3169 27.0545 21.2179 26.8615 21.1639 26.6541C21.1098 26.4467 21.102 26.2299 21.141 26.0191C21.1572 25.8096 21.2203 25.6064 21.3257 25.4247C21.4312 25.2429 21.5762 25.0872 21.75 24.9691Z" fill="#1E2532"/>
</g>
<defs>
<clipPath id="clip0_35_2747">
<rect width="51.8" height="45.423" fill="white" transform="translate(2.84998 5.6001)"/>
</clipPath>
</defs>
</svg>
