<svg width="57" height="56" viewBox="0 0 57 56" fill="none" xmlns="http://www.w3.org/2000/svg">
<g clip-path="url(#clip0_35_2752)">
<path d="M30.4423 7.76736C29.8088 7.25293 26.6129 4.72705 22.6378 5.4524C21.6724 5.63124 20.7473 5.97971 19.9063 6.48127C19.6175 6.33209 16.7611 4.91739 13.9228 6.35267C11.6244 7.51015 9.5263 10.3794 10.5409 13.2975C11.3942 15.7514 14.1374 17.3539 17.0446 16.8986C16.7052 20.0416 16.9253 23.2191 17.695 26.287C18.1313 28.0148 18.7414 29.6951 19.516 31.3028C17.2023 33.083 15.1835 35.2092 13.5326 37.6046C11.0084 41.2972 9.4038 45.528 8.84991 49.9511C13.8162 50.6276 19.2559 51.1433 25.1092 51.3658C30.7025 51.5793 35.9536 51.4944 40.8249 51.2269C41.9821 51.1627 43.1123 50.8561 44.1406 50.3273C45.1689 49.7986 46.0718 49.0598 46.7895 48.1599C47.5071 47.26 48.0232 46.2196 48.3034 45.1076C48.5835 43.9956 48.6215 42.8374 48.4147 41.7098C48.4082 41.67 48.4004 41.6314 48.3926 41.5915C48.1325 40.2475 47.7292 38.2837 46.1813 36.3185C45.1994 35.0823 43.9565 34.0728 42.5392 33.3605C41.4931 32.7197 40.6942 31.7509 40.2698 30.6087C39.8454 29.4665 39.8201 28.2168 40.1979 27.0587C41.5592 26.6162 42.7732 25.816 43.7099 24.7437C44.3954 23.9489 45.717 22.4146 45.4009 20.4996C45.1173 18.7827 43.6137 17.3526 41.6287 16.77C41.6821 16.5835 42.8241 12.2687 39.8077 9.18206C37.4663 6.79122 33.6577 6.18547 30.4423 7.76736Z" fill="white"/>
<path d="M30.9523 45.1614C30.5725 44.935 28.4913 43.9061 29.0012 42.611C28.771 42.5982 28.5368 42.5853 28.3014 42.575C26.5662 42.4979 24.8258 42.4786 23.0984 42.3178C22.448 42.2561 21.7833 41.941 21.224 41.5886C19.9142 40.7642 19.507 39.2466 20.2368 37.9104C20.7844 36.9072 20.8429 35.9813 20.1808 35.0334C20.0338 34.8225 19.9545 34.564 19.8153 34.2618C18.5224 35.009 17.3283 35.8334 16.3319 36.9162C14.8953 38.4927 13.7824 40.3303 13.0553 42.3268C12.1981 44.6418 11.5178 47.0146 10.7621 49.3643C10.7023 49.5993 10.6303 49.8311 10.5462 50.0588C10.3991 50.4181 10.1308 50.7161 9.78672 50.902C9.44267 51.0879 9.04413 51.1503 8.65881 51.0787C7.87056 50.9346 7.18377 50.2196 7.26051 49.4067C7.37003 48.3695 7.55477 47.3414 7.81333 46.3304C8.52744 43.4213 9.75014 40.7153 11.2135 38.0994C12.8017 35.27 14.9856 33.0091 17.8278 31.4015C18.2687 31.152 18.326 30.9231 18.1256 30.4768C16.4633 26.7741 15.9352 22.8786 16.1433 18.8608C16.1433 18.7322 16.1433 18.6036 16.1433 18.4364C15.7778 18.4043 15.4253 18.3786 15.0728 18.3425C13.9362 18.217 12.8673 17.7446 12.0147 16.9909C11.8499 16.8357 11.6762 16.6902 11.4944 16.5549C7.77039 14.0689 8.63279 8.70974 11.3826 6.44365C13.1087 5.02124 15.0559 4.23286 17.2958 4.20714C18.1191 4.19685 18.9451 4.3126 19.7672 4.36018C19.9126 4.37616 20.0597 4.35259 20.1925 4.29202C22.2243 3.13454 24.286 3.37632 26.3763 4.11454C27.9931 4.68556 29.6021 5.29903 31.2554 5.74144C32.3571 6.03467 33.5304 6.08097 34.6763 6.19929C36.1501 6.35233 37.5952 6.62241 38.935 7.2616C41.0279 8.26218 42.0568 10.091 42.6265 12.1925C42.8997 13.1969 42.7709 16.2912 42.914 16.326C44.9769 16.834 45.985 18.3078 46.3948 20.2061C46.8097 22.1236 45.5298 26.279 42.8905 27.1265C42.2571 27.3092 41.6848 27.0417 41.4597 26.5285C41.2347 26.0154 41.4272 25.5614 42.0086 25.1537C42.8073 24.5942 42.6044 24.7164 43.3276 24.0721C44.1471 23.3416 44.6049 22.3641 44.7844 21.2787C44.9297 20.4964 44.7743 19.6887 44.3487 19.0139C43.5305 17.7124 42.3546 17.4461 41.0604 18.2911C40.6207 18.5779 40.6169 18.6229 40.2019 18.9483C38.7711 20.071 37.3819 19.8653 35.8119 18.9611C34.2692 18.0725 33.321 16.2321 33.5876 14.609C33.667 14.1216 33.8946 13.7088 34.4279 13.5892C34.9924 13.4606 35.3761 13.7319 35.6467 14.1936C35.8743 14.5794 36.0811 14.9807 36.2971 15.3717C36.5009 15.7432 36.7788 16.07 37.1139 16.3324C37.449 16.5948 37.8344 16.7873 38.2469 16.8983C39.2875 17.1928 40.0679 16.5857 40.8848 16.1472C40.9407 16.1176 40.9615 15.9401 40.9342 15.8514C40.5232 14.5139 40.1668 13.157 39.666 11.8529C39.0091 10.1489 37.6264 9.28076 35.8405 9.10842C34.5281 8.97981 33.0686 9.64858 31.7549 9.70775C30.0938 9.78234 26.5389 6.21858 22.6652 6.63784C21.7833 6.73301 20.9457 7.06225 20.4657 7.77346C19.6852 8.93094 17.3036 6.73302 14.1818 8.53355C13.2465 9.0737 12.8212 10.5566 12.5949 11.579C12.418 12.3764 12.5767 13.575 13.2713 14.0637C14.598 14.9949 16.1537 14.7158 17.7016 14.4341C18.5952 14.2708 19.4732 13.9197 20.3031 13.5339C21.5734 12.9265 23.0298 12.8194 24.377 13.2342C25.1575 13.4606 26.1382 13.7486 26.9291 13.9313C28.6201 14.3171 27.9697 16.3748 25.3682 16.2462C25.151 16.2359 24.2912 16.1883 24.0883 16.2462C22.4428 16.7388 20.8078 17.2635 19.1623 17.7548C18.7253 17.8834 18.5601 18.1123 18.5887 18.5612C18.7084 20.4993 18.8111 21.7957 18.91 23.7364C18.9282 24.1119 19.0466 24.2225 19.4615 24.2033C20.6881 24.1441 21.9199 24.1737 23.1478 24.1377C23.8867 24.1145 24.3289 25.1074 24.5604 25.7568C25.3227 27.893 25.9809 30.0562 26.3034 32.3056C26.3634 32.6177 26.3951 32.9345 26.3984 33.2522C26.3763 33.8335 26.0082 34.2592 25.5139 34.3441C25.2594 34.3949 24.9949 34.3526 24.7695 34.2251C24.5441 34.0976 24.3732 33.8935 24.2886 33.6509C24.0862 33.1479 23.9316 32.6273 23.8268 32.096C23.46 30.244 23.1131 28.3882 22.7862 26.5285C22.7316 26.2173 22.6067 26.1157 22.3193 26.1067C21.4491 26.0797 20.5802 26.0308 19.7178 26.0166C19.2417 26.0166 18.9529 26.2571 19.0218 26.7536C19.1142 27.4198 19.2131 28.0872 19.3705 28.7393C19.8385 30.7072 20.569 32.605 21.5427 34.3826C21.8744 34.982 22.3232 35.5157 22.6093 35.9182C24.7087 35.6919 26.6702 35.4372 28.6409 35.2752C30.6115 35.1131 32.56 35.0656 34.3759 34.973C34.225 33.1994 34.0065 31.4208 33.9518 29.6357C33.9245 28.7573 34.1339 27.8519 34.3642 26.9928C34.5345 26.4383 34.8109 25.9214 35.1784 25.4701C36.7614 23.4303 39.3941 23.7248 40.4686 26.0668C40.7209 26.6172 40.8393 27.2423 40.9381 27.8455C41.0255 28.4195 41.0616 29.0001 41.0461 29.5804C41.0266 30.7379 41.5079 31.5764 42.5224 32.1667C43.3523 32.649 44.1406 33.1956 44.9418 33.7332C46.2556 34.6051 47.0087 35.8938 47.5927 37.2944C47.8607 37.9374 47.676 38.5187 47.1791 38.8377C46.6822 39.1566 46.0553 39.0846 45.5922 38.5624C45.0953 38.003 44.6973 37.3587 44.2199 36.7812C43.6112 36.0468 42.979 35.3318 42.3325 34.6309C42.0554 34.3493 41.7576 34.0883 41.4415 33.8502C40.1538 32.8072 39.4462 31.4555 39.1275 29.8479C38.9396 28.9338 38.6719 28.0374 38.3275 27.169C38.0297 26.3973 37.4742 26.3356 37.0619 27.0532C36.699 27.6847 36.4115 28.4293 36.3504 29.1444C36.2203 30.7057 36.2554 32.2799 36.258 33.8489C36.258 34.7736 36.5286 35.7459 35.8301 36.5343C35.5491 36.8507 35.1563 37.1979 34.7648 37.2699C32.5028 37.6866 30.2317 38.0686 27.9515 38.3747C26.4946 38.5702 25.0144 38.5984 23.5472 38.7335C23.1534 38.7743 22.769 38.8781 22.409 39.0409C22.1983 39.1347 21.9095 39.3997 21.9251 39.5643C21.95 39.6947 22.0057 39.8175 22.0878 39.9226C22.1699 40.0276 22.2759 40.112 22.3973 40.1688C22.9449 40.345 23.5328 40.5083 24.1026 40.498C25.5178 40.4723 26.933 40.3398 28.3482 40.2652C29.2587 40.2176 30.1615 40.1662 31.0681 40.1739C32.0905 40.1829 31.6378 41.6761 31.7445 42.7345C31.8745 44.0206 33.5473 43.3776 33.3054 44.6636C33.2676 44.8656 31.8745 46.5928 33.507 47.286C34.4396 47.6628 35.0119 48.2454 35.1017 49.2588C35.1394 49.6897 35.4646 49.8594 35.8405 49.9122C36.5325 50.0099 37.2284 50.0768 37.9217 50.1527C38.0895 50.172 38.2638 50.1527 38.4303 50.1861C39.1145 50.2967 39.5489 50.7391 39.5567 51.3204C39.5607 51.4714 39.5341 51.6215 39.4783 51.7621C39.4225 51.9026 39.3388 52.0306 39.232 52.1386C39.1253 52.2465 38.9977 52.3322 38.8569 52.3904C38.716 52.4487 38.5648 52.4785 38.4121 52.4779C37.326 52.4856 36.219 52.4586 35.1602 52.2657C33.9154 52.0406 33.1063 51.1803 32.9177 49.9508C32.8124 49.2627 32.5275 48.8756 31.9669 48.5142C31.2111 48.0242 30.8482 47.2603 30.8612 46.3548C30.8612 45.9806 30.9172 45.5909 30.9523 45.1614Z" fill="#1E2532"/>
<path d="M26.3255 23.4909C26.1541 23.2982 26.0445 23.0595 26.0107 22.8051C25.9769 22.5506 26.0203 22.292 26.1355 22.0621C26.2992 21.6961 26.4992 21.3472 26.7326 21.0203C28.6317 18.5356 32.8981 18.7542 34.5605 21.3984C34.7816 21.7495 34.8284 22.1148 34.4968 22.4157C34.1651 22.7167 33.7904 22.673 33.4666 22.4055C33.0893 22.0968 32.2634 20.8853 30.8495 21.0641C30.348 21.1619 29.8722 21.3608 29.4519 21.6484C29.0316 21.9361 28.6758 22.3063 28.4066 22.736C28.2128 23.0318 28.0164 23.3945 27.7316 23.5424C27.4012 23.7095 26.9108 23.8086 26.5895 23.6851C26.4873 23.6418 26.3968 23.5752 26.3255 23.4909Z" fill="#1E2532"/>
<path d="M30.9015 26.8542C30.1965 26.867 29.6372 26.305 29.6189 25.5681C29.6127 25.4047 29.6392 25.2417 29.6969 25.0885C29.7546 24.9353 29.8423 24.7949 29.9551 24.6754C30.0679 24.5559 30.2035 24.4596 30.3541 24.3921C30.5047 24.3245 30.6673 24.2871 30.8325 24.282C31.1756 24.2857 31.5045 24.418 31.7527 24.6522C32.0009 24.8864 32.1499 25.205 32.1697 25.5436C32.1716 25.8821 32.0404 26.2081 31.8038 26.4526C31.5671 26.6972 31.2435 26.8411 30.9015 26.8542Z" fill="#1E2532"/>
<path d="M21.5972 28.7305C21.4552 28.7329 21.314 28.7076 21.1819 28.656C21.0497 28.6044 20.9292 28.5275 20.8271 28.4298C20.725 28.3321 20.6434 28.2155 20.587 28.0865C20.5305 27.9576 20.5003 27.819 20.4981 27.6785C20.4825 27.083 20.8883 26.6226 21.4216 26.6111C22.0083 26.5982 22.617 27.1718 22.617 27.7377C22.6146 28.0029 22.5059 28.2564 22.3147 28.4426C22.1236 28.6287 21.8655 28.7322 21.5972 28.7305Z" fill="#1E2532"/>
</g>
<defs>
<clipPath id="clip0_35_2752">
<rect width="41.3" height="49" fill="white" transform="translate(7.25 3.5)"/>
</clipPath>
</defs>
</svg>
