<svg width="57" height="56" viewBox="0 0 57 56" fill="none" xmlns="http://www.w3.org/2000/svg">
<g clip-path="url(#clip0_35_2757)">
<path d="M27.7391 30.9313C28.7629 30.2851 29.152 29.015 28.5899 27.7519C27.7041 25.7623 26.8369 23.7514 25.7851 21.8445C24.0473 18.7029 22.1844 15.631 20.3297 12.5568C19.8542 11.7481 19.2811 11.0023 18.6235 10.3367C17.2339 8.96975 15.045 9.32301 14.0657 11.0078C13.8737 11.3498 13.7193 11.7119 13.6052 12.0877C11.8756 17.5769 10.3037 23.111 9.04737 28.7326C8.16775 32.663 7.29086 36.5942 6.4167 40.5262C5.93053 42.6907 5.44163 44.8537 4.95001 47.015V47.6058C4.98527 47.6731 5.0146 47.7435 5.03766 47.8161C5.2153 48.6431 5.65706 49.2492 6.53239 49.3201C7.40773 49.391 7.81092 48.7731 8.22112 48.0972C9.315 46.2919 9.88298 44.2893 10.4416 42.2843C11.3134 39.1841 12.149 36.0732 13.0127 32.9718C13.0875 32.715 13.232 32.4845 13.4299 32.3066C14.9013 31.0649 16.403 29.8834 17.8498 28.6251C18.9951 27.6279 20.0703 26.5527 21.2238 25.4728C21.4026 25.7517 21.5744 26.0305 21.7578 26.2999C22.6507 27.6362 23.4887 29.0173 24.4575 30.291C25.3211 31.4311 26.6511 31.6202 27.7391 30.9313ZM14.7178 27.1009L14.5495 27.0312C15.3968 24.0621 16.2452 21.0942 17.1463 17.9337L19.701 22.7389L14.7178 27.1009Z" fill="#202124"/>
<path d="M29.2584 19.3385C29.3666 19.3382 29.4746 19.3279 29.5809 19.3078C29.747 19.2755 29.9083 19.2223 30.0613 19.1495C30.515 18.9225 30.9456 18.651 31.3468 18.339C32.1964 17.7033 33.0238 17.0689 33.9003 16.3978L34.4578 15.9713L34.4765 16.002C34.7231 16.3931 34.9662 16.7865 35.2116 17.1835C35.755 18.0601 36.3183 18.9675 36.8992 19.8466C37.3923 20.5897 38.1286 21.0162 38.9186 21.0162C39.0582 21.0161 39.1975 21.0031 39.3347 20.9772C39.588 20.9289 39.8321 20.8404 40.0581 20.715C41.1975 20.084 41.5972 18.7478 41.0105 17.5367C40.286 16.0433 39.4796 14.5688 38.6989 13.1428L38.533 12.8415C39.3931 12.1787 40.3047 11.4485 41.3997 10.5458C42.0425 10.0165 42.7075 9.46833 43.3339 8.85631C43.6085 8.60317 43.8004 8.2715 43.884 7.90542C43.9676 7.53934 43.939 7.15619 43.802 6.80694C43.665 6.45769 43.426 6.1589 43.117 5.95029C42.8079 5.74168 42.4433 5.63314 42.0717 5.63911C41.9439 5.6392 41.8164 5.65105 41.6907 5.67454C41.5248 5.70614 41.3629 5.75647 41.208 5.8246C41.0357 5.89766 40.8695 5.98499 40.7114 6.0857C39.3043 7.00254 37.8991 7.92136 36.496 8.84213L36.1173 9.09143L35.866 8.73698C35.4371 8.14623 35.0328 7.57676 34.6062 7.01319L34.4753 6.84068C33.9751 6.17904 33.4574 5.49496 32.8813 4.86522C32.6606 4.60943 32.3778 4.41624 32.0608 4.30477C31.7437 4.19329 31.4033 4.16738 31.0733 4.22958C30.8574 4.27086 30.6494 4.34706 30.4574 4.45525C30.0689 4.67815 29.7667 5.02785 29.6005 5.44707C29.4342 5.86629 29.4137 6.33018 29.5424 6.76271C29.7491 7.47552 30.021 8.16731 30.3546 8.82914C30.8115 9.75661 31.2977 10.6817 31.7687 11.5773L32.1345 12.2744L31.473 12.8805C30.6479 13.6354 29.7936 14.4164 28.9615 15.2045C28.5282 15.6085 28.1424 16.0616 27.8116 16.5549C27.58 16.8845 27.4713 17.2863 27.5046 17.6892C27.538 18.092 27.7113 18.47 27.9939 18.756C28.1528 18.937 28.3474 19.0823 28.5651 19.1826C28.7829 19.2829 29.0191 19.336 29.2584 19.3385Z" fill="#202124"/>
<path d="M44.9992 25.9701C43.4868 25.3663 41.8769 25.0506 40.2509 25.0391C37.9661 25.0391 35.7001 25.7031 33.5147 27.0133C30.323 28.9274 28.1984 31.2584 27.0192 34.1413C25.1189 38.7893 25.6168 43.1206 28.4882 47.0054C30.8069 50.1422 34.085 51.7999 37.9661 51.7999C38.6164 51.7984 39.2659 51.7553 39.9108 51.6711C43.2818 51.2186 46.3976 49.6119 48.739 47.1188C51.2235 44.4805 52.5769 41.0707 52.5477 37.5192C52.654 32.4139 49.6213 27.773 44.9992 25.9701ZM40.2836 47.6918C39.554 47.8796 38.8043 47.9756 38.0514 47.9777C34.2451 47.9777 31.1049 45.4742 30.2365 41.7489C30.136 41.2703 30.0657 40.7857 30.0262 40.298C30.0028 40.0724 29.9783 39.8408 29.949 39.6104C29.9023 34.7214 33.6794 31.0564 37.2147 29.719C38.0709 29.3928 38.9783 29.2255 39.8933 29.2251C43.8422 29.2251 47.2244 32.2509 47.7596 36.2632C48.4363 41.3437 45.0822 46.4666 40.2836 47.6918Z" fill="#202124"/>
<path d="M42.6397 39.8504C42.3475 39.8537 42.0592 39.9189 41.7935 40.0419C41.2256 40.2947 40.6319 40.5794 40.0265 40.889C39.48 41.1823 38.8723 41.3402 38.2536 41.3498C37.5209 41.3498 36.7706 41.1016 36.0226 40.6137C35.8544 40.5026 35.6826 40.3774 35.5108 40.2592C35.2307 40.0501 34.94 39.8557 34.6401 39.6768C34.3909 39.5326 34.1091 39.4561 33.822 39.4547C33.6167 39.4503 33.4131 39.4924 33.2259 39.5777C33.0387 39.6631 32.8728 39.7897 32.7402 39.9482C32.6076 40.1067 32.5116 40.2932 32.4594 40.494C32.4072 40.6948 32.4 40.9048 32.4383 41.1087C32.5502 41.8179 32.8595 42.4801 33.33 43.018C34.5478 44.333 36.0904 44.9084 38.4956 44.9427H38.5037C40.0359 44.9214 41.9081 44.131 43.5115 42.829C44.2501 42.2288 44.4336 41.3273 43.9673 40.5842C43.828 40.3559 43.6323 40.1682 43.3996 40.0396C43.1668 39.911 42.9049 39.8458 42.6397 39.8504Z" fill="#202124"/>
<path d="M35.6592 37.563H35.6662C36.8583 37.563 37.7897 36.6497 37.7874 35.4942C37.7891 35.2226 37.7372 34.9535 37.6349 34.7024C37.5325 34.4513 37.3816 34.2234 37.1911 34.032C37.0005 33.8406 36.7741 33.6895 36.5252 33.5876C36.2762 33.4857 36.0096 33.4349 35.741 33.4384H35.7281C34.5782 33.4455 33.6 34.399 33.5907 35.5214C33.5884 35.7842 33.6377 36.0448 33.7358 36.2882C33.8339 36.5315 33.9788 36.7528 34.1621 36.9392C34.358 37.1387 34.5913 37.2967 34.8484 37.4038C35.1055 37.511 35.3811 37.5651 35.6592 37.563Z" fill="#202124"/>
<path d="M42.4842 34.0515H42.4643C42.0749 34.0524 41.6942 34.169 41.3697 34.3868C41.0453 34.6046 40.7913 34.914 40.6394 35.2766C40.4874 35.6392 40.4443 36.0389 40.5153 36.4261C40.5862 36.8132 40.7682 37.1708 41.0386 37.4542C41.2192 37.6389 41.4343 37.7854 41.6715 37.8852C41.9086 37.985 42.1631 38.0361 42.4199 38.0355H42.4269C43.5033 38.0355 44.3915 37.1766 44.4067 36.1215C44.412 35.572 44.2019 35.0427 43.8223 34.6493C43.6498 34.4648 43.4426 34.3168 43.2128 34.2142C42.9831 34.1115 42.7354 34.0562 42.4842 34.0515Z" fill="#202124"/>
</g>
<defs>
<clipPath id="clip0_35_2757">
<rect width="47.6" height="47.6" fill="white" transform="translate(4.95001 4.19995)"/>
</clipPath>
</defs>
</svg>
