<svg width="57" height="56" viewBox="0 0 57 56" fill="none" xmlns="http://www.w3.org/2000/svg">
<g clip-path="url(#clip0_35_2762)">
<path d="M48.3612 24.9827C47.451 23.8208 45.2528 21.0286 44.4881 20.2144C44.3442 20.0641 44.17 19.9456 43.9769 19.8668C43.7837 19.7879 43.576 19.7504 43.3672 19.7567C42.8672 19.7676 42.383 19.9331 41.9822 20.2301C41.6443 20.4742 41.4018 20.8268 41.296 21.2282C41.1902 21.6295 41.2274 22.0549 41.4015 22.4321C41.5572 22.8054 41.7459 23.1643 41.9654 23.5046C42.3037 24.0054 42.7954 24.8137 43.2287 25.5278C43.5255 26.012 43.7699 26.4176 43.9212 26.6523C41.1769 28.6981 38.4297 30.8991 35.7704 33.0284C33.1805 35.1036 29.9099 37.6444 27.2843 39.6018C24.8239 36.0268 22.1004 32.4519 19.4689 28.9947C16.8373 25.5376 14.1188 21.9744 11.6534 18.4004C11.7237 18.3601 12.3717 17.9329 12.4192 17.8965L13.4005 17.1423L13.453 17.103C13.9898 16.6905 14.5267 16.2773 15.0635 15.8635C16.8186 14.5052 20.6916 11.4036 20.7253 11.3761C23.0333 9.65934 25.4195 7.88264 24.4312 6.4114C24.2262 6.09134 23.9415 5.82924 23.6045 5.65047C23.2676 5.4717 22.8899 5.3823 22.508 5.39095C21.6374 5.39095 20.9251 5.80247 20.657 5.98024C20.5739 6.03622 20.3384 6.19041 19.9882 6.42023C17.704 7.918 10.7532 12.4781 8.88837 13.8315C8.31063 14.2508 7.74969 14.7085 7.27681 15.1014C6.49428 15.7515 6.91375 17.4497 7.30749 18.0222C10.4515 22.599 13.633 26.9391 16.7147 31.1436C19.8695 35.4484 23.1322 39.8994 26.3385 44.5832C26.5562 44.9005 26.9608 45.4927 27.6978 45.4927C27.9946 45.4927 28.3013 45.3945 28.7247 45.1814C28.9785 45.0463 29.219 44.8878 29.4429 44.708C32.6393 42.1898 35.9169 39.5616 39.0875 37.0198L39.1133 36.9992C42.2493 34.4859 45.4922 31.8861 48.6194 29.421C49.5404 28.6952 50.0202 27.1021 48.3612 24.9827Z" fill="#202124"/>
<path d="M27.344 11.7204C27.8129 11.9031 28.2848 12.1133 28.7419 12.3264C29.1 12.4894 29.47 12.6574 29.844 12.8175C29.9607 13.2919 29.8272 14.9644 29.7619 15.7943C29.7203 16.3159 29.6837 16.7676 29.6748 17.0918C29.6441 18.1721 30.1793 18.6818 30.6344 18.9205C30.8046 19.0077 30.9939 19.0519 31.1855 19.0492C31.7167 19.0492 32.339 18.7398 32.7683 18.2634C32.9157 18.1004 33.1561 17.8234 33.4351 17.5033C33.9881 16.8678 34.7449 15.9977 35.0338 15.7187C35.2231 15.5436 35.468 15.4394 35.7263 15.4241C35.847 15.4254 35.965 15.4593 36.0676 15.5223L36.0993 15.5409L36.1339 15.5537C36.5553 15.7197 37.1103 16.09 37.6475 16.4484C38.1847 16.8069 38.7278 17.1684 39.2007 17.3707C39.4236 17.4686 39.6643 17.5201 39.908 17.5219C40.7193 17.5219 41.3119 16.9385 41.3485 16.1037C41.3722 15.5694 41.1635 14.8269 40.9616 14.1168C40.8311 13.6523 40.6955 13.1711 40.6649 12.8735V12.8371L40.5659 12.4443C40.1583 10.8365 40.1247 10.7049 40.7638 9.96339L40.7757 9.94964C40.927 9.76107 41.1714 9.49686 41.4019 9.24151C41.8965 8.70427 42.2002 8.35758 42.3298 8.11303C42.6781 7.45499 42.6979 6.8058 42.3872 6.28625C42.0904 5.79518 41.5285 5.50054 40.8746 5.48679C40.5956 5.48286 40.3166 5.4809 40.0377 5.4809C39.2165 5.4809 38.3133 5.49857 37.1944 5.53491H37.1608C37.053 5.53491 37.046 5.53491 36.9807 5.4367C36.7345 5.06042 36.5125 4.66908 36.3159 4.26501C36.03 3.70814 35.7342 3.13358 35.3088 2.61796L35.2544 2.54725C34.9101 2.0935 34.3888 1.40796 33.5479 1.40796C33.292 1.41053 33.0403 1.47242 32.8128 1.58868C32.1876 1.89413 31.9739 2.78296 31.7019 3.90948C31.4654 4.89162 31.1983 6.00241 30.6552 6.57991C30.2583 6.76763 29.8446 6.91823 29.4196 7.02974C28.9039 7.16472 28.4038 7.35301 27.9277 7.59152L27.7783 7.66813C27.3618 7.88125 26.8425 8.14544 26.5071 8.43616C25.8383 9.01562 25.5504 9.60196 25.6513 10.1795C25.7671 10.8041 26.332 11.3256 27.344 11.7204ZM32.6921 8.16607C32.9385 7.88223 33.3668 6.63 33.7804 4.82679C33.7982 4.86608 35.0665 7.11125 35.2643 7.47857C35.759 8.39491 38.6952 8.21321 39.1226 8.16607C39.0968 8.1975 37.4685 10.0046 37.4408 10.0321C36.8472 10.6214 38.5626 14.3025 38.6279 14.4518C38.25 14.2553 35.7055 12.1369 35.1416 12.1369C34.2166 12.1369 33.9278 12.8361 33.3847 13.5678C33.3095 13.666 32.2311 15.1913 32.1975 15.2375C32.1975 14.9644 32.1975 12.4266 32.1975 12.1928C32.2163 10.9347 29.5007 9.46151 29.4275 9.44285C30.4168 9.19339 32.2796 8.64044 32.6921 8.16607Z" fill="#202124"/>
<path d="M28.949 31.9755C32.0098 29.7873 33.8875 28.7148 36.1016 26.6671C36.6092 26.2122 37.0756 25.714 37.4955 25.1781C38.0643 24.4307 38.1197 24.031 37.4846 23.3121C37.2942 23.0928 37.0586 22.9166 36.7937 22.7955C36.5288 22.6743 36.2408 22.611 35.9492 22.6099C35.647 22.6109 35.3488 22.678 35.0757 22.8063C34.7761 22.9454 34.4947 23.1202 34.2377 23.3268C33.7187 23.7452 33.1986 24.1629 32.6776 24.58C30.8969 26.0051 29.9511 26.7908 28.1783 28.2866C27.4799 28.8759 26.6459 29.4809 26.0642 30.3717C25.6279 31.0405 26.0731 31.6897 26.6578 32.2378C26.9753 32.5246 28.0428 32.6228 28.949 31.9755Z" fill="#202124"/>
<path d="M28.263 23.7876C28.6697 23.4329 29.058 23.0579 29.4264 22.6641C29.8845 22.1593 30.2307 20.798 28.7062 20.2784C28.0424 20.0496 27.4736 20.4012 26.9789 20.7135C25.7126 21.513 25.1982 21.7114 23.5164 22.8968C22.9544 23.3093 22.4294 23.7694 21.9474 24.2718C21.3934 24.8336 21.2549 25.5486 21.5774 26.242C21.7841 26.6899 22.8951 27.2153 23.6935 26.8224C23.9438 26.6987 24.2593 26.5946 24.5532 26.4384C26.2775 25.5172 26.9601 24.9584 28.175 23.8613L28.263 23.7876Z" fill="#202124"/>
<path d="M23.9017 15.0034C23.7759 15.004 23.6506 15.0175 23.5277 15.0437C23.188 15.1106 22.8642 15.2406 22.573 15.4267L22.0932 15.7499C21.2226 16.3391 20.3234 16.9402 19.4854 17.6081C18.8998 18.0746 18.4249 18.6678 17.9501 19.2865C17.5444 19.813 17.5326 20.4965 17.9164 21.0691C18.0209 21.2318 18.157 21.3721 18.3166 21.482C18.4763 21.592 18.6563 21.6693 18.8464 21.7095C18.9729 21.7386 19.1023 21.7531 19.2322 21.7527C19.5154 21.7505 19.7946 21.6868 20.0503 21.5661C20.239 21.4806 20.4186 21.3766 20.5865 21.2557C21.9824 20.2127 23.2042 19.2777 24.3221 18.3948C24.6692 18.1161 24.9697 17.7846 25.2125 17.4126C25.3629 17.1769 25.4474 16.9056 25.4572 16.6266C25.467 16.3477 25.4019 16.0712 25.2684 15.8256C25.1349 15.58 24.9379 15.374 24.6977 15.229C24.4575 15.084 24.1827 15.0051 23.9017 15.0005V15.0034Z" fill="#202124"/>
<path d="M26.8562 53.1959C26.5505 53.1962 26.2486 53.1278 25.9733 52.9958C25.6979 52.8638 25.4563 52.6717 25.2664 52.4337C21.1925 47.3325 17.7547 42.575 14.8126 38.448C11.9021 34.3663 8.89164 30.145 4.88698 25.1302C4.71859 24.9195 4.59444 24.6774 4.52187 24.4182C4.44929 24.1591 4.42977 23.8881 4.46444 23.6213C4.49912 23.3545 4.58729 23.0974 4.72375 22.865C4.86021 22.6326 5.04219 22.4297 5.25895 22.2683L9.21612 19.3219C9.42918 19.1632 9.67164 19.0478 9.92964 18.9822C10.1876 18.9166 10.4561 18.902 10.7198 18.9394C10.9834 18.9768 11.2371 19.0654 11.4662 19.2001C11.6954 19.3348 11.8956 19.513 12.0554 19.7245C12.2152 19.9361 12.3315 20.1768 12.3976 20.4329C12.4637 20.689 12.4783 20.9556 12.4406 21.2173C12.403 21.4791 12.3137 21.7309 12.178 21.9584C12.0424 22.1859 11.8629 22.3846 11.6498 22.5433L9.35166 24.2542C12.7954 28.6502 15.4991 32.4423 18.1227 36.1223C20.7285 39.7769 23.8102 44.0345 27.2183 48.3814L47.3939 33.1769C47.6058 33.0131 47.8482 32.8926 48.1073 32.8226C48.3664 32.7525 48.6369 32.7342 48.9031 32.7687C49.1694 32.8033 49.4261 32.8899 49.6583 33.0238C49.8906 33.1576 50.0937 33.3358 50.256 33.5482C50.4183 33.7605 50.5365 34.0028 50.6038 34.2609C50.671 34.5189 50.686 34.7877 50.6478 35.0516C50.6096 35.3154 50.519 35.5691 50.3813 35.798C50.2435 36.0268 50.0614 36.2262 49.8454 36.3846L28.081 52.7863C27.729 53.0525 27.2987 53.1964 26.8562 53.1959Z" fill="#202124"/>
</g>
<defs>
<clipPath id="clip0_35_2762">
<rect width="46.2" height="51.8" fill="white" transform="translate(4.45 1.3999)"/>
</clipPath>
</defs>
</svg>
