<svg width="40" height="40" viewBox="0 0 40 40" fill="none" xmlns="http://www.w3.org/2000/svg">
<g clip-path="url(#clip0_114_3676)">
<path d="M20 32C27.732 32 34 25.732 34 18C34 10.268 27.732 4 20 4C12.268 4 6 10.268 6 18C6 25.732 12.268 32 20 32Z" fill="#E95440"/>
<path d="M32.5092 5.18145C29.1679 1.84016 24.7253 0 19.9999 0C15.2745 0 10.8319 1.84016 7.49061 5.18145C4.14924 8.5229 2.30908 12.9654 2.30908 17.6908C2.30908 26.0273 8.13718 33.2245 16.2337 34.9784L19.9999 40L23.7661 34.9783C31.8626 33.2244 37.6907 26.0273 37.6907 17.6908C37.6907 12.9654 35.8505 8.5229 32.5092 5.18145ZM19.9999 4.6184C27.1649 4.6184 32.994 10.4476 32.994 17.6125C32.994 24.7775 27.1649 30.6067 19.9999 30.6067C12.8349 30.6067 7.00576 24.7775 7.00576 17.6125C7.00576 10.4476 12.8349 4.6184 19.9999 4.6184Z" fill="#E95440"/>
</g>
<path d="M15.364 23L18.976 13.2H20.6L24.184 23H22.616L21.776 20.606H17.772L16.932 23H15.364ZM18.192 19.43H21.356L19.774 14.964L18.192 19.43Z" fill="white"/>
<defs>
<clipPath id="clip0_114_3676">
<rect width="40" height="40" fill="white"/>
</clipPath>
</defs>
</svg>
