<svg width="72" height="72" viewBox="0 0 72 72" fill="none" xmlns="http://www.w3.org/2000/svg">
<rect x="0.5" y="0.5" width="71" height="71" rx="35.5" stroke="#E5E5E5"/>
<path d="M44.3329 36C44.3329 36.4608 43.9604 36.8333 43.4995 36.8333H30.5112L34.922 41.2442C35.2479 41.57 35.2479 42.0967 34.922 42.4226C34.7595 42.5851 34.5462 42.6667 34.3329 42.6667C34.1195 42.6667 33.9062 42.5851 33.7437 42.4226L27.9104 36.5892C27.5846 36.2634 27.5846 35.7367 27.9104 35.4108L33.7437 29.5775C34.0696 29.2517 34.5962 29.2517 34.922 29.5775C35.2479 29.9033 35.2479 30.4301 34.922 30.7559L30.5112 35.1667H43.4995C43.9604 35.1667 44.3329 35.5392 44.3329 36Z" fill="#181A1F"/>
</svg>
