<svg width="72" height="72" viewBox="0 0 72 72" fill="none" xmlns="http://www.w3.org/2000/svg">
<rect x="0.5" y="0.5" width="71" height="71" rx="35.5" fill="#FDEEEC" stroke="#181A1F"/>
<path d="M44.0884 35.4108L38.2551 29.5774C38.0926 29.4149 37.8794 29.3333 37.666 29.3333C37.4527 29.3333 37.2394 29.4149 37.0769 29.5774C36.751 29.9033 36.751 30.43 37.0769 30.7558L41.4877 35.1667L28.4993 35.1667C28.0385 35.1667 27.666 35.5392 27.666 36C27.666 36.4608 28.0385 36.8333 28.4993 36.8333L41.4877 36.8333L37.0769 41.2441C36.751 41.5699 36.751 42.0967 37.0769 42.4225C37.4027 42.7483 37.9293 42.7483 38.2551 42.4225L44.0884 36.5892C44.4143 36.2633 44.4143 35.7366 44.0884 35.4108Z" fill="#181A1F"/>
</svg>
