<svg width="40" height="40" viewBox="0 0 40 40" fill="none" xmlns="http://www.w3.org/2000/svg">
<g clip-path="url(#clip0_114_3686)">
<path d="M20 32C27.732 32 34 25.732 34 18C34 10.268 27.732 4 20 4C12.268 4 6 10.268 6 18C6 25.732 12.268 32 20 32Z" fill="#E95440"/>
<path d="M32.5092 5.18145C29.1679 1.84016 24.7253 0 19.9999 0C15.2745 0 10.8319 1.84016 7.49061 5.18145C4.14924 8.5229 2.30908 12.9654 2.30908 17.6908C2.30908 26.0273 8.13718 33.2245 16.2337 34.9784L19.9999 40L23.7661 34.9783C31.8626 33.2244 37.6907 26.0273 37.6907 17.6908C37.6907 12.9654 35.8505 8.5229 32.5092 5.18145ZM19.9999 4.6184C27.1649 4.6184 32.994 10.4476 32.994 17.6125C32.994 24.7775 27.1649 30.6067 19.9999 30.6067C12.8349 30.6067 7.00576 24.7775 7.00576 17.6125C7.00576 10.4476 12.8349 4.6184 19.9999 4.6184Z" fill="#E95440"/>
</g>
<path d="M16.994 23V13.2H20.69C21.7073 13.2 22.4773 13.438 23 13.914C23.5227 14.39 23.784 14.9873 23.784 15.706C23.784 16.3313 23.616 16.8307 23.28 17.204C22.944 17.568 22.538 17.8153 22.062 17.946C22.4353 18.0207 22.7667 18.17 23.056 18.394C23.3547 18.618 23.588 18.898 23.756 19.234C23.924 19.57 24.008 19.934 24.008 20.326C24.008 20.83 23.882 21.2873 23.63 21.698C23.3873 22.0993 23.028 22.4167 22.552 22.65C22.076 22.8833 21.4927 23 20.802 23H16.994ZM18.478 17.4H20.508C21.0773 17.4 21.5113 17.2693 21.81 17.008C22.1087 16.7373 22.258 16.3687 22.258 15.902C22.258 15.4447 22.1087 15.0807 21.81 14.81C21.5207 14.5393 21.0773 14.404 20.48 14.404H18.478V17.4ZM18.478 21.782H20.606C21.2033 21.782 21.6653 21.642 21.992 21.362C22.328 21.082 22.496 20.69 22.496 20.186C22.496 19.682 22.3233 19.2853 21.978 18.996C21.6327 18.6973 21.166 18.548 20.578 18.548H18.478V21.782Z" fill="white"/>
<defs>
<clipPath id="clip0_114_3686">
<rect width="40" height="40" fill="white"/>
</clipPath>
</defs>
</svg>
