<svg width="16" height="16" viewBox="0 0 16 16" fill="none" xmlns="http://www.w3.org/2000/svg">
<g clip-path="url(#clip0_37_1176)">
<path d="M15.35 10.11L13.93 8.69C13.6249 8.39872 13.2193 8.23619 12.7975 8.23619C12.3757 8.23619 11.9701 8.39872 11.665 8.69L11.165 9.19C10.8257 9.528 10.3664 9.71778 9.88749 9.71778C9.40861 9.71778 8.94924 9.528 8.60999 9.19C8.22499 8.805 7.97999 8.545 7.73499 8.29C7.48999 8.035 7.23499 7.76 6.83499 7.365C6.4973 7.02661 6.30765 6.56807 6.30765 6.09C6.30765 5.61193 6.4973 5.15339 6.83499 4.815L7.33499 4.315C7.4841 4.16703 7.6024 3.99099 7.68307 3.79703C7.76374 3.60308 7.80518 3.39506 7.80499 3.185C7.80318 2.76115 7.6343 2.35512 7.33499 2.055L5.91499 0.625C5.51385 0.225577 4.97108 0.000919443 4.40499 0C4.12615 0.000410905 3.85013 0.0558271 3.59273 0.163075C3.33534 0.270322 3.10163 0.427294 2.90499 0.625L1.54999 1.97C0.573558 2.94779 0.025116 4.27315 0.025116 5.655C0.025116 7.03685 0.573558 8.36221 1.54999 9.34C2.32999 10.12 3.21999 11 4.10499 11.92C4.98999 12.84 5.85999 13.7 6.63499 14.5C7.61258 15.4749 8.93687 16.0224 10.3175 16.0224C11.6981 16.0224 13.0224 15.4749 14 14.5L15.35 13.15C15.747 12.7513 15.9714 12.2126 15.975 11.65C15.9799 11.3644 15.9271 11.0808 15.8197 10.8162C15.7123 10.5516 15.5525 10.3114 15.35 10.11ZM14.595 12.375L14.45 12.5L13 11.045C12.9517 10.99 12.8927 10.9455 12.8265 10.9142C12.7603 10.8829 12.6884 10.8655 12.6153 10.8632C12.5421 10.8608 12.4693 10.8734 12.4012 10.9003C12.3331 10.9272 12.2713 10.9678 12.2196 11.0196C12.1678 11.0713 12.1272 11.1332 12.1003 11.2012C12.0734 11.2693 12.0608 11.3421 12.0632 11.4153C12.0655 11.4884 12.0829 11.5603 12.1142 11.6265C12.1455 11.6927 12.19 11.7517 12.245 11.8L13.72 13.275L13.27 13.725C12.4921 14.5005 11.4384 14.936 10.34 14.936C9.24155 14.936 8.1879 14.5005 7.40999 13.725C6.63999 12.955 5.76499 12.065 4.90999 11.175C4.05499 10.285 3.12999 9.37 2.34999 8.59C1.57446 7.81209 1.13897 6.75845 1.13897 5.66C1.13897 4.56155 1.57446 3.50791 2.34999 2.73L2.79999 2.28L4.22499 3.75C4.32445 3.85277 4.46066 3.91182 4.60365 3.91417C4.74665 3.91651 4.88472 3.86196 4.98749 3.7625C5.09027 3.66304 5.14932 3.52684 5.15166 3.38384C5.15401 3.24084 5.09945 3.10277 4.99999 3L3.49999 1.5L3.64499 1.355C3.74353 1.25487 3.86107 1.17543 3.99072 1.12134C4.12037 1.06725 4.25951 1.03959 4.39999 1.04C4.68345 1.04085 4.95499 1.15414 5.15499 1.355L6.57999 2.8C6.6789 2.8998 6.73457 3.0345 6.73499 3.175C6.73506 3.24462 6.7214 3.31358 6.6948 3.37792C6.66821 3.44226 6.62919 3.50074 6.57999 3.55L6.07999 4.05C5.54262 4.58893 5.24085 5.31894 5.24085 6.08C5.24085 6.84106 5.54262 7.57107 6.07999 8.11C6.49999 8.5 6.72999 8.745 6.99999 9C7.26999 9.255 7.49999 9.53 7.89499 9.92C8.43392 10.4574 9.16393 10.7591 9.92499 10.7591C10.6861 10.7591 11.4161 10.4574 11.955 9.92L12.455 9.42C12.5571 9.32366 12.6921 9.26999 12.8325 9.26999C12.9729 9.26999 13.1079 9.32366 13.21 9.42L14.63 10.84C14.7299 10.9387 14.8092 11.0563 14.8633 11.1859C14.9173 11.3155 14.9451 11.4546 14.945 11.595C14.9424 11.7412 14.9101 11.8853 14.8499 12.0186C14.7897 12.1518 14.703 12.2714 14.595 12.37V12.375Z" fill="white"/>
</g>
<defs>
<clipPath id="clip0_37_1176">
<rect width="16" height="16" fill="white"/>
</clipPath>
</defs>
</svg>
