<svg width="39" height="39" viewBox="0 0 39 39" fill="none" xmlns="http://www.w3.org/2000/svg">
<path d="M14.3702 35.8069C15.2521 35.8069 15.967 35.092 15.967 34.2101C15.967 33.3282 15.2521 32.6133 14.3702 32.6133C13.4883 32.6133 12.7734 33.3282 12.7734 34.2101C12.7734 35.092 13.4883 35.8069 14.3702 35.8069Z" stroke="#88A1AC" stroke-width="2.4" stroke-linecap="round" stroke-linejoin="round"/>
<path d="M31.9366 35.8069C32.8185 35.8069 33.5334 35.092 33.5334 34.2101C33.5334 33.3282 32.8185 32.6133 31.9366 32.6133C31.0548 32.6133 30.3398 33.3282 30.3398 34.2101C30.3398 35.092 31.0548 35.8069 31.9366 35.8069Z" stroke="#88A1AC" stroke-width="2.4" stroke-linecap="round" stroke-linejoin="round"/>
<path d="M1.59766 2.27441H7.98481L12.2642 23.6554C12.4102 24.3906 12.8102 25.0509 13.394 25.5209C13.9778 25.9909 14.7084 26.2406 15.4578 26.2262H30.9786C31.7279 26.2406 32.4585 25.9909 33.0423 25.5209C33.6262 25.0509 34.0261 24.3906 34.1721 23.6554L36.727 10.2584H9.5816" stroke="#88A1AC" stroke-width="2.4" stroke-linecap="round" stroke-linejoin="round"/>
</svg>
