<svg width="62" height="63" viewBox="0 0 62 63" fill="none" xmlns="http://www.w3.org/2000/svg">
<circle opacity="0.2" cx="30" cy="30" r="30" fill="white"/>
<g clip-path="url(#clip0_165_8237)">
<path d="M60.2937 47.5387L56.5662 43.8112C55.7654 43.0466 54.7007 42.62 53.5934 42.62C52.4861 42.62 51.4215 43.0466 50.6206 43.8112L49.3081 45.1237C48.4176 46.011 47.2117 46.5092 45.9547 46.5092C44.6976 46.5092 43.4917 46.011 42.6012 45.1237C41.5906 44.1131 40.9475 43.4306 40.3043 42.7612C39.6612 42.0919 38.9918 41.37 37.9418 40.3331C37.0554 39.4448 36.5576 38.2412 36.5576 36.9862C36.5576 35.7313 37.0554 34.5277 37.9418 33.6394L39.2543 32.3269C39.6457 31.9385 39.9563 31.4763 40.168 30.9672C40.3798 30.4581 40.4886 29.912 40.4881 29.3606C40.4833 28.248 40.04 27.1822 39.2543 26.3944L35.5268 22.6406C34.4738 21.5921 33.0491 21.0024 31.5631 21C30.8311 21.0011 30.1066 21.1465 29.4309 21.4281C28.7553 21.7096 28.1418 22.1216 27.6256 22.6406L24.0687 26.1712C21.5056 28.738 20.0659 32.217 20.0659 35.8444C20.0659 39.4717 21.5056 42.9508 24.0687 45.5175C26.1162 47.565 28.4525 49.875 30.7756 52.29C33.0987 54.705 35.3825 56.9625 37.4168 59.0625C39.983 61.6216 43.4593 63.0588 47.0834 63.0588C50.7076 63.0588 54.1838 61.6216 56.75 59.0625L60.2937 55.5187C61.3358 54.4722 61.925 53.0581 61.9343 51.5812C61.9473 50.8317 61.8086 50.0872 61.5267 49.3925C61.2448 48.6979 60.8254 48.0673 60.2937 47.5387ZM58.3118 53.4844L57.9312 53.8125L54.125 49.9931C53.9982 49.8487 53.8432 49.7318 53.6695 49.6497C53.4958 49.5676 53.3071 49.5221 53.1151 49.5158C52.9231 49.5095 52.7318 49.5428 52.5532 49.6134C52.3745 49.684 52.2122 49.7905 52.0764 49.9264C51.9405 50.0622 51.834 50.2245 51.7633 50.4032C51.6927 50.5819 51.6595 50.7731 51.6658 50.9652C51.672 51.1572 51.7176 51.3459 51.7997 51.5196C51.8818 51.6933 51.9987 51.8483 52.1431 51.975L56.015 55.8469L54.8337 57.0281C52.7917 59.0639 50.0259 60.2071 47.1425 60.2071C44.259 60.2071 41.4932 59.0639 39.4512 57.0281C37.43 55.0069 35.1331 52.6706 32.8887 50.3344C30.6443 47.9981 28.2162 45.5963 26.1687 43.5487C24.133 41.5067 22.9898 38.7409 22.9898 35.8575C22.9898 32.9741 24.133 30.2083 26.1687 28.1663L27.35 26.985L31.0906 30.8438C31.3517 31.1135 31.7092 31.2685 32.0846 31.2747C32.4599 31.2808 32.8224 31.1376 33.0922 30.8766C33.3619 30.6155 33.5169 30.2579 33.5231 29.8826C33.5293 29.5072 33.386 29.1448 33.125 28.875L29.1875 24.9375L29.5681 24.5569C29.8268 24.294 30.1353 24.0855 30.4756 23.9435C30.816 23.8015 31.1812 23.7289 31.55 23.73C32.294 23.7322 33.0068 24.0296 33.5318 24.5569L37.2725 28.35C37.5321 28.612 37.6782 28.9656 37.6793 29.3344C37.6795 29.5171 37.6437 29.6981 37.5738 29.867C37.504 30.0359 37.4016 30.1894 37.2725 30.3187L35.96 31.6313C34.5494 33.0459 33.7572 34.9622 33.7572 36.96C33.7572 38.9578 34.5494 40.8741 35.96 42.2887C37.0625 43.3125 37.6662 43.9556 38.375 44.625C39.0837 45.2944 39.6875 46.0163 40.7243 47.04C42.139 48.4506 44.0553 49.2427 46.0531 49.2427C48.0509 49.2427 49.9672 48.4506 51.3818 47.04L52.6943 45.7275C52.9623 45.4746 53.3168 45.3337 53.6853 45.3337C54.0537 45.3337 54.4083 45.4746 54.6762 45.7275L58.4037 49.455C58.666 49.7141 58.8741 50.0227 59.0161 50.363C59.158 50.7032 59.2309 51.0682 59.2306 51.4369C59.2239 51.8206 59.1389 52.199 58.9809 52.5488C58.823 52.8986 58.5953 53.2125 58.3118 53.4712V53.4844Z" fill="white"/>
</g>
<defs>
<clipPath id="clip0_165_8237">
<rect width="42" height="42" fill="white" transform="translate(20 21)"/>
</clipPath>
</defs>
</svg>
