<svg width="62" height="63" viewBox="0 0 62 63" fill="none" xmlns="http://www.w3.org/2000/svg">
<circle opacity="0.2" cx="30" cy="30" r="30" fill="white"/>
<g clip-path="url(#clip0_165_8200)">
<path d="M40.9999 63C34.2274 62.8819 25.6042 47.9719 25.6042 36.3956C25.5594 34.3616 25.927 32.3395 26.6849 30.4514C27.4427 28.5632 28.5751 26.8481 30.0138 25.4095C31.4524 23.9709 33.1675 22.8385 35.0556 22.0806C36.9438 21.3228 38.9658 20.9552 40.9999 21C43.0339 20.9552 45.056 21.3228 46.9441 22.0806C48.8322 22.8385 50.5473 23.9709 51.986 25.4095C53.4246 26.8481 54.557 28.5632 55.3148 30.4514C56.0727 32.3395 56.4403 34.3616 56.3955 36.3956C56.3955 45.2681 51.513 55.3744 46.788 60.0206C44.7799 62.0025 42.8505 63 40.9999 63ZM40.9999 23.7956C39.3299 23.7389 37.6661 24.026 36.1118 24.6392C34.5574 25.2523 33.1456 26.1784 31.9641 27.3599C30.7826 28.5414 29.8565 29.9531 29.2434 31.5075C28.6303 33.0619 28.3431 34.7257 28.3999 36.3956C28.3999 47.4862 36.6292 60.1256 41.0261 60.1912C42.5118 59.9444 43.8611 59.1767 44.8324 58.0256C49.0455 53.8781 53.5999 44.4281 53.5999 36.3956C53.6566 34.7257 53.3695 33.0619 52.7563 31.5075C52.1432 29.9531 51.2171 28.5414 50.0356 27.3599C48.8541 26.1784 47.4423 25.2523 45.888 24.6392C44.3336 24.026 42.6698 23.7389 40.9999 23.7956Z" fill="white"/>
<path d="M41 43.4044C39.6164 43.4044 38.2639 42.9941 37.1135 42.2254C35.963 41.4567 35.0664 40.3642 34.5369 39.0859C34.0074 37.8076 33.8689 36.401 34.1388 35.044C34.4087 33.687 35.075 32.4405 36.0534 31.4621C37.0317 30.4838 38.2782 29.8175 39.6352 29.5476C40.9923 29.2776 42.3989 29.4162 43.6771 29.9457C44.9554 30.4751 46.048 31.3718 46.8167 32.5222C47.5854 33.6726 47.9956 35.0252 47.9956 36.4088C47.9922 38.2631 47.254 40.0404 45.9428 41.3516C44.6317 42.6628 42.8543 43.4009 41 43.4044ZM41 32.2088C40.1693 32.2088 39.3573 32.4551 38.6666 32.9166C37.9759 33.3781 37.4376 34.0341 37.1197 34.8015C36.8018 35.569 36.7187 36.4134 36.8807 37.2282C37.0428 38.0429 37.4428 38.7912 38.0302 39.3786C38.6176 39.966 39.3659 40.366 40.1806 40.5281C40.9954 40.6901 41.8398 40.607 42.6073 40.2891C43.3747 39.9712 44.0307 39.4329 44.4922 38.7422C44.9537 38.0515 45.2 37.2395 45.2 36.4088C45.2018 35.8561 45.0944 35.3086 44.8841 34.7975C44.6738 34.2864 44.3647 33.8218 43.9745 33.4304C43.5843 33.039 43.1208 32.7285 42.6103 32.5166C42.0999 32.3047 41.5527 32.1956 41 32.1956V32.2088Z" fill="white"/>
</g>
<defs>
<clipPath id="clip0_165_8200">
<rect width="42" height="42" fill="white" transform="translate(20 21)"/>
</clipPath>
</defs>
</svg>
