<svg width="62" height="63" viewBox="0 0 62 63" fill="none" xmlns="http://www.w3.org/2000/svg">
<circle opacity="0.2" cx="30" cy="30" r="30" fill="white"/>
<g clip-path="url(#clip0_165_8250)">
<path d="M52.1956 58.8H29.8044C28.5164 58.8017 27.2407 58.5493 26.0504 58.0572C24.8601 57.5651 23.7786 56.843 22.8678 55.9322C21.957 55.0215 21.2349 53.94 20.7428 52.7497C20.2507 51.5594 19.9983 50.2837 20 48.9956V35.0044C19.9983 33.7164 20.2507 32.4407 20.7428 31.2504C21.2349 30.0601 21.957 28.9786 22.8678 28.0678C23.7786 27.157 24.8601 26.4349 26.0504 25.9428C27.2407 25.4507 28.5164 25.1983 29.8044 25.2H52.1956C53.4837 25.1983 54.7593 25.4507 55.9496 25.9428C57.1399 26.4349 58.2215 27.157 59.1322 28.0678C60.043 28.9786 60.7651 30.0601 61.2572 31.2504C61.7493 32.4407 62.0017 33.7164 62 35.0044V48.9956C62.0017 50.2837 61.7493 51.5594 61.2572 52.7497C60.7651 53.94 60.043 55.0215 59.1322 55.9322C58.2215 56.843 57.1399 57.5651 55.9496 58.0572C54.7593 58.5493 53.4837 58.8017 52.1956 58.8ZM29.8044 27.9956C27.949 27.9956 26.1697 28.7327 24.8577 30.0446C23.5458 31.3566 22.8088 33.1359 22.8088 34.9913V48.9956C22.8088 50.851 23.5458 52.6304 24.8577 53.9423C26.1697 55.2542 27.949 55.9913 29.8044 55.9913H52.1956C54.051 55.9913 55.8304 55.2542 57.1423 53.9423C58.4542 52.6304 59.1913 50.851 59.1913 48.9956V35.0044C59.1913 33.149 58.4542 31.3697 57.1423 30.0577C55.8304 28.7458 54.051 28.0088 52.1956 28.0088L29.8044 27.9956Z" fill="white"/>
<path d="M40.9999 41.3963C38.3802 41.3926 35.805 40.7194 33.5186 39.4406L27.7174 36.225C27.5248 36.1589 27.3488 36.0517 27.2018 35.9108C27.0547 35.7699 26.9401 35.5987 26.8658 35.409C26.7915 35.2194 26.7594 35.0159 26.7716 34.8126C26.7838 34.6093 26.84 34.4111 26.9365 34.2317C27.0329 34.0523 27.1672 33.8961 27.3301 33.7738C27.4929 33.6515 27.6804 33.5661 27.8796 33.5235C28.0787 33.4808 28.2847 33.4821 28.4834 33.527C28.682 33.572 28.8685 33.6596 29.0299 33.7838L34.8311 37.0125C36.6999 38.0586 38.8058 38.608 40.9474 38.608C43.089 38.608 45.1949 38.0586 47.0636 37.0125L52.8649 33.7838C53.0263 33.6596 53.2128 33.572 53.4114 33.527C53.61 33.4821 53.8161 33.4808 54.0152 33.5235C54.2144 33.5661 54.4019 33.6515 54.5647 33.7738C54.7276 33.8961 54.8619 34.0523 54.9583 34.2317C55.0548 34.4111 55.111 34.6093 55.1232 34.8126C55.1354 35.0159 55.1033 35.2194 55.029 35.409C54.9547 35.5987 54.84 35.7699 54.693 35.9108C54.5459 36.0517 54.37 36.1589 54.1774 36.225L48.4811 39.4406C46.1948 40.7194 43.6196 41.3926 40.9999 41.3963Z" fill="white"/>
</g>
<defs>
<clipPath id="clip0_165_8250">
<rect width="42" height="42" fill="white" transform="translate(20 21)"/>
</clipPath>
</defs>
</svg>
