<svg width="40" height="40" viewBox="0 0 40 40" fill="none" xmlns="http://www.w3.org/2000/svg">
<rect width="40" height="40" rx="20" fill="#E95440"/>
<path d="M25.335 13.6H24.265V12H23.2V13.6H16.8V12H15.735V13.6H14.665C13.9586 13.6013 13.2815 13.8825 12.782 14.382C12.2825 14.8815 12.0013 15.5586 12 16.265V25.335C12.0013 26.0414 12.2825 26.7185 12.782 27.218C13.2815 27.7175 13.9586 27.9987 14.665 28H25.335C26.0414 27.9987 26.7185 27.7175 27.218 27.218C27.7175 26.7185 27.9987 26.0414 28 25.335V16.265C27.9987 15.5586 27.7175 14.8815 27.218 14.382C26.7185 13.8825 26.0414 13.6013 25.335 13.6ZM26.935 25.335C26.935 25.7593 26.7664 26.1663 26.4664 26.4664C26.1663 26.7664 25.7593 26.935 25.335 26.935H14.665C14.2407 26.935 13.8337 26.7664 13.5336 26.4664C13.2336 26.1663 13.065 25.7593 13.065 25.335V16.265C13.065 15.8407 13.2336 15.4337 13.5336 15.1336C13.8337 14.8336 14.2407 14.665 14.665 14.665H15.735V16.265H16.8V14.665H23.2V16.265H24.265V14.665H25.33C25.7543 14.665 26.1613 14.8336 26.4614 15.1336C26.7614 15.4337 26.93 15.8407 26.93 16.265L26.935 25.335Z" fill="white"/>
<path d="M24.2648 21.0649H22.1348C21.8524 21.0649 21.5815 21.1771 21.3818 21.3769C21.182 21.5766 21.0698 21.8475 21.0698 22.1299V24.2649C21.0698 24.5474 21.182 24.8183 21.3818 25.018C21.5815 25.2177 21.8524 25.3299 22.1348 25.3299H24.2698C24.5523 25.3299 24.8232 25.2177 25.0229 25.018C25.2226 24.8183 25.3348 24.5474 25.3348 24.2649V22.1349C25.3348 21.8525 25.2226 21.5816 25.0229 21.3819C24.8232 21.1821 24.5523 21.0699 24.2698 21.0699L24.2648 21.0649ZM24.2648 24.2649H22.1348V22.1349H24.2698L24.2648 24.2649Z" fill="white"/>
</svg>
