<svg width="60" height="60" viewBox="0 0 60 60" fill="none" xmlns="http://www.w3.org/2000/svg">
<rect width="60" height="60" rx="30" fill="#181A1F"/>
<path d="M32.4669 30.6692C31.4118 30.6692 30.3804 30.3563 29.5032 29.7701C28.6259 29.184 27.9422 28.3508 27.5384 27.376C27.1346 26.4013 27.029 25.3287 27.2348 24.2939C27.4407 23.2591 27.9487 22.3085 28.6948 21.5625C29.4408 20.8164 30.3914 20.3083 31.4262 20.1025C32.461 19.8967 33.5336 20.0023 34.5084 20.4061C35.4831 20.8098 36.3163 21.4936 36.9024 22.3708C37.4886 23.2481 37.8015 24.2795 37.8015 25.3346C37.7998 26.7489 37.2373 28.1048 36.2372 29.1049C35.2371 30.1049 33.8812 30.6675 32.4669 30.6692ZM32.4669 21.3321C31.6753 21.3321 30.9014 21.5668 30.2432 22.0066C29.585 22.4464 29.072 23.0715 28.7691 23.8029C28.4661 24.5343 28.3869 25.339 28.5413 26.1154C28.6958 26.8918 29.077 27.605 29.6367 28.1648C30.1965 28.7245 30.9096 29.1057 31.6861 29.2602C32.4625 29.4146 33.2672 29.3353 33.9986 29.0324C34.73 28.7295 35.3551 28.2165 35.7949 27.5583C36.2347 26.9 36.4694 26.1262 36.4694 25.3346C36.4694 24.2725 36.0479 23.2538 35.2975 22.5022C34.547 21.7506 33.529 21.3275 32.4669 21.3258V21.3321Z" fill="white"/>
<path d="M38.0145 40.006H26.9263C26.614 40.0065 26.306 39.9339 26.0268 39.7941C25.7476 39.6542 25.505 39.4509 25.3184 39.2005C25.1318 38.9501 25.0064 38.6595 24.9522 38.352C24.898 38.0445 24.9166 37.7285 25.0064 37.4294L25.6318 35.3281C25.9162 34.3641 26.506 33.5185 27.3124 32.9185C28.1188 32.3185 29.0982 31.9965 30.1033 32.001H34.8187C35.8239 31.9965 36.8033 32.3185 37.6097 32.9185C38.416 33.5185 39.0058 34.3641 39.2903 35.3281L39.9157 37.4294C40.005 37.727 40.0238 38.0413 39.9706 38.3474C39.9175 38.6535 39.7937 38.943 39.6093 39.193C39.4248 39.443 39.1846 39.6467 38.9078 39.7878C38.631 39.9289 38.3252 40.0036 38.0145 40.006ZM30.1096 33.3331C29.3913 33.3295 28.6913 33.5593 28.115 33.9879C27.5386 34.4165 27.1171 35.0207 26.9138 35.7096L26.2884 37.8109C26.2596 37.9093 26.2539 38.013 26.2715 38.1139C26.2892 38.2149 26.3298 38.3105 26.3902 38.3933C26.4506 38.476 26.5293 38.5438 26.62 38.5914C26.7108 38.639 26.8113 38.6651 26.9138 38.6677H38.0145C38.1177 38.6654 38.2189 38.6392 38.3103 38.5913C38.4017 38.5433 38.4808 38.4749 38.5413 38.3913C38.6019 38.3078 38.6423 38.2113 38.6594 38.1095C38.6765 38.0078 38.6698 37.9034 38.6399 37.8046L38.0145 35.7033C37.8112 35.0144 37.3897 34.4102 36.8133 33.9816C36.237 33.553 35.537 33.3232 34.8187 33.3269L30.1096 33.3331Z" fill="white"/>
<path d="M26.676 30.5881H26.551C25.3272 30.3595 24.2219 29.7101 23.4266 28.7525C22.6312 27.7948 22.1958 26.5891 22.1958 25.3442C22.1958 24.0993 22.6312 22.8936 23.4266 21.9359C24.2219 20.9782 25.3272 20.3288 26.551 20.1003C26.6389 20.0793 26.7303 20.0764 26.8194 20.0917C26.9086 20.107 26.9937 20.1402 27.0696 20.1894C27.1456 20.2385 27.2108 20.3025 27.2613 20.3776C27.3118 20.4526 27.3466 20.5371 27.3635 20.626C27.3804 20.7148 27.3791 20.8062 27.3598 20.8946C27.3404 20.9829 27.3033 21.0664 27.2507 21.1401C27.1982 21.2137 27.1312 21.2759 27.0539 21.3229C26.9767 21.3699 26.8907 21.4008 26.8011 21.4136C25.8874 21.5892 25.0634 22.0776 24.4707 22.795C23.8781 23.5123 23.554 24.4137 23.554 25.3442C23.554 26.2746 23.8781 27.176 24.4707 27.8934C25.0634 28.6107 25.8874 29.0992 26.8011 29.2747C26.9582 29.3121 27.0965 29.4049 27.1905 29.5361C27.2845 29.6674 27.3279 29.8282 27.3127 29.989C27.2974 30.1497 27.2246 30.2995 27.1076 30.4107C26.9906 30.522 26.8373 30.5872 26.676 30.5943V30.5881Z" fill="white"/>
<path d="M23.3365 40.0062H22.0044C21.6922 40.0067 21.3841 39.9341 21.1049 39.7942C20.8257 39.6543 20.5831 39.4511 20.3965 39.2007C20.2099 38.9503 20.0845 38.6597 20.0304 38.3521C19.9762 38.0446 19.9947 37.7287 20.0845 37.4296L20.7099 35.3283C20.9946 34.3632 21.5854 33.5168 22.393 32.9167C23.2007 32.3166 24.1815 31.9953 25.1877 32.0012C25.2806 31.9922 25.3743 32.0027 25.4629 32.0321C25.5515 32.0614 25.6329 32.109 25.702 32.1717C25.7711 32.2344 25.8264 32.3109 25.8642 32.3963C25.9019 32.4816 25.9215 32.5739 25.9215 32.6672C25.9215 32.7605 25.9019 32.8528 25.8642 32.9382C25.8264 33.0235 25.7711 33.1 25.702 33.1627C25.6329 33.2254 25.5515 33.273 25.4629 33.3024C25.3743 33.3317 25.2806 33.3423 25.1877 33.3333C24.4694 33.3296 23.7695 33.5594 23.1931 33.988C22.6167 34.4166 22.1952 35.0208 21.9919 35.7097L21.3665 37.811C21.3378 37.9094 21.332 38.0131 21.3496 38.1141C21.3673 38.215 21.4079 38.3106 21.4683 38.3934C21.5287 38.4762 21.6074 38.544 21.6982 38.5916C21.789 38.6392 21.8895 38.6652 21.9919 38.6678H23.3365C23.4294 38.6588 23.5232 38.6693 23.6117 38.6987C23.7003 38.7281 23.7818 38.7757 23.8509 38.8384C23.92 38.9011 23.9752 38.9776 24.013 39.0629C24.0508 39.1483 24.0703 39.2406 24.0703 39.3339C24.0703 39.4272 24.0508 39.5195 24.013 39.6048C23.9752 39.6902 23.92 39.7666 23.8509 39.8294C23.7818 39.8921 23.7003 39.9397 23.6117 39.969C23.5232 39.9984 23.4294 40.0089 23.3365 39.9999V40.0062Z" fill="white"/>
</svg>
