<svg width="24" height="24" viewBox="0 0 24 24" fill="none" xmlns="http://www.w3.org/2000/svg">
<g clip-path="url(#clip0_23_425)">
<path d="M22.0298 9.57211L22.7106 8.4375H23.2969C23.6852 8.4375 24 8.12269 24 7.73438C24 7.34606 23.6852 7.03125 23.2969 7.03125H22.3125C22.0655 7.03125 21.8367 7.16086 21.7096 7.37264L21.1371 8.32673L20.193 5.02233C19.8212 3.72122 18.6165 2.8125 17.2634 2.8125H6.73664C5.3835 2.8125 4.17877 3.72122 3.807 5.02237L2.86289 8.32678L2.29041 7.37269C2.16333 7.16086 1.93448 7.03125 1.6875 7.03125H0.703125C0.314812 7.03125 0 7.34606 0 7.73438C0 8.12269 0.314812 8.4375 0.703125 8.4375H1.28939L1.97016 9.57211C0.820031 10.0081 0 11.1208 0 12.4219V17.6719C0 18.0602 0.314812 18.375 0.703125 18.375H1.92188V19.5469C1.92188 20.4515 2.65786 21.1875 3.5625 21.1875H5.4375C6.34214 21.1875 7.07812 20.4515 7.07812 19.5469V18.375H16.9219V19.5469C16.9219 20.4515 17.6579 21.1875 18.5625 21.1875H20.4375C21.3421 21.1875 22.0781 20.4515 22.0781 19.5469V18.375H23.2969C23.6852 18.375 24 18.0602 24 17.6719V12.4219C24 11.1208 23.18 10.0081 22.0298 9.57211ZM5.15916 5.40867C5.35931 4.70808 6.00802 4.21875 6.73664 4.21875H17.2634C17.992 4.21875 18.6407 4.70808 18.8408 5.40867L19.9741 9.375H18.7261C18.3995 7.77225 16.979 6.5625 15.2812 6.5625C13.5835 6.5625 12.163 7.77225 11.8364 9.375H4.02591L5.15916 5.40867ZM13.2923 9.375C13.5825 8.55652 14.3646 7.96875 15.2812 7.96875C16.1979 7.96875 16.98 8.55652 17.2702 9.375H13.2923ZM5.67188 19.5469C5.67188 19.6761 5.56673 19.7812 5.4375 19.7812H3.5625C3.43327 19.7812 3.32812 19.6761 3.32812 19.5469V18.375H5.67188V19.5469ZM9.89062 16.9688V15H14.1094V16.9688H9.89062ZM20.6719 19.5469C20.6719 19.6761 20.5667 19.7812 20.4375 19.7812H18.5625C18.4333 19.7812 18.3281 19.6761 18.3281 19.5469V18.375H20.6719V19.5469ZM22.5938 16.9688H15.5156V14.2969C15.5156 13.9086 15.2008 13.5938 14.8125 13.5938H9.1875C8.79919 13.5938 8.48438 13.9086 8.48438 14.2969V16.9688H1.40625V12.4219C1.40625 11.5172 2.14223 10.7812 3.04688 10.7812H3.0908C3.09202 10.7812 3.09319 10.7813 3.09441 10.7813C3.09558 10.7813 3.0967 10.7812 3.09787 10.7812H20.9021C20.9033 10.7812 20.9044 10.7813 20.9056 10.7813C20.9068 10.7813 20.908 10.7812 20.9092 10.7812H20.9531C21.8578 10.7812 22.5938 11.5172 22.5938 12.4219V16.9688Z" fill="#181A1F"/>
<path d="M19.0312 11.7656C17.8681 11.7656 16.9219 12.7119 16.9219 13.875C16.9219 15.0381 17.8681 15.9844 19.0312 15.9844C20.1944 15.9844 21.1406 15.0381 21.1406 13.875C21.1406 12.7119 20.1944 11.7656 19.0312 11.7656ZM19.0312 14.5781C18.6435 14.5781 18.3281 14.2627 18.3281 13.875C18.3281 13.4873 18.6435 13.1719 19.0312 13.1719C19.419 13.1719 19.7344 13.4873 19.7344 13.875C19.7344 14.2627 19.419 14.5781 19.0312 14.5781Z" fill="#181A1F"/>
<path d="M4.96875 11.7656C3.80564 11.7656 2.85938 12.7119 2.85938 13.875C2.85938 15.0381 3.80564 15.9844 4.96875 15.9844C6.13186 15.9844 7.07812 15.0381 7.07812 13.875C7.07812 12.7119 6.13186 11.7656 4.96875 11.7656ZM4.96875 14.5781C4.58105 14.5781 4.26562 14.2627 4.26562 13.875C4.26562 13.4873 4.58105 13.1719 4.96875 13.1719C5.35645 13.1719 5.67188 13.4873 5.67188 13.875C5.67188 14.2627 5.35645 14.5781 4.96875 14.5781Z" fill="#181A1F"/>
</g>
<defs>
<clipPath id="clip0_23_425">
<rect width="24" height="24" fill="white"/>
</clipPath>
</defs>
</svg>
