<svg width="22" height="22" viewBox="0 0 22 22" fill="none" xmlns="http://www.w3.org/2000/svg">
<path d="M13.2615 11.6134C12.2943 11.6134 11.3489 11.3266 10.5447 10.7893C9.74058 10.2519 9.11381 9.48822 8.74369 8.59468C8.37358 7.70114 8.27674 6.71792 8.46542 5.76935C8.65411 4.82078 9.11984 3.94946 9.80372 3.26557C10.4876 2.58169 11.3589 2.11596 12.3075 1.92728C13.2561 1.73859 14.2393 1.83543 15.1328 2.20555C16.0264 2.57566 16.7901 3.20243 17.3274 4.00659C17.8647 4.81075 18.1515 5.75619 18.1515 6.72335C18.15 8.0198 17.6343 9.26272 16.7176 10.1794C15.8009 11.0962 14.5579 11.6119 13.2615 11.6134ZM13.2615 3.05439C12.5358 3.05439 11.8265 3.26957 11.2231 3.67272C10.6198 4.07587 10.1495 4.64888 9.87182 5.3193C9.59412 5.98971 9.52147 6.72742 9.66303 7.43912C9.8046 8.15083 10.154 8.80458 10.6671 9.31769C11.1803 9.8308 11.834 10.1802 12.5457 10.3218C13.2574 10.4634 13.9951 10.3907 14.6655 10.113C15.336 9.83533 15.909 9.36507 16.3121 8.76171C16.7153 8.15835 16.9304 7.449 16.9304 6.72335C16.9305 5.74975 16.5441 4.81595 15.8562 4.12697C15.1683 3.438 14.2351 3.05018 13.2615 3.04866V3.05439Z" fill="white"/>
<path d="M18.3464 20.1724H8.18225C7.896 20.1728 7.61361 20.1063 7.35768 19.9781C7.10174 19.8499 6.87936 19.6635 6.70832 19.434C6.53729 19.2045 6.42234 18.9381 6.37267 18.6562C6.32301 18.3743 6.34 18.0846 6.4223 17.8105L6.99557 15.8843C7.25633 15.0006 7.79696 14.2254 8.53615 13.6754C9.27534 13.1254 10.1731 12.8303 11.0945 12.8345H15.417C16.3383 12.8303 17.2361 13.1254 17.9753 13.6754C18.7145 14.2254 19.2551 15.0006 19.5159 15.8843L20.0892 17.8105C20.1711 18.0833 20.1883 18.3714 20.1396 18.652C20.0908 18.9326 19.9774 19.198 19.8083 19.4271C19.6392 19.6563 19.4191 19.843 19.1653 19.9723C18.9116 20.1017 18.6312 20.1702 18.3464 20.1724ZM11.1002 14.0555C10.4418 14.0522 9.80018 14.2629 9.27185 14.6557C8.74353 15.0486 8.35712 15.6025 8.17079 16.234L7.59751 18.1602C7.57114 18.2504 7.56583 18.3454 7.58201 18.4379C7.59818 18.5305 7.63541 18.6181 7.6908 18.694C7.7462 18.7699 7.81829 18.832 7.90151 18.8757C7.98473 18.9193 8.07686 18.9432 8.17079 18.9456H18.3464C18.441 18.9434 18.5338 18.9195 18.6176 18.8755C18.7013 18.8316 18.7738 18.7688 18.8293 18.6922C18.8848 18.6156 18.9219 18.5272 18.9376 18.4339C18.9532 18.3406 18.9471 18.245 18.9197 18.1544L18.3464 16.2282C18.1601 15.5968 17.7737 15.0429 17.2453 14.65C16.717 14.2571 16.0754 14.0465 15.417 14.0498L11.1002 14.0555Z" fill="white"/>
<path d="M7.95301 11.5389H7.83836C6.71659 11.3293 5.70343 10.7341 4.97433 9.85622C4.24524 8.97834 3.84613 7.87311 3.84613 6.73195C3.84613 5.59079 4.24524 4.48556 4.97433 3.60768C5.70343 2.7298 6.71659 2.13456 7.83836 1.92505C7.91901 1.90582 8.00273 1.90314 8.08445 1.91718C8.16617 1.93122 8.2442 1.96168 8.31382 2.00672C8.38343 2.05177 8.44319 2.11046 8.48949 2.17925C8.53579 2.24804 8.56765 2.3255 8.58317 2.40695C8.59868 2.48841 8.59752 2.57216 8.57976 2.65315C8.56199 2.73415 8.52799 2.8107 8.47981 2.87818C8.43162 2.94566 8.37026 3.00267 8.29942 3.04577C8.22858 3.08886 8.14974 3.11715 8.06767 3.12892C7.23007 3.28988 6.47472 3.73764 5.93149 4.3952C5.38827 5.05275 5.09111 5.87903 5.09111 6.73195C5.09111 7.58488 5.38827 8.41115 5.93149 9.06871C6.47472 9.72627 7.23007 10.174 8.06767 10.335C8.21166 10.3692 8.33843 10.4543 8.42461 10.5746C8.51079 10.6949 8.55056 10.8423 8.53659 10.9897C8.52263 11.137 8.45587 11.2743 8.34862 11.3763C8.24137 11.4783 8.10086 11.5381 7.95301 11.5446V11.5389Z" fill="white"/>
<path d="M4.89179 20.1723H3.67072C3.38446 20.1728 3.10208 20.1062 2.84614 19.978C2.59021 19.8498 2.36783 19.6635 2.19679 19.434C2.02575 19.2044 1.9108 18.938 1.86114 18.6561C1.81147 18.3742 1.82847 18.0846 1.91076 17.8104L2.48404 15.8842C2.74506 14.9996 3.28656 14.2238 4.02691 13.6737C4.76726 13.1236 5.66635 12.829 6.58868 12.8344C6.67383 12.8261 6.75977 12.8358 6.84097 12.8627C6.92217 12.8896 6.99684 12.9332 7.06018 12.9907C7.12353 13.0482 7.17415 13.1184 7.20879 13.1966C7.24342 13.2748 7.26132 13.3594 7.26132 13.4449C7.26132 13.5305 7.24342 13.6151 7.20879 13.6933C7.17415 13.7715 7.12353 13.8416 7.06018 13.8991C6.99684 13.9566 6.92217 14.0003 6.84097 14.0272C6.75977 14.0541 6.67383 14.0637 6.58868 14.0555C5.9303 14.0522 5.28865 14.2628 4.76032 14.6557C4.23199 15.0486 3.84558 15.6024 3.65925 16.2339L3.08598 18.1601C3.0596 18.2503 3.0543 18.3453 3.07047 18.4379C3.08665 18.5305 3.12387 18.6181 3.17927 18.694C3.23466 18.7698 3.30675 18.832 3.38997 18.8756C3.47319 18.9192 3.56532 18.9431 3.65925 18.9455H4.89179C4.97694 18.9373 5.06287 18.9469 5.14408 18.9738C5.22528 19.0007 5.29995 19.0444 5.36329 19.1019C5.42664 19.1593 5.47725 19.2295 5.51189 19.3077C5.54653 19.3859 5.56443 19.4705 5.56443 19.5561C5.56443 19.6416 5.54653 19.7262 5.51189 19.8044C5.47725 19.8826 5.42664 19.9528 5.36329 20.0103C5.29995 20.0677 5.22528 20.1114 5.14408 20.1383C5.06287 20.1652 4.97694 20.1749 4.89179 20.1666V20.1723Z" fill="white"/>
</svg>
