<svg xmlns="http://www.w3.org/2000/svg" width="16.541" height="16.541" viewBox="0 0 16.541 16.541">
  <g id="vuesax_bold_eye-slash" data-name="vuesax/bold/eye-slash" transform="translate(-172 -188)">
    <path id="Vector" d="M9.106,1.151A9.738,9.738,0,0,0,8.472.262.689.689,0,0,0,7.445.2L5.378,2.268a2.7,2.7,0,0,1,.041,1.523,2.771,2.771,0,0,1-2,2A2.7,2.7,0,0,1,1.9,5.748L.2,7.444a.693.693,0,0,0,.227,1.13A6.355,6.355,0,0,0,2.717,9,6.673,6.673,0,0,0,6.226,7.975,9.254,9.254,0,0,0,9.141,4.983,3.984,3.984,0,0,0,9.106,1.151Z" transform="translate(177.553 193.176)" fill="#061965"/>
    <path id="Vector-2" data-name="Vector" d="M3.363.579.579,3.363A2,2,0,0,1,0,1.971,1.975,1.975,0,0,1,1.971,0,2,2,0,0,1,3.363.579Z" transform="translate(178.299 194.299)" fill="#061965"/>
    <path id="Vector-3" data-name="Vector" d="M11.2,1.6,8.863,3.935a2.747,2.747,0,0,0-1.971-.813A2.788,2.788,0,0,0,4.921,7.878l-2.33,2.336H2.585A9.844,9.844,0,0,1,.517,7.864a3.977,3.977,0,0,1,0-3.922A9.2,9.2,0,0,1,3.384,1.027,6.736,6.736,0,0,1,6.892,0,6.848,6.848,0,0,1,11.2,1.6Z" transform="translate(173.378 190.364)" fill="#061965"/>
    <path id="Vector-4" data-name="Vector" d="M2.088.117A1.975,1.975,0,0,1,.117,2.088.341.341,0,0,1,0,2.075L2.075,0A.341.341,0,0,1,2.088.117Z" transform="translate(180.153 196.153)" fill="#061965"/>
    <path id="Vector-5" data-name="Vector" d="M13.622.155a.532.532,0,0,0-.751,0L.155,12.878a.532.532,0,0,0,0,.751.545.545,0,0,0,.372.152A.522.522,0,0,0,.9,13.622L13.622.9A.512.512,0,0,0,13.622.155Z" transform="translate(173.382 189.382)" fill="#061965"/>
    <path id="Vector-6" data-name="Vector" d="M0,0H16.541V16.541H0Z" transform="translate(188.541 204.541) rotate(180)" fill="none" opacity="0"/>
  </g>
</svg>
