<svg xmlns="http://www.w3.org/2000/svg" width="16.541" height="16.541" viewBox="0 0 16.541 16.541">
  <g id="vuesax_bold_eye" data-name="vuesax/bold/eye" transform="translate(-108 -188)">
    <path id="Vector" d="M13.267,3.942A7.719,7.719,0,0,0,6.892,0,6.673,6.673,0,0,0,3.384,1.027,9.2,9.2,0,0,0,.517,3.942a3.977,3.977,0,0,0,0,3.922,7.7,7.7,0,0,0,6.375,3.942A6.673,6.673,0,0,0,10.4,10.779a9.2,9.2,0,0,0,2.867-2.915A3.977,3.977,0,0,0,13.267,3.942ZM6.892,8.691A2.784,2.784,0,1,1,9.676,5.907,2.781,2.781,0,0,1,6.892,8.691Z" transform="translate(109.378 190.364)" fill="#061965"/>
    <path id="Vector-2" data-name="Vector" d="M1.964,0A1.968,1.968,0,1,0,3.935,1.971,1.969,1.969,0,0,0,1.964,0Z" transform="translate(114.306 194.299)" fill="#061965"/>
    <path id="Vector-3" data-name="Vector" d="M0,0H16.541V16.541H0Z" transform="translate(124.541 204.541) rotate(180)" fill="none" opacity="0"/>
  </g>
</svg>
