<svg width="16" height="16" viewBox="0 0 16 16" fill="none" xmlns="http://www.w3.org/2000/svg">
<g clip-path="url(#clip0_78_7963)">
<path d="M7.99979 0.888885C6.59334 0.888885 5.21848 1.30594 4.04906 2.08732C2.87965 2.8687 1.9682 3.97931 1.42998 5.27869C0.891753 6.57808 0.750929 8.00789 1.02531 9.38731C1.2997 10.7667 1.97696 12.0338 2.97147 13.0283C3.96598 14.0228 5.23306 14.7001 6.61248 14.9745C7.9919 15.2489 9.42171 15.108 10.7211 14.5698C12.0205 14.0316 13.1311 13.1201 13.9125 11.9507C14.6938 10.7813 15.1109 9.40644 15.1109 8C15.1109 6.11401 14.3617 4.30527 13.0281 2.97168C11.6945 1.63809 9.88577 0.888885 7.99979 0.888885ZM5.49756 2.37333L6.30201 3.17777C6.39081 3.26551 6.46129 3.37002 6.50936 3.48523C6.55743 3.60044 6.58212 3.72405 6.58201 3.84889V5.04C6.5827 5.16452 6.55871 5.28794 6.51141 5.40314C6.46411 5.51833 6.39445 5.623 6.30645 5.71111L5.24423 6.77333C5.06849 6.94812 4.92896 7.15586 4.83363 7.38465C4.7383 7.61345 4.68904 7.8588 4.68868 8.10666V8.81333C4.68993 9.02083 4.62329 9.22305 4.49891 9.38915C4.37454 9.55526 4.19925 9.67612 3.99979 9.73333L2.26201 10.2222C1.68609 8.74909 1.7011 7.11049 2.30392 5.64815C2.90674 4.18582 4.05082 3.01266 5.49756 2.37333ZM2.66645 11.1111L4.23979 10.6667C4.63459 10.5516 4.98163 10.3121 5.22913 9.98367C5.47663 9.65527 5.61132 9.25566 5.61312 8.84444V8.11555C5.61301 7.99072 5.6377 7.86711 5.68577 7.7519C5.73384 7.63669 5.80432 7.53218 5.89312 7.44444L6.95534 6.38222C7.13108 6.20743 7.27061 5.99969 7.36594 5.7709C7.46127 5.5421 7.51053 5.29675 7.5109 5.04889V3.84889C7.51053 3.60102 7.46127 3.35567 7.36594 3.12688C7.27061 2.89808 7.13108 2.69034 6.95534 2.51555L6.49312 2.03111C7.29215 1.82446 8.12468 1.78132 8.94079 1.90427C9.75689 2.02722 10.5398 2.31374 11.2424 2.74663C11.9451 3.17953 12.5531 3.74988 13.03 4.42349C13.5069 5.09709 13.8428 5.86007 14.0176 6.66666L12.4442 6.93333C11.8426 7.03242 11.3027 7.36052 10.9376 7.84889L10.3642 8.60889C10.1984 8.82968 10.084 9.08473 10.0294 9.3554C9.97484 9.62607 9.98141 9.90553 10.0487 10.1733C10.113 10.4257 10.0884 10.6924 9.97915 10.9288C9.86987 11.1651 9.68255 11.3566 9.44868 11.4711C9.16044 11.6071 8.90791 11.8085 8.71116 12.0593C8.51442 12.31 8.37888 12.6032 8.31534 12.9156L8.06645 14.1556C6.97879 14.1643 5.90782 13.8879 4.96032 13.3537C4.01283 12.8195 3.22192 12.0463 2.66645 11.1111ZM9.05756 14.08L9.24868 13.12C9.28512 12.9486 9.36174 12.7883 9.47224 12.6523C9.58273 12.5163 9.72393 12.4085 9.88423 12.3378C10.3118 12.1272 10.6538 11.7759 10.8529 11.3429C11.052 10.9099 11.096 10.4216 10.9776 9.96C10.9437 9.82914 10.94 9.69227 10.967 9.5598C10.994 9.42733 11.0508 9.30276 11.1331 9.19555L11.7065 8.43555C11.9217 8.14528 12.2396 7.94815 12.5953 7.88444L14.1198 7.63111C14.1968 9.13207 13.728 10.6102 12.7999 11.7923C11.8718 12.9745 10.5472 13.7808 9.0709 14.0622L9.05756 14.08Z" fill="white"/>
</g>
<defs>
<clipPath id="clip0_78_7963">
<rect width="16" height="16" fill="white"/>
</clipPath>
</defs>
</svg>
