<svg width="40" height="40" viewBox="0 0 40 40" fill="none" xmlns="http://www.w3.org/2000/svg">
<path d="M36.6654 19.9997C36.6654 29.2038 29.2029 36.6663 19.9987 36.6663C10.7945 36.6663 3.33203 29.2038 3.33203 19.9997C3.33203 10.7955 10.7945 3.33301 19.9987 3.33301C29.2029 3.33301 36.6654 10.7955 36.6654 19.9997Z" fill="#C8E6C9"/>
<g clip-path="url(#clip0_16647_40091)">
<path d="M25.4463 25.4453C23.8793 26.6398 21.9713 27.3015 20.0013 27.3337C13.5846 27.3337 9.91797 20.0003 9.91797 20.0003C11.0582 17.8754 12.6397 16.0189 14.5563 14.5553M18.0763 12.887C18.7073 12.7393 19.3533 12.6655 20.0013 12.667C26.418 12.667 30.0846 20.0003 30.0846 20.0003C29.5282 21.0413 28.8646 22.0214 28.1046 22.9245M21.9446 21.9437C21.6929 22.2139 21.3893 22.4306 21.0519 22.5809C20.7146 22.7312 20.3505 22.812 19.9812 22.8185C19.612 22.825 19.2452 22.7571 18.9028 22.6188C18.5604 22.4805 18.2493 22.2746 17.9882 22.0135C17.727 21.7524 17.5212 21.4413 17.3829 21.0989C17.2445 20.7564 17.1766 20.3897 17.1831 20.0204C17.1896 19.6512 17.2705 19.287 17.4208 18.9497C17.5711 18.6124 17.7878 18.3088 18.058 18.057" stroke="#4CAF50" stroke-width="2" stroke-linecap="round" stroke-linejoin="round"/>
<path d="M9.91797 9.91699L30.0846 30.0837" stroke="#4CAF50" stroke-width="2" stroke-linecap="round" stroke-linejoin="round"/>
</g>
<defs>
<clipPath id="clip0_16647_40091">
<rect width="22" height="22" fill="white" transform="translate(9 9)"/>
</clipPath>
</defs>
</svg>
