<svg width="40" height="40" viewBox="0 0 40 40" fill="none" xmlns="http://www.w3.org/2000/svg">
<path d="M36.6654 19.9997C36.6654 29.2038 29.2029 36.6663 19.9987 36.6663C10.7945 36.6663 3.33203 29.2038 3.33203 19.9997C3.33203 10.7955 10.7945 3.33301 19.9987 3.33301C29.2029 3.33301 36.6654 10.7955 36.6654 19.9997Z" fill="#C8E6C9"/>
<g clip-path="url(#clip0_16647_38939)">
<path d="M9.91797 20.0003C9.91797 20.0003 13.5846 12.667 20.0013 12.667C26.418 12.667 30.0846 20.0003 30.0846 20.0003C30.0846 20.0003 26.418 27.3337 20.0013 27.3337C13.5846 27.3337 9.91797 20.0003 9.91797 20.0003Z" stroke="#4CAF50" stroke-width="2" stroke-linecap="round" stroke-linejoin="round"/>
<path d="M20 22.75C21.5188 22.75 22.75 21.5188 22.75 20C22.75 18.4812 21.5188 17.25 20 17.25C18.4812 17.25 17.25 18.4812 17.25 20C17.25 21.5188 18.4812 22.75 20 22.75Z" stroke="#4CAF50" stroke-width="2" stroke-linecap="round" stroke-linejoin="round"/>
</g>
<defs>
<clipPath id="clip0_16647_38939">
<rect width="22" height="22" fill="white" transform="translate(9 9)"/>
</clipPath>
</defs>
</svg>
