<svg width="138" height="40" viewBox="0 0 138 40" fill="none" xmlns="http://www.w3.org/2000/svg">
<circle opacity="0.2" cx="45" cy="20" r="20" fill="white"/>
<path d="M7.62891 21.5254H5.57812V27.6504H2.84375V21.5254H0.601562V19.0098H2.84375V17.0684C2.84375 14.8809 4.15625 13.6504 6.15234 13.6504C7.10938 13.6504 8.12109 13.8418 8.12109 13.8418V16.002H7C5.90625 16.002 5.57812 16.6582 5.57812 17.3691V19.0098H8.01172L7.62891 21.5254Z" fill="white"/>
<path d="M50.5508 17.8066C50.5508 17.9434 50.5508 18.0527 50.5508 18.1895C50.5508 21.9902 47.6797 26.3379 42.4023 26.3379C40.7617 26.3379 39.2578 25.873 38 25.0527C38.2188 25.0801 38.4375 25.1074 38.6836 25.1074C40.0234 25.1074 41.2539 24.6426 42.2383 23.877C40.9805 23.8496 39.9141 23.0293 39.5586 21.8809C39.75 21.9082 39.9141 21.9355 40.1055 21.9355C40.3516 21.9355 40.625 21.8809 40.8438 21.8262C39.5312 21.5527 38.5469 20.4043 38.5469 19.0098V18.9824C38.9297 19.2012 39.3945 19.3105 39.8594 19.3379C39.0664 18.8184 38.5742 17.9434 38.5742 16.959C38.5742 16.4121 38.7109 15.9199 38.957 15.5098C40.3789 17.2324 42.5117 18.3809 44.8906 18.5176C44.8359 18.2988 44.8086 18.0801 44.8086 17.8613C44.8086 16.2754 46.0938 14.9902 47.6797 14.9902C48.5 14.9902 49.2383 15.3184 49.7852 15.8926C50.4141 15.7559 51.043 15.5098 51.5898 15.1816C51.3711 15.8652 50.9336 16.4121 50.332 16.7676C50.9062 16.7129 51.4805 16.5488 51.9727 16.3301C51.5898 16.9043 51.0977 17.3965 50.5508 17.8066Z" fill="white"/>
<path d="M88.125 17.5059C89.8477 17.5059 91.2695 18.9277 91.2695 20.6504C91.2695 22.4004 89.8477 23.7949 88.125 23.7949C86.375 23.7949 84.9805 22.4004 84.9805 20.6504C84.9805 18.9277 86.375 17.5059 88.125 17.5059ZM88.125 22.7012C89.2461 22.7012 90.1484 21.7988 90.1484 20.6504C90.1484 19.5293 89.2461 18.627 88.125 18.627C86.9766 18.627 86.0742 19.5293 86.0742 20.6504C86.0742 21.7988 87.0039 22.7012 88.125 22.7012ZM92.1172 17.3965C92.1172 17.8066 91.7891 18.1348 91.3789 18.1348C90.9688 18.1348 90.6406 17.8066 90.6406 17.3965C90.6406 16.9863 90.9688 16.6582 91.3789 16.6582C91.7891 16.6582 92.1172 16.9863 92.1172 17.3965ZM94.1953 18.1348C94.25 19.1465 94.25 22.1816 94.1953 23.1934C94.1406 24.1777 93.9219 25.0254 93.2109 25.7637C92.5 26.4746 91.625 26.6934 90.6406 26.748C89.6289 26.8027 86.5938 26.8027 85.582 26.748C84.5977 26.6934 83.75 26.4746 83.0117 25.7637C82.3008 25.0254 82.082 24.1777 82.0273 23.1934C81.9727 22.1816 81.9727 19.1465 82.0273 18.1348C82.082 17.1504 82.3008 16.2754 83.0117 15.5645C83.75 14.8535 84.5977 14.6348 85.582 14.5801C86.5938 14.5254 89.6289 14.5254 90.6406 14.5801C91.625 14.6348 92.5 14.8535 93.2109 15.5645C93.9219 16.2754 94.1406 17.1504 94.1953 18.1348ZM92.8828 24.2598C93.2109 23.4668 93.1289 21.5527 93.1289 20.6504C93.1289 19.7754 93.2109 17.8613 92.8828 17.041C92.6641 16.5215 92.2539 16.084 91.7344 15.8926C90.9141 15.5645 89 15.6465 88.125 15.6465C87.2227 15.6465 85.3086 15.5645 84.5156 15.8926C83.9688 16.1113 83.5586 16.5215 83.3398 17.041C83.0117 17.8613 83.0938 19.7754 83.0938 20.6504C83.0938 21.5527 83.0117 23.4668 83.3398 24.2598C83.5586 24.8066 83.9688 25.2168 84.5156 25.4355C85.3086 25.7637 87.2227 25.6816 88.125 25.6816C89 25.6816 90.9141 25.7637 91.7344 25.4355C92.2539 25.2168 92.6914 24.8066 92.8828 24.2598Z" fill="white"/>
<path d="M127.734 25.9004H125.191V17.7246H127.734V25.9004ZM126.449 16.6309C125.656 16.6309 125 15.9473 125 15.127C125 14.334 125.656 13.6777 126.449 13.6777C127.27 13.6777 127.926 14.334 127.926 15.127C127.926 15.9473 127.27 16.6309 126.449 16.6309ZM137.223 25.9004H134.707V21.9355C134.707 20.9785 134.68 19.7754 133.367 19.7754C132.055 19.7754 131.863 20.7871 131.863 21.8535V25.9004H129.32V17.7246H131.754V18.8457H131.781C132.137 18.2168 132.957 17.5332 134.188 17.5332C136.758 17.5332 137.25 19.2285 137.25 21.416V25.9004H137.223Z" fill="white"/>
</svg>
