<svg width="22" height="22" viewBox="0 0 22 22" fill="none" xmlns="http://www.w3.org/2000/svg">
<path d="M18.9017 1.79667C18.5349 1.43086 18.0386 1.22445 17.5206 1.22223H6.32502C5.80699 1.22445 5.31072 1.43086 4.94391 1.79667L3.11058 3.63001C2.74476 3.99681 2.53835 4.49308 2.53613 5.01112V18.8222C2.5359 19.079 2.58655 19.3332 2.68515 19.5703C2.78375 19.8073 2.92834 20.0225 3.11058 20.2033C3.47438 20.5662 3.96567 20.7724 4.47947 20.7778H17.5206C18.0392 20.7778 18.5366 20.5718 18.9034 20.205C19.2701 19.8383 19.4761 19.3409 19.4761 18.8222V3.17778C19.4739 2.65975 19.2675 2.16348 18.9017 1.79667ZM4.02113 4.5589L5.85447 2.72556C5.97644 2.60468 6.14107 2.53663 6.3128 2.53612H6.4228V4.49167C6.41972 4.65984 6.35196 4.82036 6.2336 4.93986C6.11523 5.05936 5.95538 5.12865 5.78725 5.13334H3.83169V5.02334C3.83114 4.93727 3.8476 4.85193 3.88011 4.77223C3.91262 4.69253 3.96054 4.62003 4.02113 4.5589ZM18.1684 18.8222C18.1684 18.9957 18.0995 19.162 17.9768 19.2846C17.8542 19.4072 17.6879 19.4761 17.5145 19.4761H4.47947C4.30711 19.4745 4.14235 19.4049 4.02104 19.2825C3.89973 19.16 3.83168 18.9946 3.83169 18.8222V6.43501H5.78725C6.04405 6.43501 6.29834 6.38443 6.5356 6.28615C6.77286 6.18787 6.98844 6.04383 7.17003 5.86224C7.35162 5.68065 7.49567 5.46507 7.59394 5.22781C7.69222 4.99055 7.7428 4.73626 7.7428 4.47945V2.5239H17.5206C17.6929 2.52551 17.8577 2.59511 17.979 2.71756C18.1003 2.84002 18.1684 3.00542 18.1684 3.17778V18.8222Z" fill="white"/>
<path d="M7.08887 9.04443H14.9111V10.3461H7.08887V9.04443Z" fill="white"/>
<path d="M7.08887 11.6539H11V12.9556H7.08887V11.6539Z" fill="white"/>
<path d="M11 16.2128H13.6094V17.5144H11V16.2128Z" fill="white"/>
<path d="M14.9111 16.2128H16.2128V17.5144H14.9111V16.2128Z" fill="white"/>
</svg>
