<svg width="90" height="90" viewBox="0 0 90 90" fill="none" xmlns="http://www.w3.org/2000/svg">
<rect x="0.5" y="0.5" width="89" height="89" rx="17.5" fill="#F6F6F6" stroke="#E5E5E5"/>
<path d="M60.085 27.43C59.3847 26.7316 58.4373 26.3375 57.4483 26.3333H36.075C35.086 26.3375 34.1386 26.7316 33.4383 27.43L29.9383 30.93C29.24 31.6302 28.8459 32.5777 28.8417 33.5666V59.9333C28.8412 60.4235 28.9379 60.9088 29.1261 61.3614C29.3144 61.8139 29.5904 62.2247 29.9383 62.57C30.6328 63.2627 31.5708 63.6563 32.5517 63.6666H57.4483C58.4385 63.6666 59.3881 63.2733 60.0882 62.5732C60.7883 61.873 61.1817 60.9235 61.1817 59.9333V30.0666C61.1774 29.0777 60.7834 28.1302 60.085 27.43ZM31.6767 32.7033L35.1767 29.2033C35.4095 28.9725 35.7238 28.8426 36.0517 28.8416H36.2617V32.575C36.2558 32.896 36.1264 33.2025 35.9005 33.4306C35.6745 33.6587 35.3693 33.791 35.0483 33.8H31.315V33.59C31.314 33.4257 31.3454 33.2627 31.4074 33.1106C31.4695 32.9584 31.561 32.82 31.6767 32.7033ZM58.685 59.9333C58.685 60.2644 58.5535 60.5819 58.3194 60.816C58.0853 61.0501 57.7677 61.1816 57.4367 61.1816H32.5517C32.2226 61.1786 31.9081 61.0457 31.6765 60.8119C31.4449 60.5781 31.315 60.2624 31.315 59.9333V36.285H35.0483C35.5386 36.285 36.0241 36.1884 36.477 36.0008C36.93 35.8132 37.3415 35.5382 37.6882 35.1915C38.0349 34.8448 38.3099 34.4333 38.4975 33.9803C38.6851 33.5274 38.7817 33.0419 38.7817 32.5516V28.8183H57.4483C57.7774 28.8214 58.0919 28.9543 58.3235 29.188C58.5551 29.4218 58.685 29.7376 58.685 30.0666V59.9333Z" fill="#181A1F"/>
<path d="M37.5333 41.2667H52.4667V43.7517H37.5333V41.2667Z" fill="#181A1F"/>
<path d="M37.5333 46.2484H45V48.7334H37.5333V46.2484Z" fill="#181A1F"/>
<path d="M45 54.9517H49.9817V57.4367H45V54.9517Z" fill="#181A1F"/>
<path d="M52.4667 54.9517H54.9517V57.4367H52.4667V54.9517Z" fill="#181A1F"/>
</svg>
