<svg width="16" height="16" viewBox="0 0 16 16" fill="none" xmlns="http://www.w3.org/2000/svg">
<g clip-path="url(#clip0_78_7967)">
<path d="M7.9992 16C5.4192 15.955 2.1342 10.275 2.1342 5.86499C2.11714 5.09011 2.25718 4.3198 2.54588 3.60052C2.83458 2.88123 3.26597 2.22786 3.81402 1.6798C4.36207 1.13175 5.01544 0.700366 5.73473 0.411664C6.45402 0.122961 7.22433 -0.0170785 7.9992 -1.19992e-05C8.77408 -0.0170785 9.54439 0.122961 10.2637 0.411664C10.983 0.700366 11.6363 1.13175 12.1844 1.6798C12.7324 2.22786 13.1638 2.88123 13.4525 3.60052C13.7412 4.3198 13.8813 5.09011 13.8642 5.86499C13.8642 9.24499 12.0042 13.095 10.2042 14.865C9.4392 15.62 8.7042 16 7.9992 16ZM7.9992 1.06499C7.36303 1.04338 6.7292 1.15276 6.13707 1.38633C5.54493 1.61991 5.00712 1.9727 4.55702 2.4228C4.10691 2.8729 3.75413 3.41071 3.52055 4.00285C3.28697 4.59499 3.1776 5.22881 3.1992 5.86499C3.1992 10.09 6.3342 14.905 8.0092 14.93C8.57519 14.836 9.08922 14.5435 9.4592 14.105C11.0642 12.525 12.7992 8.92499 12.7992 5.86499C12.8208 5.22881 12.7114 4.59499 12.4779 4.00285C12.2443 3.41071 11.8915 2.8729 11.4414 2.4228C10.9913 1.9727 10.4535 1.61991 9.86134 1.38633C9.2692 1.15276 8.63538 1.04338 7.9992 1.06499Z" fill="white"/>
<path d="M8.00094 8.53499C7.47385 8.53499 6.9586 8.37869 6.52034 8.08585C6.08209 7.79302 5.74051 7.3768 5.5388 6.88984C5.33709 6.40287 5.28432 5.86703 5.38715 5.35007C5.48998 4.83311 5.74379 4.35826 6.1165 3.98555C6.48921 3.61284 6.96406 3.35902 7.48102 3.2562C7.99798 3.15337 8.53383 3.20614 9.02079 3.40785C9.50776 3.60956 9.92397 3.95114 10.2168 4.38939C10.5096 4.82765 10.6659 5.3429 10.6659 5.86999C10.6646 6.57638 10.3834 7.25347 9.88392 7.75297C9.38442 8.25247 8.70733 8.53367 8.00094 8.53499ZM8.00094 4.26999C7.68449 4.26999 7.37515 4.36383 7.11203 4.53964C6.84891 4.71545 6.64383 4.96533 6.52273 5.25769C6.40163 5.55006 6.36995 5.87176 6.43168 6.18213C6.49342 6.4925 6.6458 6.77759 6.86957 7.00136C7.09333 7.22512 7.37843 7.37751 7.68879 7.43924C7.99916 7.50098 8.32087 7.4693 8.61323 7.3482C8.90559 7.22709 9.15548 7.02202 9.33129 6.7589C9.5071 6.49578 9.60094 6.18644 9.60094 5.86999C9.6016 5.65945 9.5607 5.45086 9.48058 5.25616C9.40047 5.06146 9.28272 4.88449 9.13408 4.73538C8.98544 4.58628 8.80884 4.46798 8.61439 4.38726C8.41994 4.30654 8.21148 4.26499 8.00094 4.26499V4.26999Z" fill="white"/>
</g>
<defs>
<clipPath id="clip0_78_7967">
<rect width="16" height="16" fill="white"/>
</clipPath>
</defs>
</svg>
