<svg width="90" height="90" viewBox="0 0 90 90" fill="none" xmlns="http://www.w3.org/2000/svg">
<rect x="0.5" y="0.5" width="89" height="89" rx="17.5" fill="#F6F6F6" stroke="#E5E5E5"/>
<path d="M59.9333 28.8183H53.715V26.3333H51.2183V28.8183H38.7816V26.3333H36.285V28.8183H30.0666C29.0765 28.8183 28.1269 29.2116 27.4268 29.9118C26.7266 30.6119 26.3333 31.5615 26.3333 32.5516V59.9333C26.3333 60.9235 26.7266 61.873 27.4268 62.5732C28.1269 63.2733 29.0765 63.6666 30.0666 63.6666H59.9333C60.9235 63.6666 61.873 63.2733 62.5732 62.5732C63.2733 61.873 63.6666 60.9235 63.6666 59.9333V32.5516C63.6666 31.5615 63.2733 30.6119 62.5732 29.9118C61.873 29.2116 60.9235 28.8183 59.9333 28.8183ZM30.0666 31.315H36.285V33.8H38.77V31.315H51.2183V33.8H53.7033V31.315H59.9333C60.2644 31.315 60.5819 31.4465 60.816 31.6806C61.0501 31.9147 61.1816 32.2322 61.1816 32.5633V38.7816H28.8183V32.5516C28.8214 32.2226 28.9543 31.9081 29.188 31.6765C29.4218 31.4449 29.7376 31.315 30.0666 31.315ZM59.9333 61.1816H30.0666C29.7356 61.1816 29.418 61.0501 29.1839 60.816C28.9498 60.5819 28.8183 60.2644 28.8183 59.9333V41.2666H61.1816V59.9333C61.1816 60.2644 61.0501 60.5819 60.816 60.816C60.5819 61.0501 60.2644 61.1816 59.9333 61.1816Z" fill="#181A1F"/>
<path d="M50.7633 48.78L47.8933 47.6834L45.9683 45.2917C45.8513 45.1478 45.7036 45.0318 45.5361 44.9522C45.3686 44.8725 45.1855 44.8312 45 44.8312C44.8145 44.8312 44.6314 44.8725 44.4639 44.9522C44.2964 45.0318 44.1487 45.1478 44.0317 45.2917L42.1067 47.6834L39.2367 48.78C39.0637 48.8472 38.9079 48.9521 38.7806 49.087C38.6533 49.222 38.5577 49.3836 38.5007 49.5602C38.4437 49.7367 38.4268 49.9238 38.4512 50.1077C38.4756 50.2916 38.5406 50.4677 38.6417 50.6234L40.3333 53.1667L40.485 56.235C40.4947 56.4208 40.5459 56.6021 40.6347 56.7656C40.7235 56.9291 40.8477 57.0707 40.9983 57.18C41.1506 57.2875 41.3243 57.3609 41.5075 57.3951C41.6907 57.4294 41.8792 57.4236 42.06 57.3784L45 56.5967L47.9633 57.4017C48.1446 57.4491 48.3342 57.455 48.5181 57.4191C48.702 57.3833 48.8754 57.3064 49.0256 57.1944C49.1758 57.0823 49.2988 56.9379 49.3855 56.7718C49.4722 56.6057 49.5205 56.4223 49.5267 56.235L49.6667 53.1667L51.3467 50.5884C51.4477 50.4327 51.5127 50.2566 51.5371 50.0727C51.5615 49.8888 51.5446 49.7017 51.4876 49.5252C51.4306 49.3486 51.335 49.187 51.2077 49.052C51.0804 48.9171 50.9246 48.8122 50.7517 48.745L50.7633 48.78ZM47.415 52.1167C47.2955 52.3017 47.2271 52.515 47.2167 52.735L47.1233 54.6017L45.3267 54.1117C45.1127 54.0542 44.8873 54.0542 44.6733 54.1117L42.8767 54.6017L42.7833 52.735C42.7729 52.515 42.7045 52.3017 42.585 52.1167L41.57 50.5534L43.3083 49.8884C43.5143 49.8087 43.6955 49.6759 43.8333 49.5034L45 48.045L46.1667 49.5034C46.3045 49.6759 46.4857 49.8087 46.6917 49.8884L48.43 50.5534L47.415 52.1167Z" fill="#181A1F"/>
</svg>
