<svg width="35" height="29" viewBox="0 0 35 29" fill="none" xmlns="http://www.w3.org/2000/svg">
<path fill-rule="evenodd" clip-rule="evenodd" d="M4.02432 3.9478V27.216H0V29H10.4964V14.6283L19.8289 29L24.3119 29L33.3434 29L34.8083 29V27.216H32.1106L31.6446 26.5418L30.784 25.0855V0H24.3119V14.5388L15.0588 0H10.0815H4.02432H1.40511L3.11182 2.33045L4.02432 3.9478ZM18.8118 9.98894C18.6061 9.84095 18.2244 9.56727 17.9636 9.38083C17.7029 9.1943 17.2534 8.86808 16.9646 8.65582C16.6759 8.44357 16.3659 8.22046 16.276 8.15992C16.1858 8.09947 15.8772 7.87564 15.59 7.66259C15.3029 7.44947 14.9418 7.18704 14.7877 7.07932C14.6336 6.9716 14.3248 6.74786 14.1016 6.58207C13.8782 6.41637 13.4827 6.12787 13.2225 5.94111C12.9622 5.75435 12.6005 5.49224 12.4187 5.35863C11.4972 4.68147 10.6969 4.11414 10.5611 4.04163C10.4777 3.99705 10.3931 3.93009 10.3733 3.89274C10.3534 3.85549 10.3024 3.82205 10.2597 3.8185C10.2171 3.81494 10.1191 3.75732 10.0418 3.6905L9.90144 3.56897L10.0246 3.74981C10.0922 3.84931 10.2726 4.06373 10.4256 4.22623C10.5785 4.3888 10.8218 4.64737 10.9663 4.80081C11.1108 4.95426 11.2808 5.14101 11.344 5.21574C11.456 5.34794 11.7636 5.69142 12.2856 6.26683C12.4264 6.42226 12.64 6.66339 12.76 6.80277C12.8802 6.94207 13.063 7.14412 13.1667 7.25158C13.2701 7.35912 13.4348 7.54865 13.5327 7.67269C13.6305 7.79682 13.8017 7.99396 13.9129 8.11095C14.0243 8.22786 14.2066 8.43015 14.3184 8.5604C14.5136 8.78835 14.8785 9.19248 15.2366 9.5776C15.5348 9.89847 15.4952 9.96288 14.8624 10.187C14.6347 10.2677 14.3195 10.3824 14.1616 10.4418C14.0038 10.5012 13.6997 10.6095 13.4857 10.6822C13.2719 10.755 12.9223 10.8749 12.709 10.9488C12.4956 11.0226 12.2545 11.1031 12.1729 11.1278C12.0181 11.1745 12.179 11.4916 12.3696 11.5153C12.4087 11.5202 12.4564 11.5533 12.4753 11.5889C12.4942 11.6245 12.6014 11.7238 12.7134 11.8096C12.9029 11.9547 13.1711 12.168 13.4319 12.3815C13.6217 12.5368 13.9815 12.8194 14.1681 12.9599C14.2668 13.0344 14.3695 13.1361 14.3961 13.186C14.4226 13.2359 14.4771 13.2804 14.5171 13.2848C14.5572 13.2892 14.6584 13.3562 14.7422 13.4336C14.826 13.511 14.99 13.6455 15.1065 13.7325C15.2232 13.8195 15.3652 13.9435 15.4223 14.008C15.4794 14.0724 15.5599 14.1317 15.6014 14.1397C15.6428 14.1476 15.7421 14.2167 15.8219 14.2934C16.0257 14.4889 16.2727 14.6958 16.3759 14.7571C16.489 14.8244 16.7937 15.0843 16.9097 15.2122C16.9594 15.267 17.0338 15.3185 17.075 15.3266C17.1162 15.3346 17.2145 15.4043 17.2936 15.4814C17.3726 15.5583 17.5321 15.6928 17.6482 15.7801C17.7642 15.8674 17.9196 15.9954 17.9933 16.0646C18.067 16.1338 18.2223 16.2618 18.3384 16.3491C18.4545 16.4364 18.6149 16.5719 18.6951 16.6501C18.7751 16.7282 18.8764 16.7952 18.9202 16.7988C18.9639 16.8025 19.0241 16.8517 19.0542 16.9083C19.0843 16.9648 19.1772 17.0495 19.2607 17.0965C19.852 17.4294 19.6842 17.7365 18.8484 17.851C18.7803 17.8603 18.6809 17.8911 18.6273 17.9196C18.5341 17.9692 18.1334 18.093 17.5973 18.2377C17.0859 18.3759 17.0918 18.4644 17.643 18.9356C18.041 19.2757 18.3152 19.5315 18.4333 19.673C18.4961 19.748 18.5797 19.8155 18.619 19.8229C18.6584 19.8303 18.7672 19.9166 18.8608 20.0146C18.9543 20.1126 19.1342 20.2819 19.2605 20.3909C19.3869 20.4998 19.5485 20.6466 19.6199 20.717C19.7819 20.9623 21.174 22.1733 22.0855 22.9661C22.5337 23.356 22.8657 23.6447 22.8779 23.6678C22.9152 23.7378 22.9781 23.7915 23.0179 23.7871C23.0577 23.7827 23.1097 23.8159 23.1336 23.8608C23.1575 23.9057 23.2711 24.0269 23.3859 24.1301C23.5008 24.2333 23.7079 24.424 23.8459 24.5538C23.9839 24.6836 24.253 24.9285 24.4436 25.098C24.6344 25.2675 24.8243 25.4437 24.8658 25.4893C24.9073 25.535 24.9831 25.3949 24.9064 25.246C24.8297 25.0972 24.7473 24.9637 24.7232 24.9494C24.6992 24.9351 24.5509 24.7479 24.3936 24.5335C24.2365 24.319 23.958 23.9572 23.7749 23.7294C23.5918 23.5017 23.3306 23.1753 23.1946 23.0041C22.9075 22.643 21.1437 20.5756 21.1437 20.5756C21.1342 20.5644 21.1209 20.5468 21.0985 20.5172C21.0191 20.412 20.8245 20.1542 20.273 19.483C19.8589 18.9792 19.8682 18.7411 20.3017 18.7434C20.3418 18.7436 20.538 18.6948 20.7378 18.6351C20.9376 18.5754 21.4718 18.4178 21.9251 18.2849C22.3785 18.1519 22.771 18.0317 22.7972 18.0177C22.8742 17.9768 22.7898 17.8673 22.4852 17.6127C22.1191 17.3066 19.3791 14.9289 18.8628 14.4693C18.7559 14.374 17.4342 13.2415 16.8761 12.767C16.6016 12.5336 16.3176 12.2856 16.2448 12.2159C16.172 12.1463 15.9926 11.9877 15.8462 11.8635C15.6997 11.7392 15.5812 11.6105 15.5829 11.5774C15.5829 11.5758 15.583 11.5742 15.5831 11.5727C15.5833 11.5656 15.5835 11.5592 15.5862 11.5527C15.6078 11.5002 15.7907 11.4438 17.4642 10.9271L17.5981 10.8858C18.441 10.6255 19.1505 10.3891 19.1749 10.3605L19.1774 10.3577C19.1876 10.3456 19.196 10.3358 19.2003 10.3259C19.2196 10.2821 19.1592 10.2387 18.8298 10.0019L18.8118 9.98894Z" fill="white"/>
</svg>
