<svg width="24" height="24" viewBox="0 0 24 24" fill="none" xmlns="http://www.w3.org/2000/svg">
<g clip-path="url(#clip0_188_9905)">
<path d="M22.5938 19.9022V2.10938C22.5938 0.946266 21.6475 0 20.4844 0H3.51562C2.35252 0 1.40625 0.946266 1.40625 2.10938V19.9022C0.587859 20.1924 0 20.974 0 21.8906V23.2969C0 23.6852 0.314812 24 0.703125 24H23.2969C23.6852 24 24 23.6852 24 23.2969V21.8906C24 20.974 23.4121 20.1924 22.5938 19.9022ZM2.8125 2.10938C2.8125 1.72167 3.12792 1.40625 3.51562 1.40625H20.4844C20.8721 1.40625 21.1875 1.72167 21.1875 2.10938V19.7812H15.5625V16.2656C15.5625 15.1025 14.6162 14.1562 13.4531 14.1562H10.5469C9.38377 14.1562 8.4375 15.1025 8.4375 16.2656V19.7812H2.8125V2.10938ZM14.1562 16.2656V19.7812H12.75V15.5625H13.4531C13.8408 15.5625 14.1562 15.8779 14.1562 16.2656ZM11.3438 15.5625V19.7812H9.84375V16.2656C9.84375 15.8779 10.1592 15.5625 10.5469 15.5625H11.3438ZM22.5938 22.5938H1.40625V21.8906C1.40625 21.5029 1.72167 21.1875 2.10938 21.1875C2.38031 21.1875 21.6203 21.1875 21.8906 21.1875C22.2783 21.1875 22.5938 21.5029 22.5938 21.8906V22.5938Z" fill="#181A1F"/>
<path d="M7.73438 2.8125H4.92188C4.53356 2.8125 4.21875 3.12731 4.21875 3.51562V6.32812C4.21875 6.71644 4.53356 7.03125 4.92188 7.03125H7.73438C8.12269 7.03125 8.4375 6.71644 8.4375 6.32812V3.51562C8.4375 3.12731 8.12269 2.8125 7.73438 2.8125ZM7.03125 5.625H5.625V4.21875H7.03125V5.625Z" fill="#181A1F"/>
<path d="M13.4531 2.8125H10.5469C10.1586 2.8125 9.84375 3.12731 9.84375 3.51562V6.32812C9.84375 6.71644 10.1586 7.03125 10.5469 7.03125H13.4531C13.8414 7.03125 14.1562 6.71644 14.1562 6.32812V3.51562C14.1562 3.12731 13.8414 2.8125 13.4531 2.8125ZM12.75 5.625H11.25V4.21875H12.75V5.625Z" fill="#181A1F"/>
<path d="M19.0781 2.8125H16.2656C15.8773 2.8125 15.5625 3.12731 15.5625 3.51562V6.32812C15.5625 6.71644 15.8773 7.03125 16.2656 7.03125H19.0781C19.4664 7.03125 19.7812 6.71644 19.7812 6.32812V3.51562C19.7812 3.12731 19.4664 2.8125 19.0781 2.8125ZM18.375 5.625H16.9688V4.21875H18.375V5.625Z" fill="#181A1F"/>
<path d="M7.73438 8.53125H4.92188C4.53356 8.53125 4.21875 8.84606 4.21875 9.23438V12.0469C4.21875 12.4352 4.53356 12.75 4.92188 12.75H7.73438C8.12269 12.75 8.4375 12.4352 8.4375 12.0469V9.23438C8.4375 8.84606 8.12269 8.53125 7.73438 8.53125ZM7.03125 11.3438H5.625V9.9375H7.03125V11.3438Z" fill="#181A1F"/>
<path d="M13.4531 8.53125H10.5469C10.1586 8.53125 9.84375 8.84606 9.84375 9.23438V12.0469C9.84375 12.4352 10.1586 12.75 10.5469 12.75H13.4531C13.8414 12.75 14.1562 12.4352 14.1562 12.0469V9.23438C14.1562 8.84606 13.8414 8.53125 13.4531 8.53125ZM12.75 11.3438H11.25V9.9375H12.75V11.3438Z" fill="#181A1F"/>
<path d="M19.0781 8.53125H16.2656C15.8773 8.53125 15.5625 8.84606 15.5625 9.23438V12.0469C15.5625 12.4352 15.8773 12.75 16.2656 12.75H19.0781C19.4664 12.75 19.7812 12.4352 19.7812 12.0469V9.23438C19.7812 8.84606 19.4664 8.53125 19.0781 8.53125ZM18.375 11.3438H16.9688V9.9375H18.375V11.3438Z" fill="#181A1F"/>
</g>
<defs>
<clipPath id="clip0_188_9905">
<rect width="24" height="24" fill="white"/>
</clipPath>
</defs>
</svg>
