<svg width="27" height="10" viewBox="0 0 27 10" fill="none" xmlns="http://www.w3.org/2000/svg">
<path d="M20.7671 2.59304C20.8725 2.50866 20.9253 2.46647 20.978 2.42429C21.711 1.80202 22.6497 1.87057 23.2772 2.60886C23.3405 2.68268 23.3722 2.68796 23.4354 2.62468C23.4776 2.57722 23.5251 2.5403 23.5673 2.49284C24.0577 2.01296 24.7063 1.87058 25.3128 2.13952C25.9509 2.42429 26.2936 2.92526 26.2989 3.62663C26.3095 5.14011 26.3042 6.64831 26.3042 8.16179C26.3042 8.69968 25.972 9.03718 25.4393 9.03718C25.2284 9.03718 25.0175 9.02136 24.8065 9.04245C24.5903 9.06354 24.527 8.99499 24.527 8.76823C24.5376 7.29167 24.5323 5.81511 24.5323 4.33854C24.5323 4.27526 24.5323 4.21725 24.5323 4.15397C24.527 3.8112 24.3899 3.66882 24.063 3.653C23.7677 3.63718 23.562 3.81647 23.5304 4.11706C23.5251 4.18561 23.5304 4.25944 23.5304 4.328C23.5304 5.60417 23.5304 6.87507 23.5304 8.15124C23.5304 8.71022 23.2087 9.03718 22.6497 9.0319C22.3649 9.02663 21.98 9.15847 21.8165 8.9739C21.6741 8.81569 21.769 8.44128 21.769 8.16179C21.769 6.85397 21.769 5.54089 21.769 4.23308C21.769 3.76901 21.4684 3.53171 21.0782 3.68991C20.8356 3.79011 20.7565 3.98522 20.7565 4.23835C20.7618 5.46179 20.7565 6.67995 20.7565 7.90339C20.7565 7.99831 20.7565 8.09851 20.7565 8.19343C20.7407 8.70495 20.4138 9.02663 19.9075 9.0319C19.6966 9.03718 19.4856 9.01608 19.2747 9.03718C19.0479 9.05827 18.9794 8.99499 18.9847 8.75241C18.9952 6.67995 18.9899 4.60749 18.9899 2.52975C18.9899 2.44011 18.9952 2.35573 18.9899 2.26608C18.9794 2.15007 19.0268 2.11315 19.1429 2.11315C19.628 2.11843 20.1079 2.11843 20.5931 2.11315C20.7143 2.11315 20.7723 2.14479 20.7618 2.27663C20.7513 2.37155 20.7618 2.45593 20.7671 2.59304Z" fill="#02B9EF"/>
<path d="M9.58962 5.45089C9.58962 6.17335 9.58962 6.89054 9.58962 7.613C9.58434 8.55167 9.09391 9.03682 8.15524 9.0421C7.74391 9.0421 7.32731 9.04737 6.91598 9.0421C6.08278 9.03155 5.47106 8.47784 5.42887 7.64464C5.39723 7.04874 5.39196 6.44757 5.4236 5.85167C5.46579 4.99737 6.11969 4.3962 6.98454 4.38565C7.2113 4.38038 7.44333 4.38565 7.67009 4.38565C7.89157 4.38038 7.97595 4.25382 7.97067 4.04288C7.97067 3.83194 7.87575 3.73702 7.66481 3.74757C7.42751 3.75284 7.1902 3.75284 6.9529 3.74757C6.37282 3.73702 6.05114 3.42061 6.05641 2.85108C6.05641 2.61905 5.95095 2.30792 6.10387 2.17081C6.23571 2.05479 6.5363 2.12862 6.76305 2.12862C7.35368 2.12335 7.93903 2.12862 8.52966 2.12862C9.15719 2.12862 9.58434 2.55577 9.58962 3.18858C9.59489 3.93741 9.58962 4.69679 9.58962 5.45089ZM7.97594 6.64796C7.97594 6.55831 7.97594 6.47393 7.97594 6.38428C7.97594 5.84639 7.97594 5.84639 7.43805 5.86749C7.16911 5.87804 7.02145 6.01515 7.01618 6.29464C7.01091 6.51612 7.01091 6.73233 7.01618 6.95382C7.02145 7.3335 7.1902 7.4337 7.73864 7.44952C8.1447 7.46007 7.93903 7.1753 7.97594 7.0171C7.99704 6.90108 7.97067 6.76925 7.97594 6.64796Z" fill="#06306F"/>
<path d="M14.2802 4.87729C14.2802 5.68413 14.2907 6.49624 14.2749 7.30308C14.2644 7.92534 14.1167 8.4896 13.5155 8.82183C13.273 8.95366 13.0093 9.02749 12.7351 9.03276C12.1286 9.04331 11.5222 9.03276 10.9157 9.04331C10.7681 9.04331 10.7364 8.99058 10.7417 8.85874C10.7523 8.63726 10.7364 8.42104 10.747 8.19956C10.7575 7.77769 11.0792 7.456 11.5011 7.44018C11.7753 7.42964 12.0443 7.43491 12.3185 7.44018C12.54 7.44018 12.6612 7.35054 12.6612 7.11323C12.6612 6.87065 12.5452 6.78628 12.3237 6.781C11.9546 6.77046 11.5855 6.82319 11.2216 6.71772C10.5941 6.53315 10.1353 6.01108 10.1195 5.36245C10.0878 4.33413 10.1089 3.30581 10.1036 2.27749C10.1036 2.16147 10.1405 2.12456 10.2566 2.12983C10.689 2.13511 11.1161 2.14038 11.5486 2.12983C11.7384 2.12456 11.712 2.23003 11.712 2.34604C11.712 3.12124 11.712 3.89116 11.712 4.66636C11.712 5.00386 11.8702 5.18315 12.1655 5.1937C12.5136 5.20425 12.6665 5.06186 12.6665 4.70854C12.6665 3.92808 12.6718 3.14233 12.6612 2.36186C12.6612 2.17729 12.7087 2.12456 12.8933 2.12983C13.2782 2.14565 13.6685 2.15093 14.0534 2.12983C14.2644 2.11929 14.296 2.19839 14.2907 2.38296C14.2749 3.21089 14.2802 4.04409 14.2802 4.87729Z" fill="#06306F"/>
<path d="M0.844693 6.07488C0.844693 5.21531 0.844693 4.35047 0.844693 3.4909C0.844693 2.64715 1.36149 2.11981 2.21051 2.13035C2.76422 2.13563 3.31794 2.06707 3.86637 2.17254C4.56774 2.30965 5.01071 2.85281 5.01598 3.57528C5.02126 4.33992 5.01598 5.10457 5.01598 5.86922C5.01598 6.82899 4.45172 7.41434 3.49196 7.4407C3.20192 7.45125 2.91188 7.44598 2.62184 7.4407C2.49001 7.43543 2.432 7.47762 2.43727 7.62C2.44782 7.83094 2.44254 8.04188 2.43727 8.25282C2.42672 8.70633 2.10504 9.03328 1.6568 9.03856C1.39313 9.04383 1.0609 9.1493 0.892154 8.99637C0.733951 8.85399 0.849967 8.51649 0.844693 8.26336C0.83942 7.53563 0.844693 6.80262 0.844693 6.07488ZM2.43727 4.78289C2.43727 4.95164 2.43727 5.11512 2.43727 5.28387C2.43727 5.87977 2.43727 5.87977 3.03317 5.82703C3.29157 5.80594 3.41286 5.67938 3.41813 5.42098C3.4234 5.12567 3.40758 4.82508 3.4234 4.52977C3.45504 3.67547 3.29684 3.75985 2.60075 3.75457C2.47419 3.75457 2.432 3.79149 2.432 3.91805C2.44254 4.20281 2.43727 4.49285 2.43727 4.78289Z" fill="#06306F"/>
<path d="M15.772 6.08465C15.772 5.38328 15.7668 4.67664 15.7773 3.97527C15.7773 3.8118 15.7404 3.74324 15.5611 3.74851C15.3238 3.75906 15.0074 3.82762 14.8755 3.7116C14.7121 3.55867 14.8386 3.23172 14.8175 2.97859C14.8175 2.96277 14.8175 2.94168 14.8175 2.92586C14.8175 2.67801 14.7384 2.38797 14.8439 2.2034C14.9494 2.01883 15.2711 2.13484 15.4978 2.07683C15.9461 1.96082 16.2836 1.70242 16.5578 1.34383C16.7476 1.10125 16.9849 0.927225 17.2908 0.869217C17.4543 0.837576 17.5545 0.85867 17.5439 1.06961C17.5281 1.36492 17.5439 1.66551 17.5386 1.96609C17.5334 2.09265 17.5808 2.13484 17.7074 2.12957C17.9183 2.1243 18.1293 2.13484 18.3402 2.1243C18.4668 2.11902 18.5089 2.16648 18.5037 2.29304C18.4984 2.72547 18.4984 3.15262 18.5037 3.58504C18.5037 3.70633 18.472 3.76961 18.3402 3.75379C18.3138 3.74851 18.2875 3.75379 18.2611 3.75379C18.0291 3.77488 17.7074 3.64832 17.5861 3.80652C17.4701 3.95418 17.5439 4.26004 17.5439 4.49734C17.5439 5.93172 17.5386 7.36082 17.5492 8.79519C17.5492 8.99558 17.4964 9.05887 17.2961 9.04305C17.1062 9.02722 16.9111 9.04305 16.716 9.03777C16.1464 9.01668 15.772 8.63172 15.772 8.06219C15.772 7.40301 15.772 6.74383 15.772 6.08465Z" fill="#02B9EF"/>
</svg>
