<svg width="90" height="90" viewBox="0 0 90 90" fill="none" xmlns="http://www.w3.org/2000/svg">
<rect x="0.5" y="0.5" width="89" height="89" rx="17.5" fill="#F6F6F6" stroke="#E5E5E5"/>
<g clip-path="url(#clip0_141_6047)">
<path d="M45.7612 47.8088H44.2387C44.0038 47.8088 43.7784 47.7154 43.6123 47.5493C43.4461 47.3831 43.3528 47.1578 43.3528 46.9228C43.3528 46.6878 43.4461 46.4625 43.6123 46.2964C43.7784 46.1302 44.0038 46.0369 44.2387 46.0369H47.7431C47.9381 46.0558 48.1348 46.0337 48.3207 45.9721C48.5066 45.9104 48.6776 45.8106 48.8226 45.6789C48.9676 45.5473 49.0835 45.3868 49.1628 45.2077C49.2421 45.0286 49.2831 44.8349 49.2831 44.6391C49.2831 44.4432 49.2421 44.2495 49.1628 44.0704C49.0835 43.8913 48.9676 43.7308 48.8226 43.5992C48.6776 43.4675 48.5066 43.3677 48.3207 43.3061C48.1348 43.2444 47.9381 43.2223 47.7431 43.2413H46.4306V42.5194C46.3969 42.172 46.2351 41.8497 45.9767 41.6151C45.7183 41.3805 45.3818 41.2506 45.0328 41.2506C44.6838 41.2506 44.3473 41.3805 44.0889 41.6151C43.8305 41.8497 43.6687 42.172 43.635 42.5194V43.3069C42.7263 43.4621 41.9091 43.9532 41.3456 44.6828C40.782 45.4123 40.5132 46.327 40.5925 47.2455C40.6718 48.1639 41.0934 49.0191 41.7736 49.6412C42.4539 50.2634 43.3431 50.6072 44.265 50.6044H45.7875C46.0225 50.6044 46.2478 50.6977 46.414 50.8639C46.5801 51.03 46.6734 51.2553 46.6734 51.4903C46.6734 51.7253 46.5801 51.9506 46.414 52.1168C46.2478 52.2829 46.0225 52.3763 45.7875 52.3763H42.2569C42.0619 52.3573 41.8652 52.3794 41.6793 52.4411C41.4934 52.5027 41.3224 52.6025 41.1774 52.7342C41.0324 52.8658 40.9165 53.0263 40.8372 53.2054C40.7579 53.3845 40.7169 53.5782 40.7169 53.7741C40.7169 53.9699 40.7579 54.1636 40.8372 54.3427C40.9165 54.5218 41.0324 54.6823 41.1774 54.8139C41.3224 54.9456 41.4934 55.0454 41.6793 55.1071C41.8652 55.1687 42.0619 55.1908 42.2569 55.1719H43.5694V55.8938C43.6031 56.2411 43.7649 56.5635 44.0233 56.798C44.2817 57.0326 44.6182 57.1625 44.9672 57.1625C45.3162 57.1625 45.6527 57.0326 45.9111 56.798C46.1695 56.5635 46.3313 56.2411 46.365 55.8938V55.1063C47.2737 54.951 48.0909 54.4599 48.6544 53.7304C49.218 53.0008 49.4868 52.0861 49.4075 51.1676C49.3282 50.2492 48.9066 49.3941 48.2264 48.7719C47.5461 48.1497 46.6569 47.806 45.735 47.8088H45.7612Z" fill="#181A1F"/>
<path d="M50.3288 33.3056L49.4363 30.2344C49.2672 29.6651 48.922 29.1642 48.4504 28.8034C47.9787 28.4426 47.4049 28.2405 46.8113 28.2262H46.4569C46.4557 28.0414 46.491 27.8581 46.5609 27.6869C46.6307 27.5158 46.7336 27.3601 46.8638 27.2287C46.9845 27.0886 47.1365 26.9787 47.3075 26.9081C47.4785 26.8374 47.6637 26.8079 47.8481 26.8219H50.6306C51.3768 26.8253 52.0911 27.1242 52.6175 27.653C53.1439 28.1818 53.4394 28.8976 53.4394 29.6437C53.4731 29.9911 53.6349 30.3135 53.8933 30.548C54.1517 30.7826 54.4882 30.9125 54.8372 30.9125C55.1862 30.9125 55.5227 30.7826 55.7811 30.548C56.0395 30.3135 56.2013 29.9911 56.235 29.6437C56.2367 28.9032 56.0924 28.1696 55.8102 27.485C55.528 26.8003 55.1135 26.1781 54.5905 25.6538C54.0675 25.1296 53.4462 24.7136 52.7622 24.4299C52.0782 24.1461 51.3449 24 50.6044 24H47.7956C47.245 23.9971 46.6993 24.1034 46.1901 24.313C45.681 24.5225 45.2184 24.831 44.8294 25.2206C44.0405 26.0117 43.5969 27.0828 43.5956 28.2H43.2413C42.6476 28.2143 42.0738 28.4163 41.6021 28.7771C41.1305 29.1379 40.7853 29.6389 40.6163 30.2081L39.7238 33.2794C35.9467 34.5455 32.743 37.1135 30.6852 40.5245C28.6275 43.9355 27.8498 47.9671 28.4912 51.8988C29.1326 55.8304 31.1513 59.4058 34.1865 61.9859C37.2217 64.566 41.0754 65.9827 45.0591 65.9827C49.0427 65.9827 52.8965 64.566 55.9316 61.9859C58.9668 59.4058 60.9855 55.8304 61.6269 51.8988C62.2683 47.9671 61.4907 43.9355 59.4329 40.5245C57.3752 37.1135 54.1714 34.5455 50.3944 33.2794L50.3288 33.3056ZM43.2413 31.0219H46.7456L47.3231 33.0037H42.6769L43.2413 31.0219ZM45 63.2044C41.6487 63.1843 38.4159 61.9619 35.8898 59.7596C33.3636 57.5573 31.7118 54.5214 31.235 51.2041C30.7581 47.8868 31.4879 44.5086 33.2914 41.6839C35.095 38.8592 37.8525 36.7758 41.0625 35.8125H48.9375C52.1475 36.7758 54.905 38.8592 56.7086 41.6839C58.5121 44.5086 59.2419 47.8868 58.765 51.2041C58.2882 54.5214 56.6364 57.5573 54.1103 59.7596C51.5841 61.9619 48.3513 63.1843 45 63.2044Z" fill="#181A1F"/>
<path d="M56.6025 33.4106L57.9937 34.815C58.2586 35.0739 58.6143 35.2189 58.9847 35.2189C59.3551 35.2189 59.7108 35.0739 59.9756 34.815C60.2377 34.5518 60.3848 34.1955 60.3848 33.8241C60.3848 33.4526 60.2377 33.0963 59.9756 32.8331L58.5844 31.4419C58.3163 31.2066 57.9688 31.0822 57.6123 31.0938C57.2559 31.1054 56.9172 31.2522 56.665 31.5044C56.4128 31.7566 56.2661 32.0953 56.2544 32.4517C56.2428 32.8082 56.3673 33.1557 56.6025 33.4238V33.4106Z" fill="#181A1F"/>
<path d="M58.2956 30.3262C58.4784 30.3264 58.6594 30.2906 58.8283 30.2207C58.9972 30.1509 59.1507 30.0485 59.28 29.9194L60.6844 28.515C60.8288 28.3883 60.9457 28.2333 61.0278 28.0596C61.1099 27.8859 61.1555 27.6972 61.1617 27.5052C61.168 27.3131 61.1348 27.1219 61.0641 26.9432C60.9935 26.7645 60.887 26.6022 60.7511 26.4664C60.6153 26.3305 60.453 26.224 60.2743 26.1534C60.0956 26.0828 59.9044 26.0495 59.7124 26.0558C59.5203 26.0621 59.3316 26.1076 59.1579 26.1897C58.9842 26.2718 58.8292 26.3887 58.7025 26.5331L57.2981 27.9375C57.1052 28.1338 56.9741 28.3825 56.9214 28.6527C56.8686 28.9228 56.8963 29.2025 57.0012 29.4571C57.1061 29.7116 57.2835 29.9296 57.5113 30.0842C57.7391 30.2387 58.0073 30.3229 58.2825 30.3262H58.2956Z" fill="#181A1F"/>
</g>
<defs>
<clipPath id="clip0_141_6047">
<rect width="42" height="42" fill="white" transform="translate(24 24)"/>
</clipPath>
</defs>
</svg>
