<svg width="768" height="34" viewBox="0 0 768 34" fill="none" xmlns="http://www.w3.org/2000/svg">
<path d="M18.2556 3.6H0.655625V26H8.97563V20.752H18.2556C23.3436 20.752 26.8316 17.168 26.8316 12.176C26.8316 7.184 23.3436 3.6 18.2556 3.6ZM16.6556 13.712H8.97563V10.64H16.6556C17.4876 10.64 18.5116 10.64 18.5116 12.176C18.5116 13.712 17.4876 13.712 16.6556 13.712ZM27.7806 0.4V26H35.4606V0.4H27.7806ZM55.2454 6.8V17.168C53.7414 18.608 51.3414 19.6 49.0694 19.6C45.6134 19.6 44.4294 18.192 44.4294 14.896V6.8H36.7494V18.032C36.7494 24.976 41.6454 26.32 45.9654 26.32C49.9974 26.32 52.9414 25.04 55.2454 23.44V26H62.9254V6.8H55.2454ZM82.3301 6.8V9.68C80.6661 7.664 77.9461 6.48 74.0741 6.48C68.1541 6.48 63.8981 9.296 63.8981 15.76C63.8981 22.224 68.1541 25.04 74.0741 25.04C77.9461 25.04 80.6661 23.856 82.3301 21.84C82.2661 26.704 80.2501 27.6 76.5061 27.6C72.3461 27.6 68.1221 26.672 65.9141 26.256V32.496C67.7381 32.976 72.4421 34 77.9141 34C84.5061 34 90.0101 31.216 90.0101 23.536V6.8H82.3301ZM76.9541 18.64C72.8901 18.64 71.5781 17.936 71.5781 15.76C71.5781 13.584 72.8901 12.88 76.9541 12.88C81.0181 12.88 82.3301 13.584 82.3301 15.76C82.3301 17.936 81.0181 18.64 76.9541 18.64ZM91.2806 0.4V5.52H98.9606V0.4H91.2806ZM91.2806 6.8V26H98.9606V6.8H91.2806ZM117.209 6.48C113.177 6.48 110.233 7.76 107.929 9.36V6.8H100.249V26H107.929V15.632C109.433 14.192 111.833 13.2 114.105 13.2C117.561 13.2 118.745 14.608 118.745 17.904V26H126.425V14.768C126.425 7.824 121.529 6.48 117.209 6.48ZM127.398 19.376C127.398 25.392 133.798 26.32 141.062 26.32C148.326 26.32 153.446 25.392 153.446 19.536C153.446 14.512 148.614 14.064 141.062 13.68C136.198 13.424 135.398 13.456 135.398 12.656C135.398 11.92 136.518 11.92 140.422 11.92C143.846 11.92 145.126 11.92 145.126 12.944H152.806C152.806 7.408 147.846 6.48 140.742 6.48C133.638 6.48 127.718 7.408 127.718 12.88C127.718 17.776 131.59 18.448 140.422 18.8C145.03 18.992 145.766 18.896 145.766 19.856C145.766 20.688 145.03 20.88 140.742 20.88C136.102 20.88 135.078 20.464 135.078 19.376H127.398ZM186.29 13.2V6.8H178.45V1.68L170.77 3.6V6.8H166.898V13.2H170.77V20.336C170.77 24.496 173.714 26.32 179.666 26.32C182.194 26.32 184.466 26.16 186.29 25.84V19.6C184.082 19.92 183.122 19.92 181.394 19.92C179.154 19.92 178.45 18.992 178.45 17.168V13.2H186.29ZM199.985 26.32C208.145 26.32 213.041 23.504 213.041 16.4C213.041 9.296 208.145 6.48 199.985 6.48C191.825 6.48 186.929 9.296 186.929 16.4C186.929 23.504 191.825 26.32 199.985 26.32ZM199.985 19.92C196.561 19.92 194.609 19.216 194.609 16.4C194.609 13.584 196.561 12.88 199.985 12.88C203.409 12.88 205.361 13.584 205.361 16.4C205.361 19.216 203.409 19.92 199.985 19.92ZM243.772 6.48C239.74 6.48 236.796 7.76 234.492 9.36V0.4H226.812V26H234.492V15.632C235.996 14.192 238.396 13.2 240.668 13.2C244.124 13.2 245.308 14.608 245.308 17.904V26H252.988V14.768C252.988 7.824 248.092 6.48 243.772 6.48ZM266.384 20.24C264.272 20.24 262.128 19.728 261.488 17.68H279.696C279.696 9.296 274.608 6.48 266.704 6.48C258.864 6.48 253.648 9.296 253.648 16.4C253.648 23.504 258.864 26.32 266.384 26.32C274.288 26.32 278.416 23.888 279.376 18.8H271.856C270.288 20.048 269.168 20.24 266.384 20.24ZM266.672 11.92C268.72 11.92 270.64 12.112 271.504 13.84H261.84C262.704 12.112 264.624 11.92 266.672 11.92ZM280.656 0.4V26H288.336V0.4H280.656ZM305.24 6.48C302.264 6.48 299.32 7.376 297.304 9.424V6.8H289.624V34H297.304V23.376C299.32 25.424 302.264 26.32 305.24 26.32C310.2 26.32 315.736 24.144 315.736 16.4C315.736 8.656 310.2 6.48 305.24 6.48ZM302.68 19.92C299.256 19.92 297.304 19.216 297.304 16.4C297.304 13.584 299.256 12.88 302.68 12.88C306.104 12.88 308.056 13.584 308.056 16.4C308.056 19.216 306.104 19.92 302.68 19.92ZM348.411 6.8L343.067 20.144L337.499 6.8H329.179L337.179 26H340.699L337.499 34H345.819L356.731 6.8H348.411ZM367.86 26.32C376.02 26.32 380.916 23.504 380.916 16.4C380.916 9.296 376.02 6.48 367.86 6.48C359.7 6.48 354.804 9.296 354.804 16.4C354.804 23.504 359.7 26.32 367.86 26.32ZM367.86 19.92C364.436 19.92 362.484 19.216 362.484 16.4C362.484 13.584 364.436 12.88 367.86 12.88C371.284 12.88 373.236 13.584 373.236 16.4C373.236 19.216 371.284 19.92 367.86 19.92ZM400.37 6.8V17.168C398.866 18.608 396.466 19.6 394.194 19.6C390.738 19.6 389.554 18.192 389.554 14.896V6.8H381.874V18.032C381.874 24.976 386.77 26.32 391.09 26.32C395.122 26.32 398.066 25.04 400.37 23.44V26H408.05V6.8H400.37ZM424.479 6.48C421.343 6.48 418.719 7.472 417.023 10V6.8H409.343V26H417.023V15.632C419.231 13.2 422.207 12.88 424.927 12.88C426.335 12.88 427.775 13.072 429.567 13.52V7.12C428.287 6.8 426.719 6.48 424.479 6.48ZM458.959 6.48C455.983 6.48 453.039 7.376 451.023 9.424V0.4H443.343V26H451.023V23.376C453.039 25.424 455.983 26.32 458.959 26.32C463.919 26.32 469.455 24.144 469.455 16.4C469.455 8.656 463.919 6.48 458.959 6.48ZM456.399 19.92C452.975 19.92 451.023 19.216 451.023 16.4C451.023 13.584 452.975 12.88 456.399 12.88C459.823 12.88 461.775 13.584 461.775 16.4C461.775 19.216 459.823 19.92 456.399 19.92ZM488.902 6.8V17.168C487.398 18.608 484.998 19.6 482.726 19.6C479.27 19.6 478.086 18.192 478.086 14.896V6.8H470.406V18.032C470.406 24.976 475.302 26.32 479.622 26.32C483.654 26.32 486.598 25.04 488.902 23.44V26H496.582V6.8H488.902ZM497.554 19.376C497.554 25.392 503.954 26.32 511.218 26.32C518.482 26.32 523.602 25.392 523.602 19.536C523.602 14.512 518.77 14.064 511.218 13.68C506.354 13.424 505.554 13.456 505.554 12.656C505.554 11.92 506.674 11.92 510.578 11.92C514.002 11.92 515.282 11.92 515.282 12.944H522.962C522.962 7.408 518.002 6.48 510.898 6.48C503.794 6.48 497.874 7.408 497.874 12.88C497.874 17.776 501.746 18.448 510.578 18.8C515.186 18.992 515.922 18.896 515.922 19.856C515.922 20.688 515.186 20.88 510.898 20.88C506.258 20.88 505.234 20.464 505.234 19.376H497.554ZM524.562 0.4V5.52H532.242V0.4H524.562ZM524.562 6.8V26H532.242V6.8H524.562ZM550.491 6.48C546.459 6.48 543.515 7.76 541.211 9.36V6.8H533.531V26H541.211V15.632C542.715 14.192 545.115 13.2 547.387 13.2C550.843 13.2 552.027 14.608 552.027 17.904V26H559.707V14.768C559.707 7.824 554.811 6.48 550.491 6.48ZM573.103 20.24C570.991 20.24 568.847 19.728 568.207 17.68H586.415C586.415 9.296 581.327 6.48 573.423 6.48C565.583 6.48 560.367 9.296 560.367 16.4C560.367 23.504 565.583 26.32 573.103 26.32C581.007 26.32 585.135 23.888 586.095 18.8H578.575C577.007 20.048 575.887 20.24 573.103 20.24ZM573.391 11.92C575.439 11.92 577.359 12.112 578.223 13.84H568.559C569.423 12.112 571.343 11.92 573.391 11.92ZM586.742 19.376C586.742 25.392 593.142 26.32 600.406 26.32C607.67 26.32 612.79 25.392 612.79 19.536C612.79 14.512 607.958 14.064 600.406 13.68C595.542 13.424 594.742 13.456 594.742 12.656C594.742 11.92 595.862 11.92 599.766 11.92C603.19 11.92 604.47 11.92 604.47 12.944H612.15C612.15 7.408 607.19 6.48 600.086 6.48C592.982 6.48 587.062 7.408 587.062 12.88C587.062 17.776 590.934 18.448 599.766 18.8C604.374 18.992 605.11 18.896 605.11 19.856C605.11 20.688 604.374 20.88 600.086 20.88C595.446 20.88 594.422 20.464 594.422 19.376H586.742ZM613.429 19.376C613.429 25.392 619.829 26.32 627.093 26.32C634.357 26.32 639.477 25.392 639.477 19.536C639.477 14.512 634.645 14.064 627.093 13.68C622.229 13.424 621.429 13.456 621.429 12.656C621.429 11.92 622.549 11.92 626.453 11.92C629.877 11.92 631.157 11.92 631.157 12.944H638.837C638.837 7.408 633.877 6.48 626.773 6.48C619.669 6.48 613.749 7.408 613.749 12.88C613.749 17.776 617.621 18.448 626.453 18.8C631.061 18.992 631.797 18.896 631.797 19.856C631.797 20.688 631.061 20.88 626.773 20.88C622.133 20.88 621.109 20.464 621.109 19.376H613.429ZM671.361 6.8V9.68C669.697 7.664 666.977 6.48 663.105 6.48C657.185 6.48 652.929 9.296 652.929 15.76C652.929 22.224 657.185 25.04 663.105 25.04C666.977 25.04 669.697 23.856 671.361 21.84C671.297 26.704 669.281 27.6 665.537 27.6C661.377 27.6 657.153 26.672 654.945 26.256V32.496C656.769 32.976 661.473 34 666.945 34C673.537 34 679.041 31.216 679.041 23.536V6.8H671.361ZM665.985 18.64C661.921 18.64 660.609 17.936 660.609 15.76C660.609 13.584 661.921 12.88 665.985 12.88C670.049 12.88 671.361 13.584 671.361 15.76C671.361 17.936 670.049 18.64 665.985 18.64ZM695.448 6.48C692.312 6.48 689.688 7.472 687.992 10V6.8H680.312V26H687.992V15.632C690.2 13.2 693.176 12.88 695.896 12.88C697.304 12.88 698.744 13.072 700.536 13.52V7.12C699.256 6.8 697.688 6.48 695.448 6.48ZM713.923 26.32C722.083 26.32 726.979 23.504 726.979 16.4C726.979 9.296 722.083 6.48 713.923 6.48C705.763 6.48 700.867 9.296 700.867 16.4C700.867 23.504 705.763 26.32 713.923 26.32ZM713.923 19.92C710.499 19.92 708.547 19.216 708.547 16.4C708.547 13.584 710.499 12.88 713.923 12.88C717.347 12.88 719.299 13.584 719.299 16.4C719.299 19.216 717.347 19.92 713.923 19.92ZM759.038 6.8L754.59 18.896L750.366 6.8H742.366L738.142 18.896L733.694 6.8H725.054L733.054 26H742.366L746.366 15.984L750.366 26H759.678L767.678 6.8H759.038Z" fill="black"/>
</svg>
