<svg width="25" height="24" viewBox="0 0 25 24" fill="none" xmlns="http://www.w3.org/2000/svg">
<g clip-path="url(#clip0_151_7160)">
<path d="M12.9854 0C6.35301 0 0.985352 5.36705 0.985352 12C0.985352 18.6323 6.3524 24 12.9854 24C19.6177 24 24.9854 18.633 24.9854 12C24.9854 5.36766 19.6183 0 12.9854 0ZM18.3921 12.8H13.7854V17.4068C13.7854 17.8486 13.4272 18.2068 12.9854 18.2068C12.5435 18.2068 12.1853 17.8486 12.1853 17.4068V12.8H7.57855C7.13676 12.8 6.77854 12.4418 6.77854 12C6.77854 11.5582 7.13671 11.2 7.57855 11.2H12.1853V6.5932C12.1853 6.15141 12.5435 5.79319 12.9854 5.79319C13.4272 5.79319 13.7854 6.15136 13.7854 6.5932V11.2H18.3921C18.8339 11.2 19.1922 11.5582 19.1922 12C19.1922 12.4418 18.8339 12.8 18.3921 12.8Z" fill="black"/>
</g>
<defs>
<clipPath id="clip0_151_7160">
<rect width="24" height="24" fill="white" transform="translate(0.985352)"/>
</clipPath>
</defs>
</svg>
