<svg width="60" height="71" viewBox="0 0 60 71" fill="none" xmlns="http://www.w3.org/2000/svg">
<circle cx="30" cy="30.7568" r="30" fill="#FDEEEC"/>
<g clip-path="url(#clip0_181_9034)">
<path d="M30.87 49.9669H29.13C28.8615 49.9669 28.6039 49.8603 28.4141 49.6704C28.2242 49.4805 28.1175 49.223 28.1175 48.9544C28.1175 48.6859 28.2242 48.4284 28.4141 48.2385C28.6039 48.0486 28.8615 47.9419 29.13 47.9419H33.135C33.3578 47.9636 33.5826 47.9383 33.7951 47.8679C34.0076 47.7974 34.203 47.6833 34.3687 47.5329C34.5344 47.3824 34.6669 47.199 34.7575 46.9943C34.8482 46.7896 34.895 46.5683 34.895 46.3444C34.895 46.1206 34.8482 45.8992 34.7575 45.6946C34.6669 45.4899 34.5344 45.3064 34.3687 45.156C34.203 45.0056 34.0076 44.8915 33.7951 44.821C33.5826 44.7506 33.3578 44.7253 33.135 44.7469H31.635V43.9219C31.5965 43.525 31.4116 43.1565 31.1162 42.8885C30.8209 42.6204 30.4363 42.4719 30.0375 42.4719C29.6387 42.4719 29.2541 42.6204 28.9588 42.8885C28.6635 43.1565 28.4785 43.525 28.44 43.9219V44.8219C27.4015 44.9994 26.4676 45.5606 25.8235 46.3944C25.1794 47.2282 24.8722 48.2735 24.9628 49.3232C25.0535 50.3729 25.5353 51.3501 26.3127 52.0612C27.0902 52.7722 28.1064 53.1651 29.16 53.1619H30.9C31.1685 53.1619 31.4261 53.2686 31.6159 53.4585C31.8058 53.6484 31.9125 53.9059 31.9125 54.1744C31.9125 54.443 31.8058 54.7005 31.6159 54.8904C31.4261 55.0803 31.1685 55.1869 30.9 55.1869H26.865C26.6422 55.1653 26.4174 55.1906 26.2049 55.261C25.9924 55.3315 25.797 55.4456 25.6313 55.596C25.4656 55.7464 25.3331 55.9299 25.2425 56.1346C25.1518 56.3392 25.105 56.5606 25.105 56.7844C25.105 57.0083 25.1518 57.2296 25.2425 57.4343C25.3331 57.639 25.4656 57.8224 25.6313 57.9729C25.797 58.1233 25.9924 58.2374 26.2049 58.3079C26.4174 58.3783 26.6422 58.4036 26.865 58.3819H28.365V59.2069C28.4035 59.6039 28.5885 59.9723 28.8838 60.2404C29.1791 60.5085 29.5637 60.657 29.9625 60.657C30.3613 60.657 30.7459 60.5085 31.0412 60.2404C31.3365 59.9723 31.5215 59.6039 31.56 59.2069V58.3069C32.5985 58.1295 33.5324 57.5683 34.1765 56.7345C34.8206 55.9007 35.1278 54.8553 35.0372 53.8057C34.9465 52.756 34.4647 51.7787 33.6873 51.0677C32.9098 50.3566 31.8936 49.9638 30.84 49.9669H30.87Z" fill="#181A1F"/>
<path d="M36.09 33.3919L35.07 29.8819C34.8767 29.2314 34.4823 28.6588 33.9433 28.2465C33.4043 27.8341 32.7484 27.6032 32.07 27.5869H31.665C31.6637 27.3756 31.704 27.1662 31.7838 26.9705C31.8636 26.7749 31.9813 26.597 32.13 26.4469C32.268 26.2867 32.4417 26.1612 32.6371 26.0804C32.8325 25.9996 33.0442 25.9659 33.255 25.9819H36.435C37.2877 25.9859 38.1042 26.3274 38.7057 26.9318C39.3073 27.5361 39.645 28.3542 39.645 29.2069C39.6835 29.6039 39.8685 29.9723 40.1638 30.2404C40.4591 30.5084 40.8437 30.6569 41.2425 30.6569C41.6413 30.6569 42.0259 30.5084 42.3212 30.2404C42.6165 29.9723 42.8015 29.6039 42.84 29.2069C42.842 28.3606 42.677 27.5222 42.3545 26.7397C42.032 25.9573 41.5583 25.2461 40.9605 24.647C40.3628 24.0478 39.6527 23.5725 38.871 23.2482C38.0893 22.9238 37.2513 22.7569 36.405 22.7569H33.195C32.5657 22.7535 31.9421 22.8751 31.3602 23.1146C30.7782 23.3541 30.2496 23.7066 29.805 24.1519C28.9034 25.0559 28.3965 26.2802 28.395 27.5569H27.99C27.3116 27.5732 26.6557 27.8041 26.1167 28.2165C25.5777 28.6288 25.1832 29.2014 24.99 29.8519L23.97 33.3619C19.6534 34.8089 15.992 37.7438 13.6402 41.6421C11.2885 45.5403 10.3998 50.1479 11.1328 54.6412C11.8659 59.1345 14.173 63.2207 17.6417 66.1694C21.1105 69.1181 25.5148 70.7371 30.0675 70.7371C34.6202 70.7371 39.0245 69.1181 42.4933 66.1694C45.962 63.2207 48.2691 59.1345 49.0022 54.6412C49.7352 50.1479 48.8465 45.5403 46.4947 41.6421C44.143 37.7438 40.4816 34.8089 36.165 33.3619L36.09 33.3919ZM27.99 30.7819H31.995L32.655 33.0469H27.345L27.99 30.7819ZM30 67.5619C26.1699 67.5389 22.4753 66.1419 19.5883 63.625C16.7012 61.1081 14.8135 57.6385 14.2686 53.8473C13.7236 50.0562 14.5576 46.1953 16.6188 42.9671C18.68 39.7389 21.8315 37.3578 25.5 36.2569H34.5C38.1685 37.3578 41.32 39.7389 43.3812 42.9671C45.4424 46.1953 46.2764 50.0562 45.7314 53.8473C45.1865 57.6385 43.2988 61.1081 40.4117 63.625C37.5247 66.1419 33.8301 67.5389 30 67.5619Z" fill="#181A1F"/>
<path d="M43.26 33.5119L44.85 35.1169C45.1527 35.4128 45.5592 35.5785 45.9825 35.5785C46.4058 35.5785 46.8123 35.4128 47.115 35.1169C47.4145 34.8161 47.5827 34.4089 47.5827 33.9844C47.5827 33.5599 47.4145 33.1527 47.115 32.8519L45.525 31.2619C45.2186 30.9931 44.8215 30.8509 44.4141 30.8641C44.0067 30.8774 43.6197 31.0452 43.3315 31.3334C43.0433 31.6216 42.8755 32.0086 42.8622 32.416C42.8489 32.8234 42.9912 33.2206 43.26 33.5269V33.5119Z" fill="#181A1F"/>
<path d="M45.195 29.9868C45.4039 29.987 45.6107 29.946 45.8038 29.8663C45.9968 29.7865 46.1722 29.6694 46.32 29.5218L47.925 27.9168C48.09 27.772 48.2236 27.5949 48.3174 27.3963C48.4113 27.1978 48.4634 26.9822 48.4705 26.7627C48.4777 26.5433 48.4397 26.3247 48.359 26.1205C48.2783 25.9163 48.1565 25.7308 48.0013 25.5756C47.846 25.4203 47.6605 25.2986 47.4563 25.2178C47.2522 25.1371 47.0336 25.0992 46.8141 25.1063C46.5947 25.1135 46.379 25.1656 46.1805 25.2594C45.982 25.3532 45.8048 25.4868 45.66 25.6518L44.055 27.2568C43.8345 27.4812 43.6847 27.7654 43.6244 28.0742C43.5641 28.3829 43.5958 28.7026 43.7157 28.9935C43.8355 29.2843 44.0382 29.5336 44.2986 29.7102C44.5589 29.8868 44.8654 29.983 45.18 29.9868H45.195Z" fill="#181A1F"/>
</g>
<defs>
<clipPath id="clip0_181_9034">
<rect width="48" height="48" fill="white" transform="translate(6 22.7568)"/>
</clipPath>
</defs>
</svg>
