<svg width="60" height="71" viewBox="0 0 60 71" fill="none" xmlns="http://www.w3.org/2000/svg">
<circle cx="30" cy="30.7568" r="30" fill="#FDEEEC"/>
<g clip-path="url(#clip0_181_9041)">
<path d="M50.0597 41.9011L51.4212 39.6318H52.5938C53.3704 39.6318 54 39.0022 54 38.2256C54 37.449 53.3704 36.8193 52.5938 36.8193H50.625C50.131 36.8193 49.6733 37.0786 49.4192 37.5021L48.2742 39.4103L46.386 32.8015C45.6425 30.1993 43.233 28.3818 40.5267 28.3818H19.4733C16.767 28.3818 14.3575 30.1993 13.614 32.8016L11.7258 39.4104L10.5808 37.5022C10.3267 37.0786 9.86897 36.8193 9.375 36.8193H7.40625C6.62962 36.8193 6 37.449 6 38.2256C6 39.0022 6.62962 39.6318 7.40625 39.6318H8.57878L9.94031 41.9011C7.64006 42.773 6 44.9984 6 47.6006V58.1006C6 58.8772 6.62962 59.5068 7.40625 59.5068H9.84375V61.8506C9.84375 63.6599 11.3157 65.1318 13.125 65.1318H16.875C18.6843 65.1318 20.1562 63.6599 20.1562 61.8506V59.5068H39.8438V61.8506C39.8438 63.6599 41.3157 65.1318 43.125 65.1318H46.875C48.6843 65.1318 50.1562 63.6599 50.1562 61.8506V59.5068H52.5938C53.3704 59.5068 54 58.8772 54 58.1006V47.6006C54 44.9984 52.3599 42.773 50.0597 41.9011ZM16.3183 33.5742C16.7186 32.173 18.016 31.1943 19.4733 31.1943H40.5267C41.984 31.1943 43.2814 32.173 43.6817 33.5742L45.9482 41.5068H43.4523C42.799 38.3013 39.958 35.8818 36.5625 35.8818C33.167 35.8818 30.3261 38.3013 29.6727 41.5068H14.0518L16.3183 33.5742ZM32.5847 41.5068C33.1651 39.8699 34.7291 38.6943 36.5625 38.6943C38.3959 38.6943 39.9599 39.8699 40.5403 41.5068H32.5847ZM17.3438 61.8506C17.3438 62.1091 17.1335 62.3193 16.875 62.3193H13.125C12.8665 62.3193 12.6562 62.1091 12.6562 61.8506V59.5068H17.3438V61.8506ZM25.7812 56.6943V52.7568H34.2188V56.6943H25.7812ZM47.3438 61.8506C47.3438 62.1091 47.1335 62.3193 46.875 62.3193H43.125C42.8665 62.3193 42.6562 62.1091 42.6562 61.8506V59.5068H47.3438V61.8506ZM51.1875 56.6943H37.0312V51.3506C37.0312 50.574 36.4016 49.9443 35.625 49.9443H24.375C23.5984 49.9443 22.9688 50.574 22.9688 51.3506V56.6943H8.8125V47.6006C8.8125 45.7913 10.2845 44.3193 12.0938 44.3193H12.1816C12.184 44.3193 12.1864 44.3195 12.1888 44.3195C12.1912 44.3195 12.1934 44.3193 12.1957 44.3193H47.8042C47.8066 44.3193 47.8088 44.3195 47.8112 44.3195C47.8136 44.3195 47.816 44.3193 47.8184 44.3193H47.9062C49.7155 44.3193 51.1875 45.7913 51.1875 47.6006V56.6943Z" fill="#181A1F"/>
<path d="M44.0625 46.2881C41.7363 46.2881 39.8438 48.1806 39.8438 50.5068C39.8438 52.8331 41.7363 54.7256 44.0625 54.7256C46.3887 54.7256 48.2812 52.8331 48.2812 50.5068C48.2812 48.1806 46.3887 46.2881 44.0625 46.2881ZM44.0625 51.9131C43.2871 51.9131 42.6562 51.2822 42.6562 50.5068C42.6562 49.7314 43.2871 49.1006 44.0625 49.1006C44.8379 49.1006 45.4688 49.7314 45.4688 50.5068C45.4688 51.2822 44.8379 51.9131 44.0625 51.9131Z" fill="#181A1F"/>
<path d="M15.9375 46.2881C13.6113 46.2881 11.7188 48.1806 11.7188 50.5068C11.7188 52.8331 13.6113 54.7256 15.9375 54.7256C18.2637 54.7256 20.1562 52.8331 20.1562 50.5068C20.1562 48.1806 18.2637 46.2881 15.9375 46.2881ZM15.9375 51.9131C15.1621 51.9131 14.5312 51.2822 14.5312 50.5068C14.5312 49.7314 15.1621 49.1006 15.9375 49.1006C16.7129 49.1006 17.3438 49.7314 17.3438 50.5068C17.3438 51.2822 16.7129 51.9131 15.9375 51.9131Z" fill="#181A1F"/>
</g>
<defs>
<clipPath id="clip0_181_9041">
<rect width="48" height="48" fill="white" transform="translate(6 22.7568)"/>
</clipPath>
</defs>
</svg>
