<svg width="77" height="77" viewBox="0 0 77 77" fill="none" xmlns="http://www.w3.org/2000/svg">
<path fill-rule="evenodd" clip-rule="evenodd" d="M38.5 77C17.237 77 0 59.763 0 38.5C0 17.237 17.237 0 38.5 0C59.763 0 77 17.237 77 38.5C77 59.763 59.763 77 38.5 77ZM28 28H25.8157C23.7355 28 22.9812 28.2166 22.2207 28.6233C21.4602 29.03 20.8634 29.6269 20.4566 30.3874C20.0499 31.1479 19.8333 31.9022 19.8333 33.9824V47.6843C19.8333 49.7645 20.0499 50.5188 20.4566 51.2793C20.8634 52.0398 21.4602 52.6366 22.2207 53.0434C22.9812 53.4501 23.7355 53.6667 25.8157 53.6667H51.1843C53.2645 53.6667 54.0188 53.4501 54.7793 53.0434C55.5398 52.6366 56.1366 52.0398 56.5433 51.2793C56.9501 50.5188 57.1667 49.7645 57.1667 47.6843V33.9824C57.1667 31.9022 56.9501 31.1479 56.5433 30.3874C56.1366 29.6269 55.5398 29.03 54.7793 28.6233C54.0188 28.2166 53.2645 28 51.1843 28H49L45.3157 22.4736C44.9231 21.8846 44.7527 21.6955 44.5317 21.5128C44.3107 21.3301 44.0712 21.2019 43.7966 21.1194C43.522 21.0368 43.2702 21 42.5623 21H34.4377C33.7298 21 33.478 21.0368 33.2034 21.1194C32.9288 21.2019 32.6893 21.3301 32.4683 21.5128C32.2473 21.6955 32.0769 21.8846 31.6843 22.4736L28 28ZM34.2911 33.8333H33.25C32.2835 33.8333 31.5 33.0498 31.5 32.0833C31.5 31.1168 32.2835 30.3333 33.25 30.3333H39.0833C40.0498 30.3333 40.8333 31.1168 40.8333 32.0833V37.9167C40.8333 38.8832 40.0498 39.6667 39.0833 39.6667C38.1168 39.6667 37.3333 38.8832 37.3333 37.9167V36.3137C35.3206 36.8317 33.8333 38.6589 33.8333 40.8333C33.8333 43.4107 35.9227 45.5 38.5 45.5C41.0773 45.5 43.1667 43.4107 43.1667 40.8333H43.2662C43.2018 40.6509 43.1667 40.4545 43.1667 40.25C43.1667 39.2835 43.9502 38.5 44.9167 38.5C45.8832 38.5 46.6667 39.2835 46.6667 40.25C46.6667 40.4545 46.6316 40.6509 46.5671 40.8333H46.6667C46.6667 45.3437 43.0103 49 38.5 49C33.9897 49 30.3333 45.3437 30.3333 40.8333C30.3333 37.8626 31.9195 35.2624 34.2911 33.8333Z" fill="#88A1AC"/>
</svg>
