<svg width="60" height="71" viewBox="0 0 60 71" fill="none" xmlns="http://www.w3.org/2000/svg">
<circle cx="30" cy="30.7568" r="30" fill="#FDEEEC"/>
<g clip-path="url(#clip0_181_9027)">
<path d="M30 70.7567C29.1588 70.7593 28.3315 70.5421 27.6 70.1267L19.59 65.5217C16.8955 63.9696 14.6566 61.7361 13.098 59.0453C11.5394 56.3546 10.7158 53.3013 10.71 50.1917V34.1867C10.7199 33.2748 10.987 32.3842 11.4806 31.6173C11.9741 30.8505 12.6741 30.2385 13.5 29.8517L26.52 23.5517C27.6071 23.0247 28.7994 22.751 30.0075 22.751C31.2156 22.751 32.4079 23.0247 33.495 23.5517L46.5 29.8517C47.317 30.2481 48.0061 30.8661 48.4888 31.6352C48.9715 32.4044 49.2283 33.2937 49.23 34.2017V50.1917C49.2242 53.3013 48.4006 56.3546 46.842 59.0453C45.2834 61.7361 43.0445 63.9696 40.35 65.5217L32.4 70.1117C31.6697 70.5317 30.8425 70.754 30 70.7567ZM30 25.9667C29.2777 25.9678 28.565 26.1319 27.915 26.4467L14.835 32.7467C14.5544 32.8822 14.3188 33.0958 14.1565 33.3619C13.9942 33.6279 13.9121 33.9352 13.92 34.2467V50.1917C13.9246 52.7349 14.5977 55.2322 15.872 57.4332C17.1462 59.6342 18.9767 61.4614 21.18 62.7317L29.19 67.3217C29.4345 67.4611 29.7111 67.5345 29.9925 67.5345C30.2739 67.5345 30.5505 67.4611 30.795 67.3217L38.805 62.7317C41.0083 61.4614 42.8388 59.6342 44.113 57.4332C45.3873 55.2322 46.0604 52.7349 46.065 50.1917V34.1867C46.0729 33.8752 45.9908 33.5679 45.8285 33.3019C45.6662 33.0358 45.4306 32.8222 45.15 32.6867L32.085 26.4467C31.435 26.1319 30.7223 25.9678 30 25.9667Z" fill="#181A1F"/>
<path d="M28.395 53.0568C28.1837 53.0581 27.9743 53.0177 27.7786 52.9379C27.583 52.8581 27.4051 52.7405 27.255 52.5917L22.5 47.7768C22.1977 47.4744 22.0278 47.0643 22.0278 46.6368C22.0278 46.2092 22.1977 45.7991 22.5 45.4967C22.8023 45.1944 23.2124 45.0245 23.64 45.0245C24.0676 45.0245 24.4777 45.1944 24.78 45.4967L28.5 49.2768L37.005 42.2567C37.3283 42.0976 37.6958 42.0519 38.0483 42.127C38.4007 42.2022 38.7176 42.3937 38.948 42.6708C39.1783 42.9479 39.3087 43.2945 39.3182 43.6548C39.3276 44.015 39.2155 44.3679 39 44.6568L29.415 52.7568C29.119 52.9697 28.7592 53.0755 28.395 53.0568Z" fill="#181A1F"/>
</g>
<defs>
<clipPath id="clip0_181_9027">
<rect width="48" height="48" fill="white" transform="translate(6 22.7568)"/>
</clipPath>
</defs>
</svg>
