<svg width="90" height="90" viewBox="0 0 90 90" fill="none" xmlns="http://www.w3.org/2000/svg">
<rect x="0.5" y="0.5" width="89" height="89" rx="17.5" fill="#F6F6F6" stroke="#E5E5E5"/>
<g clip-path="url(#clip0_141_6060)">
<path d="M45 66C38.2275 65.8819 29.6044 50.9719 29.6044 39.3956C29.5596 37.3616 29.9272 35.3395 30.685 33.4514C31.4429 31.5632 32.5752 29.8481 34.0139 28.4095C35.4525 26.9709 37.1676 25.8385 39.0557 25.0806C40.9439 24.3228 42.9659 23.9552 45 24C47.034 23.9552 49.0561 24.3228 50.9442 25.0806C52.8324 25.8385 54.5475 26.9709 55.9861 28.4095C57.4247 29.8481 58.5571 31.5632 59.315 33.4514C60.0728 35.3395 60.4404 37.3616 60.3956 39.3956C60.3956 48.2681 55.5131 58.3744 50.7881 63.0206C48.78 65.0025 46.8506 66 45 66ZM45 26.7956C43.33 26.7389 41.6662 27.026 40.1119 27.6392C38.5575 28.2523 37.1458 29.1784 35.9642 30.3599C34.7827 31.5414 33.8567 32.9531 33.2435 34.5075C32.6304 36.0619 32.3433 37.7257 32.4 39.3956C32.4 50.4862 40.6294 63.1256 45.0262 63.1912C46.512 62.9444 47.8613 62.1767 48.8325 61.0256C53.0456 56.8781 57.6 47.4281 57.6 39.3956C57.6567 37.7257 57.3696 36.0619 56.7565 34.5075C56.1433 32.9531 55.2173 31.5414 54.0357 30.3599C52.8542 29.1784 51.4425 28.2523 49.8881 27.6392C48.3337 27.026 46.6699 26.7389 45 26.7956Z" fill="#181A1F"/>
<path d="M45 46.4044C43.6164 46.4044 42.2639 45.9941 41.1135 45.2254C39.963 44.4567 39.0664 43.3642 38.5369 42.0859C38.0074 40.8076 37.8689 39.401 38.1388 38.044C38.4087 36.687 39.075 35.4405 40.0534 34.4621C41.0317 33.4838 42.2782 32.8175 43.6352 32.5476C44.9923 32.2776 46.3989 32.4162 47.6771 32.9457C48.9554 33.4751 50.048 34.3718 50.8167 35.5222C51.5854 36.6726 51.9956 38.0252 51.9956 39.4088C51.9922 41.2631 51.254 43.0404 49.9428 44.3516C48.6317 45.6628 46.8543 46.4009 45 46.4044ZM45 35.2088C44.1693 35.2088 43.3573 35.4551 42.6666 35.9166C41.9759 36.3781 41.4376 37.0341 41.1197 37.8015C40.8018 38.569 40.7187 39.4134 40.8807 40.2282C41.0428 41.0429 41.4428 41.7912 42.0302 42.3786C42.6176 42.966 43.3659 43.366 44.1806 43.5281C44.9954 43.6901 45.8398 43.607 46.6073 43.2891C47.3747 42.9712 48.0307 42.4329 48.4922 41.7422C48.9537 41.0515 49.2 40.2395 49.2 39.4088C49.2018 38.8561 49.0944 38.3086 48.8841 37.7975C48.6738 37.2864 48.3647 36.8218 47.9745 36.4304C47.5843 36.039 47.1208 35.7285 46.6103 35.5166C46.0999 35.3047 45.5527 35.1956 45 35.1956V35.2088Z" fill="#181A1F"/>
</g>
<defs>
<clipPath id="clip0_141_6060">
<rect width="42" height="42" fill="white" transform="translate(24 24)"/>
</clipPath>
</defs>
</svg>
