<svg width="21" height="20" viewBox="0 0 21 20" fill="none" xmlns="http://www.w3.org/2000/svg">
<g clip-path="url(#clip0_42_931)">
<path d="M20.3066 18.8625L15.7441 14.3C17.2069 12.5932 17.9518 10.3861 17.8223 8.14189C17.6928 5.89771 16.6991 3.79091 15.0497 2.26362C13.4003 0.736328 11.2235 -0.092719 8.97598 -0.0495418C6.72849 -0.00636454 4.58507 0.905681 2.99556 2.49519C1.40605 4.08471 0.494002 6.22812 0.450824 8.47562C0.407647 10.7231 1.23669 12.9 2.76398 14.5494C4.29128 16.1988 6.39807 17.1925 8.64226 17.3219C10.8864 17.4514 13.0935 16.7066 14.8004 15.2437L19.3629 19.8062C19.4905 19.9183 19.656 19.9775 19.8257 19.972C19.9955 19.9665 20.1568 19.8966 20.2768 19.7765C20.3969 19.6564 20.4668 19.4951 20.4724 19.3254C20.4779 19.1556 20.4186 18.9901 20.3066 18.8625ZM1.83162 8.66875C1.83162 7.21903 2.26143 5.80186 3.06672 4.59638C3.87202 3.3909 5.01663 2.45123 6.35588 1.89616C7.69512 1.34109 9.16887 1.19554 10.5908 1.47792C12.0128 1.76029 13.3191 2.4579 14.3446 3.48257C15.3702 4.50724 16.0689 5.81296 16.3525 7.23467C16.6361 8.65638 16.4918 10.1303 15.9378 11.47C15.3839 12.8097 14.4452 13.9551 13.2404 14.7614C12.0356 15.5677 10.6188 15.9988 9.16912 16C7.22468 15.9983 5.36026 15.2256 3.98475 13.8513C2.60924 12.4769 1.83493 10.6132 1.83162 8.66875Z" fill="white"/>
</g>
<defs>
<clipPath id="clip0_42_931">
<rect width="20" height="20" fill="white" transform="translate(0.5)"/>
</clipPath>
</defs>
</svg>
