<svg width="24" height="24" viewBox="0 0 24 24" fill="none" xmlns="http://www.w3.org/2000/svg">
<path d="M17.6865 15.56C18.0804 15.56 18.3998 15.2406 18.3998 14.8467C18.3998 14.4527 18.0804 14.1333 17.6865 14.1333C17.2925 14.1333 16.9731 14.4527 16.9731 14.8467C16.9731 15.2406 17.2925 15.56 17.6865 15.56Z" fill="#181A1F"/>
<path d="M20.5335 9.86666H18.4002V4.88666C18.3977 4.32153 18.1726 3.78015 17.7735 3.37999C17.5762 3.18119 17.3415 3.02345 17.0829 2.91589C16.8243 2.80833 16.5469 2.75308 16.2668 2.75333H7.7335C7.1677 2.75333 6.62508 2.97809 6.225 3.37817C5.82492 3.77824 5.60016 4.32087 5.60016 4.88666V9.86666H3.46683C2.90103 9.86666 2.35841 10.0914 1.95833 10.4915C1.55826 10.8916 1.3335 11.4342 1.3335 12V19.1133C1.3335 19.6791 1.55826 20.2217 1.95833 20.6218C2.35841 21.0219 2.90103 21.2467 3.46683 21.2467H20.5335C21.0993 21.2467 21.6419 21.0219 22.042 20.6218C22.4421 20.2217 22.6668 19.6791 22.6668 19.1133V12C22.6668 11.4342 22.4421 10.8916 22.042 10.4915C21.6419 10.0914 21.0993 9.86666 20.5335 9.86666ZM7.02016 4.88666C7.02192 4.69863 7.09785 4.5189 7.23144 4.38656C7.36502 4.25422 7.54546 4.17999 7.7335 4.17999H16.2668C16.456 4.17999 16.6375 4.25515 16.7712 4.38892C16.905 4.5227 16.9802 4.70414 16.9802 4.89333V9.86666H7.02016V4.88666ZM21.2468 19.1133C21.2468 19.3025 21.1717 19.484 21.0379 19.6177C20.9041 19.7515 20.7227 19.8267 20.5335 19.8267H3.46683C3.27764 19.8267 3.0962 19.7515 2.96243 19.6177C2.82865 19.484 2.7535 19.3025 2.7535 19.1133V12C2.7535 11.8108 2.82865 11.6294 2.96243 11.4956C3.0962 11.3618 3.27764 11.2867 3.46683 11.2867H20.5335C20.7227 11.2867 20.9041 11.3618 21.0379 11.4956C21.1717 11.6294 21.2468 11.8108 21.2468 12V19.1133Z" fill="#181A1F"/>
<path d="M6.31348 16.98H17.6935V18.4H6.31348V16.98Z" fill="#181A1F"/>
</svg>
