<svg width="60" height="60" viewBox="0 0 60 60" fill="none" xmlns="http://www.w3.org/2000/svg">
<g clip-path="url(#clip0_166_8381)">
<path d="M50.2247 58.6717L47.0777 52.692L48.623 51.281C48.9582 50.9749 49.0097 50.4658 48.7428 50.0988L43.0401 42.2576C42.8724 42.027 42.6045 41.8906 42.3195 41.8906H41.963L41.9631 31.0494C41.9631 30.6581 41.9301 30.2747 41.8691 29.9004L44.5773 29.0982C45.012 28.9696 45.3067 28.5425 45.2335 28.0952C45.1449 27.5544 44.608 27.2303 44.1002 27.381L41.3632 28.1917C41.2906 28.0262 41.2122 27.8638 41.1274 27.7051L44.8161 25.1024C45.2181 24.8186 45.3141 24.2626 45.0304 23.8605C44.7467 23.4584 44.191 23.3624 43.7886 23.6462L40.0996 26.2492C39.837 25.9614 39.5501 25.6965 39.244 25.4546L42.1432 20.6359C42.3969 20.2142 42.2608 19.6666 41.839 19.4129C41.4173 19.1592 40.8698 19.2952 40.616 19.717L37.7186 24.5327C37.0957 24.256 36.4265 24.0665 35.7258 23.9786V17.1864C35.7258 16.6985 35.3497 16.273 34.862 16.2584C34.3574 16.2433 33.9436 16.6478 33.9436 17.1492V23.9788C33.2427 24.0665 32.5734 24.2561 31.9507 24.5329L29.0532 19.7171C28.7993 19.2955 28.2519 19.1593 27.8302 19.413C27.4085 19.6667 27.2724 20.2142 27.526 20.636L30.4253 25.4547C30.1192 25.6964 29.8323 25.9614 29.5697 26.2492L25.8807 23.6462C25.4784 23.3625 24.9227 23.4584 24.6389 23.8605C24.355 24.2627 24.4511 24.8186 24.8532 25.1024L28.5418 27.7051C28.4571 27.8638 28.3788 28.0261 28.3061 28.1917L25.5692 27.381C25.0883 27.2386 24.5831 27.5205 24.4544 28.0086C24.33 28.4804 24.6311 28.9617 25.0989 29.1002L27.8001 29.9003C27.7392 30.2746 27.7061 30.658 27.7061 31.0493L27.7066 40.4539L25.9506 39.6702L19.9542 19.2188V13.7333H21.6025C22.0946 13.7333 22.4936 13.3342 22.4936 12.8422V9.99097C22.4936 9.4989 22.0946 9.09988 21.6025 9.09988H20.4529L21.1965 2.74548C21.23 2.45884 21.1375 2.16516 20.9264 1.9684C20.5988 1.66289 20.1146 1.6493 19.775 1.90735L18.2672 3.05356L17.3982 0.61957C17.3021 0.350624 17.0938 0.128787 16.8215 0.0424194C16.3963 -0.0925811 15.9538 0.103006 15.7579 0.480468L14.2571 3.37255L12.4105 1.93043C12.179 1.7495 11.8732 1.67684 11.5916 1.7611C11.1566 1.89118 10.8999 2.31094 10.9589 2.73891L11.8388 9.10011H10.5537C10.0616 9.10011 9.6626 9.49914 9.6626 9.99121V12.8426C9.6626 13.3347 10.0616 13.7337 10.5537 13.7337H12.2021V16.4712C12.2021 18.3922 13.6477 19.9808 15.508 20.2092L16.9845 32.3707C17.0438 32.8593 17.4879 33.2073 17.9765 33.1479C18.4651 33.0886 18.8131 32.6445 18.7537 32.1559L17.3069 20.2384H18.3959L24.226 40.1228L20.3156 45.0214L19.2669 36.3836C19.2076 35.895 18.7634 35.547 18.2749 35.6064C17.7863 35.6657 17.4384 36.1098 17.4977 36.5984L18.7573 46.9734L16.3168 50.0307C16.055 50.3586 16.0574 50.8248 16.3226 51.1498L20.2216 55.9304V59.109C20.2216 59.6011 20.6206 60.0001 21.1127 60.0001H30.3128C30.313 60.0001 30.3132 60.0001 30.3135 60.0001C30.3138 60.0001 30.3142 60.0001 30.3145 60.0001H49.4478C49.8271 60.0001 50.173 59.7589 50.2961 59.383C50.3732 59.148 50.3398 58.8906 50.2247 58.6717ZM14.0057 5.43752C14.2144 5.60053 14.4851 5.66217 14.7439 5.60592C15.0027 5.54943 15.223 5.38092 15.3452 5.1456L16.3977 3.11708L16.9986 4.79943C17.0942 5.06697 17.3117 5.27299 17.5839 5.35396C17.8561 5.43494 18.1508 5.38115 18.377 5.20912L19.1861 4.59412L18.6588 9.10023H13.6381L13.0255 4.67216L14.0057 5.43752ZM18.1721 18.4562H15.9693C14.8748 18.4562 13.9843 17.5658 13.9843 16.4712V13.7337H18.1721V18.4562ZM13.0933 11.9516H11.4448V10.8824H20.7115V11.9516H19.0632H13.0933ZM34.8348 25.7035C37.3812 25.7035 39.516 27.4936 40.0507 29.8809C38.7483 28.4817 36.8926 27.6042 34.8348 27.6042C32.777 27.6042 30.9211 28.4817 29.6188 29.8809C30.1535 27.4933 32.2884 25.7035 34.8348 25.7035ZM29.4889 38.7873C30.7963 40.2699 32.7076 41.2076 34.8348 41.2076C35.327 41.2076 35.7259 40.8086 35.7259 40.3165C35.7259 39.8244 35.327 39.4254 34.8348 39.4254C31.9966 39.4254 29.6689 37.2021 29.4995 34.4058C29.669 31.6096 31.9966 29.3863 34.8348 29.3863C37.7813 29.3863 40.1783 31.7821 40.1809 34.7279V41.8907H30.9258L29.4889 41.2495V38.7873ZM29.8635 58.2178H22.0038V55.9099L26.5462 49.8532C26.8414 49.4594 26.7616 48.9009 26.368 48.6056C25.9742 48.3104 25.4158 48.3901 25.1204 48.7838L21.0833 54.1668L18.1581 50.5804L25.4778 41.4111L29.353 43.1404L27.9007 45.0769C27.6055 45.4707 27.6853 46.0292 28.0789 46.3245C28.2394 46.4447 28.4269 46.5028 28.6128 46.5028C28.8838 46.5028 29.1513 46.3797 29.3264 46.1463L31.1814 43.6728H40.5583L29.8635 58.2178ZM32.0755 58.2178L42.3155 44.2913L46.8327 50.5024L43.3227 53.7074C42.9592 54.0392 42.9338 54.6028 43.2654 54.9663C43.4413 55.1587 43.6821 55.2566 43.9238 55.2566C44.1384 55.2566 44.3535 55.1796 44.5244 55.0236L45.7175 53.9342L47.9719 58.2179H32.0755V58.2178Z" fill="#181A1F"/>
<path d="M38.428 32.4912L35.038 31.6969C34.9043 31.6655 34.7651 31.6655 34.6315 31.6969L31.2413 32.4912C30.7622 32.6035 30.4647 33.0829 30.5769 33.562C30.6891 34.0412 31.1683 34.3387 31.6479 34.2265L33.9437 33.6886V35.0223C33.9437 35.5144 34.3426 35.9134 34.8348 35.9134C35.327 35.9134 35.7259 35.5144 35.7259 35.0223V33.6886L38.0216 34.2265C38.0899 34.2426 38.1582 34.2502 38.2257 34.2502C38.63 34.2502 38.9962 33.973 39.0926 33.5622C39.2045 33.0829 38.9072 32.6035 38.428 32.4912Z" fill="#181A1F"/>
</g>
<defs>
<clipPath id="clip0_166_8381">
<rect width="60" height="60" fill="white"/>
</clipPath>
</defs>
</svg>
