<svg width="40" height="40" viewBox="0 0 40 40" fill="none" xmlns="http://www.w3.org/2000/svg">
<rect width="40" height="40" rx="20" fill="#E95440"/>
<path d="M20 12C18.4178 12 16.871 12.4692 15.5554 13.3482C14.2398 14.2273 13.2145 15.4767 12.609 16.9385C12.0035 18.4003 11.845 20.0089 12.1537 21.5607C12.4624 23.1126 13.2243 24.538 14.3431 25.6569C15.462 26.7757 16.8874 27.5376 18.4393 27.8463C19.9911 28.155 21.5997 27.9965 23.0615 27.391C24.5233 26.7855 25.7727 25.7602 26.6518 24.4446C27.5308 23.129 28 21.5823 28 20C28 17.8783 27.1572 15.8434 25.6569 14.3431C24.1566 12.8429 22.1217 12 20 12ZM13.065 20C13.0627 18.2068 13.7555 16.4826 14.9979 15.1896C16.2403 13.8966 17.9355 13.1355 19.7273 13.0662C21.5191 12.9969 23.268 13.6249 24.6065 14.8182C25.945 16.0114 26.7689 17.677 26.905 19.465H25.335C25.1931 19.465 25.057 19.5214 24.9567 19.6217C24.8564 19.722 24.8 19.8581 24.8 20C24.7987 21.2726 24.2925 22.4928 23.3927 23.3927C22.4928 24.2925 21.2726 24.7987 20 24.8C19.8581 24.8 19.722 24.8564 19.6217 24.9567C19.5214 25.057 19.465 25.1931 19.465 25.335V26.91C17.7247 26.7742 16.0995 25.9875 14.9134 24.7069C13.7272 23.4262 13.0673 21.7456 13.065 20ZM20.535 26.905V25.845C21.9007 25.7189 23.1793 25.119 24.1491 24.1491C25.119 23.1793 25.7189 21.9007 25.845 20.535H26.91C26.7804 22.1821 26.067 23.7288 24.8982 24.8967C23.7295 26.0645 22.1822 26.7767 20.535 26.905Z" fill="white"/>
<path d="M21.2248 22L21.9998 21.225L20.5548 19.78V16.28H19.4648V20C19.4653 20.1405 19.5209 20.2752 19.6198 20.375L21.2248 22Z" fill="white"/>
</svg>
