<svg width="21" height="20" viewBox="0 0 21 20" fill="none" xmlns="http://www.w3.org/2000/svg">
<g clip-path="url(#clip0_9_3989)">
<path d="M15.8033 13.7794C15.5735 13.7794 15.365 13.6863 15.2142 13.5355C15.0633 13.3846 14.9701 13.1761 14.9701 12.9463L14.9701 6.70843L5.78607 15.8925C5.46021 16.2184 4.93342 16.2184 4.60756 15.8925C4.2817 15.5666 4.2817 15.0399 4.60756 14.714L13.7916 5.52992L7.55375 5.52989C7.09295 5.52989 6.72058 5.15751 6.72058 4.69671C6.72058 4.23592 7.09304 3.86345 7.55384 3.86345L15.8034 3.86345C16.2642 3.86345 16.6366 4.2358 16.6366 4.6966L16.6366 12.9462C16.6366 13.407 16.2641 13.7794 15.8033 13.7794Z" fill="white"/>
</g>
<defs>
<clipPath id="clip0_9_3989">
<rect width="20" height="20" fill="white" transform="translate(0.5)"/>
</clipPath>
</defs>
</svg>
